<svg enable-background="new 0 0 133.2 60" height="60" viewBox="0 0 133.2 60" width="133.2" xmlns="http://www.w3.org/2000/svg"><path d="M68.7 26.7 64 12.8h3.1l3 9.8 3-9.8h3l-4.7 13.9H68.7zM76.9 15.2v-2.5h2.7v2.5H76.9zM76.9 26.7V16.4h2.7v10.3H76.9zM90.1 23c-.1.6-.2 1.1-.5 1.6-.3.5-.6.9-1 1.3-.4.3-.9.6-1.4.8C86.6 26.9 86 27 85.4 27c-.7 0-1.3-.1-1.9-.3-.6-.2-1.1-.6-1.5-1.1-.4-.5-.7-1-1-1.7-.2-.7-.3-1.5-.3-2.4s.1-1.7.3-2.4c.2-.7.6-1.2 1-1.6.4-.4.9-.7 1.5-1 .6-.2 1.3-.3 2-.3.7 0 1.3.1 1.8.3.6.2 1 .4 1.4.8.4.3.7.8 1 1.3.2.5.4 1 .4 1.6h-2.8c-.1-.5-.3-.9-.6-1.2-.4-.3-.8-.5-1.3-.5-.3 0-.6 0-.8.1-.3.1-.5.3-.7.5-.2.2-.3.5-.5.9-.1.4-.2.9-.2 1.4 0 1.1.2 2 .6 2.5.4.5.9.8 1.4.8.5 0 1-.1 1.4-.4.4-.3.6-.7.7-1.3H90.1zM96.7 19.9h2.5v2.9c0 .5-.1 1.1-.2 1.6-.2.5-.4.9-.8 1.3-.3.4-.8.7-1.3.9C96.4 26.9 95.7 27 95 27c-.8 0-1.4-.1-1.9-.3-.5-.2-1-.5-1.3-.9-.3-.4-.6-.8-.7-1.3-.2-.5-.2-1-.2-1.6v-9.2h2.7v2.8h5.7v1.9h-5.7v4.2c0 .7.1 1.2.4 1.5.2.4.6.5 1.2.5.5 0 .9-.2 1.2-.5.3-.4.4-.8.4-1.5V19.9zM105.3 27c-.8 0-1.6-.1-2.2-.4-.7-.3-1.2-.6-1.7-1.1-.5-.5-.8-1.1-1-1.7-.2-.7-.4-1.4-.4-2.2 0-.8.1-1.6.4-2.2.2-.7.6-1.2 1.1-1.7.5-.5 1-.8 1.7-1.1.7-.3 1.4-.4 2.2-.4.8 0 1.5.1 2.2.4.6.3 1.2.6 1.6 1.1.5.5.8 1 1 1.7.2.7.4 1.4.4 2.2 0 .8-.1 1.6-.4 2.2-.2.7-.6 1.2-1 1.7-.5.5-1 .8-1.7 1.1S106.1 27 105.3 27zM105.3 24.7c1.7 0 2.5-1 2.5-3.2 0-2.1-.8-3.1-2.5-3.1-1.7 0-2.5 1-2.5 3.1C102.8 23.7 103.6 24.7 105.3 24.7zM111.4 26.7V16.4h2.6v1.2c.2-.4.5-.6.7-.8.2-.2.5-.3.8-.5.3-.1.5-.2.8-.2.3 0 .5 0 .8 0h.4v2.8c-.3 0-.5-.1-.8-.1-1.7 0-2.5.8-2.5 2.5v5.4H111.4zM118.1 15.2v-2.5h2.7v2.5H118.1zM118.1 26.7V16.4h2.7v10.3H118.1zM128.4 26.7c-.1-.3-.1-.6-.2-.9-.3.4-.7.7-1.3.9-.5.2-1.1.3-1.8.3-1.2 0-2.1-.3-2.6-.8-.6-.5-.8-1.2-.8-2 0-.7.1-1.3.4-1.8.2-.4.6-.8 1-1 .4-.3.9-.4 1.5-.6.6-.1 1.2-.2 1.9-.3.7-.1 1.1-.2 1.4-.4.2-.2.4-.4.4-.8 0-.3-.2-.6-.5-.8-.3-.2-.7-.3-1.3-.3-.6 0-1.1.1-1.4.4-.3.3-.4.7-.5 1.1H122c0-.5.1-1 .3-1.5.2-.4.4-.8.8-1.2.4-.3.8-.6 1.4-.7.6-.2 1.3-.3 2.1-.3.8 0 1.5.1 2.1.3.6.2 1 .4 1.4.8s.6.8.7 1.3.2 1.1.2 1.7v6.5H128.4zM128.2 21.7c-.1.1-.3.3-.6.3-.3.1-.7.2-1.2.3-.8.2-1.3.3-1.6.6-.3.2-.4.6-.4 1 0 .8.4 1.2 1.3 1.2.3 0 .7-.1 1-.2.3-.1.6-.3.8-.5.2-.2.4-.4.5-.7.1-.3.2-.6.2-.9L128.2 21.7zM72.8 46.3v-6.3h-5.4v6.3h-2.9V32.4h2.9v5.3h5.4v-5.3h2.9v13.9H72.8zM83.3 45c-.2.5-.5.8-1.1 1.1-.5.3-1.1.4-1.7.4-.5 0-1.1-.1-1.5-.3s-.9-.4-1.2-.8c-.3-.3-.6-.7-.8-1.2-.2-.5-.3-1-.3-1.5V36h2.7v6.3c0 1.3.6 1.9 1.7 1.9.6 0 1.1-.2 1.5-.5.4-.4.6-.8.6-1.4V36H86v10.6c0 .7-.1 1.4-.4 2-.2.6-.6 1.1-1 1.4-.4.4-.9.7-1.5.9-.6.2-1.2.3-1.9.3-1.5 0-2.7-.4-3.4-1.2-.8-.8-1.1-1.8-1.1-3.2h2.5c0 .6.2 1.1.5 1.4.4.3.9.5 1.6.5.3 0 .5-.1.7-.2s.4-.3.6-.4c.2-.2.3-.4.4-.7.1-.3.2-.6.2-.9V45zM94.3 44.9c-.2.5-.5.8-1.1 1.1-.5.3-1.1.4-1.8.4-.9 0-1.6-.2-2.2-.5-.6-.3-1-.7-1.4-1.2-.4-.5-.6-1.1-.8-1.7-.2-.6-.2-1.3-.2-2 0-.8.1-1.5.4-2.2.2-.7.6-1.2 1-1.7.4-.5.9-.8 1.4-1.1.5-.3 1.1-.4 1.8-.4 1.3 0 2.3.5 2.9 1.6V36h2.7v10.4c0 .8-.1 1.5-.4 2.1-.3.6-.6 1.1-1.1 1.5-.5.4-1 .7-1.6.9-.6.2-1.3.3-2 .3-.7 0-1.4-.1-2-.3-.6-.2-1.1-.5-1.6-.9-.4-.4-.8-.8-1-1.4-.3-.5-.4-1.1-.4-1.8h2.5c0 .6.2 1.1.6 1.5.4.3 1 .5 1.6.5.7 0 1.3-.2 1.8-.6.5-.4.8-.9.8-1.6V44.9zM92.1 44.3c.7 0 1.2-.3 1.7-.8s.7-1.2.7-2.1c0-2.2-.8-3.3-2.3-3.3-1.6 0-2.3 1-2.3 3.2 0 .9.2 1.7.7 2.2C90.8 44 91.4 44.3 92.1 44.3zM98.2 34.8v-2.5h2.7v2.5H98.2zM98.2 46.3V36h2.7v10.3H98.2zM104.6 41.9c0 .8.3 1.4.7 1.9.4.5 1 .7 1.6.7.4 0 .8-.1 1.2-.3.3-.2.6-.5.7-.9h2.8c-.3 1.1-.9 1.9-1.7 2.5-.8.6-1.7.9-2.9.9-3.4 0-5.2-1.9-5.2-5.6 0-.8.1-1.5.3-2.2.2-.6.5-1.2 1-1.7.4-.5.9-.8 1.6-1.1.6-.2 1.3-.4 2.1-.4 1.6 0 2.8.5 3.6 1.5s1.2 2.6 1.2 4.6H104.6zM108.9 40.2c0-.4-.1-.7-.2-1-.1-.3-.3-.5-.5-.7-.2-.2-.4-.3-.7-.4-.3-.1-.5-.1-.8-.1-.5 0-1 .2-1.4.6-.4.4-.6 1-.7 1.7H108.9zM119.2 46.3v-6.3c0-.8-.1-1.3-.4-1.6-.3-.3-.7-.4-1.4-.4-1.4 0-2.1.8-2.1 2.4v5.9h-2.7V36h2.6v1.5c.3-.6.7-1 1.3-1.3.5-.3 1.2-.5 2.1-.5.5 0 .9.1 1.4.2.4.1.8.4 1.1.7s.5.7.7 1.1.3.9.3 1.5v7.2H119.2zM125.5 41.9c0 .8.3 1.4.7 1.9.4.5 1 .7 1.6.7.4 0 .8-.1 1.2-.3.3-.2.6-.5.7-.9h2.8c-.3 1.1-.8 1.9-1.6 2.5-.8.6-1.7.9-2.9.9-3.4 0-5.2-1.9-5.2-5.6 0-.8.1-1.5.3-2.2.2-.6.5-1.2 1-1.7.4-.5.9-.8 1.6-1.1.6-.2 1.3-.4 2.1-.4 1.6 0 2.8.5 3.6 1.5s1.2 2.6 1.2 4.6H125.5zM129.8 40.2c0-.4-.1-.7-.2-1s-.3-.5-.5-.7c-.2-.2-.4-.3-.7-.4-.3-.1-.5-.1-.8-.1-.5 0-1 .2-1.4.6-.4.4-.6 1-.7 1.7H129.8zM56.1 8.1c0 1.2 1 2.1 2.1 2.1-1.2 0-2.1 1-2.1 2.1 0-1.2-1-2.1-2.1-2.1C55.1 10.2 56.1 9.3 56.1 8.1zM48.2 4.3c2.1 0 3.8 1.7 3.8 3.8 0-2.1 1.7-3.8 3.8-3.8-2.1 0-3.8-1.7-3.8-3.8C51.9 2.6 50.3 4.3 48.2 4.3zM25.4 20.6c0 0-.1-.2-.3-.2-.2 0-.4.2-.4.2s.1.2.3.2C25.2 20.8 25.4 20.6 25.4 20.6zM24.5 21.4c0 0 0 .2-.2.3-.2.1-.4 0-.4 0s0-.2.2-.3S24.5 21.4 24.5 21.4zM35.3 23c0 0-.1-.2.1-.4.1-.2.4-.2.4-.2s.1.2-.1.4C35.6 22.9 35.3 23 35.3 23zM24.6 21.2c-.2 0-.3-.2-.3-.2s.2-.2.3-.1.3.2.3.2S24.8 21.2 24.6 21.2zM35.3 21.9c0 0 .1.3 0 .5-.1.2-.4.3-.4.3s-.1-.3 0-.5C35 22 35.3 21.9 35.3 21.9zM37.9 29.4c0 0 .2 0 .3.2.1.2 0 .4 0 .4s-.2 0-.3-.2S37.9 29.4 37.9 29.4zM25.3 20.2c-.2 0-.4-.2-.4-.2s.2-.2.4-.2c.2 0 .4.2.4.2S25.6 20.2 25.3 20.2zM35.4 21.3c0 0 0 .2-.1.4-.1.1-.4.1-.4.1s0-.2.1-.4C35.2 21.2 35.4 21.3 35.4 21.3zM32.9 13.8c-.1-.3-.1-.5 0-.7 0-.1.1-.2.1-.2 0 0 .1-.1.1-.1 0 0 .1 0 .1 0 0 0 0 .1 0 .1 0 0 0 0 0 0 0 0-.1.1-.1.2 0 .2 0 .4 0 .7.1.3.2.6.3.9.1.2.2.3.2.5.1.2.2.3.3.5.1.2.1.4.2.5.1.2.1.4.1.6 0 .4 0 .7-.1 1-.1.3-.2.5-.3.6-.1.1-.1.1-.1.2 0 0 0 0 0 0 0 0 0 0 0 0 .4.4.7.7 1 1.1.3.4.6.8.9 1.2.3.4.5.9.6 1.4.1.2.1.5.2.7 0 .1 0 .2 0 .3 0 .1 0 .2.1.3.1.4.3.7.6 1 .3.3.6.4.8.6.3.1.5.2.7.3.2.1.4.1.5.1 0 0 0 0 0 0-.1-.3-.2-.7-.4-1-.2-.4-.4-.7-.5-1.1-.2-.4-.3-.8-.3-1.3 0-.4-.1-.9 0-1.3 0-.2.1-.4.2-.6.1-.2.2-.4.3-.6.2-.4.4-.7.5-1 .1-.3.3-.7.4-1 .1-.3.2-.6.2-.8 0-.3 0-.5 0-.7 0-.2-.1-.3-.1-.4 0-.1-.1-.1-.1-.1 0 0 0-.1 0-.1 0 0 .1 0 .1 0 0 0 0 0 .1.1 0 .1.1.2.1.4 0 .2 0 .4 0 .7 0 .3-.1.6-.2.9-.1.3-.2.6-.4 1-.1.3-.3.7-.5 1.1-.2.4-.4.7-.4 1.1 0 .4 0 .8 0 1.3 0 .4.2.8.3 1.2.1.3.3.6.4.9 0 0 .1-.1.1-.1.1-.1.1-.1.2-.2.1-.1.2-.2.3-.3.1-.1.2-.3.3-.4.1-.2.2-.3.3-.5.1-.2.2-.4.3-.6 0-.1.1-.2.1-.3 0-.1.1-.2.1-.3 0-.1.1-.2.1-.3 0-.1.1-.2.1-.3.1-.2.1-.4.2-.6.2-.4.4-.7.6-.9.2-.2.5-.4.7-.4.1 0 .2 0 .2-.1 0 0 0 0 .1 0 0 0 0 0 0 0 0 0 0 0 0 0 0 0 0 0 0 0l0 0h0c0 0 0 0-.1 0 0 0-.1 0-.2.1-.2.1-.4.2-.6.4-.2.2-.4.5-.6.9-.1.2-.1.4-.2.6 0 .1-.1.2-.1.3 0 .1-.1.2-.1.3 0 .1-.1.2-.1.3 0 .1-.1.2-.1.3-.1.2-.2.4-.2.6-.1.2-.2.4-.3.5-.1.2-.2.3-.3.4-.1.1-.2.2-.3.4-.1.1-.2.2-.2.3-.1.1-.1.1-.2.2 0 0 0 0 0 0 0 0 0 0 0 0 .2.4.3.7.4 1.1 0 .2.1.4 0 .6 0 .2-.1.4-.2.5 0 .1-.1.1-.1.2 0 .1-.1.1-.1.2-.1.1-.2.2-.3.3-.2.2-.3.4-.5.5-.1.1-.3.2-.4.3 0 0-.1.1-.1.1 0 0 0 0 0 0 0 0 0 0 0 0-.1 0-.2 0-.2-.1 0-.1 0-.2.1-.2l0 0 0 0c0 0 0 0 0 0 0 0 0 0 0 0 0 0 0 0 .1 0 .1 0 .2-.1.3-.3.1-.1.3-.3.5-.5.1-.1.2-.2.3-.3 0-.1.1-.1.1-.2 0-.1.1-.1.1-.2.1-.1.1-.3.1-.4 0-.1 0-.1 0-.2 0 0-.1 0-.1 0-.1 0-.3-.1-.5-.1-.2-.1-.5-.2-.8-.3-.3-.1-.6-.3-.9-.6-.1-.1-.2-.2-.3-.3-.2-.2-.4-.5-.7-.8-.2-.2-.3-.3-.5-.5-.2-.2-.4-.3-.6-.4-.2-.1-.5-.3-.7-.4-.3-.1-.5-.3-.8-.4-.3-.1-.5-.2-.8-.4-.3-.1-.5-.2-.7-.4-.5-.3-.8-.7-1.1-1-.3-.4-.4-.7-.4-1 0-.1 0-.2 0-.3 0-.1 0-.1 0-.1l0 0c0 0 0 0 .1 0 0 0 0 0 0 0 0 0 0 0 0 .1 0 .1 0 .2 0 .3.1.2.2.6.4.9.2.3.6.7 1.1 1 .2.1.5.3.7.4.3.1.5.2.8.4.3.1.5.2.8.4.3.1.5.3.7.4.2.1.5.3.7.4.2.2.4.3.5.5.1.1.2.2.2.2 0 0 0-.1 0-.1 0-.1 0-.2-.1-.3 0-.1 0-.2 0-.3 0-.2-.1-.4-.1-.7-.1-.4-.3-.9-.6-1.3-.3-.4-.6-.8-.9-1.2-.3-.4-.7-.8-1-1.1-.2-.2-.4-.4-.5-.5-.1-.1-.2-.2-.3-.3-.1-.1-.2-.2-.3-.2-.4-.3-.8-.5-1.2-.6-.4-.1-.8-.2-1.2-.3-.4-.1-.7-.2-1-.3-.3-.1-.5-.3-.7-.5-.1-.2-.2-.4-.2-.5 0-.1 0-.1 0-.1 0 0 0 0 0 0 0 0 0-.1 0-.1 0 0 .1 0 .1 0 0 0 0 0 0 0 0 0 0 .1 0 .1 0 .1.1.3.2.4.1.2.3.3.6.4.3.1.6.2 1 .3.4.1.8.2 1.2.3.4.1.9.3 1.3.6.2.1.4.3.6.5.1.1.2.2.3.3 0 0 0 0 0 0 0 0 .1-.1.1-.1.1-.1.2-.3.3-.6.1-.3.1-.6.1-.9 0-.2-.1-.4-.1-.5 0-.2-.1-.4-.2-.5-.1-.2-.2-.3-.2-.5-.1-.2-.2-.3-.2-.5C33.1 14.4 33 14.1 32.9 13.8zM35.2 14.2C35 14 35 13.5 35 13.5s.5 0 .8.3c.3.3.2.8.2.8S35.5 14.5 35.2 14.2zM30.5 17.1c0 0 0 .4-.3.6-.2.2-.6.1-.6.1s0-.4.3-.6C30.1 17 30.5 17.1 30.5 17.1zM35 20.7c0 0 0 .3-.1.4-.2.1-.4.1-.4.1s0-.3.1-.4C34.7 20.7 35 20.7 35 20.7zM35.9 13.5c0 0 .3-.3.6-.2.3 0 .5.3.5.3s-.3.3-.6.2C36.1 13.8 35.9 13.5 35.9 13.5zM34.8 14.1c.2.2.2.5.2.5s-.3 0-.5-.1c-.2-.2-.2-.5-.2-.5S34.6 13.9 34.8 14.1zM33.4 13.5c-.2 0-.3-.1-.3-.1s.1-.2.3-.2c.2 0 .3.1.3.1S33.6 13.5 33.4 13.5zM33.6 12.5c0 0 .3-.1.5-.1.2.1.3.4.3.4s-.3.1-.5.1C33.7 12.8 33.6 12.5 33.6 12.5zM34.4 13.2c.3.1.4.5.4.5s-.3.2-.6.1c-.3-.1-.4-.5-.4-.5S34.1 13.1 34.4 13.2zM35.3 13.1c0 0 .2-.2.4-.2.2 0 .3.2.3.2s-.2.2-.4.2C35.4 13.3 35.3 13.1 35.3 13.1zM34.9 25.4c.2 0 .4.3.4.3s-.2.2-.5.1c-.2 0-.4-.3-.4-.3S34.6 25.4 34.9 25.4zM31.8 21.1c0 0-.1-.4 0-.7.2-.3.6-.3.6-.3s.1.4 0 .7C32.2 21 31.8 21.1 31.8 21.1zM36.3 14.2c0 0 .3-.3.6-.2.3.1.5.4.5.4s-.3.3-.6.2C36.6 14.6 36.3 14.2 36.3 14.2zM31 20.3c0 0 0-.4.2-.5.2-.2.6-.1.6-.1s0 .4-.2.5C31.3 20.4 31 20.3 31 20.3zM32.3 17.8c0 0 0 .5-.3.7-.3.2-.8.1-.8.1s0-.5.3-.7C31.9 17.7 32.3 17.8 32.3 17.8zM35.7 25.9c0 0 0-.5.2-.7.3-.2.7-.2.7-.2s0 .5-.2.7C36.2 25.9 35.7 25.9 35.7 25.9zM31.4 17.3c0 0 0 .4-.3.7-.3.2-.7.1-.7.1s0-.4.3-.7C31 17.2 31.4 17.3 31.4 17.3zM35.9 24.2c0 0 0 .5-.3.8-.3.3-.8.2-.8.2s0-.5.3-.8C35.4 24.1 35.9 24.2 35.9 24.2zM34.7 21.4c0 0 .1.3 0 .6-.1.2-.5.3-.5.3s-.1-.3 0-.6C34.3 21.5 34.7 21.4 34.7 21.4zM30.7 18.9c-.2.1-.4 0-.4 0s.1-.2.2-.3c.2-.1.4 0 .4 0S30.9 18.8 30.7 18.9zM34.5 20c0 0 0 .4-.2.6-.2.2-.6.2-.6.2s0-.4.2-.6C34.1 20 34.5 20 34.5 20zM33.9 19.3c0 0 0 .5-.3.7-.3.2-.8.1-.8.1s0-.5.3-.7S33.9 19.3 33.9 19.3zM34.9 23.3c0 0 .1.6-.1 1-.3.4-.9.4-.9.4s-.1-.6.1-1C34.3 23.3 34.9 23.3 34.9 23.3zM32.6 20.9c.2-.3.6-.3.6-.3s.1.4 0 .7c-.2.3-.6.3-.6.3S32.4 21.2 32.6 20.9zM30.5 19.6c0 0 .1-.3.3-.4.2-.1.5 0 .5 0s-.1.3-.3.4C30.8 19.7 30.5 19.6 30.5 19.6zM33.2 18.5c0 0 0 .5-.4.7-.3.2-.8.1-.8.1s0-.5.4-.7C32.7 18.4 33.2 18.5 33.2 18.5zM33.9 21c0 0 .2.3 0 .6-.1.3-.5.4-.5.4s-.2-.3 0-.6C33.5 21.1 33.9 21 33.9 21zM34.6 16.5c.2 0 .4.2.4.2s-.2.2-.4.3c-.2 0-.4-.2-.4-.2S34.4 16.5 34.6 16.5zM34 18.3c0 0 .1-.1.3-.1.2 0 .3.2.3.2s-.1.1-.3.1C34.1 18.4 34 18.3 34 18.3zM36.4 22.1c0 0 .1-.3.4-.4.3-.1.5.1.5.1s-.1.3-.4.4C36.7 22.3 36.4 22.1 36.4 22.1zM34.6 19.4c0 0 .1-.3.3-.4.2-.1.5.1.5.1s-.1.3-.3.4C34.9 19.6 34.6 19.4 34.6 19.4zM34.5 19.1c-.2 0-.4-.1-.4-.1s.1-.2.3-.3c.2 0 .4.1.4.1S34.7 19.1 34.5 19.1zM35.1 20c0 0 .1-.3.3-.5.2-.1.6 0 .6 0s-.1.3-.3.5C35.4 20.2 35.1 20 35.1 20zM36.1 21.4c0 0 .1-.4.3-.5.3-.1.6 0 .6 0s-.1.4-.3.5C36.4 21.6 36.1 21.4 36.1 21.4zM37.7 14.6c0 0 0-.3.2-.4C38 14 38.3 14 38.3 14s0 .3-.2.4C38 14.6 37.7 14.6 37.7 14.6zM34.2 17.8c0 0 .2-.2.3-.2.2 0 .3.2.3.2s-.2.2-.3.2C34.3 18 34.2 17.8 34.2 17.8zM27.4 28.1c-.5 0-1-.4-1-.4s.4-.5.9-.6c.5 0 1 .4 1 .4S27.9 28.1 27.4 28.1zM36.5 14.7c0 0 .2.4.1.7-.1.3-.5.4-.5.4s-.2-.4-.1-.7C36.1 14.8 36.5 14.7 36.5 14.7zM35.1 18.8c0 0-.2-.4-.1-.7.1-.4.5-.5.5-.5s.2.4.1.7C35.5 18.6 35.1 18.8 35.1 18.8zM37.1 15.4c0 0 0 .3-.1.5-.2.2-.5.2-.5.2s0-.3.1-.5C36.8 15.4 37.1 15.4 37.1 15.4zM35.1 17.3c0 0-.2.2-.4.2-.2 0-.4-.2-.4-.2s.2-.2.4-.2C34.9 17.1 35.1 17.3 35.1 17.3zM35.7 16.4c0 .2-.2.4-.2.4s-.2-.2-.3-.4c0-.2.2-.4.2-.4S35.7 16.2 35.7 16.4zM35.5 19c-.1-.1 0-.3 0-.3s.2 0 .2.2c.1.1 0 .3 0 .3S35.5 19.1 35.5 19zM35.6 15.2c.1.3-.1.6-.1.6s-.4-.1-.5-.4c-.1-.3.1-.6.1-.6S35.5 14.9 35.6 15.2zM35.6 20.6c0 0 .1-.4.4-.5.3-.1.6.1.6.1s-.1.4-.4.5C35.9 20.8 35.6 20.6 35.6 20.6zM38.4 19.4c0 0-.4.2-.7.1-.3-.1-.4-.6-.4-.6s.4-.2.7-.1C38.3 19 38.4 19.4 38.4 19.4zM38 20.3c0 0-.4.2-.6.1-.3-.1-.4-.5-.4-.5s.4-.2.6-.1C37.9 19.9 38 20.3 38 20.3zM37.9 20.9c0 0-.2.2-.5.2-.2 0-.4-.3-.4-.3s.2-.2.5-.2C37.7 20.6 37.9 20.9 37.9 20.9zM37.9 23.3c.2 0 .4.2.4.2s-.1.2-.3.2c-.2 0-.4-.2-.4-.2S37.7 23.3 37.9 23.3zM37.7 22.8c.2 0 .4.2.4.2s-.1.2-.3.2c-.2 0-.4-.2-.4-.2S37.5 22.8 37.7 22.8zM38.2 15.2c.2.4.1.9.1.9s-.6-.1-.8-.4c-.2-.4-.1-.9-.1-.9S38 14.8 38.2 15.2zM38.8 18.6c0 0-.4.2-.7.1-.3-.1-.4-.5-.4-.5s.4-.2.7-.1C38.6 18.2 38.8 18.6 38.8 18.6zM39 17.9c0 0-.3.1-.6 0-.2-.1-.3-.4-.3-.4s.3-.1.6 0C39 17.6 39 17.9 39 17.9zM36.9 24.3c0 0 .1-.3.2-.4.2-.1.4 0 .4 0s-.1.3-.2.4C37.1 24.4 36.9 24.3 36.9 24.3zM36.5 22.8c0 0 .1-.3.4-.4.2-.1.5.1.5.1s-.1.3-.4.4C36.8 23 36.5 22.8 36.5 22.8zM36.6 23.6c0 0 .1-.3.4-.4.2-.1.5.1.5.1s-.1.3-.4.4C36.9 23.8 36.6 23.6 36.6 23.6zM37.2 22.2c0 0 .2-.2.4-.2.2 0 .3.2.3.2s-.2.2-.4.2C37.3 22.4 37.2 22.2 37.2 22.2zM37.4 24.8c0 0 0-.3.1-.4.1-.1.4-.1.4-.1s0 .3-.1.4C37.7 24.9 37.4 24.8 37.4 24.8zM38 25.2c0 0-.1-.2 0-.4.1-.1.3-.2.3-.2s.1.2 0 .4C38.2 25.2 38 25.2 38 25.2zM38.1 23.8c.2 0 .3.2.3.2s-.1.2-.3.2S37.8 24 37.8 24 37.9 23.8 38.1 23.8zM37.8 21.6c0 0-.2.2-.4.2-.2 0-.3-.2-.3-.2s.2-.2.4-.2C37.7 21.4 37.8 21.6 37.8 21.6zM35.9 16.8c0 0 .3.2.2.5 0 .3-.3.5-.3.5s-.3-.2-.2-.5C35.6 17 35.9 16.8 35.9 16.8zM26.3 19.9c-.2-.2-.1-.5-.1-.5s.3 0 .5.1c.2.2.1.5.1.5S26.5 20 26.3 19.9zM26.5 19.2c-.2-.2-.2-.5-.2-.5s.3 0 .5.1.2.5.2.5S26.7 19.4 26.5 19.2zM26 20.5C25.9 20.3 26 20 26 20s.3 0 .4.2c.1.2.1.4.1.4S26.2 20.6 26 20.5zM25.7 20.9c-.1-.1-.1-.3-.1-.3s.2 0 .3.1C26 20.8 26 21 26 21S25.8 21 25.7 20.9zM27.5 16.5c0 0-.3 0-.4-.3-.1-.2 0-.5 0-.5s.3 0 .4.3C27.6 16.2 27.5 16.5 27.5 16.5zM25.9 17.5c.3 0 .6.2.6.2S26.3 18 26 18.1c-.3 0-.6-.2-.6-.2S25.6 17.5 25.9 17.5zM26.9 18.5c-.1-.1-.1-.4-.1-.4s.2 0 .4.1c.1.1.1.4.1.4S27 18.7 26.9 18.5zM27.3 17.1c0 0 0 .3-.2.5-.2.2-.5.1-.5.1s0-.3.2-.5C27 17 27.3 17.1 27.3 17.1zM27.4 13.9c0 0-.4.1-.7-.2-.3-.2-.2-.7-.2-.7s.4-.1.7.2C27.4 13.5 27.4 13.9 27.4 13.9zM27.5 18.5c0 0-.2-.3-.2-.5.1-.3.4-.4.4-.4s.2.3.2.5C27.8 18.3 27.5 18.5 27.5 18.5zM26.8 15.1c-.3.3-.8.3-.8.3s-.1-.5.2-.8c.3-.3.8-.3.8-.3S27 14.8 26.8 15.1zM26.5 13.9c0 0-.4.4-.9.3-.4-.1-.7-.6-.7-.6s.4-.4.9-.3C26.3 13.4 26.5 13.9 26.5 13.9zM25.8 18.8c-.3 0-.5-.2-.5-.2s.2-.3.4-.3c.3 0 .5.2.5.2S26.1 18.8 25.8 18.8zM26.6 16.6c-.1-.2.1-.4.1-.4s.2.1.3.3c.1.2-.1.4-.1.4S26.7 16.8 26.6 16.6zM25.2 16.2c0 0 .1-.4.4-.6.3-.1.7 0 .7 0s-.1.4-.4.6C25.6 16.4 25.2 16.2 25.2 16.2zM24.8 14.4c.2-.1.5-.1.5-.1s0 .3-.2.5c-.2.1-.5.1-.5.1S24.5 14.5 24.8 14.4zM24.9 15.5c0 0 0-.4.3-.5.2-.2.6-.1.6-.1s0 .4-.3.5S24.9 15.5 24.9 15.5zM25.6 19.1c.3 0 .5.3.5.3s-.2.3-.5.2-.5-.3-.5-.3S25.4 19.1 25.6 19.1zM23.3 23.4c0 0 .4-.3.8-.3.4.1.7.6.7.6s-.4.3-.8.3C23.5 23.9 23.3 23.4 23.3 23.4zM25.7 23.6c.1.3-.1.7-.1.7s-.4-.1-.5-.4c-.1-.3.1-.7.1-.7S25.6 23.3 25.7 23.6zM37.4 17c-.3-.3-.4-.8-.4-.8s.5-.1.9.2c.3.3.4.8.4.8S37.7 17.3 37.4 17zM25.2 22.9c0 0-.5.3-.9.1-.4-.2-.5-.7-.5-.7s.5-.3.9-.1C25 22.4 25.2 22.9 25.2 22.9zM28.4 26.7c0 0-.6.3-1 .1-.5-.2-.6-.8-.6-.8s.6-.3 1-.1C28.3 26 28.4 26.7 28.4 26.7zM25.2 27c0 0 .2-.5.6-.7.4-.2.9.1.9.1s-.2.5-.6.7C25.7 27.3 25.2 27 25.2 27zM24.5 26c0 0 .2-.5.6-.7.4-.2.9.1.9.1s-.2.5-.6.7C25 26.2 24.5 26 24.5 26zM24.9 25.2c-.4 0-.8-.3-.8-.3s.3-.4.7-.5c.4 0 .8.3.8.3S25.3 25.1 24.9 25.2zM26.6 21.3c.4 0 .7.4.7.4S27 22 26.6 22c-.4 0-.7-.4-.7-.4S26.3 21.3 26.6 21.3zM27.3 20.6c.3 0 .6.3.6.3s-.3.3-.6.3c-.3 0-.6-.3-.6-.3S27 20.6 27.3 20.6zM26.2 22.5c0 0-.4.2-.7.1-.3-.1-.5-.6-.5-.6s.4-.2.7-.1C26 22 26.2 22.5 26.2 22.5zM27.4 19.5c0 0 .1-.3.4-.4.2-.1.5.1.5.1s-.1.3-.4.4C27.7 19.7 27.4 19.5 27.4 19.5zM27.7 19.9c.3 0 .5.3.5.3s-.2.3-.5.3c-.3 0-.5-.3-.5-.3S27.4 19.9 27.7 19.9zM26.4 25.8c0 0-.2-.2-.2-.4 0-.2.3-.4.3-.4s.2.2.2.4C26.7 25.6 26.4 25.8 26.4 25.8zM25.9 24.7c0 0 0-.3.1-.4.2-.1.4-.1.4-.1s0 .3-.1.4C26.1 24.8 25.9 24.7 25.9 24.7zM26.3 23.8c0 0-.3-.3-.3-.6 0-.3.3-.5.3-.5s.3.3.3.6C26.6 23.6 26.3 23.8 26.3 23.8zM27.9 24.1c-.2.1-.4.1-.4.1s0-.3.1-.4c.2-.1.4-.1.4-.1S28.1 24 27.9 24.1zM27.6 22.1c0 0 0 .4-.2.7C27.2 23 26.7 23 26.7 23s0-.4.2-.7C27.2 22 27.6 22.1 27.6 22.1zM26.7 23.7c.1-.3.4-.4.4-.4s.2.3.1.6c-.1.3-.4.4-.4.4S26.6 24 26.7 23.7zM33.6 26.4c-.3.1-.7-.1-.7-.1s.2-.4.5-.5c.3-.1.7.1.7.1S33.9 26.3 33.6 26.4zM27.6 23c.1-.2.4-.2.4-.2s.1.2 0 .4-.4.2-.4.2S27.5 23.2 27.6 23zM26.9 25.2c-.2-.2-.2-.6-.2-.6s.4 0 .6.2c.2.2.2.6.2.6S27.2 25.4 26.9 25.2zM27.8 18.6c.1-.1.4 0 .4 0s0 .2-.2.3c-.1.1-.4 0-.4 0S27.6 18.7 27.8 18.6zM27.9 22c0-.3.3-.6.3-.6s.3.3.3.6c0 .3-.3.6-.3.6S27.9 22.4 27.9 22zM28.8 21.3c-.4 0-.7-.3-.7-.3s.3-.4.7-.4c.4 0 .7.3.7.3S29.1 21.3 28.8 21.3zM30.5 20.4c0 0-.1.3-.3.5-.2.1-.5 0-.5 0s.1-.3.3-.5C30.2 20.3 30.5 20.4 30.5 20.4zM33.8 22.6c0 0 .1.6-.1 1C33.4 24 32.8 24 32.8 24s-.1-.6.1-1C33.2 22.7 33.8 22.6 33.8 22.6zM32.2 24.3c.2-.2.6-.2.6-.2s0 .4-.2.6C32.4 25 32 25 32 25S31.9 24.6 32.2 24.3zM33.1 24.8c0 0 .3-.1.6 0 .2.1.3.5.3.5s-.3.1-.6 0C33.2 25.1 33.1 24.8 33.1 24.8zM32.6 26.6c.5 0 1 .4 1 .4s-.4.5-.9.6c-.5 0-1-.4-1-.4S32.1 26.7 32.6 26.6zM31 21c0 0 0 .4-.2.6-.2.2-.6.2-.6.2s0-.4.2-.6C30.6 21 31 21 31 21zM31.7 23.6c.2.1.3.4.3.4s-.3.1-.5 0c-.2-.1-.3-.4-.3-.4S31.5 23.5 31.7 23.6zM28.1 17.2c0 0-.3.1-.5 0-.2-.1-.2-.4-.2-.4s.3-.1.5 0C28.1 16.9 28.1 17.2 28.1 17.2zM31.6 21.5c0 0 .2.4 0 .7-.2.3-.6.4-.6.4s-.2-.4 0-.7C31.2 21.6 31.6 21.5 31.6 21.5zM27.8 15.8c.1 0 .3.1.3.1s-.1.2-.2.2c-.1 0-.3-.1-.3-.1S27.7 15.8 27.8 15.8zM28.9 16.7c0 0-.1.3-.3.4-.2.1-.4 0-.4 0s.1-.3.3-.4C28.7 16.6 28.9 16.7 28.9 16.7zM28 16.3c.2-.1.4.1.4.1s-.1.2-.3.3c-.2.1-.4-.1-.4-.1S27.9 16.3 28 16.3zM29.6 16.9c0 0 0 .3-.2.5-.2.2-.5.1-.5.1s0-.3.2-.5C29.3 16.8 29.6 16.9 29.6 16.9zM30.2 18.7c0 0-.3 0-.4-.2-.1-.2-.1-.4-.1-.4s.3 0 .4.2C30.3 18.4 30.2 18.7 30.2 18.7zM30.1 19c0 0-.2.1-.4.1-.2 0-.3-.2-.3-.2s.2-.1.4-.1C29.9 18.8 30.1 19 30.1 19zM27.6 14.9c0 0 0 .3-.2.5-.2.2-.5.2-.5.2s0-.3.2-.5C27.2 14.8 27.6 14.9 27.6 14.9zM28.1 17.8c0 0 0-.3.2-.4.2-.1.4-.1.4-.1s0 .3-.2.4C28.3 17.9 28.1 17.8 28.1 17.8zM26.5 16.7c0 0-.2.4-.5.5-.3.1-.7-.1-.7-.1s.2-.4.5-.5C26.2 16.5 26.5 16.7 26.5 16.7zM28 15.5c0 0-.1.1-.3.1-.1 0-.2-.2-.2-.2s.1-.1.3-.1C27.9 15.3 28 15.5 28 15.5zM28.9 18.3c-.1-.2.1-.5.1-.5s.3.1.4.4c.1.2-.1.5-.1.5S28.9 18.5 28.9 18.3zM29 18.9c.3.1.3.5.3.5s-.3.1-.6 0c-.3-.1-.3-.5-.3-.5S28.8 18.8 29 18.9zM29.4 20.1c.1.2-.1.4-.1.4s-.2-.1-.3-.3c-.1-.2.1-.4.1-.4S29.3 19.9 29.4 20.1zM29.1 21.5c0 0 .2-.2.5-.1.2.1.3.3.3.3s-.2.2-.5.1C29.2 21.8 29.1 21.5 29.1 21.5zM30.2 19.7c0 0-.1.3-.3.3-.2.1-.5-.1-.5-.1s.1-.3.3-.3C30 19.5 30.2 19.7 30.2 19.7zM28.8 19.6c0 0 .1.3 0 .5-.1.2-.4.3-.4.3s-.1-.3 0-.5C28.5 19.6 28.8 19.6 28.8 19.6zM28.5 18.6c0 0-.2-.1-.2-.3 0-.2.2-.3.2-.3s.2.1.2.3C28.6 18.5 28.5 18.6 28.5 18.6zM33.8 15.1c0 0 .1-.3.3-.4.2-.1.5 0 .5 0s-.1.3-.3.4C34 15.3 33.8 15.1 33.8 15.1zM39.5 30.9c0 0-.2-.3-.1-.6.1-.3.4-.4.4-.4s.2.3.1.6C39.9 30.7 39.5 30.9 39.5 30.9zM40.1 29.3c0 0-.3-.1-.4-.3-.1-.2 0-.5 0-.5s.3.1.4.3C40.2 29 40.1 29.3 40.1 29.3zM39.1 29.3c-.1-.2 0-.4 0-.4s.3.1.4.2c.1.2 0 .4 0 .4S39.2 29.5 39.1 29.3zM42.6 19.8c0 0-.2 0-.3-.2-.1-.1 0-.3 0-.3s.2 0 .3.2C42.7 19.6 42.6 19.8 42.6 19.8zM42.1 20.9c0-.3.4-.5.4-.5s.3.3.2.6c0 .3-.4.5-.4.5S42.1 21.2 42.1 20.9zM38.9 30.7c0 0-.2-.2-.1-.5s.3-.3.3-.3.2.2.1.5C39.2 30.5 38.9 30.7 38.9 30.7zM40.3 28.6c-.1-.3.1-.5.1-.5s.3.1.4.4c.1.3-.1.5-.1.5S40.4 28.9 40.3 28.6zM40.7 26.2c0 0-.1-.3 0-.6.1-.3.5-.4.5-.4s.1.3 0 .6C41 26.1 40.7 26.2 40.7 26.2zM40.1 30.4c0-.3.3-.6.3-.6s.3.3.4.6S40.5 31 40.5 31 40.2 30.7 40.1 30.4zM42.9 29.2c0 0-.2-.3-.2-.7.1-.3.5-.5.5-.5s.2.3.2.7C43.3 29 42.9 29.2 42.9 29.2zM42 29.8c-.1-.4.2-.7.2-.7s.4.2.5.6c.1.4-.2.7-.2.7S42.1 30.2 42 29.8zM42.9 29.8c0-.3.3-.6.3-.6s.3.2.3.6c0 .3-.3.6-.3.6S43 30.1 42.9 29.8zM42.1 29c0 0-.3-.3-.3-.6 0-.3.4-.5.4-.5s.3.3.3.6C42.4 28.7 42.1 29 42.1 29zM41.9 29.1c0 .2-.1.3-.1.3s-.2-.1-.2-.2c0-.2.1-.3.1-.3S41.8 28.9 41.9 29.1zM38.8 29.8c0 0-.2-.1-.3-.3-.1-.2.1-.4.1-.4s.2.1.3.3C38.9 29.6 38.8 29.8 38.8 29.8zM43.8 29.3c0 0-.3-.3-.2-.6.1-.3.4-.5.4-.5s.3.3.2.6C44.1 29.2 43.8 29.3 43.8 29.3zM38.5 29.8c0 0 .1.2.1.4 0 .2-.3.3-.3.3s-.1-.2-.1-.4C38.3 29.9 38.5 29.8 38.5 29.8zM43.8 29.9c0-.3.2-.5.2-.5s.3.2.3.5c0 .3-.2.5-.2.5S43.8 30.2 43.8 29.9zM40.7 25.3c0 0-.2-.1-.3-.2-.1-.2 0-.4 0-.4s.2.1.3.2C40.8 25.1 40.7 25.3 40.7 25.3zM40 26.4c-.2 0-.4-.2-.4-.2s.2-.2.4-.2c.2 0 .4.2.4.2S40.2 26.4 40 26.4zM42 22.4c0 0 .3.1.4.3.1.2 0 .5 0 .5s-.3-.1-.4-.3S42 22.4 42 22.4zM40.2 27.2c-.1-.2 0-.4 0-.4s.2 0 .3.2c.1.2 0 .4 0 .4S40.3 27.4 40.2 27.2zM40.1 27.3c.1.1 0 .3 0 .3s-.2 0-.3-.2c-.1-.1 0-.3 0-.3S40.1 27.2 40.1 27.3zM42 21.9c-.1-.2 0-.4 0-.4s.2.1.3.2c.1.2 0 .4 0 .4S42.1 22 42 21.9zM41.3 24.4c.3.2.4.6.4.6s-.4.1-.7 0c-.3-.2-.4-.6-.4-.6S41 24.2 41.3 24.4zM41.8 23.2c0 0 .2.3.1.6-.1.3-.5.4-.5.4s-.2-.3-.1-.6C41.5 23.3 41.8 23.2 41.8 23.2zM43.3 22.9c-.2.2-.5.3-.5.3s-.1-.3.1-.6c.2-.2.5-.3.5-.3S43.4 22.7 43.3 22.9zM44.1 25c0 0-.4.1-.7-.1s-.3-.6-.3-.6.4-.1.7.1C44.1 24.6 44.1 25 44.1 25zM42.2 26.2c.1.3-.1.5-.1.5s-.3-.1-.4-.4c-.1-.3.1-.5.1-.5S42.1 26 42.2 26.2zM43.4 25.8c.1.2-.1.5-.1.5S43 26.2 42.9 26c-.1-.2.1-.5.1-.5S43.3 25.6 43.4 25.8zM42.1 23.9c.2-.4.8-.4.8-.4s.2.5-.1.9c-.2.4-.8.4-.8.4S41.8 24.3 42.1 23.9zM44 25.6c.1.2-.1.5-.1.5s-.3-.1-.4-.3.1-.5.1-.5S43.9 25.4 44 25.6zM43.2 25.1c0 0-.2.2-.4.2-.2 0-.3-.2-.3-.2s.2-.2.4-.2C43.1 24.9 43.2 25.1 43.2 25.1zM42.2 25.1c0 0 0 .3-.2.5-.2.2-.5.1-.5.1s0-.3.2-.5C41.9 25.1 42.2 25.1 42.2 25.1zM42.8 26c.1.3-.1.6-.1.6s-.3-.1-.4-.4c-.1-.3.1-.6.1-.6S42.7 25.7 42.8 26zM41 29.5c0 0-.2.1-.4 0-.2-.1-.2-.3-.2-.3s.2-.1.4 0C41 29.3 41 29.5 41 29.5zM44.4 27.1c0 0-.3 0-.4-.2-.1-.2 0-.4 0-.4s.3 0 .4.2C44.4 26.9 44.4 27.1 44.4 27.1zM43.8 27.3c0 0-.2 0-.3-.2-.1-.2 0-.4 0-.4s.2 0 .3.2C43.9 27.1 43.8 27.3 43.8 27.3zM44.4 28c0 0-.1-.2-.1-.4 0-.2.3-.3.3-.3s.1.2.1.4S44.4 28 44.4 28zM43.9 27.9c0 0-.1-.2-.1-.3 0-.2.2-.2.2-.2s.1.2.1.3C44.1 27.8 43.9 27.9 43.9 27.9zM45.2 27.4c0 0 .2.2.1.4 0 .2-.3.3-.3.3s-.2-.2-.1-.4C45 27.5 45.2 27.4 45.2 27.4zM45.8 26c-.2 0-.4-.3-.4-.3s.2-.2.4-.1c.2 0 .4.3.4.3S46 26.1 45.8 26zM44.6 26.7c-.2-.1-.2-.4-.2-.4s.3 0 .4.1c.2.1.2.4.2.4S44.8 26.9 44.6 26.7zM41.4 28.9c0 0-.3-.2-.3-.5 0-.3.2-.5.2-.5s.3.2.3.5C41.6 28.6 41.4 28.9 41.4 28.9zM47 27.2c-.3.3-.7.2-.7.2s0-.5.2-.7c.3-.3.7-.2.7-.2S47.2 27 47 27.2zM42.8 21.3c.2-.4.8-.4.8-.4s.2.5-.1.9c-.2.4-.8.4-.8.4S42.6 21.7 42.8 21.3zM46 24.6c0-.1.1-.3.1-.4 0-.1 0-.2 0-.2 0 0 0 0 0-.1 0 0 0 0 0 0l0 0c0 0 0-.1 0-.1 0 0 .1 0 .1 0 0 0 0 0 0 0 0 0 0 0 0 .1 0 .1 0 .1 0 .3 0 .1 0 .3-.1.4 0 .2-.1.3-.2.5-.2.3-.6.6-1 .9-.4.2-.9.4-1.3.6-.5.2-.9.3-1.4.5-.3.1-.6.2-.9.4.3 0 .5 0 .8 0 .3 0 .6.1.9.2.1 0 .1.1.2.1.1 0 .1.1.2.1.1.1.3.1.4.1.3.1.6.2.8.2.5.1 1.1.2 1.5.2.4 0 .8 0 1.1-.1.1 0 .2-.1.3-.1.1 0 .1-.1.1-.1 0 0 .1 0 .1 0 0 0 0 0 0 .1l0 0c0 0 0 0-.1.1-.1 0-.2.1-.3.1-.3.1-.6.1-1.1.1-.5 0-1-.1-1.5-.2-.3-.1-.6-.1-.8-.2-.1 0-.3-.1-.4-.1-.1 0-.1-.1-.2-.1-.1 0-.1 0-.2-.1-.3-.1-.6-.1-.8-.1-.3 0-.6 0-.8 0-.3 0-.5.1-.7.2-.1 0-.1.1-.2.1 0 0 0 0-.1 0 0 0 0 0-.1.1 0 0-.1.1-.1.1 0 0-.1.1-.1.1-.4.3-.7.4-1 .6-.1.1-.2.1-.3.1 0 0-.1 0-.1 0 0 0 0 0 0 0-.1 0-.2 0-.3-.1 0-.1 0-.2.1-.3 0 0 0 0 0 0l0 0c0 0 0 0 .1 0 .1 0 .2-.1.3-.1.2-.1.6-.3.9-.5 0 0 .1-.1.1-.1 0 0 .1-.1.1-.1 0 0 0 0 .1-.1 0 0 0 0 .1 0 .1-.1.2-.1.3-.2.1-.1.3-.2.5-.2.4-.1.8-.3 1.2-.4.4-.1.9-.3 1.4-.5.5-.2.9-.3 1.3-.6.4-.2.7-.5 1-.8C45.9 24.9 46 24.7 46 24.6zM42.9 20.5c0 0-.1-.3 0-.6.1-.3.5-.4.5-.4s.1.3 0 .6C43.3 20.4 42.9 20.5 42.9 20.5zM42.2 17.9c0 0 .3-.3.6-.3.3 0 .5.3.5.3s-.3.3-.6.3C42.4 18.2 42.2 17.9 42.2 17.9zM45.8 26.7c0 0 .1-.3.2-.4.2-.1.4 0 .4 0s-.1.3-.2.4S45.8 26.7 45.8 26.7zM46 27.1c0 0-.3.3-.5.3-.3 0-.5-.3-.5-.3s.3-.3.5-.3C45.8 26.9 46 27.1 46 27.1zM46.7 27.6c0 0 .2.1.2.3 0 .2-.1.3-.1.3s-.2-.1-.2-.3C46.6 27.8 46.7 27.6 46.7 27.6zM45.7 27.5c0 0 .2.2.2.4 0 .2-.2.3-.2.3s-.2-.2-.2-.4C45.5 27.7 45.7 27.5 45.7 27.5zM45.4 26c.2.1.3.4.3.4s-.3.1-.5 0c-.2-.1-.3-.4-.3-.4S45.2 25.9 45.4 26zM46.2 30.5c0 0-.2-.3-.2-.6.1-.3.4-.4.4-.4s.2.3.2.6C46.5 30.4 46.2 30.5 46.2 30.5zM45.3 29.3c0 0-.2-.2-.2-.5 0-.2.3-.4.3-.4s.2.2.2.5C45.5 29.2 45.3 29.3 45.3 29.3zM47.1 29c0 0-.2-.1-.2-.2 0-.2.1-.3.1-.3s.2.1.2.2C47.3 28.9 47.1 29 47.1 29zM45.8 28.9c0-.2.2-.4.2-.4s.2.2.2.4c0 .2-.2.4-.2.4S45.8 29.1 45.8 28.9zM46.6 29.2c0 0-.2-.1-.2-.3 0-.2.2-.3.2-.3s.2.1.2.3C46.8 29 46.6 29.2 46.6 29.2zM46.2 28.3c0 0-.2-.2-.2-.4 0-.2.2-.3.2-.3s.2.2.2.4C46.4 28.1 46.2 28.3 46.2 28.3zM44.5 29.3c0 0-.2-.3-.2-.5 0-.3.3-.4.3-.4s.2.3.2.5C44.8 29.2 44.5 29.3 44.5 29.3zM44.7 30.4c0 0-.2-.2-.2-.5 0-.3.3-.5.3-.5s.2.2.2.5C45 30.2 44.7 30.4 44.7 30.4zM41.1 30.2c-.1-.4.2-.8.2-.8s.5.2.6.6c.1.4-.2.8-.2.8S41.2 30.6 41.1 30.2zM47.3 26.2c0 0-.3.2-.6.1-.3-.1-.4-.5-.4-.5s.3-.2.6-.1C47.2 25.8 47.3 26.2 47.3 26.2zM46.7 25.3c0 0-.2.2-.4.2-.2 0-.4-.2-.4-.2s.2-.2.4-.2C46.5 25 46.7 25.3 46.7 25.3zM47.1 27.9c0-.1.1-.3.1-.3s.2.1.2.2c0 .1-.1.3-.1.3S47.2 28.1 47.1 27.9zM47.2 29.7c-.3.1-.6-.2-.6-.2s.2-.3.5-.4c.3-.1.6.2.6.2S47.5 29.7 47.2 29.7zM47.2 29.8c0 0 .1.3 0 .5-.1.2-.4.3-.4.3s-.1-.3 0-.5C46.9 29.9 47.2 29.8 47.2 29.8zM43 26.9c0 0 .2.1.2.2 0 .2-.1.3-.1.3S43 27.3 43 27.2C42.9 27 43 26.9 43 26.9zM45.5 30.4c0 0-.3-.3-.3-.6 0-.3.4-.5.4-.5s.3.3.3.6C45.8 30.2 45.5 30.4 45.5 30.4zM45.4 23.9c0 0-.4.1-.7 0-.3-.2-.4-.6-.4-.6s.4-.1.7 0C45.3 23.5 45.4 23.9 45.4 23.9zM40.6 19.9c-.2-.1-.2-.5-.2-.5s.3-.1.5 0c.2.1.2.5.2.5S40.8 20 40.6 19.9zM40.9 20.4c0 0-.3.2-.6 0C40 20.3 40 20 40 20s.3-.2.6 0C40.8 20.1 40.9 20.4 40.9 20.4zM40.5 21.6c0 0-.3.1-.5.1-.2-.1-.3-.4-.3-.4s.3-.1.5-.1C40.4 21.4 40.5 21.6 40.5 21.6zM41.6 18.3c-.2.4-.8.4-.8.4s-.1-.5.1-.9c.2-.4.8-.4.8-.4S41.8 17.9 41.6 18.3zM41 26.8c.1.2 0 .4 0 .4s-.3-.1-.3-.3c-.1-.2 0-.4 0-.4S40.9 26.6 41 26.8zM38.7 20.5c.3 0 .5.2.5.2S39 21 38.7 21c-.3 0-.5-.2-.5-.2S38.5 20.5 38.7 20.5zM40.7 16.1c-.2-.2-.1-.4-.1-.4s.3 0 .4.1c.2.2.1.4.1.4S40.8 16.2 40.7 16.1zM41 19.4c-.1-.1-.1-.4-.1-.4s.3 0 .4.1.1.4.1.4S41.2 19.5 41 19.4zM41.4 19c-.1-.2 0-.4 0-.4s.2 0 .3.2c.1.2 0 .4 0 .4S41.5 19.2 41.4 19zM38.7 22.3c-.2 0-.4-.2-.4-.2s.1-.2.4-.3c.2 0 .4.2.4.2S38.9 22.3 38.7 22.3zM38.9 23c-.2 0-.5-.2-.5-.2s.2-.3.4-.3c.2 0 .5.2.5.2S39.1 22.9 38.9 23zM40.2 22.2c0 0-.3.1-.5 0-.2-.1-.3-.4-.3-.4s.3-.1.5 0C40.2 22 40.2 22.2 40.2 22.2zM38.6 21.2c.2 0 .4.2.4.2s-.2.2-.4.2c-.2 0-.4-.2-.4-.2S38.4 21.3 38.6 21.2zM38.8 23.5c-.1 0-.3-.1-.3-.1s.1-.2.3-.2c.1 0 .3.1.3.1S39 23.4 38.8 23.5zM40 22.8c0 0-.2.1-.4 0-.2-.1-.2-.4-.2-.4s.2-.1.4 0C39.9 22.5 40 22.8 40 22.8zM39.4 23.2c-.1-.1-.2-.3-.2-.3s.2-.1.3 0c.1.1.2.3.2.3S39.5 23.3 39.4 23.2zM39 24c-.1 0-.3-.1-.3-.1s.1-.1.3-.1c.1 0 .3.1.3.1S39.2 24 39 24zM40.9 16.5c0 0 .3 0 .4.1.1.2.1.4.1.4s-.3 0-.4-.1C40.8 16.8 40.9 16.5 40.9 16.5zM34.2 16.3c0 0 .1-.3.3-.3.2 0 .4.1.4.1s-.1.3-.3.3C34.4 16.4 34.2 16.3 34.2 16.3zM34 15.7c0 0 .1-.3.3-.4.2-.1.5.1.5.1s-.1.3-.3.4C34.3 15.9 34 15.7 34 15.7zM29 26c0 0-.6-.1-.9-.5-.3-.4-.1-1-.1-1s.6.1.9.5C29.2 25.4 29 26 29 26zM33.6 14.1c-.2.1-.4-.1-.4-.1s.1-.2.3-.3c.2-.1.4.1.4.1S33.8 14 33.6 14.1zM40.1 16.1c.2 0 .4.2.4.2s-.1.2-.4.3c-.2 0-.4-.2-.4-.2S39.9 16.1 40.1 16.1zM36 18.7c-.1-.6.4-1.1.4-1.1s.6.4.7 1c.1.6-.4 1.1-.4 1.1S36.1 19.3 36 18.7zM36.4 17.2c0 0-.2-.3-.1-.5.1-.2.4-.4.4-.4s.2.3.1.5C36.7 17.1 36.4 17.2 36.4 17.2zM36.2 16c0 0 .1.2 0 .3-.1.2-.3.2-.3.2s-.1-.2 0-.3C36 16.1 36.2 16 36.2 16zM33.5 14.6c0 0 .1-.3.2-.4s.4 0 .4 0-.1.3-.2.4C33.7 14.7 33.5 14.6 33.5 14.6zM38.9 14.9c-.2-.1-.2-.4-.2-.4s.3 0 .5.1c.2.1.2.4.2.4S39.1 15 38.9 14.9zM39.6 15.9c0 0 .1-.3.2-.4s.4 0 .4 0-.1.3-.2.4C39.8 16 39.6 15.9 39.6 15.9zM39.1 16.2c.2 0 .3.2.3.2s-.2.2-.3.2c-.2 0-.3-.2-.3-.2S38.9 16.2 39.1 16.2zM38.5 25.1c.1-.1.3-.2.3-.2s.1.2 0 .4c-.1.1-.3.2-.3.2S38.4 25.2 38.5 25.1zM38.3 24.3c.1 0 .3.1.3.1s-.1.2-.3.2c-.1 0-.3-.1-.3-.1S38.2 24.3 38.3 24.3zM38.5 16.9c0 0 .2-.2.4-.1s.4.3.4.3-.2.2-.4.1C38.7 17.2 38.5 16.9 38.5 16.9zM38.7 15.8c0 0 .1-.1.3-.1.1 0 .2.2.2.2S39.1 16 39 15.9C38.8 15.9 38.7 15.8 38.7 15.8zM40.7 21c0 0-.3.2-.5.1-.2-.1-.4-.4-.4-.4s.3-.2.5-.1C40.5 20.7 40.7 21 40.7 21zM39.6 27.1c.2.1.2.3.2.3s-.2.1-.4 0c-.2-.1-.2-.3-.2-.3S39.5 27 39.6 27.1zM39.5 25.5c0 0 .2-.3.5-.3.3 0 .5.3.5.3s-.2.3-.5.3C39.7 25.8 39.5 25.5 39.5 25.5zM40.2 24c.2.1.3.4.3.4s-.3.1-.5 0c-.2-.1-.3-.4-.3-.4S39.9 23.9 40.2 24zM39.7 24.6c.2.1.4.4.4.4s-.3.2-.5.1c-.2-.1-.4-.4-.4-.4S39.5 24.5 39.7 24.6zM39.4 26.7c0 0 .2-.1.4-.1.2 0 .3.3.3.3s-.2.1-.4.1C39.5 26.9 39.4 26.7 39.4 26.7zM39 27.4c0 0 .2 0 .4.2.1.1.1.4.1.4s-.2 0-.4-.2C39 27.6 39 27.4 39 27.4zM44.6 25.1c0 0 .2 0 .3.2.1.1 0 .3 0 .3s-.2 0-.3-.2C44.6 25.3 44.6 25.1 44.6 25.1zM45 24.2c0 0 0 .3-.2.4-.2.1-.4.1-.4.1s0-.3.2-.4C44.7 24.2 45 24.2 45 24.2zM41.1 26.7c-.1-.2.1-.5.1-.5s.3.1.4.3c.1.2-.1.5-.1.5S41.2 26.9 41.1 26.7zM40 23.5c0 0 .3-.1.6 0 .3.1.3.5.3.5s-.3.1-.6 0C40.1 23.8 40 23.5 40 23.5zM41.1 20.8c0 0 .3-.2.5-.1.2.1.4.4.4.4s-.3.2-.5.1C41.2 21.2 41.1 20.8 41.1 20.8zM41.8 20.2c.2.1.3.4.3.4s-.3.1-.5 0c-.2-.1-.3-.4-.3-.4S41.6 20.1 41.8 20.2zM46 24.4c0 0-.2.1-.3 0-.2-.1-.2-.3-.2-.3s.2-.1.3 0C46 24.2 46 24.4 46 24.4zM42.1 19.7c.1.1.1.4.1.4s-.2 0-.4-.1c-.1-.1-.1-.4-.1-.4S42 19.6 42.1 19.7zM40.3 22.9c0 0 .3-.2.6-.1.3.1.4.5.4.5s-.3.2-.6.1C40.4 23.3 40.3 22.9 40.3 22.9zM40.9 21.5c0 0 .3-.2.6-.1.3.1.4.4.4.4s-.3.2-.6.1C41 21.9 40.9 21.5 40.9 21.5zM39.5 21.2c0 0 .1.2.1.4 0 .2-.3.3-.3.3s-.1-.2-.1-.4C39.2 21.3 39.5 21.2 39.5 21.2zM40.6 22.2c0 0 .4-.2.7-.1.3.1.4.5.4.5s-.4.2-.7.1C40.8 22.6 40.6 22.2 40.6 22.2zM45.7 23.1c.1.2 0 .4 0 .4s-.2-.1-.3-.2c-.1-.2 0-.4 0-.4S45.6 22.9 45.7 23.1zM39.6 17.7c0 0 .3-.3.6-.2.3 0 .5.4.5.4S40.4 18 40.1 18C39.8 18 39.6 17.7 39.6 17.7zM40.2 17.2c-.3 0-.5-.3-.5-.3s.2-.2.5-.2c.3 0 .5.3.5.3S40.4 17.2 40.2 17.2zM42.2 18.7c.1.1 0 .3 0 .3s-.2-.1-.2-.2c-.1-.1 0-.3 0-.3S42.1 18.5 42.2 18.7zM39.3 18.5c0 0 .3-.3.7-.3.3 0 .6.4.6.4s-.3.3-.7.3C39.5 18.9 39.3 18.5 39.3 18.5zM39.1 19.8c.3 0 .5.3.5.3s-.2.3-.5.3c-.3 0-.5-.3-.5-.3S38.8 19.8 39.1 19.8zM44 20.5c-.2.2-.5.1-.5.1s0-.3.2-.5c.2-.2.5-.1.5-.1S44.2 20.3 44 20.5zM39.6 19c.3 0 .6.3.6.3s-.3.3-.6.3c-.3 0-.6-.3-.6-.3S39.2 19 39.6 19zM41.8 17.1c-.2-.2-.1-.5-.1-.5s.3 0 .5.2c.2.2.1.5.1.5S42 17.3 41.8 17.1zM37.5 18c0 0-.4 0-.6-.3-.2-.3-.1-.7-.1-.7s.4 0 .6.3C37.6 17.6 37.5 18 37.5 18zM44.8 21.4c0 0 .4.4.4.8 0 .4-.5.8-.5.8s-.4-.4-.4-.8C44.3 21.8 44.8 21.4 44.8 21.4zM45.3 25c.1.1.1.3.1.3s-.2 0-.3-.1C45 25.1 45 24.8 45 24.8S45.2 24.8 45.3 25zM44.2 25.2c0 0 .2.1.3.3.1.2 0 .4 0 .4s-.2-.1-.3-.3C44.1 25.4 44.2 25.2 44.2 25.2zM44.1 23.1c0 0-.1.1-.3.1-.2 0-.3-.2-.3-.2s.1-.1.3-.1C44 22.9 44.1 23.1 44.1 23.1zM44.2 23.7c0 0-.3.3-.6.2-.3 0-.5-.4-.5-.4s.3-.3.6-.2C44 23.3 44.2 23.7 44.2 23.7zM44 21.7c0 0 .2.3.2.6-.1.3-.4.5-.4.5s-.2-.3-.2-.6C43.7 21.9 44 21.7 44 21.7zM32.6 22c0 0 .2.5 0 .8-.2.4-.7.5-.7.5s-.2-.5 0-.8C32.1 22.1 32.6 22 32.6 22zM15 22.4c0 0-.1-.3 0-.5.1-.2.4-.3.4-.3s.1.3 0 .5C15.3 22.3 15 22.4 15 22.4zM15 20.8c0 0 .4-.1.7.1.3.2.4.6.4.6s-.4.1-.7-.1C15 21.2 15 20.8 15 20.8zM16 18.8c-.1-.1-.1-.4-.1-.4s.3 0 .4.1c.1.1.1.4.1.4S16.1 18.9 16 18.8zM15.2 19.2c0 0 .2-.2.4-.2.2 0 .4.2.4.2s-.2.2-.4.2C15.4 19.5 15.2 19.2 15.2 19.2zM15 20.1c0-.2.1-.5.1-.5s.3.1.3.4c0 .2-.1.5-.1.5S15 20.3 15 20.1zM13.2 22.4c0 0 .1-.2.2-.2.1-.1.3 0 .3 0s-.1.2-.2.2C13.4 22.5 13.2 22.4 13.2 22.4zM14.2 21.1c0 0-.1-.4.1-.6.2-.2.6-.3.6-.3s.1.4-.1.6C14.6 21.1 14.2 21.1 14.2 21.1zM13.8 21.7c0-.2.1-.3.1-.3s.2.1.2.3c0 .2-.1.3-.1.3S13.8 21.9 13.8 21.7zM13.2 23.3c-.1-.2 0-.5 0-.5s.3 0 .4.2c.1.2 0 .5 0 .5S13.3 23.5 13.2 23.3zM18.7 22.1c0 0 .1.2-.1.4-.1.1-.3.2-.3.2s-.1-.2.1-.4C18.5 22.1 18.7 22.1 18.7 22.1zM17.2 21.4c0 0 .1.3-.1.4C17 22 16.7 22 16.7 22s-.1-.3.1-.4C16.9 21.4 17.2 21.4 17.2 21.4zM18.5 22.8c0 0 .3.1.3.3.1.2-.1.5-.1.5s-.3-.1-.3-.3C18.4 23 18.5 22.8 18.5 22.8zM16.3 22.5c.2-.2.5-.3.5-.3s.1.4-.1.6c-.2.2-.5.3-.5.3S16.1 22.8 16.3 22.5zM11.7 28.2c-.2 0-.4-.1-.4-.1s.1-.2.3-.2c.2 0 .4.1.4.1S11.9 28.2 11.7 28.2zM16.5 20c.1 0 .3.1.3.1s-.1.1-.3.1c-.1 0-.3-.1-.3-.1S16.3 20 16.5 20zM16.4 20.5c.2 0 .3.1.3.1s-.1.2-.3.2c-.2 0-.3-.1-.3-.1S16.2 20.5 16.4 20.5zM16.5 21.1c.2-.1.4 0 .4 0s0 .2-.2.3c-.2.1-.4 0-.4 0S16.3 21.2 16.5 21.1zM19.1 23.2c-.1-.2 0-.4 0-.4s.2 0 .3.2c.1.2 0 .4 0 .4S19.2 23.4 19.1 23.2zM12.9 30.8c0 0 .2.1.2.3 0 .2-.1.4-.1.4s-.2-.1-.2-.3C12.7 31 12.9 30.8 12.9 30.8zM12.8 28.8c0 0 .1.4-.1.6-.2.2-.6.3-.6.3s-.1-.4.1-.6C12.5 28.8 12.8 28.8 12.8 28.8zM16.9 26c0 0 0-.5.3-.7.3-.3.8-.2.8-.2s0 .5-.3.7C17.4 26.1 16.9 26 16.9 26zM13.4 29.2c0 0 .2.4 0 .7-.1.3-.5.4-.5.4s-.2-.4 0-.7C13 29.3 13.4 29.2 13.4 29.2zM12.6 30.5c0 0-.3-.1-.3-.2-.1-.2 0-.4 0-.4s.3.1.3.2C12.7 30.3 12.6 30.5 12.6 30.5zM12.2 27.5c0 .2-.1.4-.1.4s-.2-.1-.2-.3c0-.2.1-.4.1-.4S12.2 27.3 12.2 27.5zM11.7 29.3c0 0 .2.2.1.4-.1.2-.3.3-.3.3s-.2-.2-.1-.4C11.5 29.4 11.7 29.3 11.7 29.3zM12.3 28.4c0 0 0 .3-.2.5-.2.2-.5.2-.5.2s0-.3.2-.5C12 28.3 12.3 28.4 12.3 28.4zM12.1 25.6c-.1-.3.2-.7.2-.7s.4.2.5.6c.1.3-.2.7-.2.7S12.2 25.9 12.1 25.6zM12 26.9c-.2-.2-.2-.6-.2-.6s.4 0 .6.2c.2.2.2.6.2.6S12.2 27.1 12 26.9zM14.8 29.6c0 0 .2.3.1.5-.1.3-.4.4-.4.4s-.2-.3-.1-.5C14.5 29.7 14.8 29.6 14.8 29.6zM13.2 30.3c.2 0 .3.1.3.1s-.1.2-.3.2c-.2 0-.3-.1-.3-.1S13 30.4 13.2 30.3zM12.7 24.5c0 0-.2-.2-.1-.4 0-.2.3-.3.3-.3s.2.2.1.4C12.9 24.3 12.7 24.5 12.7 24.5zM14.8 30.5c0 0 .3.2.3.4 0 .3-.2.5-.2.5s-.3-.2-.3-.4C14.6 30.7 14.8 30.5 14.8 30.5zM13.8 31.1c0 .2-.2.4-.2.4s-.2-.1-.3-.4c0-.2.2-.4.2-.4S13.7 30.9 13.8 31.1zM14.5 31.1c0 .2-.2.5-.2.5S14 31.4 14 31.1c0-.2.2-.5.2-.5S14.4 30.8 14.5 31.1zM14.1 29.4c0 0 .2.3.1.6-.1.3-.4.4-.4.4s-.2-.3-.1-.6C13.8 29.5 14.1 29.4 14.1 29.4zM16.3 19.2c.1-.2.4-.2.4-.2s0 .2-.1.4c-.1.2-.4.2-.4.2S16.2 19.3 16.3 19.2zM15.1 27.8c0 0 .3.4.2.7-.1.4-.5.6-.5.6s-.3-.4-.2-.7C14.7 28.1 15.1 27.8 15.1 27.8zM14.5 27c.3-.1.6.1.6.1s-.2.3-.4.4c-.3.1-.6-.1-.6-.1S14.2 27.1 14.5 27zM15.9 24c-.2.2-.5.2-.5.2s-.1-.3.1-.5c.2-.2.5-.2.5-.2S16 23.8 15.9 24zM15.8 24.4c0 0 .2.3.1.6-.1.3-.4.4-.4.4s-.2-.3-.1-.6C15.5 24.5 15.8 24.4 15.8 24.4zM15.3 26.3c-.1.4-.5.6-.5.6s-.3-.4-.2-.7c.1-.4.5-.6.5-.6S15.3 25.9 15.3 26.3zM13 27.2c0 0 .1.3 0 .5C12.9 28 12.6 28 12.6 28s-.1-.3 0-.5C12.7 27.3 13 27.2 13 27.2zM13.2 27.8c.2-.2.5-.3.5-.3s.1.4-.1.6c-.2.2-.5.3-.5.3S13 28.1 13.2 27.8zM13.9 26.8c0 0-.3.2-.6.1-.3-.1-.4-.4-.4-.4s.3-.2.6-.1C13.7 26.5 13.9 26.8 13.9 26.8zM19.6 25.8c0 0 .3-.2.6-.2.3.1.5.4.5.4s-.3.2-.6.2C19.8 26.2 19.6 25.8 19.6 25.8zM17.9 24.7c0-.2.2-.5.2-.5s.3.2.3.4c0 .2-.2.5-.2.5S18 24.9 17.9 24.7zM18.8 24.8c-.1-.3.2-.7.2-.7s.4.2.5.6c.1.3-.2.7-.2.7S18.8 25.2 18.8 24.8zM17.6 26.8c0 0-.1-.6.3-.9.3-.3.9-.3.9-.3s.1.6-.3.9C18.2 26.8 17.6 26.8 17.6 26.8zM19.7 28.4c0 0-.2-.6.1-1 .3-.4.9-.5.9-.5s.2.6-.1 1C20.3 28.4 19.7 28.4 19.7 28.4zM17.4 25c0 0-.2-.2-.1-.4 0-.2.3-.4.3-.4s.2.2.1.4C17.6 24.8 17.4 25 17.4 25zM19.7 24.7c0-.4.4-.8.4-.8s.4.3.4.7c0 .4-.4.8-.4.8S19.8 25.1 19.7 24.7zM12.9 24.8c0 0 .2-.2.4-.1.2 0 .4.3.4.3s-.2.2-.4.1C13.1 25 12.9 24.8 12.9 24.8zM18.6 27.6c0 0-.1-.6.3-1 .3-.4 1-.3 1-.3s.1.6-.3 1C19.2 27.6 18.6 27.6 18.6 27.6zM13.9 28.9c0 0-.2-.4-.1-.7.1-.3.5-.4.5-.4s.2.4.1.7C14.3 28.7 13.9 28.9 13.9 28.9zM16 20.3c-.1.2-.4.2-.4.2s-.1-.3.1-.5c.1-.2.4-.2.4-.2S16.2 20.1 16 20.3zM15.6 22.2c.1-.2.5-.3.5-.3s.1.3-.1.5c-.1.2-.5.3-.5.3S15.5 22.4 15.6 22.2zM14.4 22.2c0 0-.1-.2-.1-.4.1-.2.3-.3.3-.3s.1.2.1.4C14.7 22.1 14.4 22.2 14.4 22.2zM15.2 23.6c-.1.2-.5.3-.5.3s-.1-.3 0-.6c.1-.2.5-.3.5-.3S15.4 23.3 15.2 23.6zM17.7 23.2c0-.3.3-.5.3-.5s.3.2.3.5c0 .3-.3.5-.3.5S17.7 23.5 17.7 23.2zM17.6 21.6c0 0 .2.3.1.5-.1.2-.3.3-.3.3s-.2-.3-.1-.5C17.4 21.7 17.6 21.6 17.6 21.6zM13.2 24.2c-.1-.2 0-.4 0-.4s.3.1.3.3c.1.2 0 .4 0 .4S13.3 24.4 13.2 24.2zM17.9 22.5c0 0-.1-.3 0-.4.1-.2.4-.2.4-.2s.1.3 0 .4C18.2 22.5 17.9 22.5 17.9 22.5zM14.9 25.2c0 0-.2-.3-.2-.5 0-.3.3-.5.3-.5s.2.3.2.5C15.2 25 14.9 25.2 14.9 25.2zM17.4 22.5c0 0 .2.3.1.6-.1.3-.5.4-.5.4s-.2-.3-.1-.6C17 22.6 17.4 22.5 17.4 22.5zM13.3 25.7c0 0 0-.3.2-.4.2-.1.4 0 .4 0s0 .3-.2.4C13.6 25.7 13.3 25.7 13.3 25.7zM13.8 23.1c0 0-.2-.2-.1-.4 0-.2.3-.3.3-.3s.2.2.1.4C14 23 13.8 23.1 13.8 23.1zM14.2 23.4c0 0-.1-.3 0-.5.1-.2.4-.3.4-.3s.1.3 0 .5C14.6 23.4 14.2 23.4 14.2 23.4zM14.3 25.5c0 0 .2.3.1.5-.1.2-.4.4-.4.4s-.2-.3-.1-.5C14 25.6 14.3 25.5 14.3 25.5zM14.5 23.9c0 0-.2.2-.4.1-.2 0-.4-.3-.4-.3s.2-.2.4-.1C14.4 23.6 14.5 23.9 14.5 23.9zM14.2 25.1c0 0-.3-.2-.3-.4 0-.2.2-.5.2-.5s.3.2.3.4C14.4 24.9 14.2 25.1 14.2 25.1zM12 31c0 0 .3 0 .4.1.1.1.1.4.1.4s-.3 0-.4-.1C12 31.2 12 31 12 31zM47.3 31.1c0 0 .2.2.2.4s-.2.3-.2.3-.2-.2-.2-.4C47.1 31.3 47.3 31.1 47.3 31.1zM46.7 31.1c0 0 .2.2.2.4 0 .2-.3.4-.3.4s-.2-.2-.2-.4C46.5 31.2 46.7 31.1 46.7 31.1zM46 31c0 0 .2.2.2.5 0 .3-.3.4-.3.4s-.2-.2-.2-.5C45.7 31.2 46 31 46 31zM45.2 30.9c0 0 .3.3.3.6 0 .3-.4.6-.4.6s-.3-.3-.3-.6C44.8 31.1 45.2 30.9 45.2 30.9zM47.6 31C47.6 31 47.6 31 47.6 31 47.6 31 47.6 31 47.6 31c0 .1-.2.1-.5 0-.3-.1-.7-.1-1.2-.2-.5-.1-1.1-.1-1.8-.1-.3 0-.7 0-1 .1-.3.1-.7.1-1 .3-.1 0-.1.1-.2.1-.1 0-.2.1-.2.1-.2.1-.3.1-.5.2-.4.1-.7.1-1 0-.3 0-.7-.1-1-.2-.3-.1-.6-.2-.8-.3-.5-.2-.9-.4-1.2-.5-.1-.1-.2-.1-.3-.2-.1 0-.1-.1-.1-.1-.1-.1-.1-.2-.1-.3.1-.1.2-.1.3-.1 0 0 0 0 0 0l0 0c0 0 0 0 .1.1.1 0 .2.1.3.2.3.1.6.3 1.1.5.2.1.5.2.8.3.3.1.6.2.9.2.3 0 .6 0 1 0 .2 0 .3-.1.5-.1.1 0 .1-.1.2-.1.1 0 .2-.1.2-.1.3-.1.7-.2 1-.3.3 0 .7-.1 1-.1.7 0 1.3.1 1.8.1.5.1.9.2 1.2.2C47.4 30.9 47.6 31 47.6 31zM47.4 26.9c.2-.2.4-.1.4-.1s0 .3-.1.4c-.2.2-.4.1-.4.1S47.3 27.1 47.4 26.9zM11.8 30.6c-.2 0-.4-.1-.4-.1s.1-.3.4-.3c.2 0 .4.1.4.1S12 30.6 11.8 30.6zM46.9 25.3c-.1-.2.1-.5.1-.5s.3.1.4.4c.1.2-.1.5-.1.5S47 25.6 46.9 25.3zM48 30.3c0 0 0 .3-.1.4-.2.1-.4.1-.4.1s0-.3.1-.4C47.7 30.2 48 30.3 48 30.3zM38.7 31.4c0 0 .2.4.1.7-.1.3-.5.5-.5.5s-.2-.4-.1-.7C38.2 31.5 38.7 31.4 38.7 31.4zM39.5 31.6c0 0 .2.4.1.7-.1.3-.5.5-.5.5s-.2-.4-.1-.7C39.1 31.8 39.5 31.6 39.5 31.6zM37.8 31.1c0 0 .2.4.1.7-.1.3-.5.5-.5.5s-.2-.4-.1-.7C37.4 31.2 37.8 31.1 37.8 31.1zM40.3 31.7c0 0 .3.4.2.7C40.5 32.8 40 33 40 33s-.3-.4-.2-.7C39.9 31.9 40.3 31.7 40.3 31.7zM41.7 32.4c0 .4-.4.8-.4.8s-.4-.3-.4-.8c0-.4.4-.8.4-.8S41.7 32 41.7 32.4zM44.6 31.5c0 .4-.3.7-.3.7s-.4-.3-.4-.7c0-.4.3-.7.3-.7S44.6 31.1 44.6 31.5zM43.7 31.7c0 .4-.3.8-.3.8s-.5-.3-.5-.7c0-.4.3-.8.3-.8S43.7 31.3 43.7 31.7zM42.8 32.1c.1.5-.3.9-.3.9s-.5-.3-.6-.7c-.1-.5.3-.9.3-.9S42.7 31.6 42.8 32.1zM12.2 10.8l-.6-.7c0 0 0-.1 0-.1l.2-.2c.1-.1.2-.2.4-.1.1 0 .2.1.3.2.1.1.2.3.2.4 0 .1-.1.3-.3.4L12.2 10.8zM5.9 41.8l-.4-.8L6.7 41l0 0L5.9 41.8zM47.5 11.2l.7-.7c0 0 .1 0 .1 0l.2.2c.1.1.2.2.2.4 0 .1 0 .2-.2.4-.1.1-.3.2-.4.2-.1 0-.3-.1-.4-.2L47.5 11.2zM37 30.7c0 0 .2.3.1.6-.1.3-.5.5-.5.5s-.2-.3-.1-.6C36.6 30.9 37 30.7 37 30.7zM16.5 8.2l-.2-1.1 0 0 .9.7L16.5 8.2zM9.3 13.4c-.1-.1-.1-.3-.2-.4 0-.1 0-.2 0-.4 0-.1.1-.2.2-.3.1-.1.2-.2.3-.2C9.7 12 9.8 12 9.9 12c.1 0 .3 0 .4.1.1.1.3.2.4.3.1.1.2.2.3.4.1.1.1.2.1.4 0 .1 0 .2 0 .4 0 .1-.1.2-.2.3-.1.1-.2.2-.3.2-.1 0-.2.1-.3.1-.1 0-.2 0-.4-.1-.1-.1-.3-.1-.4-.3C9.4 13.6 9.3 13.5 9.3 13.4zM46.5 24.4c.2-.1.4.1.4.1s-.1.2-.3.3c-.2.1-.4-.1-.4-.1S46.3 24.5 46.5 24.4zM29.7 1.2C13.6 1.2.6 14.2.6 30.3c0 16.1 13.1 29.2 29.2 29.2s29.2-13.1 29.2-29.2C58.9 14.2 45.9 1.2 29.7 1.2zM56.1 23.1c.1.1.1.2.1.3 0 .1 0 .2 0 .3 0 .1 0 .2-.1.3l.2 0 0 .1-.7.2 0-.1c.2-.1.3-.2.4-.4.1-.1.1-.3 0-.4 0-.1-.1-.2-.2-.3-.1-.1-.2-.1-.3-.1 0 0-.1 0-.1.1 0 0-.1.1-.1.1 0 .1 0 .1-.1.2 0 .1 0 .2 0 .3 0 .2 0 .3-.1.4 0 .1-.1.2-.1.3-.1.1-.1.2-.2.2-.1.1-.2.1-.2.1-.1 0-.2 0-.3 0-.1 0-.2-.1-.3-.1-.1-.1-.2-.2-.2-.3-.1-.1-.1-.2-.2-.4 0-.1 0-.3 0-.4 0-.1 0-.2.1-.4l-.2 0 0-.1.8-.3 0 .1c-.2.1-.4.2-.4.4-.1.2-.1.4-.1.6 0 .1.1.2.1.2 0 .1.1.1.1.2 0 0 .1.1.2.1.1 0 .1 0 .2 0 .1 0 .1 0 .1-.1 0 0 .1-.1.1-.1 0-.1 0-.1.1-.2 0-.1 0-.2 0-.4 0-.3.1-.5.2-.7.1-.2.2-.3.4-.3.1 0 .2 0 .3 0 .1 0 .2.1.3.1C55.9 22.9 56 23 56.1 23.1zM57.8 29.9c-1.2 0-2.2 1-2.2 2.2 0-1.2-1-2.2-2.2-2.2 1.2 0 2.2-1 2.2-2.2C55.7 29 56.7 29.9 57.8 29.9zM54.6 19.8C54.7 19.8 54.7 19.8 54.6 19.8c.1-.1.1-.2.1-.2 0 0 0-.1 0-.2l.1 0 .8 2.1L55 21.8l-.1-.1c.1 0 .2-.1.2-.1 0-.1.1-.1.1-.2 0-.1 0-.1 0-.2 0-.1 0-.2-.1-.3L55 20.4c0-.1 0-.1-.1-.1 0 0-.1 0-.1 0L54 20.6c.1.1.1.2.1.3 0 .1.1.1.1.2 0 0 .1.1.2.1.1 0 .1 0 .2 0l0 .1-1 .4 0-.1c.1 0 .1-.1.2-.1 0 0 .1-.1.1-.1 0-.1 0-.1 0-.2 0-.1-.1-.2-.1-.3L53.2 21c-.1 0-.1.1-.2.1 0 0-.1.1-.1.1 0 .1 0 .1 0 .2 0 .1 0 .2.1.3 0 .1.1.2.1.3.1.1.1.1.2.2.1 0 .1.1.2.1.1 0 .2 0 .3 0l0 .1-.8.2-.8-2.2.1 0c0 .1.1.1.1.2 0 0 .1.1.1.1 0 0 .1 0 .1 0 .1 0 .1 0 .2-.1l1.5-.6C54.5 19.9 54.6 19.9 54.6 19.8zM52.6 30.3c0 12.6-10.2 22.8-22.8 22.8S6.9 43 6.9 30.3 17.1 7.5 29.7 7.5 52.6 17.7 52.6 30.3zM53.6 17.2c.1.1.3.3.4.5.1.1.1.3.1.4 0 .1 0 .3 0 .4l.2 0 .1.2-.8.4-.1-.1c.2-.1.3-.3.3-.5 0-.2 0-.4-.1-.5-.1-.1-.1-.2-.2-.3-.1-.1-.2-.1-.3-.1-.1 0-.3 0-.4 0-.1 0-.3.1-.5.2-.3.2-.5.4-.6.6-.1.2-.1.5 0 .7.1.2.3.3.4.4.2.1.4.1.6 0l.1.1-.8.4L52 19.7l.2-.2c-.3-.1-.5-.4-.7-.7-.1-.2-.2-.4-.2-.5 0-.2 0-.4 0-.5 0-.2.1-.3.2-.4.1-.1.3-.3.4-.3.2-.1.4-.2.6-.2.2 0 .4 0 .5 0C53.3 16.9 53.5 17 53.6 17.2zM52 15.2c0 0 .1-.1.1-.1 0 0 0-.1 0-.1 0 0 0-.1-.1-.2l.1-.1.6 1-.1.1c0-.1-.1-.1-.1-.1 0 0-.1 0-.1 0 0 0-.1 0-.2 0-.1 0-.1.1-.2.1L51 16.5c-.1.1-.2.1-.2.2 0 0-.1.1-.1.1 0 0 0 .1 0 .1 0 0 0 .1.1.2l-.1.1-.7-1 .1-.1c0 .1.1.1.1.1 0 0 .1 0 .1.1 0 0 .1 0 .2 0 .1 0 .1-.1.2-.1l1.2-.8C51.9 15.3 52 15.2 52 15.2zM49.9 12.1c0 0-.1-.1-.1-.2l.1-.1.8 1-.1.1c0 0-.1-.1-.1-.1 0 0-.1 0-.1-.1 0 0 0 0-.1 0 0 0 0 0-.1 0 0 0-.1 0-.1.1 0 0-.1.1-.1.1l-.8 1.4 1.2-.4c.1 0 .2-.1.3-.1.1 0 .1 0 .2-.1 0 0 .1 0 .1 0 0 0 0 0 .1 0 0 0 .1-.1 0-.1 0 0-.1-.1-.1-.2l.1-.1.6.8-.1.1c-.1-.1-.3-.2-.5-.1l-2.4.7-.2-.2 1-1.9c.1-.1.1-.2.1-.3 0-.1 0-.1.1-.2C49.9 12.2 49.9 12.1 49.9 12.1zM47.8 10c0 0-.1-.1-.1-.1l.1-.1.9.8c.2.2.4.5.4.7 0 .2 0 .4-.1.5-.1.1-.3.2-.5.2-.2 0-.4 0-.6-.2l-.1 1.2c0 .1 0 .2 0 .2 0 .1.1.1.1.2l-.1.1L47.4 13l.1-1.4c0-.1 0-.2 0-.2 0 0 0-.1-.1-.1l-.5.5c-.1.1-.1.1-.1.2 0 0 0 .1 0 .1 0 0 0 .1.1.1 0 .1.1.1.2.2l-.1.1-1-1 .1-.1c.1.1.1.1.1.1 0 0 .1 0 .1 0 0 0 .1 0 .1-.1 0 0 .1-.1.1-.1l1.1-1.2c.1-.1.1-.1.1-.1 0 0 0-.1 0-.1C47.8 10.1 47.8 10 47.8 10zM45.2 7.8 47 9.1l-.4.6-.1-.1c0-.1.1-.2.1-.2 0-.1 0-.1 0-.2 0-.1-.1-.1-.1-.2-.1-.1-.1-.1-.2-.2l-.3-.2c0 0-.1-.1-.1 0 0 0 0 0-.1.1l-.5.7c.1.1.2.2.3.2.1 0 .1.1.2.1.1 0 .1 0 .2 0 0 0 .1-.1.2-.2l.1.1-.6.8-.1-.1c0-.1.1-.2.1-.2 0-.1 0-.1 0-.2 0-.1-.1-.1-.1-.2-.1-.1-.2-.1-.3-.2l-.4.6c0 .1-.1.1-.1.2 0 .1 0 .1 0 .2 0 .1.1.1.1.2.1.1.1.1.2.2.1.1.2.1.3.2.1 0 .2.1.2.1.1 0 .2 0 .2-.1.1 0 .2-.1.3-.2l.1.1-.5.6-1.9-1.4.1-.1c.1 0 .1.1.2.1 0 0 .1 0 .1 0 0 0 .1 0 .1-.1 0 0 .1-.1.1-.2l1-1.3c0-.1.1-.1.1-.2 0 0 0-.1 0-.1 0 0 0-.1 0-.1 0 0-.1-.1-.1-.1L45.2 7.8zM41.9 7.8 42 7.9c-.1.2-.1.4 0 .6.1.2.2.3.4.4.1 0 .1.1.2.1.1 0 .1 0 .2 0 .1 0 .1 0 .2-.1C43 8.9 43 8.9 43 8.8c0 0 0-.1.1-.1 0 0 0-.1 0-.2 0-.1-.1-.1-.1-.2S42.8 8.2 42.7 8c-.2-.2-.3-.4-.3-.6 0-.2 0-.4.1-.5.1-.1.1-.2.2-.2.1-.1.2-.1.3-.1s.2 0 .3 0c.1 0 .2.1.3.1.1.1.2.1.3.2C43.9 7 44 7.1 44.1 7.2l.1-.1.1 0-.3.7-.1-.1c0-.2 0-.4 0-.5-.1-.1-.1-.3-.3-.3-.1-.1-.2-.1-.4-.1-.1 0-.2.1-.3.2 0 0 0 .1 0 .1 0 0 0 .1 0 .1 0 .1.1.1.1.2 0 .1.1.2.2.3.1.1.2.3.3.4.1.1.1.2.1.3 0 .1 0 .2 0 .3 0 .1 0 .2-.1.3-.1.1-.1.2-.2.2-.1.1-.2.1-.3.1-.1 0-.2 0-.4 0-.1 0-.3-.1-.4-.2C42.1 9 42 8.9 41.9 8.8c-.1-.1-.1-.2-.2-.3l-.2.1-.1 0L41.9 7.8zM38 6.7c0 0 .1-.1.1-.2L38.7 5c0-.1 0-.1.1-.2 0 0 0-.1 0-.1 0 0 0-.1-.1-.1 0 0-.1-.1-.1-.1l.1-.1 2 .8-.2.6-.1-.1c0-.1 0-.2 0-.2 0-.1 0-.1-.1-.2 0-.1-.1-.1-.2-.2-.1 0-.2-.1-.3-.1l-.4-.1c-.1 0-.1 0-.1 0 0 0 0 0-.1.1l-.3.8c.1.1.3.1.3.1.1 0 .2 0 .2 0 .1 0 .1 0 .1-.1 0 0 .1-.1.1-.2l.1 0-.4.9-.1 0c0-.1 0-.2 0-.2 0-.1 0-.1-.1-.2 0 0-.1-.1-.2-.1C39.1 6.1 39 6 38.8 6l-.3.7c0 .1 0 .1 0 .2 0 .1 0 .1 0 .2 0 0 .1.1.1.1.1 0 .2.1.3.1.1 0 .2.1.3.1.1 0 .2 0 .2 0 .1 0 .1-.1.2-.1.1-.1.1-.1.2-.2L40.1 7l-.3.7-2.2-.9.1-.1c.1 0 .1 0 .2 0C37.8 6.8 37.9 6.8 38 6.7 37.9 6.7 38 6.7 38 6.7zM34.2 5.8c.1 0 .2 0 .2 0 .1 0 .1 0 .1 0 0 0 .1-.1.1-.1 0-.1 0-.1.1-.2L35 4.1c0-.1 0-.2 0-.2 0-.1 0-.1 0-.2 0 0 0-.1-.1-.1 0 0-.1-.1-.2-.1l0-.1.9.2.9 2.3 0 0L37 4.6c0-.1 0-.2.1-.3 0-.1 0-.1 0-.2 0 0 0-.1-.1-.1 0 0-.1 0-.2-.1l0-.1 1 .2 0 .1c-.1 0-.2 0-.2 0-.1 0-.1 0-.1 0 0 0-.1.1-.1.1 0 .1 0 .1-.1.2l-.5 2-.5-.1-1-2.5 0 0L35 5.5c0 .1 0 .2-.1.3 0 .1 0 .1 0 .2C34.9 6 35 6 35 6c0 0 .1 0 .2.1l0 .1-1-.2L34.2 5.8zM31.2 5.5c.1 0 .1 0 .2 0 0 0 .1 0 .1 0 0 0 .1-.1.1-.1 0 0 0-.1 0-.2l.2-1.6c0-.1 0-.1 0-.2 0-.1 0-.1 0-.1 0 0-.1-.1-.1-.1 0 0-.1 0-.2 0l0-.1 2.2.2-.1.7-.1 0c0-.1 0-.2 0-.2 0-.1-.1-.1-.1-.2 0 0-.1-.1-.2-.1-.1 0-.2 0-.3-.1l-.4 0c-.1 0-.1 0-.1 0 0 0 0 0 0 .1l-.1.9c.1 0 .3 0 .4 0 .1 0 .2 0 .2 0 .1 0 .1-.1.1-.1C33 4.1 33 4 33 3.9l.1 0-.1 1-.1 0c0-.1 0-.2 0-.2 0-.1 0-.1-.1-.1 0 0-.1-.1-.2-.1-.1 0-.2 0-.3-.1l-.1.7c0 .1 0 .1 0 .2 0 .1 0 .1.1.1 0 0 .1.1.2.1.1 0 .2 0 .3 0 .1 0 .2 0 .3 0 .1 0 .2 0 .2-.1.1 0 .1-.1.2-.2 0-.1.1-.2.1-.3l.1 0-.1.8-2.3-.3L31.2 5.5zM29.5 5.5c.1 0 .1 0 .2 0 0 0 .1 0 .1-.1 0 0 0-.1.1-.1 0-.1 0-.2 0-.3l0-1.4c0-.1 0-.2 0-.2 0-.1 0-.1 0-.2 0 0-.1-.1-.1-.1 0 0-.1 0-.2 0l0-.1 1.2 0 0 .1c-.1 0-.1 0-.2 0 0 0-.1 0-.1.1 0 0 0 .1 0 .2 0 .1 0 .1 0 .2l0 1.4c0 .1 0 .2 0 .3 0 .1 0 .1 0 .1 0 0 .1.1.1.1 0 0 .1 0 .2 0l0 .1-1.2 0L29.5 5.5zM26.1 3.9c.1-.2.1-.3.2-.5.1-.1.2-.2.4-.3C26.9 3.1 27.1 3 27.3 3c.1 0 .3 0 .4 0 .1 0 .3.1.4.2l0-.2.1 0 .1.9-.2 0c-.1-.2-.2-.4-.3-.5-.2-.1-.3-.2-.5-.1-.3 0-.5.1-.6.4-.1.2-.2.5-.1.9 0 .4.1.6.3.8.2.2.4.3.6.2.2 0 .3-.1.4-.2.1-.1.1-.3.1-.4 0-.1 0-.2-.1-.2-.1 0-.2-.1-.3-.1l0-.1 1.1-.1 0 .1c-.1 0-.2 0-.2.1 0 .1-.1.1 0 .3l0 .5c-.1 0-.1 0-.1 0 0 0-.1 0-.1 0 0 0-.1 0-.1.1 0 0-.1.1-.1.1-.2.1-.4.2-.7.2-.2 0-.4 0-.6 0-.2 0-.3-.1-.4-.2-.1-.1-.2-.2-.3-.4-.1-.2-.1-.3-.1-.5C26.1 4.3 26.1 4.1 26.1 3.9zM23.8 3.6l0 .1c-.1 0-.2 0-.2.1 0 0 0 .1 0 .1 0 0 0 0 0 .1 0 0 .1.1.1.1l.7.8 0 0 .3-.8c0-.1.1-.2.1-.3 0-.1 0-.1 0-.2 0 0 0-.1-.1-.1 0 0-.1 0-.2 0l0-.1.9-.2 0 .1c0 0-.1 0-.1.1 0 0-.1.1-.1.1 0 .1-.1.1-.1.2S25 4 24.9 4.1l-.3 1 .1.3c0 .1 0 .2.1.3 0 .1.1.1.1.1 0 0 .1 0 .1 0 0 0 .1 0 .2 0l0 .1L24 6.3l0-.1c.1 0 .1 0 .2-.1 0 0 .1-.1.1-.1 0 0 0-.1 0-.2 0-.1 0-.2 0-.3l-.1-.3-1-1.1c0-.1-.1-.1-.1-.1C23 4 23 4 22.9 3.9c0 0-.1 0-.1 0 0 0-.1 0-.1 0l0-.1L23.8 3.6zM20.3 4.6l0 .1c-.1 0-.1.1-.2.1 0 0-.1.1-.1.1 0 0 0 .1 0 .1 0 .1 0 .1.1.2l.2.6 1.2-.4-.2-.6c0-.1-.1-.1-.1-.2 0 0-.1-.1-.1-.1 0 0-.1 0-.1 0 0 0-.1 0-.2 0l0-.1L22 4l0 .1c-.1 0-.1.1-.2.1 0 0-.1.1-.1.1 0 0 0 .1 0 .1 0 .1 0 .1.1.2l.5 1.5c0 .1.1.1.1.2 0 0 .1.1.1.1 0 0 .1 0 .1 0 0 0 .1 0 .2 0l0 .1-1.2.4 0-.1c.1 0 .1-.1.2-.1 0 0 .1-.1.1-.1 0 0 0-.1 0-.1 0-.1 0-.1-.1-.2l-.2-.7L20.4 6l.2.7c0 .1.1.1.1.2 0 0 .1.1.1.1 0 0 .1 0 .1 0 .1 0 .1 0 .2 0l0 .1L20 7.5l0-.1c.1 0 .1-.1.2-.1 0 0 .1-.1.1-.1 0 0 0-.1 0-.1 0-.1 0-.1-.1-.2l-.5-1.5c0-.1-.1-.1-.1-.2 0 0-.1-.1-.1-.1 0 0-.1 0-.1 0 0 0-.1 0-.2 0l0-.1L20.3 4.6zM16.2 6.4l1.7 1.4C18 7.8 18.1 7.9 18.2 8 18.3 8 18.3 8 18.4 8c.1 0 .1 0 .2 0 .1 0 .1 0 .2-.1l.1.1-1.1.6-.1-.1c.1-.1.2-.1.2-.1 0 0 0-.1 0-.1 0 0 0-.1-.1-.1 0 0-.1-.1-.2-.1L17.4 8l-.9.5c0 .3.1.4.1.5 0 .1.1.1.1.1C16.8 9 16.9 9 17 9L17 9.1l-.8.5-.1-.1c0 0 .1-.1.1-.1 0 0 .1-.1.1-.1 0 0 0-.1 0-.1 0 0 0-.1 0-.1L16 6.5 16.2 6.4zM14.4 7.6l.1.1c-.1 0-.1.1-.1.1 0 0 0 .1 0 .1 0 0 0 .1 0 .2 0 .1.1.1.1.2l.8 1.1c.1.1.1.2.2.2 0 0 .1.1.1.1 0 0 .1 0 .1 0 0 0 .1 0 .2-.1l.1.1-1 .7-.1-.1c.1 0 .1-.1.1-.1 0 0 0-.1 0-.1 0 0 0-.1 0-.2 0-.1-.1-.1-.1-.2L14 8.6c-.1-.1-.1-.1-.1-.2 0 0-.1-.1-.1-.1 0 0-.1 0-.1 0 0 0-.1 0-.2.1l-.1-.1L14.4 7.6zM11.7 9.7c.3-.2.5-.3.7-.4.2 0 .4 0 .5.2.1.1.2.3.2.5 0 .2-.1.4-.2.5l1.2.2c.1 0 .2 0 .2 0 .1 0 .1-.1.2-.1l.1.1L14 11.2l-1.3-.2c-.1 0-.2 0-.2 0 0 0-.1 0-.1.1l.4.5c.1.1.1.1.2.1 0 0 .1.1.1.1s.1 0 .2-.1c.1 0 .1-.1.2-.2l.1.1-1 .9-.1-.1c.1 0 .1-.1.1-.1 0 0 0-.1 0-.1 0 0 0-.1 0-.1 0 0-.1-.1-.1-.2l-1.1-1.2c-.1-.1-.1-.1-.1-.1 0 0-.1-.1-.1-.1 0 0-.1 0-.1 0 0 0-.1.1-.1.1l-.1-.1L11.7 9.7zM8.8 12.7c.1-.2.2-.4.3-.5.1-.2.3-.3.5-.4.2-.1.4-.1.5-.2.2 0 .4 0 .5.1.2.1.3.1.5.3.1.1.2.3.3.4.1.2.1.3.1.5 0 .2 0 .4-.1.5-.1.2-.2.4-.3.5-.1.2-.3.3-.5.4-.2.1-.3.1-.5.2-.2 0-.4 0-.5 0-.2-.1-.3-.1-.5-.3-.1-.1-.3-.3-.3-.5-.1-.2-.1-.3-.1-.5C8.7 13 8.7 12.9 8.8 12.7zM7.7 14l.7.4-.1.1C8.1 14.4 8 14.4 8 14.4c-.1 0-.1 0-.2 0-.1 0-.1 0-.2.1-.1 0-.1.1-.2.2-.1.1-.1.1-.1.2 0 0 0 .1-.1.1 0 0 0 .1 0 .1 0 0 0 0 0 0l1.5 1c.1 0 .1.1.2.1 0 0 .1 0 .1 0s.1 0 .1-.1c0 0 .1-.1.2-.2L9.5 16l-.8 1.2-.1-.1c.1-.1.1-.2.1-.2 0-.1 0-.1 0-.2 0 0 0-.1-.1-.1 0 0-.1-.1-.2-.1l-1.5-1c0 0 0 0 0 0 0 0 0 0-.1 0 0 0 0 0-.1.1 0 0-.1.1-.1.2 0 .1-.1.1-.1.2 0 .1-.1.1-.1.2 0 .1 0 .1.1.2 0 .1.1.2.2.2l-.1.1-.6-.5L7.7 14zM5.2 17.9c.1-.1.1-.2.2-.3.1-.1.2-.2.3-.3l-.2-.2L5.7 17l.8.5-.1.1c-.2-.1-.4 0-.6 0-.2.1-.3.2-.4.4-.1.1-.1.2-.1.4 0 .1 0 .2.1.3.1.1.1.2.3.3.1.1.2.2.4.3.3.2.6.2.8.2.2 0 .4-.2.6-.5.1-.2.1-.4.1-.6 0-.2-.2-.4-.4-.5l.1-.1.8.4L8 18.3l-.3-.1c.1.3 0 .6-.1 1-.1.2-.2.3-.3.5-.1.1-.3.2-.4.3C6.7 20 6.5 20 6.4 20c-.2 0-.4-.1-.5-.2-.2-.1-.3-.2-.5-.4-.1-.1-.2-.3-.3-.5C5 18.9 5 18.7 5 18.5 5 18.3 5.1 18.1 5.2 17.9zM4.3 20l.1 0c0 .1 0 .1 0 .2 0 0 0 .1 0 .1 0 0 .1.1.1.1.1 0 .1.1.2.1l1.3.5c.1 0 .2.1.2.1.1 0 .1 0 .2 0 0 0 .1 0 .1-.1 0 0 .1-.1.1-.2l.1 0-.4 1.2-.1 0c0-.1 0-.1 0-.2 0 0 0-.1 0-.1 0 0-.1-.1-.1-.1-.1 0-.1-.1-.2-.1L4.6 21C4.5 21 4.4 21 4.3 21c-.1 0-.1 0-.2 0 0 0-.1 0-.1.1C4 21 4 21.1 4 21.2l-.1 0L4.3 20zM3.2 23.3l.1 0c0 .1 0 .1 0 .1 0 0 0 .1 0 .1 0 0 0 0 0 .1 0 0 0 0 .1 0 0 0 .1 0 .1 0 0 0 .1 0 .2 0l1.6-.1-1-.7c-.1-.1-.2-.1-.2-.2-.1 0-.1-.1-.2-.1 0 0-.1 0-.1-.1 0 0-.1 0-.1 0-.1 0-.1 0-.1 0 0 0-.1.1-.1.2l-.1 0 .3-1 .1 0c-.1.2 0 .3.2.5l2 1.5L5.8 24l-2.2.3c-.1 0-.2 0-.3 0-.1 0-.1 0-.2.1-.1 0-.1.1-.1.1 0 0 0 .1-.1.2l-.1 0L3.2 23.3zM3.7 27.8c0 1.2 1 2.2 2.2 2.2-1.2 0-2.2 1-2.2 2.2 0-1.2-1-2.2-2.2-2.2C2.8 29.9 3.7 29 3.7 27.8zM3 36.7c-.1-.1-.1-.3-.2-.4 0-.1 0-.3 0-.4 0-.1 0-.2.1-.4l-.2 0 0-.1.9-.3 0 .1c-.2.1-.4.2-.5.4C3 35.9 3 36.1 3.1 36.3c0 .1 0 .2.1.2 0 .1.1.1.1.2 0 0 .1.1.2.1.1 0 .1 0 .2 0 .1 0 .1 0 .1-.1 0 0 .1-.1.1-.1 0-.1.1-.1.1-.2 0-.1 0-.2.1-.4 0-.3.1-.5.2-.7.1-.2.3-.3.4-.3.1 0 .2 0 .3 0 .1 0 .2.1.3.1.1.1.2.1.2.2.1.1.1.2.1.3 0 .1 0 .2 0 .3 0 .1 0 .2-.1.3l.2 0 0 .1L5 36.7l0-.1c.2-.1.3-.2.4-.4.1-.1.1-.3.1-.4 0-.1-.1-.3-.2-.3-.1-.1-.2-.1-.3-.1 0 0-.1 0-.1.1 0 0-.1.1-.1.1 0 .1 0 .1-.1.2 0 .1 0 .2-.1.3 0 .2-.1.3-.1.5 0 .1-.1.2-.1.3C4.3 37 4.2 37 4.1 37.1c-.1.1-.2.1-.3.1-.1 0-.2 0-.3 0-.1 0-.2-.1-.3-.2C3.1 37 3.1 36.9 3 36.7zM4.1 39.9l-.1 0-.5-1.4.1 0c0 .1.1.2.1.2 0 .1.1.1.1.1 0 0 .1 0 .1 0 .1 0 .1 0 .2 0l1.8-.6c0 0 0 0 0 0 0 0 0 0 0-.1 0 0 0-.1 0-.1 0 0 0-.1-.1-.2 0-.1-.1-.2-.1-.2 0-.1-.1-.1-.1-.2-.1 0-.1-.1-.2-.1-.1 0-.2 0-.3.1l0-.1L5.8 37l.9 2.6L6 40l0-.1c.1 0 .2-.1.3-.1.1-.1.1-.1.1-.2 0-.1 0-.1 0-.2 0-.1 0-.2-.1-.2 0-.1-.1-.2-.1-.2 0-.1 0-.1-.1-.1 0 0 0 0-.1 0 0 0 0 0-.1 0l-1.8.6c-.1 0-.1.1-.2.1 0 0-.1.1-.1.1 0 0 0 .1 0 .2C4 39.7 4 39.8 4.1 39.9zM5.6 43.4l-.1.1-.6-1.2.1-.1c.1.1.1.2.1.2 0 0 .1 0 .1 0 0 0 .1 0 .1-.1 0 0 .1-.1.1-.1L5.7 42l-.4-.9c-.3 0-.5 0-.5.1-.1 0-.1.1-.1.1 0 .1 0 .1.1.2l-.1.1-.4-.9.1-.1c0 0 .1.1.1.1 0 0 .1.1.1.1 0 0 .1 0 .1 0 0 0 .1 0 .1 0l2.5-.2L7.4 41l-1.5 1.7c-.1.1-.2.2-.2.2 0 .1-.1.1-.1.2 0 .1 0 .1 0 .2C5.6 43.2 5.6 43.3 5.6 43.4zM6.9 44.4c-.1.1-.2.1-.2.2-.1 0-.1.1-.1.1 0 0 0 .1 0 .1 0 0 0 .1.1.2l-.1.1L5.9 44 6 44c0 .1.1.1.1.1 0 0 .1.1.1.1 0 0 .1 0 .2 0 .1 0 .1-.1.2-.1l.3-.2.7-1.3c0-.1.1-.1.1-.2 0 0 0-.1 0-.1 0 0 0-.1 0-.1 0 0 0-.1-.1-.1l.1-.1.6 1L8.3 43c-.1-.1-.1-.1-.1-.2 0 0-.1 0-.1 0 0 0 0 0-.1.1 0 0 0 .1-.1.1L7.4 44l0 0 .9 0c.2 0 .3 0 .3 0 .1 0 .1 0 .2 0 0 0 0-.1 0-.1 0 0 0-.1-.1-.2l.1-.1.5.8-.1.1c0 0-.1-.1-.1-.1 0 0-.1 0-.2-.1-.1 0-.2 0-.3 0-.1 0-.2 0-.4 0l-1 0L6.9 44.4zM9.8 49.1c0 0 .1.1.1.2l-.1.1-.9-1 .1-.1c.1.1.1.1.2.1 0 0 .1.1.1.1 0 0 .1 0 .1 0 0 0 .1-.1.2-.1l.6-.5-.9-1-.5.5c-.1.1-.1.1-.2.2 0 0-.1.1-.1.1 0 0 0 .1 0 .1s.1.1.1.2L8.6 48l-.8-1 .1-.1C8 47 8 47 8 47c0 0 .1 0 .1 0 0 0 .1 0 .1 0 0 0 .1-.1.2-.1l1.3-1.1c.1-.1.1-.1.1-.1 0 0 .1-.1.1-.1 0 0 0-.1 0-.1 0 0-.1-.1-.1-.1l.1-.1.8.9-.1.1c-.1-.1-.1-.1-.1-.1 0 0-.1 0-.1 0 0 0-.1 0-.1 0 0 0-.1.1-.2.1l-.5.4.9 1 .5-.4c.1-.1.1-.1.1-.1 0 0 .1-.1.1-.1 0 0 0-.1 0-.1 0 0-.1-.1-.1-.2l.1-.1.8.9-.1.1c0-.1-.1-.1-.1-.1 0 0-.1 0-.1 0 0 0-.1 0-.1 0 0 0-.1.1-.2.1l-1.2 1c-.1.1-.1.1-.2.2 0 0-.1.1-.1.1C9.8 49 9.8 49.1 9.8 49.1zM11.9 50.3c-.1.1-.1.2-.2.2 0 .1-.1.1-.1.2 0 0 0 .1 0 .1 0 0 .1.1.1.1l-.1.1-.9-.9.1-.1c.1 0 .1.1.1.1 0 0 .1 0 .1 0 0 0 .1 0 .1-.1.1 0 .1-.1.2-.2l.2-.2.3-1.5c0-.1 0-.1 0-.2 0 0 0-.1 0-.1 0 0 0-.1 0-.1 0 0 0-.1-.1-.1l.1-.1.9.8-.1.1c-.1-.1-.1-.1-.2-.1 0 0-.1 0-.1 0 0 0 0 0 0 .1 0 0 0 .1 0 .1l-.3 1.1 0 0 .8-.3c.1 0 .3-.1.3-.1.1 0 .1-.1.1-.1 0 0 0-.1 0-.1 0 0-.1-.1-.1-.2l.1-.1.7.6L14 49.7c0 0-.1-.1-.1-.1 0 0-.1 0-.2 0-.1 0-.2 0-.3 0-.1 0-.2.1-.4.1l-1 .3L11.9 50.3zM15.1 52.7l-.3.4c0 0-.1-.1-.1-.1 0 0-.1 0-.1 0 0 0-.1 0-.1 0 0 0-.1 0-.2 0-.2 0-.4-.1-.6-.3-.2-.1-.3-.3-.4-.4-.1-.2-.2-.3-.2-.5 0-.2 0-.3 0-.5 0-.2.1-.3.3-.5.1-.2.3-.3.4-.4.2-.1.3-.2.5-.2.2 0 .4 0 .5 0 .2 0 .4.1.5.3.1.1.2.2.3.3.1.1.2.2.2.4L16 51l.1.1-.5.7-.1-.1c.1-.2.1-.4.1-.6 0-.2-.2-.3-.3-.5-.2-.2-.5-.2-.7-.1-.2.1-.5.3-.7.6-.2.3-.3.6-.3.8 0 .2.1.5.3.6.2.1.3.2.5.2.2 0 .3-.1.4-.2.1-.1.1-.2.1-.2 0-.1-.1-.2-.2-.2l.1-.1.9.7-.1.1c-.1-.1-.2-.1-.2-.1C15.2 52.5 15.1 52.6 15.1 52.7zM16.5 54.4l-1.1-.6.1-.1c.1 0 .1.1.2.1 0 0 .1 0 .1 0 0 0 .1-.1.1-.1 0-.1.1-.1.1-.2l.7-1.2c.1-.1.1-.2.1-.2 0-.1 0-.1 0-.2 0 0 0-.1 0-.1s-.1-.1-.1-.1l.1-.1 1 .6-.1.1c-.1 0-.1-.1-.2-.1 0 0-.1 0-.1 0 0 0-.1.1-.1.1 0 .1-.1.1-.1.2l-.7 1.2c-.1.1-.1.2-.1.2 0 .1 0 .1 0 .2 0 0 0 .1.1.1 0 0 .1.1.2.1L16.5 54.4zM19.6 53.1c-.1-.1-.2-.1-.3-.2L19 52.8c-.1 0-.1 0-.1 0 0 0 0 0-.1.1l-.4.8c.1.1.3.1.3.1.1 0 .2 0 .2 0 .1 0 .1 0 .2-.1 0 0 .1-.1.1-.2l.1.1-.4.9-.1-.1c0-.1 0-.2 0-.2 0-.1 0-.1 0-.2 0 0-.1-.1-.2-.1-.1 0-.2-.1-.3-.2L18 54.5c0 .1 0 .1-.1.2 0 .1 0 .1 0 .2 0 0 .1.1.1.1.1 0 .2.1.3.1.1.1.2.1.3.1.1 0 .2 0 .3 0 .1 0 .1-.1.2-.1.1-.1.1-.1.2-.2l.1.1-.4.7-2.2-1 .1-.1c.1 0 .1.1.2.1.1 0 .1 0 .1 0 0 0 .1 0 .1-.1 0 0 .1-.1.1-.2l.7-1.5c0-.1.1-.1.1-.2 0 0 0-.1 0-.1 0 0 0-.1-.1-.1 0 0-.1-.1-.1-.1l.1-.1 2 1-.3.6-.1-.1c0-.1 0-.2 0-.3 0-.1 0-.1-.1-.2C19.7 53.3 19.7 53.2 19.6 53.1zM23.1 54.6c0 .1-.1.1-.1.2l-.6 2-.5-.1-.8-2.6 0 0-.5 1.5c0 .1-.1.2-.1.3 0 .1 0 .1 0 .2 0 0 0 .1.1.1 0 0 .1.1.2.1l0 .1-1-.3 0-.1c.1 0 .2 0 .2 0 .1 0 .1 0 .1 0 0 0 .1-.1.1-.1 0-.1.1-.1.1-.2l.4-1.4c0-.1.1-.2.1-.2 0-.1 0-.1 0-.2 0 0 0-.1-.1-.1 0 0-.1-.1-.2-.1l0-.1.9.3.7 2.4 0 0 .4-1.3c0-.1.1-.2.1-.3 0-.1 0-.1 0-.2 0 0 0-.1-.1-.1 0 0-.1-.1-.2-.1l0-.1 1 .3 0 .1c-.1 0-.2 0-.2 0-.1 0-.1 0-.1 0C23.2 54.5 23.2 54.5 23.1 54.6zM25.1 54.8c-.1 0-.1 0-.2 0 0 0-.1 0-.1.1 0 0-.1.1-.1.1 0 .1 0 .1-.1.2l-.3 1.4c0 .1 0 .2 0 .3 0 .1 0 .1 0 .2 0 0 .1.1.1.1 0 0 .1 0 .2.1l0 .1-1.2-.3 0-.1c.1 0 .1 0 .2 0 .1 0 .1 0 .1 0 0 0 .1-.1.1-.1 0-.1 0-.1.1-.3l.3-1.4c0-.1 0-.2 0-.2 0-.1 0-.1 0-.2 0 0 0-.1-.1-.1 0 0-.1 0-.2-.1l0-.1 1.2.3L25.1 54.8zM26 57c.1.2.3.3.6.4.2 0 .4 0 .6-.1.2-.1.3-.3.4-.5l.2 0-.1 1-.2 0 0-.3c-.3.2-.6.2-1 .2-.2 0-.4-.1-.6-.2-.2-.1-.3-.2-.4-.3-.1-.1-.2-.3-.2-.5 0-.2-.1-.4 0-.6 0-.2.1-.4.2-.6.1-.2.2-.3.4-.4.1-.1.3-.2.5-.2.2 0 .4-.1.6 0 .1 0 .3.1.4.1.1.1.2.1.4.2l.1-.2.2 0-.2.9-.1 0c0-.2-.1-.4-.2-.5-.1-.1-.3-.2-.5-.2-.1 0-.3 0-.4 0-.1 0-.2.1-.3.2-.1.1-.2.2-.2.4-.1.1-.1.3-.1.5C25.9 56.5 25.9 56.8 26 57zM30.8 56.7c0 .1-.1.1-.1.2-.1.1-.1.1-.2.1-.1 0-.1 0-.2 0-.1 0-.1 0-.2 0-.1 0-.1-.1-.2-.1-.1-.1-.1-.1-.1-.2 0-.1 0-.1-.1-.2 0-.1 0-.1 0-.2 0-.1.1-.1.1-.2C29.9 56 29.9 56 30 56c.1 0 .1 0 .2 0 .1 0 .1 0 .2 0 .1 0 .1.1.2.1.1 0 .1.1.1.2 0 .1 0 .1.1.2C30.8 56.5 30.8 56.6 30.8 56.7zM34.6 56.9c0 .1-.1.2-.2.3-.1.1-.2.2-.3.2-.1.1-.3.1-.4.1-.1 0-.3 0-.4 0-.1 0-.2-.1-.4-.1l0 .2-.1 0-.2-.9.1 0c.1.2.2.4.3.5.2.1.4.1.6.1.1 0 .2 0 .2-.1.1 0 .1-.1.2-.1 0 0 .1-.1.1-.2 0-.1 0-.1 0-.2 0-.1 0-.1 0-.1 0 0-.1-.1-.1-.1-.1 0-.1-.1-.2-.1-.1 0-.2-.1-.4-.1-.3-.1-.5-.2-.7-.3-.2-.1-.2-.3-.3-.5 0-.1 0-.2 0-.3 0-.1.1-.2.1-.3.1-.1.2-.1.3-.2.1-.1.2-.1.3-.1.1 0 .2 0 .3 0 .1 0 .2.1.3.1l0-.2.1 0 .2.8-.1 0c-.1-.2-.2-.3-.3-.4-.1-.1-.3-.1-.4-.1-.1 0-.3.1-.3.2-.1.1-.1.2-.1.3 0 0 0 .1 0 .1 0 0 .1.1.1.1 0 0 .1.1.2.1.1 0 .2.1.3.1.2 0 .3.1.4.1.1 0 .2.1.3.2.1.1.2.1.2.2 0 .1.1.2.1.3C34.7 56.7 34.7 56.8 34.6 56.9zM37.4 54.7c0-.1-.1-.2-.1-.3 0-.1-.1-.1-.2-.2-.1 0-.1 0-.2 0-.1 0-.2 0-.2 0-.1 0-.2 0-.2.1-.1 0-.1 0-.1 0s0 0 0 0c0 0 0 0 0 .1l.5 1.8c0 .1 0 .1.1.2 0 0 .1.1.1.1 0 0 .1 0 .2 0 .1 0 .2 0 .3 0l0 .1L36 57.1l0-.1c.1 0 .2-.1.2-.1.1 0 .1-.1.1-.1 0 0 0-.1 0-.1 0-.1 0-.1 0-.2l-.5-1.8c0 0 0 0 0 0 0 0 0 0-.1 0 0 0-.1 0-.1 0 0 0-.1 0-.2 0-.1 0-.2 0-.2.1-.1 0-.1.1-.2.1 0 .1-.1.1-.1.2 0 .1 0 .2 0 .3l-.1 0-.2-.8 2.7-.7.2.7L37.4 54.7zM39.7 55.9l-.1-.1c.1 0 .2-.1.2-.1 0 0 0-.1 0-.1 0 0 0-.1-.1-.1 0 0-.1-.1-.1-.2l-.2-.2-.9.4c0 .3 0 .5 0 .5 0 .1.1.1.1.1.1 0 .1 0 .2-.1l.1.1-.9.4-.1-.1c.1 0 .1-.1.1-.1 0 0 .1-.1.1-.1 0 0 0-.1 0-.1 0 0 0-.1 0-.1l0-2.5.2-.1 1.5 1.6c.1.1.2.2.2.2.1.1.1.1.2.1.1 0 .1 0 .2 0s.1 0 .2 0l.1.1L39.7 55.9zM41.6 55.1l-.1-.1c.1 0 .1-.1.2-.1 0 0 .1-.1.1-.1 0 0 0-.1 0-.2 0-.1-.1-.1-.1-.2L41.5 54l-1.3-.8c-.1 0-.1-.1-.2-.1 0 0-.1 0-.1 0s-.1 0-.1 0c0 0-.1 0-.1 0L39.7 53l1.1-.5.1.1c-.1 0-.1.1-.2.1 0 0 0 .1 0 .1 0 0 0 0 .1.1 0 0 .1.1.1.1l.9.6 0 0 .1-.9c0-.2 0-.3 0-.3 0-.1 0-.1 0-.2 0 0 0-.1-.1 0s-.1 0-.2.1l-.1-.1.8-.4.1.1c0 0-.1.1-.1.1 0 0-.1.1-.1.1 0 .1 0 .1 0 .3 0 .1 0 .2 0 .4l-.1 1 .2.3c.1.1.1.2.1.2 0 .1.1.1.1.1 0 0 .1 0 .1 0 0 0 .1 0 .2-.1l.1.1L41.6 55.1zM46.2 52.3l-.1-.1c.1-.1.1-.1.2-.1 0 0 .1-.1.1-.1 0 0 0-.1 0-.1 0 0-.1-.1-.1-.2L45.7 51l-1.1.8.4.6c.1.1.1.1.1.2 0 0 .1.1.1.1 0 0 .1 0 .1 0 .1 0 .1-.1.2-.1l.1.1-1 .8-.1-.1c.1-.1.1-.1.1-.1 0 0 .1-.1.1-.1 0 0 0-.1 0-.1 0 0-.1-.1-.1-.2l-1-1.3c0-.1-.1-.1-.1-.2 0 0-.1-.1-.1-.1 0 0-.1 0-.1 0 0 0-.1 0-.2.1l-.1-.1 1-.7.1.1c-.1 0-.1.1-.1.1 0 0 0 .1-.1.1 0 0 0 .1 0 .1 0 0 .1.1.1.2l.4.5 1.1-.8-.4-.5c0-.1-.1-.1-.1-.2 0 0-.1-.1-.1-.1 0 0-.1 0-.1 0 0 0-.1.1-.2.1l-.1-.1 1-.7.1.1c-.1 0-.1.1-.1.1 0 0 0 .1 0 .1 0 0 0 .1 0 .1 0 0 .1.1.1.2l.9 1.3c.1.1.1.1.1.2 0 0 .1.1.1.1 0 0 .1 0 .1 0 0 0 .1-.1.2-.1l.1.1L46.2 52.3zM47.7 51.1 47.6 51c.1-.1.1-.1.1-.1 0 0 0-.1 0-.1 0 0 0-.1 0-.1 0 0-.1-.1-.1-.2l-1.1-1.2c-.1-.1-.1-.1-.1-.1 0 0-.1 0-.1-.1 0 0-.1 0-.1 0 0 0-.1.1-.1.1L45.8 49l1.6-1.6L48 48l-.1.1C47.8 48 47.7 48 47.6 48c-.1 0-.1 0-.2 0-.1 0-.1 0-.2.1-.1 0-.2.1-.2.2l-.3.3c0 0-.1.1-.1.1 0 0 0 .1.1.1l.6.7c.1-.1.2-.2.3-.3.1-.1.1-.1.1-.2 0-.1 0-.1 0-.2 0-.1-.1-.1-.1-.2l.1-.1.7.8-.1.1c-.1-.1-.1-.1-.2-.1-.1 0-.1 0-.2 0-.1 0-.1 0-.2.1-.1.1-.2.1-.3.2l.5.5c.1.1.1.1.2.1.1 0 .1 0 .2 0 .1 0 .1 0 .2-.1.1 0 .1-.1.2-.2.1-.1.2-.2.2-.3.1-.1.1-.2.1-.2 0-.1 0-.2 0-.2 0-.1-.1-.2-.1-.3l.1-.1.5.6L47.7 51.1zM50.9 47.8l-.1-.1c.1-.1.1-.2.1-.2 0-.1 0-.1 0-.1 0 0-.1 0-.1-.1-.1 0-.1 0-.2-.1l-.2-.1-.6.8c.1.2.2.4.3.5.1 0 .1.1.2 0 0 0 .1-.1.2-.2l.1.1-.6.7L49.7 49c0 0 .1-.1.1-.1 0 0 0-.1 0-.1 0 0 0-.1 0-.1 0 0 0-.1-.1-.1l-1.2-2.2.2-.2 2.1.7c.1 0 .2.1.3.1.1 0 .1 0 .2 0 .1 0 .1 0 .1-.1 0 0 .1-.1.2-.1l.1.1L50.9 47.8zM52 46.4l-.1-.1c0-.1.1-.1.1-.2 0 0 0-.1 0-.1 0 0 0-.1-.1-.1 0 0-.1-.1-.2-.1l-1.4-.9c-.1 0-.1-.1-.2-.1 0 0-.1 0-.1 0 0 0-.1 0-.1.1 0 0-.1.1-.1.1l-.1-.1.7-1 .1.1c0 .1-.1.1-.1.2 0 0 0 .1 0 .1 0 0 0 .1.1.1 0 0 .1.1.2.1l1.2.8c.1.1.2.1.2.1.1 0 .1 0 .2 0 .1 0 .1-.1.2-.1.1-.1.1-.1.2-.2.1-.1.1-.2.2-.3 0-.1.1-.2 0-.2 0-.1 0-.2-.1-.2 0-.1-.1-.2-.2-.2l.1-.1.6.5L52 46.4zM53.7 43.7l-.1-.1c0-.1.1-.2.1-.2 0-.1 0-.1 0-.2 0 0 0-.1-.1-.1 0 0-.1-.1-.2-.1l-1.7-.9c0 0 0 0-.1 0 0 0 0 0-.1 0 0 0 0 0-.1.1 0 0-.1.1-.1.2 0 .1-.1.2-.1.2 0 .1 0 .1 0 .2 0 .1 0 .1.1.2.1.1.1.1.3.2l-.1.1L51 43l1.3-2.5.7.3-.1.1c-.1 0-.2-.1-.3-.1-.1 0-.2 0-.2 0-.1 0-.1.1-.2.1 0 .1-.1.1-.1.2 0 .1-.1.1-.1.2s0 .1 0 .1c0 0 0 .1 0 .1 0 0 0 0 0 0l1.7.9c.1 0 .1.1.2.1.1 0 .1 0 .1 0 0 0 .1 0 .1-.1 0 0 .1-.1.1-.2l.1.1L53.7 43.7zM55.6 39.5l-.1 0c0-.1 0-.2.1-.2 0-.1 0-.1 0-.1 0 0 0-.1-.1-.1 0 0-.1-.1-.2-.1l-.7-.3L54 39.9l.7.2c.1 0 .2.1.2.1.1 0 .1 0 .1 0 0 0 .1 0 .1-.1 0 0 .1-.1.1-.2l.1 0-.4 1.2-.1 0c0-.1 0-.1 0-.2 0 0 0-.1 0-.1 0 0 0-.1-.1-.1 0 0-.1-.1-.2-.1L53 40.1c-.1 0-.1 0-.2-.1-.1 0-.1 0-.1 0 0 0-.1 0-.1.1 0 0-.1.1-.1.2l-.1 0 .4-1.2.1 0c0 .1 0 .1 0 .2 0 0 0 .1 0 .1 0 0 .1.1.1.1 0 0 .1.1.2.1l.6.2.5-1.2-.6-.2c-.1 0-.1 0-.2-.1-.1 0-.1 0-.1 0 0 0-.1 0-.1.1 0 0-.1.1-.1.2l-.1 0 .4-1.2.1 0c0 .1 0 .1 0 .2 0 0 0 .1 0 .1 0 0 .1.1.1.1 0 0 .1.1.2.1l1.5.5c.1 0 .2.1.2.1.1 0 .1 0 .1 0 0 0 .1 0 .1-.1 0 0 .1-.1.1-.2l.1 0L55.6 39.5zM56.3 37.1l-.1 0c0-.1 0-.1 0-.2 0-.1 0-.1 0-.1 0 0-.1-.1-.1-.1-.1 0-.2-.1-.3-.1l-.3-.1L54 36.9c-.1 0-.1 0-.2.1 0 0-.1 0-.1.1 0 0-.1.1-.1.1 0 0 0 .1 0 .1l-.1 0 .3-1.2.1 0c0 .1 0 .2 0 .2s0 .1.1.1c0 0 .1 0 .1 0 0 0 .1 0 .1 0l1.1-.3 0 0-.6-.6c-.1-.1-.2-.2-.3-.2-.1 0-.1-.1-.1-.1 0 0-.1 0-.1 0 0 0 0 .1-.1.2l-.1 0 .2-.9.1 0c0 .1 0 .1 0 .1 0 0 0 .1.1.2 0 .1.1.1.2.2.1.1.2.2.3.3l.8.7.4.1c.1 0 .2 0 .3 0 .1 0 .1 0 .2 0 0 0 .1 0 .1-.1 0 0 0-.1.1-.2l.1 0L56.3 37.1zM49 46.7l1.1.4-.5.7L49 46.7 49 46.7zM38.6 54l.8.9-.8.3L38.6 54 38.6 54zM45 20.7c0 0 .4 0 .7.3.2.3.1.7.1.7s-.4 0-.7-.3C44.9 21.1 45 20.7 45 20.7zM45.6 22c.2-.2.5-.1.5-.1s0 .3-.2.5c-.2.2-.5.1-.5.1S45.4 22.1 45.6 22zM44.7 20.3c-.1-.2 0-.4 0-.4s.2.1.3.2c.1.2 0 .4 0 .4S44.8 20.4 44.7 20.3zM45.8 22.8c.1-.3.5-.5.5-.5s.3.3.2.7c-.1.3-.5.5-.5.5S45.8 23.1 45.8 22.8zM44.5 20.5c0 0 .2.3.1.6-.1.3-.5.4-.5.4s-.2-.3-.1-.6C44.2 20.7 44.5 20.5 44.5 20.5zM43.2 18.6c.2 0 .4.2.4.2S43.4 19 43.2 19c-.2 0-.4-.2-.4-.2S42.9 18.6 43.2 18.6zM43.6 19.1c0 0 .4-.2.7 0 .3.2.4.6.4.6s-.4.2-.7 0C43.6 19.5 43.6 19.1 43.6 19.1zM37.8 11.2c-2.6-1.1-5.3-1.6-8.1-1.6s-5.5.5-8.1 1.6c-2.5 1-4.7 2.5-6.6 4.4-1.9 1.9-3.4 4.1-4.4 6.6C9.5 24.8 9 27.5 9 30.3s.5 5.5 1.6 8.1c1 2.5 2.5 4.7 4.4 6.6 1.9 1.9 4.1 3.4 6.6 4.4 2.6 1.1 5.3 1.6 8.1 1.6s5.5-.5 8.1-1.6c2.5-1 4.7-2.5 6.6-4.4 1.9-1.9 3.4-4.1 4.4-6.6 1.1-2.6 1.6-5.3 1.6-8.1s-.5-5.5-1.6-8.1c-1-2.5-2.5-4.7-4.4-6.6C42.5 13.8 40.3 12.3 37.8 11.2zM49 30.3c0 4.5-1.5 8.6-4.1 11.9-.1-.5-.3-1.1-.3-1.1.2.7 0 1.5 0 1.5-.1-.3-.2-.9-.2-.9-.2.4-.2 1-.2 1l-.2-.6-.1.5c-.2-.4-.1-1.7-.1-1.7-.3.5-.4 1.5-.4 1.5-.1-.5-.5-1-.5-1 .2.7.1 1.2.1 1.2l-.2-.5-.2.5-.2-.5L42 42.8c0-1.2-.4-1.8-.4-1.8.3.7-.1 1.6-.1 1.6 0-.4-.2-.8-.2-.8 0 .4-.3.7-.3.7-.2-.6 0-1.3 0-1.3-.5.4-.5 1.3-.5 1.3C40.4 42 40.6 41 40.6 41c-.4.4-.7 1.8-.7 1.8l-.2-.6-.2.4c0-.9-.4-1.3-.4-1.3.3.8-.2 1.4-.2 1.4-.3-.3-.3-.9-.3-.9-.4.3-.3 1-.3 1l-.3-.6L38 42.7c0-.6.3-1.5.3-1.5-.4.3-.7 1.6-.7 1.6 0-.8-.4-1.4-.4-1.4.2.9 0 1.3 0 1.3L37 42.3l-.2.3-.1-.5c-.1.2-.3.6-.3.6-.2-.6.2-1.5.2-1.5C36 41.5 36 42.8 36 42.8c0-.3-.2-.9-.2-.9 0 .3-.2.6-.2.6-.2-.4-.2-1-.2-1-.2.4-.2 1.1-.2 1.1-.2-.7-.2-2-.2-2-.2.3-.2.9-.2 1.4v0l-.3.5c.1-.6-.4-1.5-.4-1.5.2.7 0 1.5 0 1.5-.1-.3-.2-.9-.2-.9-.2.4-.2 1-.2 1l-.2-.6-.1.5c-.2-.4-.1-1.7-.1-1.7-.3.5-.4 1.5-.4 1.5-.1-.5-.5-1-.5-1 .2.7.1 1.2.1 1.2l-.2-.5-.2.5L32 42.2l-.2.6c0 .2-.1.3-.1.5 0 .2 0 .3.1.4 0 .1.1.2 0 .3-.1.1-.2.2-.5.3-.2.1-.3.1-.4.1-.4 0-.4-.3-.5-.5 0-.2 0-.3.1-.5.2-.5.1-1 0-1.3 0 0 0 0-.1 0-.2.2-.5.5-.6.9-.1.3-.1.5-.1.7 0 .4 0 .7-.3 1.2-.2.3-.4.4-.7.4-.3 0-.6-.1-.8-.2-.1-.1-.2-.1-.2-.3 0-.1 0-.2.1-.3.9-.8.8-1.4.8-1.5 0-.3-.1-.6-.1-.9 0-.2 0-.3 0-.4 0 0 0 0 0 0-.4.3-.3 1-.3 1l-.3-.6-.3.6c0-.6.3-1.5.3-1.5-.4.3-.7 1.6-.7 1.6 0-.8-.4-1.4-.4-1.4.2.9 0 1.3 0 1.3l-.1-.4-.2.3-.1-.5c-.1.2-.3.6-.3.6-.2-.6.2-1.5.2-1.5-.6.4-.6 1.7-.6 1.7 0-.3-.2-.9-.2-.9 0 .3-.2.6-.2.6-.2-.4-.2-1-.2-1C25 41.9 25 42.7 25 42.7c-.2-.7-.2-2-.2-2-.2.4-.2 1-.2 1.5v0l-.3.5c.1-.6-.4-1.5-.4-1.5.2.7 0 1.5 0 1.5-.1-.3-.2-.9-.2-.9-.2.4-.2 1-.2 1l-.2-.6-.1.5c-.2-.4-.1-1.7-.1-1.7-.3.5-.4 1.5-.4 1.5-.1-.5-.5-1-.5-1 .2.7.1 1.2.1 1.2l-.2-.5-.2.5-.2-.5-.3.6c0-1.2-.4-1.8-.4-1.8.3.7-.1 1.6-.1 1.6 0-.4-.2-.8-.2-.8 0 .4-.3.7-.3.7-.2-.6 0-1.3 0-1.3-.5.4-.5 1.3-.5 1.3C19.8 42 20.1 41 20.1 41c-.4.4-.7 1.8-.7 1.8l-.2-.6L19 42.6c0-.9-.4-1.3-.4-1.3.3.8-.2 1.4-.2 1.4-.3-.3-.3-.9-.3-.9-.4.3-.3 1-.3 1l-.3-.6-.3.6c0-.6.3-1.5.3-1.5-.4.3-.7 1.6-.7 1.6 0-.8-.4-1.4-.4-1.4.2.9 0 1.3 0 1.3l-.1-.4-.2.3-.1-.5c-.1.2-.3.6-.3.6C15.7 42 16 41.1 16 41.1c-.6.4-.6 1.7-.6 1.7 0-.3-.2-.9-.2-.9 0 .3-.2.6-.2.6-.2-.4-.2-1-.2-1-.2.4-.2.6-.2.6-.2-.7-.2-1.4-.2-1.4-.1.1-.2.5-.1.9 0 .1 0 .2 0 .4-2.5-3.2-3.9-7.3-3.9-11.7 0-10.6 8.6-19.2 19.2-19.2S49 19.7 49 30.3zM47.8 29.2c0-.2.1-.4.1-.4s.2.1.2.3c0 .2-.1.4-.1.4S47.8 29.4 47.8 29.2zM18.8 30.8c0 .3-.3.7-.3.7s-.4-.2-.4-.6c0-.3.3-.7.3-.7S18.7 30.4 18.8 30.8zM19.8 30.5c0 .4-.4.7-.4.7s-.4-.3-.4-.7c0-.4.4-.7.4-.7S19.8 30.1 19.8 30.5zM20.6 29.9c0 0 .3.4.3.8-.1.4-.5.7-.5.7S20 31 20 30.6C20.1 30.2 20.6 29.9 20.6 29.9zM17.9 31.3c.1.3 0 .6 0 .6s-.4-.1-.5-.4c-.1-.3 0-.6 0-.6S17.8 31 17.9 31.3zM21.7 30.1c0 0 .4.4.3.9-.1.5-.6.8-.6.8s-.4-.4-.3-.9C21.2 30.3 21.7 30.1 21.7 30.1zM17.1 31.7c.1.3 0 .6 0 .6s-.4-.1-.5-.3c-.1-.3 0-.6 0-.6S16.9 31.4 17.1 31.7zM24.4 31c.1.5-.3.9-.3.9s-.5-.3-.6-.8c-.1-.5.3-.9.3-.9S24.3 30.6 24.4 31zM22.8 30.2c0 0 .5.4.4.9 0 .5-.5.9-.5.9s-.5-.4-.4-.9C22.3 30.6 22.8 30.2 22.8 30.2zM12.5 31.9c0 0 .1.2.1.3 0 .2-.2.3-.2.3s-.1-.2-.1-.3C12.3 32.1 12.5 31.9 12.5 31.9zM16.2 32.1c.1.3-.1.5-.1.5s-.3-.1-.4-.4c-.1-.3.1-.5.1-.5S16.1 31.8 16.2 32.1zM12.2 31.7c0 0-.2.2-.4.2-.2 0-.3-.2-.3-.2s.2-.2.4-.2C12 31.5 12.2 31.7 12.2 31.7zM11.6 30.8c0 0 .1.2.1.3 0 .1-.2.2-.2.2s-.1-.2-.1-.3C11.5 30.9 11.6 30.8 11.6 30.8zM13.1 31.9c0 0 .2.2.2.4 0 .2-.2.3-.2.3s-.2-.2-.2-.4C12.9 32.1 13.1 31.9 13.1 31.9zM24.7 29.8c-.2.1-.4.1-.7.2-.3 0-.6.1-.9.1-.2 0-.3 0-.5 0-.2 0-.4 0-.5-.1-.4-.1-.7-.1-1.1-.2-.4-.1-.8-.1-1.2-.1-.2 0-.5 0-.8-.1-.1 0-.3.1-.4.2-.2.1-.4.3-.6.4-.1.1-.2.2-.3.3-.1 0-.1.1-.2.1-.1 0-.1.1-.2.1-.2.2-.5.3-.7.4-.5.2-1 .4-1.6.5-.5.1-1 .2-1.4.2-.8.1-1.4 0-1.4 0l0 0c0 0 0 0 0-.1 0 0 0 0 .1 0 0 0 .1 0 .4 0 .2 0 .6 0 1 0 .4 0 .9-.1 1.4-.2.5-.1 1-.3 1.5-.5.2-.1.5-.3.7-.4.1 0 .1-.1.2-.1 0 0 .1-.1.1-.1.1-.1.2-.2.3-.3.2-.2.4-.3.6-.5-.2 0-.4 0-.6 0-.2 0-.4 0-.6.1-.4 0-.8 0-1.2 0-.4 0-.8-.1-1.1-.1-.4-.1-.7-.2-1-.3-.3-.1-.6-.3-.8-.4-.2-.1-.4-.3-.5-.4-.1-.1-.3-.2-.3-.3C12.2 28 12.2 28 12.2 28c0 0 0 0 0-.1 0 0 0 0 .1 0l0 0c0 0 0 0 .1.1.1.1.2.2.3.3.1.1.3.2.5.4.2.1.5.3.8.4.3.1.6.2 1 .3.4.1.7.1 1.1.1.4 0 .8 0 1.2-.1.2 0 .4-.1.6-.1.2 0 .4 0 .6 0 .4 0 .9 0 1.3 0 .1 0 .2 0 .3 0 0 0-.1 0-.1 0-.7-.4-1.5-1.1-2.3-1.9-.2-.2-.4-.4-.6-.6-.2-.2-.3-.4-.5-.6-.2-.2-.4-.3-.6-.4-.2-.1-.4-.2-.6-.2-.1 0-.2-.1-.3-.1-.1 0-.2 0-.3-.1-.2 0-.3-.1-.4-.1-.2 0-.4 0-.4 0 0 0 0 0 0 0 0 0 0 0 0 0h0c0 0 .1 0 .4 0 .1 0 .3 0 .4.1.1 0 .2 0 .3 0 .1 0 .2 0 .3.1.2.1.4.1.6.2.2.1.4.2.6.4.1.1.2.2.3.3.1.1.2.2.3.3.2.2.4.4.6.6.4.4.8.7 1.2 1 .4.3.8.6 1.1.8.3.2.6.3.8.4 0 0 .1 0 .1 0 .4 0 .8.1 1.1.1.1 0 .2 0 .3 0 .1 0 .2 0 .2 0 .2 0 .3 0 .5 0 .3 0 .6 0 .8-.1.2-.1.4-.1.6-.2.2-.1.3-.1.4-.2C25 29 25 29 25 29c.1-.1.3 0 .4.1.1.1 0 .3-.1.4 0 0-.1 0-.2.1C25 29.6 24.9 29.7 24.7 29.8zM15.4 32.3c0 .2-.2.5-.2.5S15 32.6 15 32.3c0-.2.2-.5.2-.5S15.4 32 15.4 32.3zM13.9 32.3c0 .2-.2.4-.2.4s-.2-.2-.2-.4c0-.2.2-.4.2-.4S13.9 32.1 13.9 32.3zM14.7 32.3c0 .2-.2.4-.2.4s-.2-.2-.3-.4c0-.2.2-.4.2-.4S14.7 32.1 14.7 32.3zM31.7 37.3C31.7 37.3 31.7 37.2 31.7 37.3c-.2 1.1-.5 2.3-.6 2.7-.2.8-.2 1.5.3 1.8.5.3.2.8.1 1.5-.1.7.4.7-.3.9-.2.1-.3.1-.4.1-.2 0-.2-.1-.3-.3 0-.1 0-.3 0-.4.3-.8 0-1.8-.1-1.8 0 0 0 0 0 0 0 .2-.7.5-.9 1.3-.2.7.1 1.1-.4 1.8-.1.2-.3.3-.6.3-.3 0-.5-.1-.7-.2-.1-.1-.1-.2 0-.3.6-.6.8-1.1.9-1.5 0 0 .1 0 .2-.1.1 0 .2-.1.3-.2.1-.1.2-.2.3-.3.1-.1.2-.3.3-.5.1-.2.2-.3.3-.5.1-.2.2-.4.3-.6.1-.2.2-.4.2-.6 0-.1.1-.2.1-.3 0-.1.1-.2.1-.3.1-.2.1-.4.2-.6.1-.2.1-.4.2-.6.1-.2.1-.4.1-.5 0-.2.1-.3.1-.4C31.6 37.5 31.7 37.4 31.7 37.3zM26.5 30.1c.3.4.1 1 .1 1S26 31 25.7 30.6c-.3-.4-.1-1-.1-1S26.2 29.6 26.5 30.1zM25.6 30.7c.2.5-.1 1-.1 1s-.6-.2-.8-.7c-.2-.5.1-1 .1-1S25.4 30.3 25.6 30.7zM18.2 29.1c0 0 0-.3.1-.5.2-.2.5-.2.5-.2s0 .3-.1.5C18.5 29.1 18.2 29.1 18.2 29.1zM16.3 26.1c0 0 .1.5-.1.9-.3.3-.8.4-.8.4s-.1-.5.1-.9C15.8 26.1 16.3 26.1 16.3 26.1zM36.6 29.6c-1.2 1.1-1.6 1.4-2 1.5 0 0-.1 0-.2 0-.8 0-2.6-.7-3-.8 0 0 0 0-.1 0-.3 0-.4.5-.5 1-.1.4 0 .7.2 1 .7 1 .9 1.7.9 2.7 0 .4-.1 1.2-.3 2 0 0 0 0 0 0 0 0-.1.1-.1.2-.1.1-.1.2-.2.3-.1.1-.2.3-.2.4-.2.3-.3.7-.5 1.1-.1.2-.1.4-.2.6 0 .1-.1.2-.1.3 0 .1-.1.2-.1.3-.1.2-.1.4-.2.6-.1.2-.2.4-.2.6-.1.2-.2.4-.2.5-.1.2-.2.3-.2.5-.1.1-.2.3-.2.4-.1.1-.1.2-.2.3 0 0-.1.1-.1.1 0-.1 0-.1 0-.1-.5-4.2-.3-3.6-.3-4.7-.3-1.3-.1-4 0-4.3.1-.3.1-.9 0-1.2-.1-.3-.6-1.4-.5-1.9.1-.5-.1-.7-.3-1 0-.1-.1-.1-.2-.1-1-.1-2-1.1-2.3-1.1-.3-.1-1.3-2-1.7-2.7-.3-.1-.6-.1-.9-.7-.3-.5-.1-.7.1-.7.1 0 .2.1.3.1.3.3.4.4.8.6-.1-.4-.1-.6 0-.6.5.7.4.8.4.9.5.9 1.4 2.1 1.9 2.5.5.1.7.3 1.2.5.1 0 .2.1.3.1 0 0 .1 0 .1 0 .1 0 .2 0 .3 0 0 0 .1 0 .1 0 .3 0 .5 0 .8-.1.5-.2.3-.4.3-.7-.2-.2 0-.5.1-.6.1-.4.5-.6.7-.7 0-.2.1-.2.4-.2.6.1.5.4.5.5.3.7.2.8-.2 1.4-.4.6-.1.6.2.8 1.2.1 2.6.9 3.5 1.1.6-.2 1.9-1 2-1.3.2-.2.4-.3.8-.5.1 0 .2-.1.2-.1.1 0 .1.1 0 .2-.5.3-.2.2.5.3.1 0 .1 0 .2 0 .5 0-.3.6-.6.7-.1 0-.1 0-.2 0-.2 0-.3-.1-.4-.1C36.7 29.6 36.7 29.6 36.6 29.6zM15.5 31c0 0-.3-.3-.3-.6 0-.3.4-.6.4-.6s.3.3.3.6C15.8 30.8 15.5 31 15.5 31zM31.4 41.6c0-.2 0-.3-.1-.5 0 0 .2.2.3.7C31.6 41.7 31.5 41.7 31.4 41.6 31.4 41.6 31.4 41.6 31.4 41.6zM36.2 30.3c0 0 .3.3.2.6 0 .3-.4.5-.4.5s-.3-.3-.2-.6C35.9 30.5 36.2 30.3 36.2 30.3zM16.3 28.6c0 .4-.4.7-.4.7s-.4-.3-.4-.7c0-.4.4-.7.4-.7S16.3 28.2 16.3 28.6zM17.3 30.1c0 .2-.2.4-.2.4s-.2-.2-.2-.4c0-.2.2-.4.2-.4S17.3 29.9 17.3 30.1zM17.6 30.2c0 0-.1-.1-.1-.3 0-.1.1-.3.1-.3s.1.1.1.3C17.8 30.1 17.6 30.2 17.6 30.2zM16.4 30.9c0 0-.3-.2-.4-.5 0-.3.2-.6.2-.6s.3.2.4.5C16.7 30.6 16.4 30.9 16.4 30.9zM17.1 26.9c0 0 0 .4-.2.7-.3.2-.7.2-.7.2s0-.4.2-.7C16.7 26.8 17.1 26.9 17.1 26.9zM17.8 27.5c0 0 0 .3-.1.5-.2.2-.5.2-.5.2s0-.3.1-.5C17.5 27.5 17.8 27.5 17.8 27.5zM17.3 28.6c0 .4-.3.7-.3.7s-.4-.3-.4-.6c0-.4.3-.7.3-.7S17.2 28.3 17.3 28.6zM17.9 28.1c0 0 .2.3.1.6-.1.3-.4.5-.4.5s-.2-.3-.1-.6C17.6 28.3 17.9 28.1 17.9 28.1zM18.8 21.1c0 0 .2.2.1.4 0 .2-.2.3-.2.3s-.2-.2-.1-.4C18.6 21.2 18.8 21.1 18.8 21.1zM29.6 12.8c0 0 0-.2.2-.3.1-.1.4 0 .4 0s0 .2-.2.3C29.8 12.9 29.6 12.8 29.6 12.8zM28.5 14.4c0 0-.3.3-.6.3-.3 0-.6-.3-.6-.3s.3-.3.6-.3C28.2 14.1 28.5 14.4 28.5 14.4zM28.5 12.8c0 0 0-.5.3-.7.3-.2.8-.1.8-.1s0 .5-.3.7C29 12.9 28.5 12.8 28.5 12.8zM16.8 24.3c0-.2.1-.3.1-.3s.2.1.2.3c0 .2-.1.3-.1.3S16.8 24.5 16.8 24.3zM27.8 12.4c0 0 .1-.2.2-.3.2-.1.4 0 .4 0s-.1.2-.2.3C28 12.5 27.8 12.4 27.8 12.4zM31.4 12.8c.2 0 .4.2.4.2s-.2.2-.4.2C31.1 13.2 31 13 31 13S31.2 12.8 31.4 12.8zM27 12.8c-.2-.2-.2-.6-.2-.6s.4-.1.6.2c.2.2.2.6.2.6S27.2 13 27 12.8zM27.7 13.5c0 0 0-.3.2-.4.2-.1.5-.1.5-.1s0 .3-.2.4C27.9 13.6 27.7 13.5 27.7 13.5zM30 15.8c0 0 .2.2.1.5-.1.2-.3.4-.3.4s-.2-.2-.1-.5C29.7 15.9 30 15.8 30 15.8zM29.5 15.7c0 0 .1.3 0 .5-.1.2-.4.3-.4.3s-.1-.3 0-.5C29.2 15.8 29.5 15.7 29.5 15.7zM30.9 13.1c0 0-.1.6-.5.9-.4.3-1.1.1-1.1.1s.1-.6.5-.9C30.2 12.8 30.9 13.1 30.9 13.1zM29.6 14.5c.3.2.3.7.3.7s-.4.1-.7-.1c-.3-.2-.3-.7-.3-.7S29.3 14.3 29.6 14.5zM26.1 12.9c-.3.1-.6-.2-.6-.2s.2-.4.5-.4c.3-.1.6.2.6.2S26.4 12.9 26.1 12.9zM29 13.2c0 0 .1.3 0 .5-.1.2-.4.3-.4.3s-.1-.3 0-.5C28.7 13.3 29 13.2 29 13.2zM29.1 15.5c0 0 0 .3-.1.4-.1.1-.4.1-.4.1s0-.3.1-.4C28.8 15.5 29.1 15.5 29.1 15.5zM32.3 12.7c0 0 .2-.1.3 0 .1.1.2.3.2.3s-.2.1-.3 0C32.4 12.9 32.3 12.7 32.3 12.7zM31.5 12.6c0 0 .1-.3.4-.4.3-.1.6.1.6.1s-.1.3-.4.4C31.8 12.8 31.5 12.6 31.5 12.6zM24.4 13.3c0 0 0-.3.2-.5.2-.2.5-.1.5-.1s0 .3-.2.5C24.7 13.3 24.4 13.3 24.4 13.3zM30.7 15.8c0 0 .2.3.1.5-.1.2-.3.4-.3.4s-.2-.3-.1-.5C30.4 16 30.7 15.8 30.7 15.8zM23.7 20.3c0 0-.3.3-.6.3-.3 0-.5-.4-.5-.4s.3-.3.6-.3C23.4 20 23.7 20.3 23.7 20.3zM23 20.8c.3.1.4.5.4.5s-.3.2-.6.1c-.3-.1-.4-.5-.4-.5S22.7 20.7 23 20.8zM19.1 18.2c-.2-.1-.2-.4-.2-.4s.3-.1.5 0c.2.1.2.4.2.4S19.4 18.3 19.1 18.2zM18.9 18.7c.2-.2.4-.1.4-.1s0 .3-.1.4c-.2.2-.4.1-.4.1S18.7 18.9 18.9 18.7zM23.3 19.1c0 0-.1.4-.4.6-.3.2-.7 0-.7 0s.1-.4.4-.6C22.9 19 23.3 19.1 23.3 19.1zM21.5 20.9c.2-.3.7-.3.7-.3s.1.4-.1.7c-.2.3-.7.3-.7.3S21.3 21.2 21.5 20.9zM22.7 18.3c0 0 0 .4-.2.6-.2.2-.6.2-.6.2s0-.4.2-.6C22.3 18.3 22.7 18.3 22.7 18.3zM19.1 19.6c0 0 0-.3.3-.4.2-.1.5 0 .5 0s0 .3-.3.4C19.4 19.7 19.1 19.6 19.1 19.6zM23 13.5C23 13.5 23 13.4 23 13.5 23.1 13.4 23.1 13.4 23 13.5c.1-.1.1 0 .2 0 .1.1.2.2.3.3.2.2.6.6.9 1.1.2.2.3.5.5.8.1.3.2.6.3 1 .1.4.1.7.1 1.1 0 .4-.1.8-.2 1.2-.2.8-.5 1.5-.9 2.1-.2.3-.4.6-.6.9 0 .1-.1.1-.1.2 0 0 .1 0 .1-.1.2-.1.4-.2.6-.2.2-.1.4-.1.6-.1.2 0 .4-.1.6-.2.4-.2.7-.4 1-.7.3-.3.5-.6.6-.9.1-.3.2-.6.3-.7.1-.2.1-.3.1-.3 0 0 0 0 .1 0 0 0 0 0 0 .1l0 0c0 0 0 .1-.1.3 0 .2-.1.5-.3.8-.1.3-.3.7-.6 1-.3.3-.6.6-1 .8-.2.1-.4.1-.6.2-.2 0-.4.1-.6.1-.2.1-.4.1-.5.2-.2.1-.3.2-.4.3-.1.1-.1.2-.2.4 0 .2 0 .4 0 .6.1.2.1.4.2.5.1.1.1.3.2.3 0 .1.1.1.1.1 0 .1 0 .1 0 .2-.1 0-.1 0-.2 0l0 0 0 0c0 0 0 0-.1-.1 0-.1-.1-.2-.2-.4-.1-.2-.2-.4-.2-.6-.1-.2-.1-.5 0-.8 0-.1.1-.3.2-.4 0 0 .1-.1.1-.2.1-.2.2-.4.3-.8.1-.2.1-.3.2-.5 0-.2.1-.4.1-.6 0-.2 0-.4-.1-.6-.1-.2-.2-.4-.3-.6-.1-.2-.3-.4-.4-.5-.1-.1-.2-.2-.2-.2-.1-.1-.2-.2-.2-.3-.1-.2-.2-.4-.3-.5C22.1 17.2 22 17 22 16.8c-.1-.3-.1-.7-.1-.9 0-.1 0-.2 0-.2 0-.1 0-.1 0-.1l0 0c0 0 0 0 .1 0 0 0 0 0 0 .1 0 0 0 0 0 .1 0 .1 0 .1 0 .2 0 .2 0 .5.1.8 0 .2.1.3.2.5.1.2.2.3.3.5.1.1.1.2.2.2.1.1.2.2.2.2.2.2.3.4.4.6.1.2.2.4.3.6.1.2.1.5.1.7 0 .2 0 .4-.1.6 0 .1-.1.3-.1.4.1-.1.1-.2.2-.3.4-.6.7-1.3.9-2 .1-.4.2-.7.2-1.1 0-.4 0-.7-.1-1.1-.1-.3-.2-.7-.3-1-.1-.3-.3-.6-.4-.8-.3-.5-.6-.8-.9-1.1-.1-.1-.2-.2-.3-.3C23.1 13.5 23 13.5 23 13.5L23 13.5zM23.7 13.9c0 0-.1-.2.1-.4.1-.2.4-.2.4-.2s.1.2-.1.4C24 13.9 23.7 13.9 23.7 13.9zM22.8 23.2c0 0-.1.2-.2.2-.1 0-.3-.1-.3-.1s.1-.2.2-.2C22.6 23 22.8 23.2 22.8 23.2zM21.5 22.7c0 0 .2.2.1.5-.1.2-.3.3-.3.3s-.2-.2-.1-.5C21.3 22.8 21.5 22.7 21.5 22.7zM24.1 14.3c0 0 0-.3.2-.4.2-.1.4-.1.4-.1s0 .3-.2.4C24.4 14.4 24.1 14.3 24.1 14.3zM21.5 22.4c-.2 0-.4-.2-.4-.2s.2-.2.4-.2c.2 0 .4.2.4.2S21.8 22.4 21.5 22.4zM22.8 23.5c0 0 0 .2-.1.4C22.5 24 22.3 24 22.3 24s0-.2.1-.4C22.5 23.5 22.8 23.5 22.8 23.5zM22.8 22.7c0 0-.2.2-.5.2-.2 0-.4-.3-.4-.3s.2-.2.5-.2S22.8 22.7 22.8 22.7zM36.7 26.5c0 0-.1-.4 0-.7.2-.3.6-.3.6-.3s.1.4 0 .7C37.1 26.4 36.7 26.5 36.7 26.5zM34.6 26.9c-.2.4-.6.5-.6.5s-.2-.5-.1-.8c.2-.4.6-.5.6-.5S34.8 26.5 34.6 26.9zM34.5 28c0 0 0-.5.4-.7.3-.2.8-.1.8-.1s0 .5-.4.7C35 28.1 34.5 28 34.5 28zM33.1 27.9c0 0 .3-.3.6-.2.3 0 .5.4.5.4s-.3.3-.6.2C33.3 28.3 33.1 27.9 33.1 27.9zM33.5 29.7c0 0-.1-.5.2-.8.3-.3.8-.3.8-.3s.1.5-.2.8C34 29.7 33.5 29.7 33.5 29.7zM35.2 29.5c0 0-.3-.4-.2-.8.1-.4.6-.6.6-.6s.3.4.2.8C35.7 29.3 35.2 29.5 35.2 29.5zM21.6 19.9c-.1-.2 0-.5 0-.5s.3.1.4.3c.1.2 0 .5 0 .5S21.7 20.2 21.6 19.9zM35.7 26.9c-.4-.1-.6-.6-.6-.6s.4-.3.8-.1c.4.1.6.6.6.6S36.1 27 35.7 26.9zM36.4 28.6c0 0-.3-.4-.2-.8.1-.4.6-.6.6-.6s.3.4.2.8C36.9 28.3 36.4 28.6 36.4 28.6zM29.3 22.7c-.2.2-.6.2-.6.2s0-.4.2-.6c.2-.2.6-.2.6-.2S29.5 22.5 29.3 22.7zM29.3 24.8c0-.5.4-1 .4-1s.5.4.6.9c0 .5-.4 1-.4 1S29.3 25.3 29.3 24.8zM29.1 23.3c0 0 .2-.2.4-.2.2 0 .4.2.4.2s-.2.2-.4.2C29.3 23.5 29.1 23.3 29.1 23.3zM37.2 27.1c0-.4.4-.7.4-.7s.4.4.4.8c0 .4-.4.7-.4.7S37.2 27.5 37.2 27.1zM31.6 28.1c0 0 .6-.3 1-.1.5.2.6.8.6.8s-.6.3-1 .1C31.7 28.7 31.6 28.1 31.6 28.1zM30.4 23c0 0-.4 0-.6-.3-.2-.2-.1-.6-.1-.6s.4 0 .6.3C30.5 22.6 30.4 23 30.4 23zM31.4 26.4c0 0 .1-.6.5-.9.4-.3 1-.1 1-.1s-.1.6-.5.9C32 26.5 31.4 26.4 31.4 26.4zM30.7 25.8c0 0-.3-.6-.1-1 .2-.5.8-.6.8-.6s.3.6.1 1C31.3 25.6 30.7 25.8 30.7 25.8zM30.6 24.2c0 0-.3-.3-.2-.6.1-.3.4-.5.4-.5s.3.3.2.6C30.9 24 30.6 24.2 30.6 24.2zM31.9 13.5c0 0-.1.4-.3.6-.3.2-.7 0-.7 0s.1-.4.3-.6C31.5 13.4 31.9 13.5 31.9 13.5zM31.9 15.4c0 0 .4 0 .6.2.2.2.1.6.1.6s-.4 0-.6-.2C31.8 15.8 31.9 15.4 31.9 15.4zM32.6 16.5c0 0 .1.3 0 .5-.1.2-.4.3-.4.3s-.1-.3 0-.5C32.3 16.6 32.6 16.5 32.6 16.5zM32.7 13.4c0 0-.2.2-.4.1-.2 0-.3-.3-.3-.3s.2-.2.4-.1C32.6 13.1 32.7 13.4 32.7 13.4zM32 16.2c0 0 .2.3.1.5-.1.2-.4.4-.4.4s-.2-.3-.1-.5S32 16.2 32 16.2zM31 14.6c.4.3.4.9.4.9s-.6.2-1-.1C30 15.1 30 14.5 30 14.5S30.6 14.4 31 14.6zM31.8 14.6c.1.2-.1.5-.1.5s-.3-.1-.4-.3c-.1-.2.1-.5.1-.5S31.7 14.3 31.8 14.6zM32.8 13.8c0 0-.1.3-.3.3S32 14.1 32 14.1s.1-.3.3-.3C32.6 13.6 32.8 13.8 32.8 13.8zM31.3 15.9c0 0 .2.3.2.5-.1.3-.4.4-.4.4s-.2-.3-.2-.5C31 16.1 31.3 15.9 31.3 15.9zM38.5 27.1c0 0-.3-.3-.3-.5 0-.3.3-.5.3-.5s.3.3.3.5C38.8 26.8 38.5 27.1 38.5 27.1zM33.1 17.4c-.1.2-.4.2-.4.2s-.1-.3.1-.5c.1-.2.4-.2.4-.2S33.2 17.2 33.1 17.4zM33.1 18c0 0 0-.3.1-.5.1-.2.4-.2.4-.2s0 .3-.1.5C33.4 18 33.1 18 33.1 18zM33.7 17.2c-.2 0-.3-.1-.3-.1s.1-.2.3-.2c.2 0 .3.1.3.1S33.8 17.1 33.7 17.2zM33.3 15.1c0 0-.1.3-.3.4-.2.1-.5 0-.5 0s.1-.3.3-.4C33 15 33.3 15.1 33.3 15.1zM33 14.5c0 0-.1.3-.3.4-.2.1-.5-.1-.5-.1s.1-.3.3-.4C32.7 14.3 33 14.5 33 14.5zM33.6 15.8c0 0-.1.3-.3.4-.2.1-.4 0-.4 0s.1-.3.3-.4C33.3 15.6 33.6 15.8 33.6 15.8zM33.4 16.2c.2 0 .4.1.4.1s-.1.2-.3.3c-.2 0-.4-.1-.4-.1S33.2 16.3 33.4 16.2zM30.2 12.2c0 0 .3-.3.6-.2.3 0 .5.4.5.4s-.3.3-.6.2C30.4 12.6 30.2 12.2 30.2 12.2zM17.9 18.2c.1-.1.3-.2.3-.2s.1.2 0 .3c-.1.1-.3.2-.3.2S17.8 18.4 17.9 18.2zM17.3 17.6c0 0-.2-.2-.1-.4 0-.2.2-.3.2-.3s.2.2.1.4C17.5 17.4 17.3 17.6 17.3 17.6zM17.7 17.4c0 0 .3-.4.7-.4.4 0 .7.4.7.4s-.3.4-.7.4C18 17.8 17.7 17.4 17.7 17.4zM16.8 20.3c0-.1 0-.2 0-.2l0 0c0 0 0 0 .1 0 0 0 0 0 0 0l0 0C16.9 20.1 16.9 20.2 16.8 20.3c.1.1.1.3.2.4.1.2.2.4.3.5.1.1.2.1.3.2.1 0 .2.1.4.1.1 0 .1 0 .2.1.1 0 .1 0 .2.1.1 0 .2.1.3.2.1 0 .1.1.2.1 0 0 .1.1.1.1.1.1.1.1.2.2-.1-.4-.1-.9-.2-1.3 0-.2 0-.5-.1-.7 0-.1 0-.1 0-.2 0-.1 0-.1 0-.2 0-.1-.1-.2-.1-.3-.1-.2-.3-.3-.4-.5-.1-.1-.3-.2-.4-.3-.3-.2-.6-.3-.7-.4-.2-.1-.3-.1-.3-.1 0 0 0 0 0-.1 0 0 0 0 .1 0l0 0c0 0 .1 0 .3.1.2.1.5.2.8.4.2.1.3.2.5.3.2.1.3.3.5.5.1.1.1.2.2.3 0 .1 0 .1.1.2 0 .1 0 .1 0 .2 0 .2.1.5.1.7 0 .5.1.9.2 1.4.1.2.1.4.2.6.1.2.2.3.3.4.2.1.3.2.5.3.2 0 .4 0 .6.1.2 0 .4.1.6.2.2.1.3.2.4.2.1.1.2.1.2.2 0 0 0 0 .1.1 0 0 0 0 0 0 .1.1.1.2 0 .2-.1.1-.2.1-.2 0l0 0c0 0 0 0 0 0 0 0 0 0 0 0 0 0-.1-.1-.2-.2-.2-.1-.5-.3-.9-.4-.4-.1-.9-.1-1.4 0-.1 0-.1 0-.2 0-.1 0-.1 0-.2 0-.1 0-.1 0-.2 0-.1 0-.1 0-.2.1-.1 0-.1 0-.2.1-.1 0-.1 0-.2 0-.1 0-.1 0-.2 0-.1 0-.1 0-.2 0-.3 0-.6-.1-.9-.2-.3-.1-.5-.2-.8-.4-.5-.3-.9-.6-1.2-.8-.2-.1-.3-.2-.5-.3-.1-.1-.3-.1-.4-.2-.1 0-.1 0-.2 0 0 0-.1 0-.1 0-.1 0-.1 0-.1 0l0 0c0 0 0 0 0-.1 0 0 0 0 .1 0 0 0 0 0 .1 0 0 0 .1 0 .1 0 0 0 .1 0 .2 0 .1 0 .3.1.4.2.2.1.3.2.5.3.4.2.8.5 1.2.8.2.1.5.2.7.3.3.1.5.1.8.1.1 0 .1 0 .2 0 .1 0 .1 0 .2 0 .1 0 .1 0 .2 0 .1 0 .1 0 .2-.1.1 0 .1 0 .2-.1.1 0 .1 0 .2-.1.1 0 .1 0 .2 0 .1 0 .1 0 .2 0 .1 0 .3 0 .4-.1 0 0-.1 0-.1-.1-.1-.1-.3-.3-.4-.5-.1-.1-.1-.2-.1-.3 0 0 0 0 0-.1 0 0 0-.1-.1-.1 0 0-.1-.1-.1-.1-.1-.1-.1-.1-.2-.2 0 0-.1-.1-.1-.1 0 0-.1-.1-.1-.1-.1-.1-.2-.1-.3-.2-.1 0-.1-.1-.2-.1-.1 0-.1 0-.2-.1-.1 0-.2-.1-.4-.1-.1 0-.2-.1-.3-.2-.2-.2-.3-.4-.4-.6C16.8 20.6 16.8 20.4 16.8 20.3zM18.4 18.4c.1-.2.4-.2.4-.2s.1.2-.1.4c-.1.2-.4.2-.4.2S18.3 18.6 18.4 18.4zM18.4 20.8c0 0 .1.2.1.4-.1.2-.3.3-.3.3s-.1-.2-.1-.4C18.1 20.9 18.4 20.8 18.4 20.8zM18.5 20.2c.2 0 .3.1.3.1s-.1.2-.3.2c-.2 0-.3-.1-.3-.1S18.4 20.2 18.5 20.2zM29 24.4c0 0-.4-.1-.5-.4-.1-.3 0-.7 0-.7s.4.1.5.4C29.1 24.1 29 24.4 29 24.4zM19.6 17.3c0-.2.2-.5.2-.5s.3.2.3.4c0 .2-.2.5-.2.5S19.6 17.5 19.6 17.3zM20.2 16c0-.3.3-.6.3-.6s.3.3.3.6c0 .3-.3.6-.3.6S20.2 16.3 20.2 16zM20.7 15c0 0 .1-.2.3-.3.2-.1.4.1.4.1s-.1.2-.3.3C20.9 15.2 20.7 15 20.7 15zM19.7 15.7c0 0-.2-.3-.1-.5.1-.3.4-.4.4-.4s.2.3.1.5C20 15.5 19.7 15.7 19.7 15.7zM21.7 14.4c-.3 0-.5-.2-.5-.2s.2-.3.5-.3c.3 0 .5.2.5.2S22 14.4 21.7 14.4zM22.1 14.4c0 0 .2.2.2.4 0 .2-.2.3-.2.3s-.2-.2-.2-.4S22.1 14.4 22.1 14.4zM18.7 16.9c0 0 0-.4.2-.6.2-.2.6-.2.6-.2s0 .4-.2.6C19.1 16.9 18.7 16.9 18.7 16.9zM18.7 19.7c0 0 0 .2-.2.3-.2.1-.4 0-.4 0s0-.2.2-.3C18.4 19.6 18.7 19.7 18.7 19.7zM17.7 16.6c0 0 .1-.3.3-.3.2-.1.5.1.5.1s-.1.3-.3.3C18 16.8 17.7 16.6 17.7 16.6zM18.8 15.9c0 0 0-.3.2-.4.2-.1.4-.1.4-.1s0 .3-.2.4C19 15.9 18.8 15.9 18.8 15.9zM20.8 28.2c.2-.4.7-.6.7-.6s.3.5.1.9c-.2.4-.7.6-.7.6S20.6 28.6 20.8 28.2zM22.4 25.6c0 0-.1.5-.4.7-.3.2-.8.1-.8.1s.1-.5.4-.7C22 25.4 22.4 25.6 22.4 25.6zM20.8 25.6c0 0-.2-.5.1-.9.2-.4.8-.4.8-.4s.2.5-.1.9C21.4 25.6 20.8 25.6 20.8 25.6zM22.5 27.8c0 0 .4.4.3.8 0 .4-.5.7-.5.7s-.4-.4-.3-.8C22 28.1 22.5 27.8 22.5 27.8zM16.5 24.3c-.2.1-.5.1-.5.1s0-.3.2-.4c.2-.1.5-.1.5-.1S16.7 24.2 16.5 24.3zM23.4 26.1c0 0 0 .6-.3.9-.3.3-.9.2-.9.2s0-.6.3-.9C22.8 26 23.4 26.1 23.4 26.1zM16.3 25.6c0 0-.2-.4 0-.6.1-.3.5-.4.5-.4s.2.4 0 .6C16.7 25.5 16.3 25.6 16.3 25.6zM21.2 27.3c-.3-.2-.3-.7-.3-.7s.4-.1.7.1c.3.2.3.7.3.7S21.5 27.5 21.2 27.3zM17.4 18.6c0 0 .1.2 0 .3C17.2 19 17 19.1 17 19.1s-.1-.2 0-.3C17.1 18.6 17.4 18.6 17.4 18.6zM23.6 28.4c.3-.3.9-.2.9-.2s0 .6-.3.8c-.3.3-.9.2-.9.2S23.2 28.6 23.6 28.4zM17.4 21.2c0 0 0-.2.1-.4.1-.1.4-.1.4-.1s0 .2-.1.4C17.7 21.2 17.4 21.2 17.4 21.2zM17.8 18.8c0 0 .1.2-.1.4-.1.2-.4.2-.4.2s-.1-.2.1-.4C17.5 18.9 17.8 18.8 17.8 18.8zM17.4 20.7c-.2 0-.4-.1-.4-.1s.1-.2.3-.2c.2 0 .4.1.4.1S17.5 20.7 17.4 20.7zM18.2 19.2c0 0 0 .3-.1.4-.1.2-.4.2-.4.2s0-.3.1-.4C17.9 19.2 18.2 19.2 18.2 19.2zM24 27.2c0 0-.1.5-.4.6-.3.2-.8 0-.8 0s.1-.5.4-.6C23.6 27.1 24 27.2 24 27.2zM17 20.1c0 0 .1-.2.3-.2.2 0 .3.1.3.1s-.1.2-.3.2C17.1 20.3 17 20.1 17 20.1zM23.2 16.5c0 0 .2 0 .3.2.1.1 0 .3 0 .3s-.2 0-.3-.2C23.2 16.7 23.2 16.5 23.2 16.5zM23 22.1c0 0-.3.1-.6 0-.2-.2-.3-.5-.3-.5s.3-.1.6 0C23 21.8 23 22.1 23 22.1zM19.6 22.4c0 0 .1-.4.4-.5.3-.1.7.1.7.1s-.1.4-.4.5C20 22.6 19.6 22.4 19.6 22.4zM19.8 21c-.3 0-.5-.2-.5-.2s.2-.3.5-.3c.3 0 .5.2.5.2S20.1 21 19.8 21zM20.2 18.1c0 0 .1.3 0 .5-.1.2-.4.3-.4.3s-.1-.3 0-.5C19.9 18.2 20.2 18.1 20.2 18.1zM19.7 20.3c-.3 0-.5-.2-.5-.2s.2-.3.4-.3c.3 0 .5.2.5.2S20 20.3 19.7 20.3zM21.9 23.7c0 0-.1-.2-.1-.4.1-.2.3-.3.3-.3s.1.2.1.4C22.1 23.6 21.9 23.7 21.9 23.7zM21.2 21.4c0 .3-.3.5-.3.5s-.3-.2-.2-.5c0-.3.3-.5.3-.5S21.2 21.1 21.2 21.4zM20.4 23.3c0 0-.1-.4.1-.6.2-.2.5-.3.5-.3s.1.4-.1.6C20.8 23.2 20.4 23.3 20.4 23.3zM20 21.7c-.3 0-.6-.2-.6-.2s.2-.3.5-.4c.3 0 .6.2.6.2S20.3 21.7 20 21.7zM21 16.7c0 0 .1-.2.3-.3.2 0 .4.2.4.2s-.1.2-.3.3C21.2 16.9 21 16.7 21 16.7zM20.4 19.2c.1.1.1.4.1.4s-.2 0-.4-.1-.1-.4-.1-.4S20.3 19 20.4 19.2zM21.1 15.9c0 0 .2-.2.3-.2.2 0 .3.2.3.2s-.2.2-.3.2C21.3 16.1 21.1 15.9 21.1 15.9zM21.9 17.2c0 0-.1.3-.3.3-.2.1-.5-.1-.5-.1s.1-.3.3-.3C21.7 17 21.9 17.2 21.9 17.2zM21.8 15.2c.1.1.2.3.2.3s-.2.1-.3 0c-.1-.1-.2-.3-.2-.3S21.6 15.2 21.8 15.2zM20.9 17.5c.1.3-.2.7-.2.7s-.4-.2-.4-.6c-.1-.3.2-.7.2-.7S20.9 17.1 20.9 17.5zM21.2 19.4c0 0 .2.4.1.8-.2.4-.6.5-.6.5s-.2-.4-.1-.8S21.2 19.4 21.2 19.4zM21.2 18.4c.3.1.5.5.5.5S21.3 19.1 21 19c-.3-.1-.5-.5-.5-.5S20.8 18.3 21.2 18.4zM24.5 17.9c-.3 0-.5-.3-.5-.3s.2-.3.5-.3c.3 0 .5.3.5.3S24.8 17.9 24.5 17.9zM24.3 16.6c.3-.1.6.2.6.2s-.2.4-.5.4c-.3.1-.6-.2-.6-.2S24 16.6 24.3 16.6zM24.7 15.9c0 0-.1.4-.5.6-.3.1-.7-.1-.7-.1s.1-.4.5-.6C24.3 15.7 24.7 15.9 24.7 15.9zM22.7 13.8c-.2 0-.3-.1-.3-.1s.1-.2.2-.2c.2 0 .3.1.3.1S22.9 13.7 22.7 13.8zM22.4 17.3c0 0 .1-.3.3-.4.2-.1.5 0 .5 0s-.1.3-.3.4C22.7 17.4 22.4 17.3 22.4 17.3zM24.5 18.5c-.2 0-.3-.3-.3-.3s.2-.2.4-.1c.2 0 .3.3.3.3S24.7 18.5 24.5 18.5zM24.2 15c0 0 0 .4-.3.5-.2.2-.6 0-.6 0s0-.4.3-.5C23.9 14.9 24.2 15 24.2 15zM23.2 13.8c0 0 0 .3-.1.4-.1.2-.4.1-.4.1s0-.3.1-.4C23 13.8 23.2 13.8 23.2 13.8zM23.7 14.3c0 0 0 .3-.2.5C23.4 15 23 14.9 23 14.9s0-.3.2-.5C23.4 14.2 23.7 14.3 23.7 14.3zM23.6 19c0 0 0-.3.2-.4.2-.1.4 0 .4 0s0 .3-.2.4C23.9 19 23.6 19 23.6 19zM23.3 15.8c.1.2 0 .3 0 .3S23 16 23 15.9c-.1-.2 0-.3 0-.3S23.2 15.6 23.3 15.8zM22.6 16.7c-.2 0-.4-.1-.4-.1s.1-.2.3-.3c.2 0 .4.1.4.1S22.8 16.7 22.6 16.7zM22.2 17.7c0 0 0 .3-.3.5-.2.1-.6 0-.6 0s0-.3.3-.5C21.9 17.6 22.2 17.7 22.2 17.7zM23.9 19.4c0 0 0-.2.2-.3.2-.1.4 0 .4 0s0 .2-.2.3C24.1 19.5 23.9 19.4 23.9 19.4zM22.5 15.8c.2 0 .3.2.3.2s-.2.2-.4.1c-.2 0-.3-.2-.3-.2S22.3 15.7 22.5 15.8zM23.3 18.4c0 0 0-.3.2-.4.2-.1.5-.1.5-.1s0 .3-.2.4C23.6 18.5 23.3 18.4 23.3 18.4zM22.9 17.9c0 0 0-.3.2-.5.2-.2.5-.1.5-.1s0 .3-.2.5C23.2 18 22.9 17.9 22.9 17.9z" fill="#255aa3"/></svg>