<svg xmlns="http://www.w3.org/2000/svg" xmlns:xlink="http://www.w3.org/1999/xlink" x="0px" y="0px" viewBox="0 0 100 100" style="enable-background:new 0 0 100 100;" xml:space="preserve">	<g>		<g>			<path d="M74.6,52c-1.1,0.2-2.2,0.6-2.8,2.1c-0.4,1-0.3,2.1,0.2,3.2c1.3-4,6-1.7,3,1.8c2.2,0.1,3.6-1.4,3.8-3.5   c0.1-1,0.2-1.5,0.4-1.9c0.1-0.2,0.3-0.4,0.5-0.7c0.7-0.8,1.5-1.5,2.3-2.3c1.5-1.5,4.6-0.1,5.8-3.1c0.4-1,0.3-2.1-0.2-3.2   c-1.3,4-6,1.7-3-1.8C82.4,42.4,81,44,80.8,46c-0.1,0.9,0.1,1.7-0.9,2.7c-0.7,0.7-1.5,1.4-2.2,2.1c-0.3,0.3-0.5,0.4-0.7,0.6   C76.5,51.7,75.9,51.7,74.6,52L74.6,52z M13.5,46h43.1c0.7,0,1.2,0.6,1.2,1.2V56h2.8c0.2,0.9,0.5,1.7,0.9,2.5H9.4   c-1.7,0-3.3-0.7-4.4-1.8c-1.1-1.1-1.8-2.7-1.8-4.4v-20c0-1.7,0.7-3.3,1.8-4.4C6.1,26.7,7.6,26,9.4,26h71.1c1.7,0,3.3,0.7,4.4,1.8   c1.1,1.1,1.8,2.7,1.8,4.4c-0.8-0.3-1.7-0.6-2.6-0.8c-0.2-0.7-0.5-1.4-1-1.9c-0.7-0.7-1.6-1.1-2.7-1.1H9.4c-1,0-2,0.4-2.7,1.1   c-0.7,0.7-1.1,1.6-1.1,2.7v20c0,1,0.4,2,1.1,2.7C7.4,55.6,8.3,56,9.4,56h2.9v-8.7C12.2,46.6,12.8,46,13.5,46z M79.8,33.6   c4.7,0,9,1.9,12.1,5c3.1,3.1,5,7.4,5,12.1c0,4.7-1.9,9-5,12.1c-3.1,3.1-7.4,5-12.1,5c-4.7,0-9-1.9-12.1-5c-3.1-3.1-5-7.4-5-12.1   c0-4.7,1.9-9,5-12.1C70.7,35.5,75,33.6,79.8,33.6z M89.7,40.8c-2.6-2.6-6.1-4.1-10-4.1c-3.9,0-7.4,1.6-10,4.1   c-2.6,2.6-4.1,6.1-4.1,10c0,3.9,1.6,7.4,4.1,10c2.6,2.6,6.1,4.1,10,4.1c3.9,0,7.4-1.6,10-4.1c2.6-2.6,4.1-6.1,4.1-10   C93.9,46.9,92.3,43.4,89.7,40.8z M55.3,48.5H14.7v7.2h40.6V48.5z M13.9,35.7c-0.7,0-1.2-0.6-1.2-1.2s0.6-1.2,1.2-1.2h42.7   c0.7,0,1.2,0.6,1.2,1.2s-0.6,1.2-1.2,1.2H13.9z M13.9,41.5c-0.7,0-1.2-0.6-1.2-1.2c0-0.7,0.6-1.2,1.2-1.2h42.7   c0.7,0,1.2,0.6,1.2,1.2c0,0.7-0.6,1.2-1.2,1.2H13.9z M18.3,62.6c-0.4-0.4-0.2-0.9,0.3-1.1c0.6-0.2,1.3-0.1,1.7,0.2   c2.7,2.6,1.4,4.7,0.2,6.7c-0.9,1.5-1.8,3-0.2,4.4c0.4,0.4,0.3,0.8-0.3,1.1c-0.5,0.3-1.3,0.2-1.7-0.2c-2.5-2.2-1.3-4-0.1-5.9   C19.2,66.2,20.3,64.5,18.3,62.6z M28.8,62.6c-0.4-0.4-0.2-0.9,0.3-1.1c0.6-0.2,1.3-0.1,1.7,0.2c2.7,2.6,1.4,4.7,0.2,6.7   c-0.9,1.5-1.8,3-0.2,4.4c0.4,0.4,0.3,0.8-0.3,1.1c-0.5,0.3-1.3,0.2-1.7-0.2c-2.5-2.2-1.3-4-0.1-5.9C29.7,66.2,30.7,64.5,28.8,62.6   z M39.2,62.6c-0.4-0.4-0.2-0.9,0.3-1.1c0.6-0.2,1.3-0.1,1.7,0.2c2.7,2.6,1.4,4.7,0.2,6.7c-0.9,1.5-1.8,3-0.2,4.4   c0.4,0.4,0.3,0.8-0.3,1.1c-0.5,0.3-1.3,0.2-1.7-0.2c-2.5-2.2-1.3-4-0.1-5.9C40.1,66.2,41.2,64.5,39.2,62.6z M49.7,62.6   c-0.4-0.4-0.2-0.9,0.3-1.1c0.6-0.2,1.3-0.1,1.7,0.2c2.7,2.6,1.4,4.7,0.2,6.7c-0.9,1.5-1.8,3-0.2,4.4c0.4,0.4,0.3,0.8-0.3,1.1   c-0.5,0.3-1.3,0.2-1.7-0.2c-2.5-2.2-1.3-4-0.1-5.9C50.6,66.2,51.6,64.5,49.7,62.6z"></path>		</g>	</g></svg>