<svg xmlns="http://www.w3.org/2000/svg" xmlns:xlink="http://www.w3.org/1999/xlink" x="0px" y="0px" viewBox="0 0 215 65" style="enable-background:new 0 0 215 65;" xml:space="preserve">	<style type="text/css">	.band-04{stroke:currentColor;stroke-width:5.000000e-02;stroke-miterlimit:6.88; fill:currentColor;}	.band-041{stroke:currentColor;stroke-width:3.000000e-02;stroke-miterlimit:6.88; fill:currentColor;}	</style>	<g>		<path class="band-04" d="M36.6,32.6l-0.1-0.1c-3.1,3.2-6.2,6.5-9.3,9.7c0,0.1-0.1,0.2-0.1,0.2c2.1,2.2,4.2,4.4,6.4,6.6  c1,1,2,2.2,3.1,3.2c0.8-0.7,1.5-1.5,2.2-2.2c2.3-2.3,4.5-4.7,6.8-7.1c0.2-0.2,0.4-0.3,0.5-0.6C42.8,39.1,39.7,35.9,36.6,32.6z   M64.6,22.2c-2.4-2.5-4.8-4.9-7.1-7.4c-0.6-0.7-1.3-1.3-1.9-2.1h-0.1c-1.5,1.7-3.1,3.3-4.7,4.9c-1.6,1.6-3.1,3.3-4.8,4.9  c0.1,0.2,0.3,0.3,0.4,0.5l9.1,9.4c3.2-3.2,6.3-6.6,9.5-9.8C64.9,22.5,64.7,22.4,64.6,22.2L64.6,22.2z"></path>		<path class="band-04" d="M45.9,22.6c-0.1,0.2-0.2,0.3-0.4,0.4c-3,3.2-6.1,6.3-9.1,9.5c-3.2-3.3-6.3-6.6-9.5-9.8  c3.1-3.4,6.3-6.6,9.4-9.9h0.1c0.1,0.1,0.2,0.3,0.3,0.4C39.9,16.3,42.9,19.5,45.9,22.6L45.9,22.6z"></path>		<path class="band-04" d="M26.9,22.6v0.1c-3.2,3.3-6.3,6.6-9.4,9.8c-3.2-3.3-6.3-6.6-9.5-9.8c0.2-0.3,0.5-0.5,0.7-0.8  c2.9-3,5.8-6,8.7-9.1h0.1c0.9,1.1,1.9,2,2.9,3L26.9,22.6L26.9,22.6z"></path>		<path class="band-041" d="M96.6,25.9h-6.1v16.6c0,0.3,0,0.5,0,0.8h-4.7c0-5.8,0-11.6,0-17.4h-6.1v-4.2h16.8  C96.6,23.1,96.6,24.5,96.6,25.9z"></path>		<path class="band-041" d="M115.4,43.3h-4.7c0-1.9,0-3.8,0-5.7c0-5.3,0-10.6,0-15.8c1.6,0,3.2,0,4.7,0C115.4,28.9,115.4,36.1,115.4,43.3  L115.4,43.3z"></path>		<path class="band-041" d="M149.6,28.9c-0.5-1.7-1.4-3.2-2.7-4.4c-1.7-1.6-3.9-2.4-6.1-2.7c-1.3-0.2-2.5-0.1-3.8-0.1h-5.6  c-0.1,0-0.2,0-0.3,0c0,7.1,0,14.3,0,21.4c0,0,0,0.1,0,0.2h8.1c0.7-0.1,1.5-0.1,2.2-0.3c2.5-0.5,4.8-1.7,6.4-3.7  c1.2-1.5,1.9-3.3,2.1-5.2C150.2,32.4,150.1,30.6,149.6,28.9L149.6,28.9z M144.3,36.1c-0.6,1-1.5,1.7-2.5,2.2  c-0.9,0.4-1.9,0.6-2.9,0.7c-1.1,0-2.1,0-3.2,0c-0.1-1.2,0-2.4,0-3.6c0-3.2,0-6.3,0-9.5h3.2c1.6,0,3.3,0.6,4.5,1.8  c1.1,1.1,1.7,2.6,1.8,4.1C145.3,33.3,145,34.8,144.3,36.1z"></path>		<path class="band-041" d="M179.5,38.2c-2-5-3.9-10-5.9-15c-0.2-0.5-0.4-1-0.6-1.5c-1.6,0-3.3,0-4.9,0c-2.8,7-5.6,13.9-8.4,20.9  c-0.1,0.2-0.2,0.4-0.2,0.7h5c0.5-1.4,1-2.9,1.5-4.3c2.9,0,5.7,0,8.6,0c0.1,0,0.2,0.1,0.2,0.2c0.5,1.4,1,2.7,1.4,4.1h5.2  C180.8,41.6,180.1,39.9,179.5,38.2L179.5,38.2z M167.4,35.2c0-0.2,0.1-0.4,0.1-0.5c1-2.6,1.9-5.2,2.9-7.8c0,0,0.1,0,0.1,0  c1,2.7,2,5.5,3,8.2c0,0,0,0.1,0,0.1C171.4,35.1,169.4,35.1,167.4,35.2L167.4,35.2z"></path>		<path class="band-041" d="M207,39v4.3h-12.9c0-7.2,0-14.4,0-21.6c1.6,0,3.2,0,4.7,0V39C201.5,39,204.3,39,207,39L207,39z"></path>	</g></svg>