<svg xmlns="http://www.w3.org/2000/svg" xmlns:xlink="http://www.w3.org/1999/xlink" x="0px" y="0px" viewBox="0 0 215 65" style="enable-background:new 0 0 215 65;" xml:space="preserve">	<style type="text/css">	.band-01{fill:currentColor; opacity: 0.6;}	.band-011{fill:currentColor;}	</style>	<g>		<path class="band-01" d="M45.2,41.5c0.2,0.1,0.5,0.3,0.7,0.4c0.3,0.2,0.7,0.9,0.9,1.7c0.2,0.7,0.3,1.3,0.5,1.9c0.2,0.7,0.1,1-0.2,0.8  c-0.3-0.2-0.5-0.4-0.7-0.6c-0.2-0.2-0.6-0.9-0.8-1.5c-0.2-0.6-0.3-1.2-0.5-1.8C44.9,41.8,44.9,41.4,45.2,41.5L45.2,41.5z"></path>		<path class="band-01" d="M44.3,35.9c0.2,0.1,0.4,0.1,0.7,0.2c0.3,0.1,0.6,0.8,0.7,1.6c0.1,0.8,0.2,1.5,0.3,2.2c0.1,0.8,0,1.3-0.3,1.2  c-0.2-0.1-0.5-0.3-0.7-0.4c-0.2-0.2-0.5-0.9-0.6-1.6c-0.1-0.6-0.2-1.3-0.3-2C44,36.4,44.1,35.9,44.3,35.9z"></path>		<path class="band-01" d="M46.6,36.4c0.4,0.1,0.8,0.1,1.2,0.2c0.5,0.1,1,0.9,1.1,1.8c0.1,0.8,0.2,1.7,0.3,2.5c0.1,0.9-0.2,1.5-0.7,1.3  c-0.4-0.1-0.8-0.3-1.2-0.4c-0.4-0.1-0.8-0.9-0.9-1.7c-0.1-0.7-0.2-1.5-0.3-2.2C46,37,46.2,36.4,46.6,36.4L46.6,36.4z"></path>		<path class="band-01" d="M44.3,30.1c0.2,0,0.4-0.1,0.7-0.1c0.3,0,0.5,0.6,0.5,1.5c0,0.8,0,1.6,0,2.4c0,0.8-0.2,1.5-0.5,1.4  c-0.2,0-0.5-0.1-0.7-0.1c-0.2,0-0.4-0.7-0.4-1.5c0-0.7,0-1.4,0-2.1C43.9,30.8,44.1,30.1,44.3,30.1L44.3,30.1z"></path>		<path class="band-01" d="M46.5,29.8c0.4-0.1,0.8-0.1,1.2-0.1c0.5,0,0.9,0.7,0.9,1.7c0,0.9,0,1.8,0,2.7c0,1-0.4,1.7-0.9,1.7  c-0.4,0-0.8-0.1-1.2-0.1c-0.4,0-0.7-0.8-0.8-1.7c0-0.8,0-1.6,0-2.4C45.8,30.6,46.1,29.8,46.5,29.8L46.5,29.8z"></path>		<path class="band-01" d="M45,24.2c0.2-0.1,0.4-0.3,0.7-0.4c0.3-0.2,0.4,0.4,0.3,1.2c-0.1,0.7-0.2,1.5-0.3,2.2c-0.1,0.8-0.4,1.6-0.7,1.6  c-0.2,0-0.5,0.1-0.7,0.2c-0.2,0-0.3-0.5-0.2-1.3c0.1-0.7,0.2-1.3,0.3-2C44.5,25.1,44.8,24.4,45,24.2z"></path>		<path class="band-01" d="M47.3,23.1c0.4-0.2,0.8-0.3,1.2-0.4c0.5-0.2,0.8,0.4,0.7,1.3c-0.1,0.8-0.2,1.7-0.3,2.5  c-0.1,0.9-0.6,1.8-1.1,1.8c-0.4,0.1-0.8,0.1-1.2,0.2c-0.4,0.1-0.6-0.6-0.5-1.4c0.1-0.7,0.2-1.5,0.3-2.2  C46.5,24.1,46.9,23.3,47.3,23.1L47.3,23.1z"></path>		<path class="band-01" d="M46.3,19.2c0.2-0.2,0.5-0.4,0.7-0.6c0.3-0.2,0.4,0.1,0.2,0.8c-0.2,0.6-0.4,1.3-0.5,1.9  c-0.2,0.8-0.6,1.5-0.9,1.7c-0.2,0.1-0.5,0.3-0.7,0.4c-0.2,0.2-0.3-0.3-0.1-0.9c0.2-0.6,0.3-1.2,0.5-1.8  C45.8,20.1,46.1,19.5,46.3,19.2L46.3,19.2z"></path>		<path class="band-01" d="M66.2,61c0.7,0.1,1.4,0.2,2.2,0.3c0.8,0.1,1.5,0.4,1.6,0.7c0,0.2,0.1,0.5,0.2,0.7c0.1,0.2-0.5,0.3-1.2,0.2  c-0.6-0.1-1.3-0.2-1.9-0.3c-0.7-0.1-1.4-0.4-1.5-0.6c-0.1-0.2-0.3-0.5-0.4-0.7C65,61,65.5,60.9,66.2,61z"></path>		<path class="band-01" d="M60.9,59.7c0.6,0.2,1.2,0.4,1.9,0.5c0.7,0.2,1.4,0.6,1.6,0.9c0.1,0.2,0.3,0.5,0.4,0.7c0.2,0.2-0.3,0.3-0.9,0.1  c-0.6-0.2-1.1-0.3-1.7-0.5c-0.6-0.2-1.3-0.6-1.5-0.8c-0.2-0.2-0.4-0.5-0.6-0.8C59.9,59.6,60.2,59.5,60.9,59.7z"></path>		<path class="band-01" d="M78.2,61.3c0.7-0.1,1.4-0.2,2.1-0.3c0.8-0.1,1.3,0,1.1,0.3c-0.1,0.3-0.3,0.5-0.4,0.7c-0.2,0.2-0.8,0.5-1.5,0.6  c-0.6,0.1-1.3,0.2-1.9,0.3c-0.7,0.1-1.3,0-1.2-0.2c0.1-0.2,0.1-0.4,0.2-0.7C76.7,61.7,77.4,61.4,78.2,61.3L78.2,61.3z"></path>		<path class="band-01" d="M72.2,61.5c0.7,0,1.5,0,2.2,0c0.8,0,1.4,0.2,1.4,0.5c0,0.2-0.1,0.5-0.1,0.7c0,0.2-0.7,0.4-1.4,0.4  c-0.6,0-1.3,0-2,0c-0.7,0-1.4-0.2-1.4-0.4c0-0.2-0.1-0.4-0.1-0.7C70.8,61.7,71.4,61.5,72.2,61.5L72.2,61.5z"></path>		<path class="band-01" d="M83.8,60.2c0.7-0.2,1.3-0.4,1.9-0.6c0.6-0.2,1-0.1,0.8,0.2c-0.2,0.3-0.4,0.5-0.6,0.8c-0.2,0.2-0.9,0.6-1.5,0.8  c-0.6,0.2-1.1,0.4-1.7,0.5c-0.6,0.2-1.1,0.1-0.9-0.1c0.1-0.2,0.3-0.5,0.4-0.7C82.4,60.8,83.1,60.4,83.8,60.2L83.8,60.2z"></path>		<path class="band-01" d="M54.5,54.6c0.5,0.2,1.1,0.5,1.7,0.7c0.6,0.2,1.4,0.9,1.6,1.4c0.2,0.4,0.4,0.8,0.6,1.2c0.2,0.4-0.1,0.5-0.7,0.3  c-0.5-0.2-1-0.5-1.5-0.7c-0.5-0.3-1.2-0.8-1.5-1.2c-0.2-0.4-0.5-0.8-0.7-1.2C53.7,54.5,53.9,54.4,54.5,54.6L54.5,54.6z"></path>		<path class="band-01" d="M50.9,52.5c0.4,0.3,0.8,0.5,1.2,0.8c0.5,0.3,1.1,0.9,1.4,1.4c0.2,0.4,0.5,0.8,0.8,1.2c0.3,0.4,0.1,0.5-0.4,0.2  c-0.4-0.3-0.8-0.5-1.2-0.8c-0.4-0.3-0.9-0.9-1.2-1.3c-0.3-0.4-0.5-0.8-0.8-1.2C50.4,52.4,50.5,52.3,50.9,52.5L50.9,52.5z"></path>		<path class="band-01" d="M65.3,57.7c0.8,0.1,1.6,0.2,2.4,0.3c0.9,0.1,1.7,0.6,1.8,1.1c0.1,0.4,0.1,0.9,0.2,1.3c0.1,0.4-0.6,0.7-1.4,0.6  c-0.7-0.1-1.4-0.2-2.2-0.3c-0.8-0.1-1.5-0.6-1.7-1c-0.1-0.4-0.3-0.8-0.4-1.2C63.9,57.9,64.5,57.6,65.3,57.7L65.3,57.7z"></path>		<path class="band-01" d="M59.3,56.4c0.7,0.2,1.4,0.4,2.1,0.5c0.8,0.2,1.6,0.8,1.8,1.3c0.1,0.4,0.3,0.8,0.4,1.2c0.2,0.4-0.3,0.6-1,0.4  c-0.6-0.2-1.3-0.4-1.9-0.6c-0.7-0.2-1.4-0.7-1.6-1.1c-0.2-0.4-0.4-0.8-0.6-1.2C58.2,56.4,58.6,56.2,59.3,56.4L59.3,56.4z"></path>		<path class="band-01" d="M78.9,58c0.8-0.1,1.6-0.2,2.4-0.3c0.9-0.1,1.4,0.2,1.3,0.7c-0.1,0.4-0.3,0.9-0.4,1.2c-0.1,0.4-0.9,0.8-1.7,1  c-0.7,0.1-1.5,0.2-2.2,0.3c-0.8,0.1-1.4-0.2-1.4-0.6c0.1-0.4,0.1-0.8,0.1-1.2C77.2,58.6,78,58.1,78.9,58z"></path>		<path class="band-01" d="M72.1,58.2c0.8,0,1.7,0,2.5,0c0.9,0,1.6,0.4,1.6,0.9c0,0.4-0.1,0.9-0.1,1.3c0,0.4-0.8,0.7-1.6,0.8  c-0.8,0-1.5,0-2.3,0c-0.8,0-1.5-0.4-1.6-0.8c0-0.4-0.1-0.8-0.1-1.3C70.4,58.6,71.1,58.2,72.1,58.2z"></path>		<path class="band-01" d="M52.7,50c0.6,0.2,1.1,0.4,1.8,0.6c0.7,0.2,1.4,1,1.6,1.7c0.2,0.6,0.4,1.2,0.6,1.8c0.2,0.6-0.2,0.9-0.8,0.6  c-0.6-0.2-1.1-0.5-1.7-0.7c-0.5-0.3-1.2-0.9-1.5-1.5c-0.2-0.6-0.4-1.1-0.7-1.7C51.8,50.1,52.1,49.7,52.7,50L52.7,50z"></path>		<path class="band-01" d="M49,48.2c0.4,0.2,0.8,0.5,1.2,0.7c0.5,0.2,1.1,1,1.3,1.7c0.2,0.6,0.5,1.2,0.7,1.7c0.3,0.6,0.1,0.8-0.4,0.5  c-0.4-0.2-0.8-0.5-1.2-0.8c-0.4-0.3-0.9-0.9-1.2-1.5c-0.2-0.5-0.5-1.1-0.7-1.6C48.5,48.3,48.6,47.9,49,48.2L49,48.2z"></path>		<path class="band-01" d="M64.5,52.6c0.9,0.1,1.8,0.2,2.7,0.3c1,0.1,1.9,0.8,1.9,1.5c0.1,0.7,0.1,1.3,0.2,1.9c0.1,0.6-0.6,1.1-1.6,1  c-0.8-0.1-1.6-0.2-2.4-0.3c-0.9-0.1-1.7-0.7-1.8-1.4c-0.1-0.6-0.2-1.2-0.4-1.9C62.9,53.1,63.5,52.5,64.5,52.6L64.5,52.6z"></path>		<path class="band-01" d="M57.9,51.5c0.7,0.2,1.5,0.3,2.3,0.5c0.9,0.2,1.7,0.9,1.9,1.7c0.1,0.6,0.3,1.3,0.4,1.9c0.2,0.6-0.4,1-1.2,0.8  c-0.7-0.2-1.4-0.4-2.1-0.5c-0.7-0.2-1.5-0.9-1.7-1.5c-0.2-0.6-0.4-1.2-0.6-1.8C56.6,51.8,57.1,51.3,57.9,51.5L57.9,51.5z"></path>		<path class="band-01" d="M71.9,53.1c0.9,0,1.9,0,2.8,0c1,0,1.8,0.6,1.8,1.4c0,0.7-0.1,1.3-0.1,1.9c0,0.6-0.8,1.2-1.8,1.2  c-0.9,0-1.7,0-2.6,0c-0.9,0-1.7-0.6-1.8-1.2c0-0.6-0.1-1.3-0.1-1.9C70.1,53.7,70.9,53.1,71.9,53.1L71.9,53.1z"></path>		<path class="band-01" d="M51.3,44c0.6,0.2,1.2,0.3,1.8,0.4c0.7,0.1,1.5,1,1.6,1.9c0.1,0.8,0.3,1.6,0.5,2.4c0.2,0.8-0.3,1.3-1,1.1  c-0.6-0.2-1.2-0.4-1.8-0.6c-0.6-0.2-1.2-1-1.4-1.8c-0.2-0.7-0.4-1.4-0.5-2.2C50.3,44.4,50.7,43.8,51.3,44z"></path>		<path class="band-01" d="M47.5,42.7c0.4,0.2,0.8,0.3,1.2,0.5c0.5,0.2,1.1,1,1.2,1.8c0.2,0.7,0.3,1.5,0.5,2.2c0.2,0.8,0,1.2-0.5,0.9  c-0.4-0.2-0.8-0.4-1.2-0.6c-0.4-0.2-0.9-1-1.1-1.7c-0.2-0.7-0.4-1.3-0.5-2C46.9,43.1,47.1,42.6,47.5,42.7L47.5,42.7z"></path>		<path class="band-01" d="M63.8,45.8c0.9,0.1,1.9,0.1,2.9,0.2c1.1,0,2,0.9,2,1.9c0,0.9,0.1,1.8,0.1,2.6c0,0.9-0.8,1.6-1.8,1.5  c-0.9-0.1-1.8-0.2-2.7-0.3c-0.9-0.1-1.8-0.9-1.9-1.8c-0.1-0.8-0.2-1.7-0.3-2.5C62,46.5,62.8,45.7,63.8,45.8L63.8,45.8z"></path>		<path class="band-01" d="M56.8,45.1c0.8,0.1,1.6,0.2,2.4,0.3c0.9,0.1,1.8,1,1.9,2c0.1,0.9,0.2,1.7,0.3,2.5c0.1,0.9-0.5,1.4-1.4,1.3  c-0.8-0.1-1.6-0.3-2.3-0.5c-0.8-0.2-1.6-1-1.8-1.8c-0.2-0.8-0.3-1.6-0.4-2.4C55.4,45.6,55.9,44.9,56.8,45.1L56.8,45.1z"></path>		<path class="band-01" d="M50.5,36.9c0.6,0.1,1.2,0.1,1.9,0.2c0.7,0.1,1.4,1,1.5,2c0.1,0.9,0.2,1.9,0.3,2.8c0.1,1-0.4,1.7-1.1,1.5  c-0.6-0.1-1.2-0.3-1.8-0.4c-0.6-0.1-1.2-1-1.3-1.9c-0.1-0.9-0.2-1.7-0.3-2.6C49.4,37.6,49.8,36.9,50.5,36.9L50.5,36.9z"></path>		<path class="band-01" d="M56.1,37.3c0.8,0,1.7,0.1,2.5,0.1c1,0,1.8,1,1.9,2.1c0.1,1,0.1,2,0.2,3c0.1,1.1-0.6,1.8-1.6,1.7  c-0.8-0.1-1.6-0.2-2.4-0.3c-0.8-0.1-1.6-1-1.7-2c-0.1-0.9-0.2-1.9-0.2-2.8C54.6,38.1,55.2,37.3,56.1,37.3L56.1,37.3z"></path>		<path class="band-01" d="M50.4,29.4c0.6,0,1.2-0.1,1.9-0.1c0.7,0,1.4,0.8,1.3,1.9c0,1,0,2,0,3c0,1.1-0.6,1.9-1.3,1.9  c-0.6,0-1.3-0.1-1.9-0.1c-0.6-0.1-1.1-0.9-1.2-1.9c0-0.9,0-1.8,0-2.7C49.3,30.3,49.8,29.5,50.4,29.4L50.4,29.4z"></path>		<path class="band-01" d="M51.1,22c0.6-0.1,1.2-0.3,1.8-0.4c0.7-0.1,1.3,0.5,1.1,1.5C54,24,53.9,25,53.8,25.9c-0.1,1-0.8,1.9-1.5,2  c-0.6,0.1-1.3,0.1-1.9,0.2c-0.6,0.1-1-0.7-1-1.6c0.1-0.9,0.2-1.7,0.3-2.6C49.9,23,50.5,22.1,51.1,22L51.1,22z"></path>		<path class="band-01" d="M56.6,21c0.8-0.1,1.6-0.2,2.4-0.3c0.9-0.1,1.7,0.7,1.6,1.7c-0.1,1-0.1,2-0.2,3c0,1.1-0.9,2.1-1.9,2.1  c-0.9,0-1.7,0.1-2.5,0.1c-0.9,0.1-1.5-0.8-1.4-1.8c0.1-1,0.2-1.9,0.2-2.8C55,22,55.8,21.1,56.6,21z"></path>		<path class="band-01" d="M52.5,15.8c0.6-0.2,1.2-0.4,1.8-0.6c0.7-0.2,1.1,0.3,1,1.1c-0.2,0.8-0.3,1.6-0.5,2.4c-0.1,0.9-0.9,1.8-1.6,1.9  c-0.6,0.1-1.2,0.3-1.8,0.4c-0.6,0.2-1-0.4-0.8-1.3c0.2-0.7,0.3-1.5,0.5-2.2C51.2,16.8,51.9,16,52.5,15.8z"></path>		<path class="band-01" d="M48.7,17.5c0.4-0.2,0.8-0.4,1.2-0.6c0.5-0.2,0.7,0.2,0.5,0.9c-0.2,0.7-0.4,1.4-0.5,2.2  c-0.2,0.8-0.7,1.7-1.2,1.8c-0.4,0.2-0.8,0.3-1.2,0.5c-0.4,0.2-0.5-0.3-0.4-1.1c0.2-0.7,0.4-1.3,0.5-2  C47.8,18.5,48.3,17.7,48.7,17.5z"></path>		<path class="band-01" d="M64.3,13.2c0.9-0.1,1.8-0.2,2.7-0.3c1-0.1,1.8,0.6,1.8,1.5c0,0.8-0.1,1.7-0.1,2.6c0,1-1,1.9-2,1.9  c-1,0.1-1.9,0.1-2.9,0.2c-1,0.1-1.8-0.7-1.7-1.6c0.1-0.9,0.2-1.7,0.3-2.5C62.5,14.1,63.4,13.3,64.3,13.2L64.3,13.2z"></path>		<path class="band-01" d="M57.7,14.3c0.7-0.2,1.5-0.3,2.3-0.5c0.9-0.1,1.5,0.4,1.4,1.3c-0.1,0.8-0.2,1.7-0.3,2.5c-0.1,1-1,1.9-1.9,2  c-0.8,0.1-1.6,0.2-2.4,0.3c-0.8,0.1-1.4-0.5-1.3-1.4c0.1-0.8,0.3-1.6,0.4-2.4C56.1,15.3,56.9,14.5,57.7,14.3L57.7,14.3z"></path>		<path class="band-01" d="M54.2,11c0.5-0.2,1.1-0.5,1.7-0.7c0.7-0.2,1,0,0.8,0.6c-0.2,0.6-0.4,1.2-0.6,1.8c-0.2,0.7-1,1.5-1.6,1.7  c-0.6,0.2-1.2,0.4-1.8,0.6c-0.6,0.2-0.9-0.1-0.6-0.8c0.2-0.6,0.4-1.2,0.7-1.7C53,11.9,53.7,11.2,54.2,11L54.2,11z"></path>		<path class="band-01" d="M50.6,13c0.4-0.3,0.8-0.5,1.2-0.8c0.5-0.3,0.7-0.1,0.4,0.5c-0.2,0.5-0.5,1.1-0.7,1.7c-0.2,0.7-0.8,1.4-1.3,1.7  c-0.4,0.2-0.8,0.4-1.2,0.7c-0.4,0.2-0.5-0.1-0.3-0.7c0.2-0.5,0.5-1.1,0.7-1.6C49.7,13.9,50.2,13.3,50.6,13L50.6,13z"></path>		<path class="band-01" d="M65.2,7.9c0.8-0.1,1.6-0.2,2.4-0.3c0.9-0.1,1.6,0.4,1.6,1c0,0.6-0.1,1.3-0.2,1.9c-0.1,0.8-0.9,1.5-1.9,1.5  c-0.9,0.1-1.8,0.2-2.7,0.3c-0.9,0.1-1.6-0.4-1.5-1.2c0.1-0.7,0.2-1.3,0.4-1.9C63.5,8.7,64.3,8,65.2,7.9L65.2,7.9z"></path>		<path class="band-01" d="M59.1,9.2c0.7-0.2,1.4-0.4,2.1-0.5c0.8-0.2,1.4,0.2,1.2,0.8c-0.1,0.6-0.3,1.2-0.4,1.9c-0.1,0.8-1,1.5-1.9,1.7  c-0.8,0.2-1.5,0.3-2.3,0.5c-0.8,0.2-1.3-0.3-1.1-1c0.2-0.6,0.4-1.2,0.6-1.8C57.6,10,58.4,9.4,59.1,9.2L59.1,9.2z"></path>		<path class="band-01" d="M72,7.4c0.9,0,1.7,0,2.6,0c0.9,0,1.8,0.6,1.8,1.2c0,0.6,0.1,1.3,0.1,1.9c0,0.8-0.8,1.4-1.8,1.4  c-0.9,0-1.9,0-2.8,0c-1,0-1.8-0.6-1.8-1.4c0-0.7,0.1-1.3,0.1-1.9C70.3,7.9,71.1,7.4,72,7.4z"></path>		<path class="band-01" d="M56.2,7.5c0.5-0.2,1-0.5,1.5-0.7c0.6-0.3,0.9-0.2,0.7,0.3c-0.2,0.4-0.4,0.8-0.6,1.2c-0.2,0.5-1,1.1-1.6,1.4  c-0.6,0.2-1.1,0.5-1.7,0.7c-0.5,0.3-0.8,0.1-0.5-0.4c0.2-0.4,0.5-0.8,0.7-1.2C55,8.3,55.6,7.8,56.2,7.5L56.2,7.5z"></path>		<path class="band-01" d="M52.7,9.6c0.4-0.3,0.8-0.5,1.2-0.8c0.5-0.3,0.6-0.2,0.4,0.2c-0.3,0.4-0.5,0.8-0.8,1.2  c-0.3,0.5-0.9,1.1-1.4,1.4c-0.4,0.3-0.8,0.5-1.2,0.8c-0.4,0.3-0.5,0.1-0.2-0.4c0.3-0.4,0.5-0.8,0.8-1.2  C51.7,10.5,52.3,9.9,52.7,9.6L52.7,9.6z"></path>		<path class="band-01" d="M66.1,4.4c0.7-0.1,1.4-0.2,2.2-0.3c0.8-0.1,1.4,0.2,1.4,0.6c-0.1,0.4-0.1,0.8-0.2,1.3c-0.1,0.5-0.9,1-1.8,1.1  c-0.8,0.1-1.6,0.2-2.4,0.3c-0.8,0.1-1.4-0.2-1.3-0.7c0.1-0.4,0.3-0.9,0.4-1.2C64.6,4.9,65.4,4.5,66.1,4.4L66.1,4.4z"></path>		<path class="band-01" d="M60.7,5.7c0.6-0.2,1.3-0.4,1.9-0.6c0.7-0.2,1.2,0,1,0.4c-0.1,0.4-0.3,0.8-0.4,1.2c-0.2,0.5-1,1.1-1.8,1.3  c-0.7,0.2-1.4,0.3-2.1,0.5c-0.7,0.2-1.1,0-0.9-0.5c0.2-0.4,0.4-0.8,0.6-1.2C59.3,6.4,60,5.9,60.7,5.7z"></path>		<path class="band-01" d="M78.3,4.1c0.7,0.1,1.5,0.2,2.2,0.3c0.8,0.1,1.5,0.6,1.7,1c0.1,0.4,0.3,0.8,0.4,1.2c0.1,0.5-0.4,0.8-1.3,0.7  c-0.8-0.1-1.6-0.2-2.4-0.3c-0.9-0.1-1.7-0.6-1.8-1.1c0-0.4-0.1-0.9-0.1-1.2C76.9,4.3,77.5,4,78.3,4.1L78.3,4.1z"></path>		<path class="band-01" d="M72.2,3.8c0.8,0,1.5,0,2.3,0c0.8,0,1.5,0.4,1.6,0.8c0,0.4,0.1,0.8,0.1,1.3c0,0.5-0.7,0.9-1.6,0.9  c-0.8,0-1.7,0-2.5,0c-0.9,0-1.7-0.4-1.6-0.9c0-0.4,0.1-0.9,0.1-1.3C70.6,4.2,71.3,3.8,72.2,3.8z"></path>		<path class="band-01" d="M67,2.4c0.6-0.1,1.3-0.2,1.9-0.3c0.7-0.1,1.3,0,1.2,0.2C70.1,2.5,70,2.8,70,3c-0.1,0.3-0.8,0.6-1.6,0.7  C67.7,3.8,67,3.9,66.2,4c-0.8,0.1-1.2,0-1.1-0.3c0.1-0.3,0.3-0.5,0.4-0.7C65.7,2.8,66.3,2.5,67,2.4z"></path>		<path class="band-01" d="M62.2,3.6c0.6-0.2,1.1-0.3,1.7-0.5c0.6-0.2,1.1-0.1,0.9,0.1c-0.2,0.2-0.3,0.5-0.4,0.7  c-0.2,0.3-0.9,0.7-1.6,0.9c-0.6,0.2-1.3,0.4-1.9,0.5c-0.7,0.2-1,0.1-0.8-0.2c0.2-0.3,0.4-0.5,0.6-0.8C60.9,4.1,61.6,3.8,62.2,3.6  L62.2,3.6z"></path>		<path class="band-01" d="M77.7,2.1c0.6,0.1,1.3,0.2,1.9,0.3C80.3,2.5,81,2.8,81.1,3c0.1,0.2,0.2,0.5,0.4,0.7C81.6,4,81.1,4.2,80.4,4  c-0.7-0.1-1.4-0.2-2.1-0.3c-0.8-0.1-1.5-0.4-1.6-0.7c0-0.2-0.1-0.5-0.2-0.7C76.4,2.1,77,2,77.7,2.1L77.7,2.1z"></path>		<path class="band-01" d="M72.3,1.8c0.7,0,1.3,0,2,0c0.7,0,1.4,0.2,1.4,0.4c0,0.2,0.1,0.4,0.1,0.7c0.1,0.3-0.6,0.5-1.4,0.5  c-0.7,0-1.5,0-2.2,0c-0.8,0-1.4-0.2-1.4-0.5c0-0.2,0.1-0.5,0.1-0.7C71,2.1,71.6,1.9,72.3,1.8L72.3,1.8z"></path>		<path class="band-01" d="M82.7,3.1c0.6,0.2,1.2,0.3,1.7,0.5c0.6,0.2,1.3,0.6,1.5,0.8c0.2,0.2,0.4,0.5,0.6,0.8c0.2,0.3-0.1,0.4-0.8,0.2  c-0.6-0.2-1.2-0.4-1.9-0.6c-0.7-0.2-1.4-0.6-1.6-0.9c-0.1-0.3-0.3-0.5-0.4-0.7C81.7,2.9,82.1,2.9,82.7,3.1z"></path>		<path class="band-011" d="M171.1,42.2h-3v4.2h3v-0.7h-2.3v-1.1h2V44h-2v-1.1h2.3V42.2z M163.5,43.6c0,0.2-0.1,0.4-0.2,0.5  c-0.2,0.1-0.4,0.2-0.6,0.2h-1v-1.4h1c0.3,0,0.5,0.1,0.6,0.2C163.4,43.2,163.5,43.4,163.5,43.6L163.5,43.6z M164.4,46.5l-1.1-1.6  c0.1,0,0.3-0.1,0.4-0.2c0.1-0.1,0.2-0.2,0.3-0.3c0.1-0.1,0.2-0.2,0.2-0.4c0-0.1,0.1-0.3,0.1-0.5c0-0.2,0-0.4-0.1-0.6  c-0.1-0.2-0.2-0.3-0.3-0.4c-0.1-0.1-0.3-0.2-0.5-0.3c-0.2-0.1-0.4-0.1-0.6-0.1h-1.8v4.2h0.7V45h0.9l1,1.5L164.4,46.5L164.4,46.5z   M157,42.2h-3v4.2h3v-0.7h-2.3v-1.1h2V44h-2v-1.1h2.3V42.2z M149.3,44.7v1.8h0.7v-4.2h-0.7V44h-2v-1.8h-0.7v4.2h0.7v-1.8H149.3z   M140.1,45.2l-2.2-2.9h-0.7v4.2h0.7v-3l2.2,3h0.6v-4.2h-0.7V45.2z M132.2,44.8h-1.4l0.7-1.7L132.2,44.8z M131.8,42.2h-0.7l-1.8,4.3  h0.7l0.4-1h1.9l0.4,1h0.8L131.8,42.2z M125.8,45.9v-1.8h-1.7v0.6h1v0.8c-0.1,0.1-0.3,0.2-0.4,0.2c-0.2,0.1-0.4,0.1-0.5,0.1  c-0.2,0-0.4,0-0.6-0.1c-0.2-0.1-0.3-0.2-0.4-0.3c-0.1-0.1-0.2-0.3-0.3-0.5c-0.1-0.2-0.1-0.4-0.1-0.6c0-0.2,0-0.4,0.1-0.6  c0.1-0.2,0.2-0.3,0.3-0.5c0.1-0.1,0.3-0.2,0.4-0.3c0.2-0.1,0.3-0.1,0.5-0.1c0.1,0,0.2,0,0.4,0c0.1,0,0.2,0.1,0.3,0.1  c0.1,0,0.2,0.1,0.3,0.1c0.1,0.1,0.2,0.1,0.2,0.2l0.5-0.6c-0.1-0.1-0.2-0.2-0.3-0.2c-0.1-0.1-0.2-0.1-0.4-0.2  c-0.1,0-0.3-0.1-0.4-0.1c-0.1,0-0.3,0-0.5,0c-0.3,0-0.6,0.1-0.8,0.2c-0.3,0.1-0.5,0.3-0.7,0.5c-0.2,0.2-0.3,0.4-0.4,0.7  c-0.1,0.3-0.2,0.5-0.2,0.8s0.1,0.6,0.2,0.9c0.1,0.3,0.2,0.5,0.4,0.7c0.2,0.2,0.4,0.3,0.7,0.5c0.3,0.1,0.5,0.2,0.9,0.2  c0.2,0,0.3,0,0.5-0.1c0.2,0,0.3-0.1,0.5-0.1s0.3-0.1,0.4-0.2C125.6,46.1,125.7,46,125.8,45.9L125.8,45.9z M117.6,44.4  c0,0.2,0,0.4-0.1,0.6c-0.1,0.2-0.2,0.3-0.3,0.5c-0.1,0.1-0.3,0.2-0.4,0.3c-0.2,0.1-0.4,0.1-0.6,0.1c-0.2,0-0.4,0-0.6-0.1  c-0.2-0.1-0.3-0.2-0.4-0.3c-0.1-0.1-0.2-0.3-0.3-0.5c-0.1-0.2-0.1-0.4-0.1-0.6c0-0.2,0-0.4,0.1-0.6c0.1-0.2,0.2-0.3,0.3-0.5  c0.1-0.1,0.3-0.2,0.4-0.3c0.2-0.1,0.4-0.1,0.6-0.1c0.2,0,0.4,0,0.6,0.1c0.2,0.1,0.3,0.2,0.4,0.3c0.1,0.1,0.2,0.3,0.3,0.5  C117.6,44,117.6,44.2,117.6,44.4L117.6,44.4z M118.3,44.3c0-0.3-0.1-0.6-0.2-0.8c-0.1-0.3-0.3-0.5-0.4-0.7  c-0.2-0.2-0.4-0.4-0.7-0.5c-0.3-0.1-0.5-0.2-0.9-0.2c-0.3,0-0.6,0.1-0.9,0.2c-0.3,0.1-0.5,0.3-0.7,0.5c-0.2,0.2-0.3,0.4-0.4,0.7  c-0.1,0.3-0.2,0.5-0.2,0.8c0,0.3,0.1,0.6,0.2,0.8c0.1,0.3,0.2,0.5,0.4,0.7c0.2,0.2,0.4,0.4,0.7,0.5c0.3,0.1,0.5,0.2,0.9,0.2  c0.3,0,0.6-0.1,0.9-0.2c0.3-0.1,0.5-0.3,0.7-0.5c0.2-0.2,0.3-0.4,0.4-0.7C118.3,44.9,118.3,44.6,118.3,44.3L118.3,44.3z   M107.9,46.5h2.8v-0.7h-2.1v-3.6h-0.7V46.5z M101.8,43.3c0-0.1,0.1-0.3,0.2-0.4c0.1-0.1,0.3-0.1,0.5-0.1c0.2,0,0.4,0,0.6,0.1  c0.2,0.1,0.4,0.2,0.6,0.3l0.4-0.6c-0.2-0.2-0.4-0.3-0.7-0.4c-0.2-0.1-0.5-0.1-0.8-0.1c-0.2,0-0.4,0-0.6,0.1  c-0.2,0.1-0.3,0.1-0.4,0.3c-0.1,0.1-0.2,0.2-0.3,0.4c-0.1,0.2-0.1,0.3-0.1,0.5c0,0.2,0,0.4,0.1,0.5c0.1,0.1,0.1,0.3,0.3,0.4  c0.1,0.1,0.3,0.2,0.4,0.2c0.2,0.1,0.4,0.1,0.6,0.2c0.2,0,0.3,0.1,0.5,0.1c0.1,0,0.2,0.1,0.3,0.1c0.1,0.1,0.1,0.1,0.1,0.2  c0,0.1,0,0.1,0,0.2c0,0.2-0.1,0.3-0.2,0.4c-0.1,0.1-0.3,0.1-0.5,0.1c-0.3,0-0.5,0-0.7-0.1c-0.2-0.1-0.4-0.2-0.6-0.4l-0.4,0.5  c0.2,0.2,0.5,0.4,0.8,0.5c0.3,0.1,0.6,0.2,0.9,0.2c0.2,0,0.4,0,0.6-0.1c0.2-0.1,0.3-0.1,0.5-0.2c0.1-0.1,0.2-0.2,0.3-0.4  c0.1-0.2,0.1-0.3,0.1-0.5c0-0.2,0-0.3-0.1-0.5c-0.1-0.1-0.1-0.2-0.2-0.3c-0.1-0.1-0.2-0.2-0.4-0.3c-0.2-0.1-0.4-0.1-0.6-0.2  c-0.2,0-0.4-0.1-0.5-0.1c-0.1,0-0.2-0.1-0.3-0.1c-0.1-0.1-0.1-0.1-0.1-0.2C101.8,43.5,101.8,43.4,101.8,43.3L101.8,43.3z   M94.9,43.6c0,0.2-0.1,0.4-0.2,0.5c-0.2,0.1-0.4,0.2-0.6,0.2h-1v-1.4h1c0.3,0,0.5,0.1,0.6,0.2C94.8,43.2,94.9,43.4,94.9,43.6  L94.9,43.6z M95.7,46.5l-1.1-1.6c0.1,0,0.3-0.1,0.4-0.2c0.1-0.1,0.2-0.2,0.3-0.3c0.1-0.1,0.2-0.2,0.2-0.4c0-0.1,0.1-0.3,0.1-0.5  c0-0.2,0-0.4-0.1-0.6c-0.1-0.2-0.2-0.3-0.3-0.4s-0.3-0.2-0.5-0.3c-0.2-0.1-0.4-0.1-0.6-0.1h-1.8v4.2H93V45h0.9l1,1.5L95.7,46.5  L95.7,46.5z M88.3,42.2h-0.7v2.4c0,0.4-0.1,0.7-0.3,0.9c-0.2,0.2-0.4,0.3-0.8,0.3c-0.3,0-0.6-0.1-0.8-0.3c-0.2-0.2-0.3-0.5-0.3-0.9  v-2.4h-0.7v2.4c0,0.3,0,0.6,0.1,0.8c0.1,0.2,0.2,0.4,0.3,0.6c0.2,0.2,0.3,0.3,0.5,0.4c0.2,0.1,0.5,0.1,0.7,0.1c0.3,0,0.5,0,0.7-0.1  c0.2-0.1,0.4-0.2,0.5-0.4c0.2-0.2,0.3-0.4,0.4-0.6c0.1-0.2,0.1-0.5,0.1-0.8L88.3,42.2L88.3,42.2z M80.3,44.4c0,0.2,0,0.4-0.1,0.6  c-0.1,0.2-0.2,0.3-0.3,0.5c-0.1,0.1-0.3,0.2-0.4,0.3c-0.2,0.1-0.4,0.1-0.6,0.1c-0.2,0-0.4,0-0.6-0.1c-0.2-0.1-0.3-0.2-0.4-0.3  c-0.1-0.1-0.2-0.3-0.3-0.5c-0.1-0.2-0.1-0.4-0.1-0.6c0-0.2,0-0.4,0.1-0.6c0.1-0.2,0.2-0.3,0.3-0.5c0.1-0.1,0.3-0.2,0.4-0.3  c0.2-0.1,0.4-0.1,0.6-0.1c0.2,0,0.4,0,0.6,0.1c0.2,0.1,0.3,0.2,0.4,0.3c0.1,0.1,0.2,0.3,0.3,0.5C80.3,44,80.3,44.2,80.3,44.4  L80.3,44.4z M81,44.3c0-0.3-0.1-0.6-0.2-0.8c-0.1-0.3-0.2-0.5-0.4-0.7c-0.2-0.2-0.4-0.4-0.7-0.5c-0.3-0.1-0.5-0.2-0.9-0.2  c-0.3,0-0.6,0.1-0.9,0.2c-0.3,0.1-0.5,0.3-0.7,0.5c-0.2,0.2-0.3,0.4-0.4,0.7c-0.1,0.3-0.2,0.5-0.2,0.8s0.1,0.6,0.2,0.8  c0.1,0.3,0.2,0.5,0.4,0.7c0.2,0.2,0.4,0.4,0.7,0.5c0.3,0.1,0.5,0.2,0.9,0.2c0.3,0,0.6-0.1,0.9-0.2c0.3-0.1,0.5-0.3,0.7-0.5  c0.2-0.2,0.3-0.4,0.4-0.7C81,44.9,81,44.6,81,44.3L81,44.3z M72.1,44.8l1.6-2.5h-0.8l-1.2,1.9l-1.1-1.9h-0.8l1.6,2.6v1.7h0.7  L72.1,44.8L72.1,44.8z"></path>		<path class="band-011" d="M170.8,38V21.6h-1.2v7.6h-10.1v-7.6h-1.2V38h1.2v-7.7h10.1V38H170.8z M155.2,35.4l-0.8-0.8  c-0.8,0.8-1.6,1.5-2.5,1.9s-1.8,0.7-3,0.7c-0.9,0-1.8-0.2-2.6-0.6c-0.8-0.4-1.5-0.9-2.1-1.6c-0.6-0.7-1.1-1.4-1.4-2.3  c-0.3-0.9-0.5-1.9-0.5-2.9v0c0-1,0.2-2,0.5-2.9c0.3-0.9,0.8-1.7,1.4-2.3c0.6-0.7,1.3-1.2,2.1-1.6c0.8-0.4,1.7-0.6,2.6-0.6  c0.6,0,1.1,0.1,1.6,0.2c0.5,0.1,1,0.3,1.4,0.5c0.4,0.2,0.8,0.5,1.2,0.8c0.4,0.3,0.7,0.6,1.1,1l0.8-0.9c-0.4-0.4-0.8-0.7-1.3-1.1  c-0.4-0.3-0.9-0.6-1.4-0.8c-0.5-0.2-1-0.4-1.6-0.5c-0.6-0.1-1.2-0.2-1.9-0.2c-1.1,0-2.2,0.2-3.2,0.7c-1,0.4-1.8,1.1-2.5,1.8  c-0.7,0.8-1.2,1.7-1.6,2.7c-0.4,1-0.6,2.1-0.6,3.3v0c0,1.2,0.2,2.3,0.6,3.3s0.9,1.9,1.6,2.7c0.7,0.8,1.5,1.4,2.5,1.8  c1,0.4,2,0.7,3.1,0.7c0.7,0,1.3-0.1,1.9-0.2c0.6-0.1,1.1-0.3,1.6-0.6c0.5-0.3,1-0.6,1.4-0.9C154.3,36.2,154.7,35.8,155.2,35.4z   M138,38v-1.1h-10.2v-6.6h9v-1.1h-9v-6.5h10.1v-1.1h-11.2V38H138z M123.1,22.7v-1.1h-12.2v1.1h5.5V38h1.2V22.7H123.1z M108.2,35.7  v-7.1h-6.9v3.1h3.5V34c-0.9,0.7-2,1-3.3,1c-0.7,0-1.3-0.1-1.9-0.4c-0.6-0.3-1.1-0.6-1.5-1.1c-0.4-0.5-0.8-1-1-1.7  c-0.2-0.6-0.3-1.3-0.3-2.1v0c0-0.7,0.1-1.4,0.3-2c0.2-0.6,0.6-1.2,1-1.6c0.4-0.5,0.9-0.8,1.4-1.1c0.5-0.3,1.1-0.4,1.8-0.4  c0.5,0,0.9,0,1.2,0.1c0.4,0.1,0.7,0.2,1,0.3c0.3,0.1,0.6,0.3,0.9,0.5c0.3,0.2,0.6,0.4,0.9,0.7l2.2-2.7c-0.4-0.4-0.8-0.7-1.3-1  c-0.4-0.3-0.9-0.5-1.4-0.7c-0.5-0.2-1-0.3-1.6-0.4c-0.6-0.1-1.2-0.2-1.9-0.2c-1.2,0-2.3,0.2-3.3,0.7c-1,0.4-1.9,1.1-2.6,1.8  c-0.7,0.8-1.3,1.7-1.7,2.7c-0.4,1-0.6,2.1-0.6,3.3v0c0,1.2,0.2,2.3,0.6,3.4c0.4,1,1,1.9,1.7,2.7c0.7,0.8,1.6,1.3,2.6,1.8  c1,0.4,2.1,0.6,3.4,0.6c1.4,0,2.7-0.3,3.8-0.8C106.5,37,107.4,36.4,108.2,35.7L108.2,35.7z M90,38V21.6h-3.5V38H90z M80,33  c0,0.6-0.2,1.1-0.7,1.3c-0.4,0.3-1,0.4-1.8,0.4h-4.1v-3.6h4c0.9,0,1.6,0.2,2,0.5C79.8,32,80,32.4,80,33L80,33z M79.1,26.5  c0,0.6-0.2,1.1-0.7,1.3c-0.5,0.3-1.1,0.4-1.8,0.4h-3.2v-3.5h3.4c0.7,0,1.3,0.1,1.7,0.4C78.9,25.4,79.1,25.9,79.1,26.5L79.1,26.5z   M83.4,33.5L83.4,33.5c0-1.1-0.3-2-0.8-2.6c-0.5-0.6-1.2-1.1-2.2-1.5c0.3-0.2,0.5-0.3,0.8-0.6c0.2-0.2,0.5-0.5,0.7-0.8  c0.2-0.3,0.3-0.6,0.4-1c0.1-0.4,0.2-0.8,0.2-1.2v0c0-1.3-0.5-2.3-1.4-3.1c-0.9-0.8-2.2-1.1-3.8-1.1h-7.3V38h7.5  c0.9,0,1.7-0.1,2.4-0.3c0.7-0.2,1.3-0.5,1.9-0.8c0.5-0.4,0.9-0.8,1.2-1.4C83.3,34.9,83.4,34.2,83.4,33.5L83.4,33.5z"></path>	</g></svg>