<svg xmlns="http://www.w3.org/2000/svg" xmlns:xlink="http://www.w3.org/1999/xlink" x="0px" y="0px" viewBox="0 0 215 65" style="enable-background:new 0 0 215 65;" xml:space="preserve">	<style type="text/css">	path{fill:currentColor;}	</style>	<g>		<g>			<path d="M80.6,45.2c-0.6,1.6-2.3,2.4-3.8,1.8c-1.5-0.6-2.3-2.4-1.7-4c0.6-1.6,2.3-2.4,3.8-1.8C80.4,41.8,81.1,43.6,80.6,45.2z"></path>			<path d="M75.1,19c-0.6,1.6,0.2,3.4,1.7,4s3.2-0.2,3.8-1.8c0.6-1.6-0.2-3.4-1.7-4S75.6,17.4,75.1,19z"></path>			<path d="M67.6,17.9c1.5-0.7,2.2-2.5,1.5-4.1s-2.4-2.3-3.9-1.6s-2.2,2.5-1.5,4.1C64.3,17.9,66.1,18.6,67.6,17.9z"></path>			<path d="M53.8,22.9c1.5,0.6,3.2-0.2,3.8-1.8c0.6-1.6-0.2-3.4-1.7-4s-3.2,0.2-3.8,1.8C51.5,20.5,52.3,22.3,53.8,22.9z"></path>			<path d="M48.9,29.2c-1.5,0.7-2.2,2.5-1.5,4.1s2.4,2.3,3.9,1.6s2.2-2.5,1.5-4.1C52.1,29.2,50.4,28.5,48.9,29.2z"></path>			<path d="M65.1,46.2c-1.5,0.7-2.2,2.5-1.5,4.1c0.7,1.6,2.4,2.3,3.9,1.6s2.2-2.5,1.5-4.1S66.6,45.5,65.1,46.2z"></path>			<path d="M57.6,45.1c0.6-1.6-0.2-3.4-1.7-4s-3.2,0.2-3.8,1.8s0.2,3.4,1.7,4C55.3,47.5,57,46.7,57.6,45.1L57.6,45.1z"></path>			<path d="M77.8,50.2c-0.5-0.5-1.1-0.8-1.6-1c-3.8-1.1-3.6-3.2-3.2-4.8c0.1-0.6,0-1.2-0.5-1.6c-0.6-0.6-1.6-0.6-2.2,0.1   c-0.6,0.7-0.6,1.7,0.1,2.4c0.1,0.1,0.2,0.2,0.3,0.2c1.4,0.8,3,2.2,1.1,5.7c-0.9,1.6-0.6,3.7,0.8,5c1.6,1.5,4.1,1.4,5.5-0.2   C79.5,54.3,79.4,51.8,77.8,50.2L77.8,50.2z"></path>			<path d="M71.6,12.8c2,3.5,0.4,4.9-1,5.8c-0.5,0.3-0.8,0.9-0.8,1.5c0,0.9,0.8,1.6,1.6,1.6c0.9,0,1.6-0.8,1.5-1.7   c0-0.1,0-0.3-0.1-0.4c-0.4-1.6-0.6-3.7,3.1-4.8c1.7-0.5,2.9-2.2,2.8-4.1c-0.1-2.3-1.9-4-4.1-3.9s-3.8,2-3.8,4.2   C71.1,11.6,71.2,12.3,71.6,12.8L71.6,12.8z"></path>			<path d="M54.8,13.9c0.5,0.5,1.1,0.8,1.6,1c3.8,1.1,3.6,3.2,3.2,4.8c-0.1,0.6,0,1.2,0.5,1.6c0.6,0.6,1.6,0.6,2.2-0.1   c0.6-0.7,0.6-1.7-0.1-2.4c-0.1-0.1-0.2-0.2-0.3-0.2c-1.4-0.8-3-2.2-1.1-5.7c0.9-1.6,0.6-3.7-0.8-5c-1.6-1.5-4.1-1.4-5.5,0.2   C53.2,9.8,53.2,12.3,54.8,13.9L54.8,13.9z"></path>			<path d="M46.1,27.1c0.7,0,1.3-0.2,1.8-0.5c3.4-2,4.7-0.4,5.5,1c0.3,0.5,0.8,0.9,1.4,0.8c0.9,0,1.6-0.8,1.5-1.7   c0-0.9-0.8-1.6-1.6-1.6c-0.1,0-0.3,0-0.4,0.1c-1.5,0.5-3.6,0.7-4.6-3.3c-0.5-1.8-2.1-3-3.9-3c-2.2,0.1-3.8,2-3.8,4.2   C42.2,25.5,44,27.2,46.1,27.1L46.1,27.1z"></path>			<path d="M61.1,51.3c-2-3.5-0.4-4.9,1-5.8c0.5-0.3,0.8-0.9,0.8-1.5c0-0.9-0.8-1.6-1.6-1.6c-0.9,0-1.6,0.8-1.5,1.7   c0,0.1,0,0.3,0.1,0.4c0.4,1.6,0.6,3.7-3.1,4.8c-1.7,0.5-2.9,2.2-2.8,4.1c0.1,2.3,1.9,4,4.1,3.9c2.2-0.1,3.8-2,3.8-4.2   C61.6,52.5,61.4,51.9,61.1,51.3L61.1,51.3z"></path>			<path d="M49,44.1c0.4-0.5,0.8-1.1,0.9-1.7c1-3.9,3.1-3.8,4.6-3.3c0.5,0.1,1.2,0,1.6-0.5c0.6-0.7,0.6-1.7-0.1-2.4   c-0.6-0.6-1.6-0.6-2.2,0.1c-0.1,0.1-0.2,0.2-0.2,0.3c-0.8,1.4-2.1,3.1-5.5,1.1c-1.5-0.9-3.5-0.6-4.8,0.8c-1.5,1.7-1.4,4.2,0.2,5.8   C45,45.8,47.5,45.7,49,44.1L49,44.1z"></path>			<path d="M84.9,48.6c-1.1-0.4-2.4,0.1-2.8,1.3s0.1,2.5,1.3,3c1.1,0.4,2.4-0.1,2.8-1.3C86.6,50.4,86.1,49,84.9,48.6z"></path>			<path d="M83.4,15.6c1.1,0.4,2.4-0.1,2.8-1.3s-0.1-2.5-1.3-3c-1.1-0.4-2.4,0.1-2.8,1.3S82.3,15.1,83.4,15.6z"></path>			<path class="st0" d="M67.3,7.8c1.1-0.5,1.6-1.9,1.1-3c-0.5-1.2-1.8-1.7-2.9-1.2s-1.6,1.9-1.1,3C64.9,7.8,66.2,8.3,67.3,7.8   L67.3,7.8z"></path>			<path d="M47.7,15.5c1.1,0.4,2.4-0.1,2.8-1.3c0.4-1.2-0.1-2.5-1.3-3c-1.1-0.4-2.4,0.1-2.8,1.3C46,13.7,46.6,15.1,47.7,15.5   L47.7,15.5z"></path>			<path class="st1" d="M42,34.1c1.1-0.5,1.6-1.9,1.1-3c-0.5-1.2-1.8-1.7-2.9-1.2c-1.1,0.5-1.6,1.9-1.1,3   C39.6,34.1,40.9,34.6,42,34.1L42,34.1z"></path>			<path class="st2" d="M65.4,56.3c-1.1,0.5-1.6,1.9-1.1,3c0.5,1.2,1.8,1.7,2.9,1.2s1.6-1.9,1.1-3S66.5,55.8,65.4,56.3L65.4,56.3z"></path>			<path d="M49.2,48.5c-1.1-0.4-2.4,0.2-2.8,1.3c-0.4,1.2,0.1,2.5,1.3,3c1.1,0.4,2.4-0.1,2.8-1.3C50.9,50.3,50.4,49,49.2,48.5   L49.2,48.5z"></path>			<path d="M70,27.1c0-0.2,0.2-0.4,0.3-0.4h0.4v9.5c0,0.2-0.2,0.4-0.3,0.4H70V27.1z"></path>			<path d="M79.8,32.9c0,0.2-0.2,0.4-0.3,0.4H79v-6.5h0.5c0.1,0,0.2,0.1,0.3,0.1l6,8.5v-8.3c0-0.2,0.2-0.4,0.3-0.4h0.4v9.9h-0.7   c-0.1,0-0.2-0.1-0.3-0.1l-5.8-8.1L79.8,32.9L79.8,32.9z"></path>		</g>		<g>			<path d="M70.4,36.8h-0.6v-9.7c0-0.3,0.2-0.6,0.5-0.6h0.6v9.7C70.9,36.6,70.7,36.8,70.4,36.8z M70.2,36.4h0.2   c0.1,0,0.2-0.1,0.2-0.2v-9.3h-0.2c-0.1,0-0.2,0.1-0.2,0.2V36.4z"></path>			<path d="M86.7,36.8h-0.9c-0.2,0-0.3-0.1-0.4-0.2L80,28.9v4c0,0.3-0.2,0.6-0.5,0.6h-0.6v-6.9h0.6c0.2,0,0.3,0.1,0.4,0.2l5.7,8v-7.7   c0-0.3,0.2-0.6,0.5-0.6h0.6V36.8L86.7,36.8z M79.6,27.8l6.1,8.6l0.1,0.1h0.6V27h-0.3c-0.1,0-0.2,0.1-0.2,0.2V36l-6.4-9l-0.1-0.1   h-0.3v6.2h0.3c0.1,0,0.2-0.1,0.2-0.2L79.6,27.8L79.6,27.8z"></path>			<path d="M97.2,32.9c0,0.2-0.2,0.4-0.3,0.4h-0.4v-6.5H97c0.1,0,0.2,0.1,0.3,0.1l6,8.5v-8.3c0-0.2,0.2-0.4,0.3-0.4h0.4v9.9h-0.7   c-0.1,0-0.2-0.1-0.3-0.1l-5.8-8.1V32.9L97.2,32.9z"></path>			<path d="M104.1,36.8h-0.9c-0.2,0-0.3-0.1-0.4-0.2l-5.4-7.7v4c0,0.3-0.2,0.6-0.5,0.6h-0.6v-6.9h0.6c0.2,0,0.3,0.1,0.4,0.2l5.7,8   v-7.7c0-0.3,0.2-0.6,0.5-0.6h0.6L104.1,36.8L104.1,36.8z M97,27.8l6.1,8.6l0.1,0.1h0.6V27h-0.3c-0.1,0-0.2,0.1-0.2,0.2V36L97,27   l-0.1-0.1h-0.3v6.2h0.3c0.1,0,0.2-0.1,0.2-0.2L97,27.8L97,27.8z"></path>			<path d="M123.4,31.6c0,2.8-2.2,5.1-4.9,5.1c-2.7,0-4.9-2.3-4.9-5.1s2.2-5.1,4.9-5.1C121.2,26.5,123.4,28.8,123.4,31.6z    M122.7,31.6c0-2.4-1.9-4.4-4.2-4.4c-2.3,0-4.2,2-4.2,4.4s1.9,4.4,4.2,4.4C120.8,36,122.7,34.1,122.7,31.6z"></path>			<path d="M118.5,37c-2.8,0-5.1-2.4-5.1-5.3s2.3-5.3,5.1-5.3c1.4,0,2.6,0.6,3.6,1.6s1.5,2.4,1.5,3.8C123.6,34.6,121.3,37,118.5,37   L118.5,37z M118.5,26.7c-2.6,0-4.7,2.2-4.7,5c0,2.7,2.1,5,4.7,5s4.7-2.2,4.7-5c0-1.3-0.5-2.6-1.4-3.5   C120.9,27.2,119.7,26.7,118.5,26.7L118.5,26.7z M118.5,36.2c-2.4,0-4.4-2-4.4-4.6c0-2.5,2-4.6,4.4-4.6s4.4,2,4.4,4.6   C122.8,34.2,120.9,36.2,118.5,36.2z M118.5,27.5c-2.2,0-4,1.9-4,4.2s1.8,4.2,4,4.2s4-1.9,4-4.2S120.7,27.5,118.5,27.5z"></path>			<path d="M134.6,36.6h-0.4c-0.1,0-0.3-0.1-0.3-0.2l-3.7-9.6h0.6c0.1,0,0.3,0.1,0.3,0.2l3.3,8.6l3.3-8.6c0.1-0.1,0.2-0.2,0.3-0.2   h0.6l-3.7,9.6C134.9,36.5,134.8,36.6,134.6,36.6L134.6,36.6z"></path>			<path d="M134.6,36.8h-0.4c-0.2,0-0.4-0.1-0.5-0.3l-3.8-9.9h0.9c0.2,0,0.4,0.1,0.5,0.3l3.1,8.2l3.1-8.2c0.1-0.2,0.3-0.3,0.5-0.3   h0.9l-3.8,9.9C135,36.7,134.8,36.8,134.6,36.8L134.6,36.8z M130.5,26.9l3.6,9.4c0,0.1,0.1,0.1,0.2,0.1h0.4c0.1,0,0.1,0,0.2-0.1   l3.6-9.4h-0.3c-0.1,0-0.1,0-0.1,0.1l-3.5,9.1L131,27c0-0.1-0.1-0.1-0.1-0.1H130.5L130.5,26.9z"></path>			<path d="M145.4,36.6h-0.6l3.7-9.7c0.1-0.1,0.2-0.2,0.3-0.2h0.4c0.1,0,0.3,0.1,0.3,0.2l2.6,6.3h-3.5v-0.4c0-0.2,0.2-0.4,0.3-0.4h2   l-1.9-4.7l-3.3,8.6C145.7,36.5,145.5,36.6,145.4,36.6L145.4,36.6z"></path>			<path d="M145.4,36.8h-0.9l3.8-9.9c0.1-0.2,0.3-0.3,0.5-0.3h0.4c0.2,0,0.4,0.1,0.5,0.3l2.7,6.6h-4v-0.6c0-0.3,0.2-0.6,0.5-0.6h1.7   l-1.7-4l-3.2,8.2C145.8,36.7,145.6,36.8,145.4,36.8L145.4,36.8z M145.1,36.4h0.3c0.1,0,0.1,0,0.2-0.1l3.5-9l2.2,5.4H149   c-0.1,0-0.2,0.1-0.2,0.2v0.2h3.1l-2.5-6.1c0-0.1-0.1-0.1-0.1-0.1h-0.4c-0.1,0-0.1,0-0.2,0.1L145.1,36.4L145.1,36.4z"></path>			<path d="M158,27.1c0-0.2,0.2-0.4,0.3-0.4h5.4v0.4c0,0.2-0.2,0.4-0.3,0.4H158V27.1z M160.6,29.7c0-0.2,0.2-0.4,0.3-0.4h0.4v6.9   c0,0.2-0.2,0.4-0.3,0.4h-0.4V29.7z"></path>			<path d="M161,36.8h-0.6v-7.1c0-0.3,0.2-0.6,0.5-0.6h0.6v7.1C161.5,36.6,161.3,36.8,161,36.8z M160.7,36.4h0.2   c0.1,0,0.2-0.1,0.2-0.2v-6.7h-0.2c-0.1,0-0.2,0.1-0.2,0.2V36.4z M163.5,27.7h-5.6v-0.6c0-0.3,0.2-0.6,0.5-0.6h5.6v0.6   C164,27.5,163.8,27.7,163.5,27.7z M158.2,27.3h5.3c0.1,0,0.2-0.1,0.2-0.2v-0.2h-5.3c-0.1,0-0.2,0.1-0.2,0.2V27.3z"></path>			<path d="M170.2,27.1c0-0.2,0.2-0.4,0.3-0.4h5.5v0.4c0,0.2-0.2,0.4-0.3,0.4h-5.5V27.1z M175.6,31.6c0,0.2-0.2,0.4-0.3,0.4h-5.1   v-0.4c0-0.2,0.2-0.4,0.3-0.4h5.1V31.6z M170.2,36.3v-0.4h5.5c0.2,0,0.3,0.2,0.3,0.4v0.4h-5.5C170.3,36.6,170.2,36.5,170.2,36.3z"></path>			<path d="M176.2,36.8h-5.7c-0.3,0-0.5-0.2-0.5-0.6v-0.6h5.7c0.3,0,0.5,0.2,0.5,0.6V36.8z M170.4,36v0.2c0,0.1,0.1,0.2,0.2,0.2h5.4   v-0.2c0-0.1-0.1-0.2-0.2-0.2H170.4z M175.2,32.1H170v-0.6c0-0.3,0.2-0.6,0.5-0.6h5.2v0.6C175.8,31.9,175.5,32.1,175.2,32.1z    M170.4,31.7h4.9c0.1,0,0.2-0.1,0.2-0.2v-0.2h-4.9c-0.1,0-0.2,0.1-0.2,0.2V31.7z M175.7,27.7H170v-0.6c0-0.3,0.2-0.6,0.5-0.6h5.7   v0.6C176.2,27.4,176,27.7,175.7,27.7z M170.4,27.3h5.4c0.1,0,0.2-0.1,0.2-0.2v-0.2h-5.4c-0.1,0-0.2,0.1-0.2,0.2V27.3z"></path>		</g>	</g></svg>