<svg xmlns="http://www.w3.org/2000/svg" xmlns:xlink="http://www.w3.org/1999/xlink" x="0px" y="0px" viewBox="0 0 80 80" style="enable-background:new 0 0 80 80;" xml:space="preserve"><path d="M15.1,79.6h48.5c2.5,0,6.4-2,6.4-5.1V5.5c0-2.8-2.3-5.1-5.1-5.1H30.4c-1.5,0-2.9,1.1-3.8,1.9L11.8,17.2 c-1.2,1.2-1.8,2.4-1.8,3.6v53.6C10,77.3,12.3,79.6,15.1,79.6z M27.9,4.8v11c0,1.4-1.1,2.6-2.6,2.6h-11L27.9,4.8z M12.6,20.9h12.8 c2.8,0,5.1-2.3,5.1-5.1V3h34.5c1.4,0,2.6,1.1,2.6,2.6v68.9c0,1.2-2.2,2.6-3.8,2.6H15.1c-1.4,0-2.6-1.1-2.6-2.6 C12.6,74.5,12.6,20.9,12.6,20.9z"></path><path d="M22.8,31.1h34.5c0.7,0,1.3-0.6,1.3-1.3c0-0.7-0.6-1.3-1.3-1.3H22.8c-0.7,0-1.3,0.6-1.3,1.3C21.5,30.5,22.1,31.1,22.8,31.1z"></path><path d="M22.8,43.8h34.5c0.7,0,1.3-0.6,1.3-1.3s-0.6-1.3-1.3-1.3H22.8c-0.7,0-1.3,0.6-1.3,1.3S22.1,43.8,22.8,43.8z"></path><path d="M22.8,55.3h34.5c0.7,0,1.3-0.6,1.3-1.3s-0.6-1.3-1.3-1.3H22.8c-0.7,0-1.3,0.6-1.3,1.3S22.1,55.3,22.8,55.3z"></path><path d="M22.6,68.1h34.2c0.7,0,1.3-0.6,1.3-1.3c0-0.7-0.6-1.3-1.3-1.3H22.6c-0.7,0-1.3,0.6-1.3,1.3C21.3,67.5,21.9,68.1,22.6,68.1z"></path></svg>