<svg xmlns="http://www.w3.org/2000/svg" xmlns:xlink="http://www.w3.org/1999/xlink" x="0px" y="0px" viewBox="0 0 100 100" style="enable-background:new 0 0 100 100;" xml:space="preserve">	<g>		<g>			<path d="M46.5,84.4v3.9h4v-3.9H46.5z M46.5,76.4v3.9h4v-3.9H46.5z M69.3,24.5c-1,1.3-2.3,2.3-3.7,2.9c-4.4,2.1-11.4,3.2-18.1,3.2   c-6.7,0-13.2-1.2-16.9-3.5c-1-0.6-1.9-1.4-2.4-2.4L25,26c0.8,1.6,2.1,2.9,3.6,3.8c4.3,2.7,11.5,4,18.8,4c7.3,0,14.7-1.2,19.6-3.5   c2.1-0.9,3.8-2.3,5.1-4.1L69.3,24.5z M58.4,5.9c-2.9-1.5-6-2.3-9.2-2.5C46,3.2,42.7,3.8,39.8,5c-5.9,2.6-10.6,8.2-11.9,17.5   c0,0.2,0,0.4,0.1,0.6c0.1,0.2,0.2,0.4,0.3,0.6c0.1,0.2,0.3,0.3,0.5,0.4s0.4,0.2,0.6,0.2c0.4,0.1,0.9-0.1,1.2-0.3   c0.3-0.3,0.6-0.6,0.7-1.1c1.1-8,5-12.7,9.9-14.9c0.2,0.1,0.4,0.1,0.5,0.1c1.5,0,1.9,2.7,2,6.5c0.1,1.6,0,3.5,0,5.4   c-0.1,1.5-0.1,3-0.1,4c0,0.4,0.2,0.8,0.5,1.1c0.3,0.3,0.7,0.5,1.1,0.5c0.4,0,0.8-0.2,1.1-0.5c0.3-0.3,0.5-0.7,0.5-1.1   c0-1.6,0-2.8,0-4c0-1.9,0-3.9,0-5.6c-0.1-3.2-0.5-6-1.6-7.7c1.2-0.2,2.5-0.2,3.7-0.2c1,0.1,2,0.2,2.9,0.4   c-1.2,1.7-1.6,4.4-1.7,7.7c-0.1,1.7,0,3.5,0,5.4c0,1.1,0,2.3,0,3.9c0,0.4,0.2,0.9,0.5,1.2c0.3,0.3,0.7,0.5,1.2,0.5   c0.4,0,0.9-0.2,1.2-0.5c0.3-0.3,0.5-0.7,0.5-1.2c0-1-0.1-2.5-0.1-3.9c0-1.8,0-3.6,0-5.3c0.1-3.6,0.5-6.3,2-6.3   c0.2,0,0.4,0,0.6-0.1l0.7,0.3c2.7,1.3,4.9,3.3,6.5,5.8c1.6,2.5,2.5,5.3,2.7,8.3c0,0.4,0.2,0.8,0.6,1.1c0.3,0.3,0.8,0.4,1.2,0.4   c0.2,0,0.4,0,0.6-0.1c0.2-0.1,0.4-0.2,0.5-0.4c0.2-0.2,0.3-0.3,0.3-0.5c0.1-0.2,0.1-0.4,0.1-0.6C69,14.9,64.4,9.1,58.4,5.9z    M94.6,79.2c0-4.7-1.9-9.2-5.2-12.5c-3.3-3.3-7.8-5.2-12.5-5.2c-3,0-5.9,0.7-8.5,2.2l-8.7-3.6v-6.4c0.5-0.4,0.9-0.9,1.3-1.4   c2.9-3.3,4.6-7.8,5.2-13.2l1.1-1.3c0.3-0.3,0.4-0.7,0.3-1.1v-2.6h-3.3v2.1l-1,1.3c-0.2,0.2-0.3,0.5-0.4,0.8c-0.5,4.9-2,9-4.5,11.9   c-2.5,2.9-6,4.7-9.8,5.2c-3.9-0.6-7.2-1.7-9.8-4.3c-2.6-2.6-4.3-6.6-4.8-12.8c0-0.4-0.2-0.7-0.5-1l-1.1-1.1v-2h-3.3v2.6   c0,0.2,0.1,0.4,0.2,0.7c0.1,0.2,0.2,0.4,0.4,0.5l1.1,1.1c0.6,6.8,2.6,11.2,5.7,14.2c0.2,0.2,0.4,0.4,0.6,0.6v6.4l-21.9,8.9   c-0.1,0-0.2,0.1-0.2,0.1c-2.8,1.4-5.1,3.5-6.9,6c-1.7,2.5-2.7,5.4-2.8,8.4v4.7h3.3V84c0.1-2.4,0.9-4.7,2.3-6.7   c1.5-2.1,3.5-3.8,5.7-5l4.6-1.9v18.2h3.3V69.1l6.3-2.6v22.1h3.3V65.1l4.2-1.7l9,9.8h2.5l9-9.8l4.3,1.7V68c-1.5,1.9-2.6,4-3.2,6.3   c-0.6,2.3-0.8,4.7-0.4,7.1c0.3,2.4,1.1,4.6,2.4,6.7c1.2,2,2.9,3.8,4.8,5.2c1.9,1.4,4.2,2.4,6.5,2.9c2.3,0.5,4.7,0.6,7.1,0.1   c2.3-0.4,4.6-1.4,6.6-2.7c2-1.3,3.7-3.1,5-5.1h0.3v-0.6C93.9,85.3,94.7,82.2,94.6,79.2L94.6,79.2z M56.5,61.4l-7.6,8.3l-8.4-9.1   v-4.3l0.1,0c2.5,1.2,5.2,2,8,2.4c0.2,0,0.4,0,0.6,0c2.6-0.4,5.1-1.2,7.4-2.5V61.4z M83.2,77.6l-7.5,12.9c-0.1,0.2-0.3,0.3-0.4,0.3   c-0.2,0.1-0.4,0.1-0.6,0c-0.2-0.1-0.3-0.2-0.4-0.4c-0.1-0.2-0.1-0.4-0.1-0.6l1.1-7.9L71.5,82c-0.2,0-0.3,0-0.4-0.1   c-0.1-0.1-0.2-0.2-0.3-0.3c-0.1-0.1-0.1-0.3-0.1-0.4c0-0.1,0-0.3,0.1-0.4l7.4-12.9c0.1-0.2,0.3-0.3,0.4-0.3c0.2-0.1,0.4-0.1,0.5,0   c0.2,0.1,0.3,0.2,0.4,0.3c0.1,0.2,0.1,0.3,0.1,0.5l-0.4,7.8h3.2c0.2,0,0.3,0,0.4,0.1c0.1,0.1,0.2,0.2,0.3,0.3   c0.1,0.1,0.1,0.3,0.1,0.4C83.3,77.3,83.3,77.4,83.2,77.6z"></path>		</g>	</g></svg>