<svg xmlns="http://www.w3.org/2000/svg" xmlns:xlink="http://www.w3.org/1999/xlink" x="0px" y="0px" viewBox="0 0 100 100" style="enable-background:new 0 0 100 100;" xml:space="preserve">	<g>		<path d="M22,56.1C16,57.5,10.6,60.5,7.7,73.7L5,83.8h14.4V71.2c0-1.5,1.3-2.8,2.8-2.8h3C25.1,63.6,22.7,58.5,22,56.1z M25.6,72.7  c-1.1,0-1.9,0.9-1.9,1.9c0,1.1,0.9,1.9,1.9,1.9c1.1,0,1.9-0.9,1.9-1.9C27.5,73.5,26.7,72.7,25.6,72.7z M89.2,60.4  c-3.6-3.6-8.5-5.8-14-5.8c-1.7,0-3.3,0.2-4.9,0.6c-2.9-0.3-5.9-0.5-8.1-1.6c-1-0.6-1.8-1.5-2.6-2.5l-0.1-2.2  c0.8-0.6,1.5-1.3,2.1-2.2c1.4-1.8,2-3.6,2.6-5.9c0.1-0.5,0.3-1,0.4-1.5c1.3-0.1,2.5-1.6,3.2-3.5c0.4-1,0.7-2.2,0.8-3.2  c0.1-1.1,0-2.1-0.4-2.8c-0.3-0.5-0.8-0.9-1.4-1c0-0.5,0.2-1.7,0.5-2.9c-4.5-0.8-11-1.2-17.9-1.1c-7.1,0.1-14.6,0.7-20.8,2l0.6,2.9  c-0.5,0.8-0.6,2-0.4,3.2c0.1,1.2,0.5,2.5,1.1,3.6c0.7,1.4,1.7,2.4,2.9,2.4c0.1,0.3,0.2,0.7,0.4,1c1,2.8,1.7,4.9,3.4,6.9  c0.5,0.6,1,1.1,1.6,1.6L37.8,51c-0.2,0.2-0.3,0.3-0.5,0.5c-3.2,2.2-6.6,3.1-9.9,3.7l4.7,13.3h24.1c-0.6,1.9-0.9,3.9-0.9,6  c0,5.5,2.2,10.4,5.8,14s8.5,5.8,14,5.8c5.5,0,10.4-2.2,14-5.8c3.8-3.8,5.8-8.7,5.8-14C95,69,92.8,64,89.2,60.4z M39.9,49.5  c3.1,1.9,5.1,3.2,9,3.3c4,0.1,5.8-1,8.9-3.1C58,63.1,39.6,62.3,39.9,49.5z M34.8,39.5c-0.2-0.5-0.3-0.9-0.5-1.5  c-0.1-0.3-0.4-0.5-0.7-0.4c-0.7,0.2-1.5-0.6-2-1.7c-0.5-1-0.8-2.2-1-3.2c-0.1-1-0.1-2,0.3-2.5c9.2,9.4,31.6,6.3,34.2-0.5  c0.5,0.4,1.2,0.2,1.4,0.6c0.2,0.5,0.3,1.2,0.2,2.1c-0.1,0.9-0.4,1.9-0.7,2.9c-0.6,1.6-1.5,2.9-2.4,2.7c-0.3-0.1-0.6,0.2-0.7,0.5  c-0.2,0.7-0.4,1.3-0.6,1.9C57.6,54.6,39.6,53.5,34.8,39.5z M86.2,87c-2.9,2.6-6.8,4.1-11,4.1c-4.6,0-8.8-1.9-11.8-4.9  c-3-3-4.9-7.2-4.9-11.8s1.9-8.8,4.9-11.8c3-3,7.2-4.9,11.8-4.9c4.6,0,8.8,1.9,11.8,4.9c3,3,4.9,7.2,4.9,11.8c0,1.9-0.3,3.7-0.9,5.4  C90,82.6,88.3,85.1,86.2,87z M81.6,63.7c-2.9-0.2-4.8,1.9-5.1,4.7c-0.1,1.2,0.1,2.2-1.3,3.6c-0.9,0.9-2,1.9-2.9,2.8  c-0.4,0.4-0.7,0.6-1,0.7c-0.6,0.3-1.3,0.4-3.1,0.7l0,0c-1.5,0.3-3,0.8-3.8,2.8c-0.5,1.3-0.4,2.8,0.3,4.3c1.8-5.4,8-2.2,4,2.4  c2.9,0.2,4.8-1.9,5.1-4.7c0.1-1.3,0.2-2,0.5-2.6c0.2-0.3,0.4-0.6,0.7-0.9c1-1.1,2-2,3.1-3.1c2-2.1,6.2-0.2,7.8-4.2  c0.5-1.3,0.4-2.8-0.3-4.3C83.8,71.6,77.6,68.4,81.6,63.7z M28,24L28,24c6.4-1.3,14.1-1.9,21.4-2c7.2-0.1,14.1,0.4,18.8,1.3l0-0.1  C75.5,1.7,22.4-2.1,28,24z M85.6,66.2c-1.8,5.4-8,2.2-4-2.4c-2.9-0.2-4.8,1.9-5.1,4.7c-0.1,1.2,0.1,2.2-1.3,3.6  c-0.9,0.9-2,1.9-2.9,2.8c-0.4,0.4-0.7,0.6-1,0.7c-0.6,0.3-1.3,0.4-3.1,0.7l0,0c-1.5,0.3-3,0.8-3.8,2.8c-0.5,1.3-0.4,2.8,0.3,4.3  c1.8-5.4,8-2.2,4,2.4c2.9,0.2,4.8-1.9,5.1-4.7c0.1-1.3,0.2-2,0.5-2.6c0.2-0.3,0.4-0.6,0.7-0.9c1-1.1,2-2,3.1-3.1  c2-2.1,6.2-0.2,7.8-4.2C86.4,69.1,86.2,67.6,85.6,66.2z M85.6,66.2c-1.8,5.4-8,2.2-4-2.4c-2.9-0.2-4.8,1.9-5.1,4.7  c-0.1,1.2,0.1,2.2-1.3,3.6c-0.9,0.9-2,1.9-2.9,2.8c-0.4,0.4-0.7,0.6-1,0.7c-0.6,0.3-1.3,0.4-3.1,0.7l0,0c-1.5,0.3-3,0.8-3.8,2.8  c-0.5,1.3-0.4,2.8,0.3,4.3c1.8-5.4,8-2.2,4,2.4c2.9,0.2,4.8-1.9,5.1-4.7c0.1-1.3,0.2-2,0.5-2.6c0.2-0.3,0.4-0.6,0.7-0.9  c1-1.1,2-2,3.1-3.1c2-2.1,6.2-0.2,7.8-4.2C86.4,69.1,86.2,67.6,85.6,66.2z"></path>	</g></svg>