<svg xmlns="http://www.w3.org/2000/svg" xmlns:xlink="http://www.w3.org/1999/xlink" x="0px" y="0px" viewBox="0 0 100 100" style="enable-background:new 0 0 100 100;" xml:space="preserve">	<g>		<polygon points="61.3,49.8 42.5,39 42.5,60.7  "></polygon>		<g class="wdt-rotate-style">			<path d="M57.4,13.8c-0.6-0.1-1.2-0.4-1.7-0.7s-0.9-0.8-1.2-1.3s-0.5-1.1-0.7-1.7c-0.1-0.6-0.1-1.2,0-1.9c0.1-0.6,0.4-1.2,0.7-1.7   c0.3-0.5,0.8-0.9,1.2-1.3c0.5-0.3,1-0.6,1.6-0.7c0.6-0.1,1.2-0.1,1.8,0c0.6,0.1,1.2,0.4,1.7,0.7c0.5,0.3,0.9,0.8,1.2,1.3   c0.3,0.5,0.5,1.1,0.7,1.7c0.1,0.6,0.1,1.2,0,1.9c-0.1,0.6-0.4,1.2-0.7,1.7s-0.8,0.9-1.3,1.3c-0.5,0.3-1,0.6-1.6,0.7   C58.6,14,58,14,57.4,13.8z M57.6,12.7c0.6,0.1,1.2,0.1,1.8-0.1c0.5-0.2,1-0.5,1.4-1c0.4-0.5,0.6-1,0.8-1.7c0.1-0.5,0.1-1,0-1.4   c-0.1-0.4-0.2-0.9-0.5-1.2c-0.2-0.4-0.5-0.7-0.9-0.9c-0.4-0.2-0.8-0.4-1.3-0.5c-0.6-0.1-1.2-0.1-1.8,0.1c-0.5,0.2-1,0.5-1.4,1   c-0.4,0.5-0.6,1-0.8,1.7c-0.1,0.5-0.1,1,0,1.4c0.1,0.5,0.2,0.9,0.4,1.2c0.2,0.4,0.5,0.7,0.9,0.9C56.7,12.4,57.1,12.6,57.6,12.7z"></path>			<path d="M65,16.3c-0.5-0.2-0.8-0.5-1.1-0.9c-0.3-0.4-0.4-0.8-0.5-1.3c0-0.5,0-0.9,0.3-1.4l1.5-3.3l1.1,0.5l-1.5,3.3   c-0.1,0.3-0.2,0.6-0.2,0.9c0,0.3,0.1,0.5,0.2,0.7c0.2,0.2,0.4,0.4,0.7,0.5c0.4,0.2,0.8,0.2,1.2,0c0.4-0.2,0.6-0.5,0.9-0.9l1.5-3.3   l1.1,0.5l-1.5,3.3c-0.2,0.5-0.5,0.9-0.9,1.2c-0.4,0.3-0.8,0.4-1.2,0.5S65.5,16.5,65,16.3z"></path>			<path d="M68.6,17.9l3.4-5.2l1,0.6l-3.4,5.2L68.6,17.9z M71.5,15.6l-0.3-0.4c0.4-0.7,0.9-1.1,1.5-1.3c0.6-0.2,1.1-0.1,1.7,0.3   c0.3,0.2,0.5,0.4,0.6,0.6c0.2,0.2,0.3,0.5,0.3,0.8l-1.1,0.2c0-0.2-0.1-0.4-0.2-0.5c-0.1-0.1-0.2-0.3-0.4-0.4   c-0.4-0.2-0.7-0.3-1.1-0.2S71.8,15.1,71.5,15.6z"></path>			<path d="M75,22.5l6.6-6.2l0.8,0.9l-6.6,6.2L75,22.5z M78.1,20.7l0.8-0.7l1.7,1.8c0.2,0.2,0.5,0.4,0.8,0.5c0.3,0.1,0.6,0.1,0.9,0.1   c0.3-0.1,0.6-0.2,0.8-0.5c0.3-0.2,0.4-0.5,0.5-0.8c0.1-0.3,0.1-0.6,0-0.9s-0.2-0.6-0.5-0.8l-1.7-1.8l0.8-0.7l1.8,1.9   c0.4,0.4,0.6,0.8,0.8,1.3c0.1,0.5,0.1,1,0,1.4c-0.1,0.5-0.4,0.9-0.8,1.3c-0.4,0.4-0.8,0.6-1.3,0.7c-0.5,0.1-1,0.1-1.4-0.1   c-0.5-0.2-0.9-0.4-1.3-0.9L78.1,20.7z"></path>			<path d="M79.8,28l5.2-3.4l0.7,1L80.5,29L79.8,28z M83.5,27l-0.1-0.5c0.7-0.4,1.3-0.6,1.9-0.6s1.1,0.4,1.5,0.9   c0.2,0.3,0.3,0.5,0.3,0.8s0,0.6-0.1,0.9l-1.1-0.2c0-0.2,0-0.4,0-0.5c0-0.2-0.1-0.3-0.2-0.5c-0.2-0.4-0.6-0.6-0.9-0.7   S83.9,26.7,83.5,27z"></path>			<path d="M83.5,34.6c-0.3-0.6-0.4-1.1-0.3-1.7c0.1-0.6,0.3-1.1,0.6-1.5c0.3-0.5,0.8-0.8,1.3-1.1c0.5-0.3,1.1-0.3,1.7-0.3   c0.6,0.1,1.1,0.3,1.5,0.6c0.5,0.3,0.8,0.8,1.1,1.3c0.3,0.5,0.4,1.1,0.3,1.7c-0.1,0.6-0.2,1.1-0.6,1.5c-0.3,0.5-0.8,0.8-1.3,1.1   c-0.6,0.3-1.1,0.4-1.7,0.3c-0.6-0.1-1.1-0.2-1.6-0.6C84.1,35.6,83.8,35.2,83.5,34.6z M84.6,34.1c0.2,0.4,0.4,0.6,0.7,0.8   c0.3,0.2,0.6,0.3,1,0.3c0.4,0,0.7,0,1.1-0.2c0.4-0.2,0.7-0.4,0.9-0.7s0.3-0.6,0.4-1c0-0.3,0-0.7-0.2-1.1c-0.2-0.4-0.4-0.6-0.7-0.8   c-0.3-0.2-0.6-0.3-1-0.3c-0.4,0-0.7,0-1.1,0.2c-0.4,0.2-0.7,0.4-0.9,0.7s-0.3,0.6-0.4,1C84.3,33.4,84.4,33.8,84.6,34.1z"></path>			<path d="M85.8,41.2c-0.2-0.6-0.2-1.2,0-1.7s0.4-1,0.8-1.4s0.9-0.7,1.5-0.8c0.6-0.2,1.2-0.2,1.7,0c0.5,0.2,1,0.4,1.4,0.8   c0.4,0.4,0.7,0.9,0.8,1.5c0.1,0.5,0.1,0.9,0.1,1.4s-0.2,0.8-0.5,1.2l-1-0.6c0.2-0.2,0.3-0.5,0.3-0.8c0-0.3,0-0.6-0.1-0.9   c-0.1-0.4-0.3-0.7-0.5-0.9s-0.5-0.4-0.9-0.5c-0.3-0.1-0.7-0.1-1.1,0c-0.4,0.1-0.7,0.3-1,0.5c-0.3,0.2-0.4,0.5-0.5,0.9   c-0.1,0.3-0.1,0.7,0,1.1c0.1,0.3,0.2,0.6,0.4,0.8c0.2,0.2,0.4,0.4,0.7,0.6l-0.6,0.9c-0.4-0.2-0.7-0.5-1-0.8   C86.2,42.1,86,41.7,85.8,41.2z"></path>			<path d="M86.8,47c-0.1-0.6,0-1.2,0.3-1.7c0.2-0.5,0.6-0.9,1.1-1.3c0.5-0.3,1-0.5,1.6-0.6c0.6-0.1,1.2,0,1.7,0.3s0.9,0.6,1.3,1   c0.3,0.5,0.5,1,0.6,1.6c0,0.6,0,1.1-0.3,1.6s-0.6,0.8-1,1.1c-0.4,0.3-1,0.5-1.5,0.5c-0.1,0-0.2,0-0.3,0c-0.1,0-0.2,0-0.3,0   l-0.4-5.2l1-0.1l0.4,4.6l-0.4-0.4c0.4,0,0.8-0.1,1-0.3c0.3-0.2,0.5-0.4,0.6-0.7c0.1-0.3,0.2-0.6,0.2-1c0-0.4-0.2-0.7-0.4-1   c-0.2-0.3-0.5-0.5-0.8-0.6c-0.3-0.1-0.7-0.2-1.1-0.2c-0.4,0-0.8,0.2-1.1,0.4c-0.3,0.2-0.5,0.5-0.7,0.8c-0.2,0.3-0.2,0.7-0.2,1.1   c0,0.3,0.1,0.7,0.3,0.9s0.4,0.5,0.6,0.7l-0.7,0.8c-0.4-0.3-0.7-0.6-0.9-1S86.8,47.5,86.8,47z"></path>			<path d="M86.8,52.8c0-0.3,0.1-0.7,0.2-1s0.3-0.6,0.5-0.8c0.2-0.2,0.4-0.5,0.7-0.6l0.7,0.8c-0.3,0.2-0.5,0.5-0.7,0.7   c-0.2,0.3-0.2,0.6-0.3,1c0,0.4,0,0.7,0.1,0.9c0.1,0.2,0.3,0.3,0.5,0.3s0.4-0.1,0.5-0.2c0.1-0.2,0.3-0.4,0.4-0.6   c0.1-0.2,0.2-0.5,0.3-0.8c0.1-0.3,0.2-0.5,0.4-0.8c0.1-0.2,0.3-0.4,0.6-0.6s0.5-0.2,0.9-0.2c0.4,0,0.7,0.1,1,0.3s0.5,0.5,0.6,0.8   c0.1,0.3,0.2,0.7,0.1,1.2c0,0.5-0.2,0.9-0.4,1.3c-0.2,0.4-0.5,0.7-0.8,0.9l-0.7-0.8c0.2-0.2,0.4-0.4,0.6-0.6   c0.1-0.2,0.2-0.5,0.2-0.9c0-0.3,0-0.6-0.1-0.8c-0.1-0.2-0.3-0.3-0.5-0.3c-0.2,0-0.4,0.1-0.5,0.2s-0.2,0.3-0.3,0.6   s-0.2,0.5-0.3,0.8s-0.2,0.5-0.4,0.8c-0.2,0.2-0.4,0.4-0.6,0.6c-0.2,0.1-0.6,0.2-0.9,0.2c-0.6,0-1-0.3-1.3-0.7   C86.9,54.1,86.7,53.5,86.8,52.8z"></path>			<path d="M86,58c0.1-0.3,0.2-0.7,0.3-0.9s0.3-0.5,0.6-0.8c0.2-0.2,0.5-0.4,0.7-0.5l0.6,0.9c-0.3,0.2-0.6,0.4-0.8,0.6   c-0.2,0.3-0.3,0.6-0.4,0.9c-0.1,0.4-0.1,0.6,0,0.9c0.1,0.2,0.2,0.4,0.5,0.4c0.2,0,0.4,0,0.6-0.1c0.2-0.1,0.3-0.3,0.4-0.5   c0.1-0.2,0.3-0.5,0.4-0.7c0.1-0.3,0.3-0.5,0.5-0.7c0.2-0.2,0.4-0.4,0.7-0.5c0.3-0.1,0.6-0.1,0.9,0c0.4,0.1,0.7,0.2,0.9,0.5   s0.4,0.5,0.5,0.9s0.1,0.8,0,1.2c-0.1,0.5-0.3,0.9-0.5,1.2c-0.2,0.3-0.6,0.6-0.9,0.8l-0.6-0.9c0.3-0.1,0.5-0.3,0.7-0.5   s0.3-0.5,0.4-0.8c0.1-0.3,0.1-0.6,0-0.8S91.1,58,90.9,58c-0.2,0-0.4,0-0.5,0.1c-0.1,0.1-0.3,0.3-0.4,0.5c-0.1,0.2-0.3,0.5-0.4,0.7   s-0.3,0.5-0.5,0.7c-0.2,0.2-0.4,0.4-0.7,0.5c-0.3,0.1-0.6,0.1-1,0c-0.6-0.1-1-0.4-1.2-0.9C85.9,59.2,85.9,58.7,86,58z"></path>			<path d="M84.8,66.7l1.9,0.8l-0.2-2.1l1.1,0l-0.2,2.1l1.8-0.9l0.4,1l-2,0.5l1.4,1.5l-0.9,0.7L87,68.5l-1,1.8l-0.9-0.6l1.4-1.6   l-2.1-0.4L84.8,66.7z"></path>			<path d="M77.3,74.8c0.4-0.5,0.9-0.8,1.5-1.1s1.1-0.4,1.7-0.4c0.6,0,1.2,0.1,1.8,0.3c0.6,0.2,1.1,0.5,1.6,1   c0.5,0.4,0.9,0.9,1.1,1.5c0.3,0.5,0.4,1.1,0.4,1.7c0,0.6,0,1.2-0.2,1.7c-0.2,0.6-0.5,1.1-1,1.6c-0.4,0.5-0.9,0.8-1.5,1.1   s-1.1,0.4-1.7,0.4s-1.2-0.1-1.8-0.3s-1.1-0.5-1.6-1c-0.5-0.4-0.8-0.9-1.1-1.5c-0.3-0.6-0.4-1.1-0.4-1.7s0-1.2,0.2-1.8   C76.6,75.8,76.9,75.3,77.3,74.8z M78.2,75.6c-0.4,0.5-0.7,1-0.8,1.6c-0.1,0.6-0.1,1.1,0.1,1.7s0.5,1.1,1.1,1.5   c0.4,0.3,0.8,0.6,1.2,0.8c0.4,0.2,0.9,0.2,1.3,0.2c0.4,0,0.8-0.1,1.2-0.3s0.8-0.5,1.1-0.8c0.4-0.5,0.7-1,0.8-1.6   c0.1-0.6,0.1-1.1-0.1-1.7S83.5,76,83,75.5c-0.4-0.3-0.8-0.6-1.2-0.8s-0.9-0.3-1.3-0.2c-0.4,0-0.8,0.1-1.2,0.3   C78.9,75,78.5,75.2,78.2,75.6z"></path>			<path d="M71.3,80.1c0.4-0.3,0.9-0.5,1.3-0.5c0.5,0,0.9,0,1.3,0.2c0.4,0.2,0.8,0.5,1.1,1l2.1,3l-1,0.7l-2.1-2.9   c-0.2-0.3-0.4-0.5-0.7-0.6c-0.2-0.1-0.5-0.2-0.8-0.2c-0.3,0-0.5,0.1-0.8,0.3c-0.4,0.3-0.6,0.6-0.6,1c0,0.4,0.1,0.8,0.4,1.2   l2.1,2.9l-1,0.7l-2.1-3c-0.3-0.4-0.5-0.9-0.5-1.4c-0.1-0.5,0-0.9,0.2-1.3C70.5,80.8,70.8,80.5,71.3,80.1z"></path>			<path d="M68.6,86.1l0.5,0c0.4,0.7,0.5,1.4,0.3,1.9s-0.5,1-1.1,1.3c-0.3,0.1-0.6,0.2-0.8,0.2s-0.6,0-0.9-0.2l0.3-1.1   c0.2,0.1,0.4,0.1,0.5,0.1s0.3-0.1,0.5-0.2c0.4-0.2,0.7-0.5,0.8-0.9C68.9,87,68.8,86.6,68.6,86.1z M68.1,82.4l2.8,5.6l-1.1,0.5   L67,82.9L68.1,82.4z"></path>			<path d="M60.8,89.2l0.2,1l-2.4,0.5c-0.3,0.1-0.6,0.2-0.8,0.4c-0.2,0.2-0.4,0.4-0.5,0.7s-0.1,0.6,0,0.9c0.1,0.3,0.2,0.6,0.4,0.8   c0.2,0.2,0.5,0.4,0.7,0.4c0.3,0.1,0.6,0.1,0.9,0l2.4-0.5l0.2,1l-2.5,0.5c-0.5,0.1-1.1,0.1-1.5,0s-0.9-0.4-1.2-0.7   s-0.6-0.8-0.7-1.4c-0.1-0.5-0.1-1,0.1-1.5c0.2-0.5,0.4-0.9,0.8-1.2c0.4-0.3,0.8-0.5,1.4-0.7L60.8,89.2z M60.8,85.5l2,8.9l-1.2,0.3   l-2-8.9L60.8,85.5z"></path>			<path d="M52.6,90.5l0.5,0.2c0,0.8-0.1,1.4-0.5,1.9c-0.3,0.5-0.9,0.7-1.6,0.8c-0.3,0-0.6,0-0.9-0.1c-0.3-0.1-0.5-0.3-0.7-0.5   l0.7-0.8c0.1,0.1,0.3,0.2,0.4,0.3s0.3,0.1,0.6,0.1c0.4,0,0.8-0.2,1.1-0.5C52.5,91.5,52.6,91.1,52.6,90.5z M53.6,86.9l0.3,6.2   l-1.2,0.1l-0.3-6.2L53.6,86.9z"></path>			<path d="M46.1,86.7c0.6,0.1,1.1,0.3,1.6,0.6c0.5,0.3,0.8,0.8,1,1.3c0.2,0.5,0.3,1.1,0.3,1.7c-0.1,0.6-0.3,1.1-0.6,1.6   c-0.3,0.5-0.8,0.8-1.3,1c-0.5,0.2-1.1,0.3-1.7,0.3c-0.6-0.1-1.1-0.3-1.6-0.6c-0.5-0.3-0.8-0.8-1-1.3s-0.3-1.1-0.3-1.7   c0.1-0.6,0.3-1.1,0.6-1.6s0.8-0.8,1.3-1S45.5,86.6,46.1,86.7z M45.9,87.8c-0.4,0-0.7,0-1.1,0.2c-0.3,0.2-0.6,0.4-0.8,0.7   c-0.2,0.3-0.3,0.7-0.4,1.1c0,0.4,0,0.8,0.2,1.1c0.1,0.3,0.4,0.6,0.6,0.8s0.6,0.3,1,0.4c0.4,0,0.7,0,1.1-0.2   c0.3-0.1,0.6-0.4,0.8-0.7s0.3-0.6,0.4-1c0-0.4,0-0.8-0.1-1.1c-0.1-0.3-0.4-0.6-0.6-0.8C46.7,88,46.3,87.9,45.9,87.8z"></path>			<path d="M39.2,85.3c0.6,0.2,1.1,0.5,1.5,0.9c0.4,0.4,0.7,0.9,0.8,1.5c0.1,0.6,0.1,1.1,0,1.7c-0.2,0.6-0.5,1.1-0.9,1.5   s-0.9,0.7-1.4,0.8c-0.6,0.1-1.1,0.1-1.7-0.1c-0.5-0.1-0.9-0.3-1.2-0.6c-0.3-0.3-0.6-0.6-0.8-1l1-0.5c0.1,0.3,0.3,0.5,0.5,0.7   c0.2,0.2,0.5,0.3,0.8,0.4c0.4,0.1,0.7,0.1,1.1,0c0.3-0.1,0.6-0.3,0.9-0.5c0.3-0.3,0.4-0.6,0.6-1c0.1-0.4,0.1-0.8,0.1-1.1   c-0.1-0.4-0.2-0.7-0.5-0.9c-0.2-0.3-0.6-0.4-0.9-0.6c-0.3-0.1-0.6-0.1-0.9-0.1c-0.3,0-0.6,0.1-0.8,0.3l-0.5-1   c0.4-0.2,0.8-0.4,1.2-0.4C38.3,85.1,38.7,85.2,39.2,85.3z"></path>			<path d="M33.7,83.1c0.6,0.3,1,0.6,1.3,1.1c0.3,0.5,0.5,1,0.6,1.6c0,0.6-0.1,1.1-0.3,1.7c-0.3,0.5-0.6,1-1.1,1.3   c-0.5,0.3-1,0.5-1.5,0.5c-0.6,0-1.1-0.1-1.7-0.3c-0.5-0.3-0.9-0.6-1.2-1c-0.3-0.4-0.4-0.9-0.5-1.4c0-0.5,0.1-1.1,0.4-1.6   c0-0.1,0.1-0.2,0.1-0.2c0.1-0.1,0.1-0.2,0.2-0.3l4.7,2.3l-0.4,0.9l-4.2-2l0.6-0.2c-0.2,0.4-0.3,0.7-0.3,1.1c0,0.3,0.1,0.6,0.3,0.9   c0.2,0.3,0.4,0.5,0.8,0.6c0.4,0.2,0.7,0.3,1.1,0.2c0.4,0,0.7-0.1,1-0.4c0.3-0.2,0.5-0.5,0.7-0.9c0.2-0.4,0.3-0.8,0.3-1.1   c0-0.4-0.1-0.7-0.3-1c-0.2-0.3-0.5-0.5-0.9-0.7c-0.3-0.2-0.6-0.2-0.9-0.3c-0.3,0-0.6,0-0.9,0.2L31,83c0.4-0.2,0.9-0.3,1.3-0.2   C32.8,82.8,33.3,82.9,33.7,83.1z"></path>			<path d="M28.8,80.2c0.3,0.2,0.5,0.4,0.7,0.7c0.2,0.3,0.4,0.5,0.5,0.8c0.1,0.3,0.2,0.6,0.2,0.9l-1.1,0.2c0-0.4-0.1-0.7-0.3-1   c-0.2-0.3-0.4-0.5-0.7-0.7c-0.3-0.2-0.6-0.3-0.8-0.3c-0.2,0-0.4,0.1-0.6,0.3c-0.1,0.2-0.2,0.4-0.1,0.6c0.1,0.2,0.2,0.4,0.3,0.6   c0.2,0.2,0.3,0.4,0.5,0.7c0.2,0.2,0.3,0.5,0.5,0.7s0.2,0.5,0.2,0.8c0,0.3-0.1,0.6-0.3,0.9c-0.2,0.3-0.5,0.5-0.8,0.6   c-0.3,0.1-0.6,0.1-1,0.1c-0.4-0.1-0.7-0.2-1.1-0.5c-0.4-0.3-0.7-0.6-0.9-1c-0.2-0.4-0.3-0.7-0.3-1.2l1.1-0.2   c0,0.3,0.1,0.6,0.2,0.8c0.1,0.2,0.3,0.5,0.6,0.7c0.3,0.2,0.5,0.3,0.7,0.3s0.4-0.1,0.5-0.2c0.1-0.2,0.1-0.3,0.1-0.5   c-0.1-0.2-0.2-0.4-0.3-0.6c-0.2-0.2-0.3-0.4-0.5-0.7c-0.2-0.2-0.3-0.5-0.5-0.7s-0.2-0.5-0.2-0.8c0-0.3,0.1-0.6,0.3-0.9   c0.3-0.5,0.8-0.7,1.3-0.8S28.2,79.8,28.8,80.2z"></path>			<path d="M24.7,76.8c0.3,0.2,0.5,0.5,0.6,0.8s0.3,0.6,0.4,0.9c0.1,0.3,0.1,0.6,0.1,0.9l-1.1,0c0-0.4,0-0.7-0.1-1   c-0.1-0.3-0.3-0.6-0.6-0.8c-0.3-0.3-0.5-0.4-0.8-0.4c-0.2,0-0.4,0-0.6,0.2c-0.2,0.2-0.2,0.3-0.2,0.6c0,0.2,0.1,0.4,0.2,0.7   s0.3,0.5,0.4,0.7c0.1,0.3,0.3,0.5,0.4,0.8c0.1,0.3,0.1,0.5,0.1,0.8c0,0.3-0.2,0.6-0.4,0.8s-0.5,0.4-0.9,0.5   c-0.3,0.1-0.7,0.1-1-0.1s-0.7-0.3-1-0.7c-0.4-0.3-0.6-0.7-0.8-1.1c-0.2-0.4-0.2-0.8-0.2-1.2l1.1,0c0,0.3,0,0.6,0.1,0.8   s0.3,0.5,0.5,0.7c0.2,0.2,0.5,0.4,0.7,0.4c0.2,0,0.4,0,0.5-0.2c0.1-0.2,0.2-0.3,0.2-0.5s-0.1-0.4-0.3-0.6   c-0.1-0.2-0.3-0.5-0.4-0.7c-0.1-0.3-0.3-0.5-0.4-0.8c-0.1-0.3-0.1-0.6-0.1-0.8c0-0.3,0.2-0.6,0.5-0.8c0.4-0.4,0.9-0.6,1.4-0.6   S24.2,76.4,24.7,76.8z"></path>			<path d="M16.8,72l-1.7,1.2l1.9,0.8l-0.5,1l-1.7-1.2l-0.2,2l-1.1-0.2l0.6-2l-2,0.4L12,73l2.1,0L13,71.2l1-0.4l0.7,2l1.4-1.6   L16.8,72z"></path>			<path d="M14.7,60.8c0.2,0.6,0.3,1.2,0.2,1.8c-0.1,0.6-0.2,1.2-0.5,1.7c-0.3,0.5-0.7,1-1.1,1.4c-0.5,0.4-1,0.7-1.6,0.9   c-0.6,0.2-1.2,0.3-1.8,0.2c-0.6-0.1-1.2-0.2-1.7-0.5c-0.5-0.3-1-0.6-1.4-1.1c-0.4-0.5-0.7-1-0.9-1.6c-0.2-0.6-0.3-1.2-0.2-1.8   c0.1-0.6,0.2-1.2,0.5-1.7c0.3-0.5,0.7-1,1.1-1.4c0.5-0.4,1-0.7,1.7-0.9c0.6-0.2,1.2-0.3,1.8-0.2c0.6,0.1,1.2,0.2,1.7,0.5   s1,0.6,1.4,1.1C14.2,59.6,14.5,60.2,14.7,60.8z M13.6,61.1c-0.2-0.6-0.5-1.1-0.9-1.5s-0.9-0.6-1.5-0.8c-0.6-0.1-1.2-0.1-1.9,0.1   c-0.5,0.1-0.9,0.4-1.3,0.6c-0.4,0.3-0.6,0.6-0.9,1c-0.2,0.4-0.3,0.8-0.4,1.2c0,0.4,0,0.9,0.1,1.4c0.2,0.6,0.5,1.1,0.9,1.5   c0.4,0.4,0.9,0.6,1.5,0.8c0.6,0.1,1.2,0.1,1.9-0.1c0.5-0.1,0.9-0.4,1.3-0.6c0.4-0.3,0.7-0.6,0.9-1c0.2-0.4,0.3-0.8,0.4-1.2   C13.8,62,13.7,61.6,13.6,61.1z"></path>			<path d="M13.2,52.9c0,0.5,0,1-0.2,1.4c-0.2,0.4-0.5,0.8-0.9,1c-0.4,0.3-0.9,0.4-1.4,0.4L7.1,56L7,54.8l3.6-0.3   c0.3,0,0.6-0.1,0.9-0.2c0.2-0.1,0.4-0.3,0.5-0.6s0.2-0.5,0.1-0.8c0-0.5-0.2-0.8-0.5-1c-0.3-0.2-0.7-0.3-1.2-0.3l-3.6,0.3l-0.1-1.2   l3.6-0.3c0.5,0,1,0,1.5,0.2c0.4,0.2,0.8,0.5,1,0.9S13.2,52.3,13.2,52.9z"></path>			<path d="M12.9,49l-6.2-0.5l0.1-1.2l6.2,0.5L12.9,49z M9.5,47.5l-0.2,0.4c-0.8-0.1-1.4-0.3-1.9-0.7s-0.6-0.9-0.6-1.6   c0-0.3,0.1-0.6,0.2-0.8c0.1-0.2,0.3-0.5,0.6-0.7l0.7,0.8c-0.1,0.1-0.3,0.3-0.3,0.4c-0.1,0.2-0.1,0.3-0.1,0.5   c0,0.4,0.1,0.8,0.3,1.1C8.5,47.3,8.9,47.5,9.5,47.5z"></path>			<path d="M13.9,41.1l-8.6-2.8l0.4-1.2l8.6,2.8L13.9,41.1z M10.8,39.3l-1-0.3l0.8-2.4c0.1-0.3,0.1-0.6,0.1-0.9s-0.2-0.6-0.4-0.8   c-0.2-0.2-0.5-0.4-0.8-0.5c-0.3-0.1-0.6-0.1-0.9-0.1c-0.3,0.1-0.5,0.2-0.8,0.4c-0.2,0.2-0.4,0.5-0.5,0.8l-0.8,2.4l-1-0.3l0.8-2.4   c0.2-0.5,0.4-1,0.8-1.3c0.4-0.3,0.8-0.6,1.2-0.7s1-0.1,1.5,0.1c0.5,0.2,1,0.4,1.3,0.8c0.3,0.4,0.5,0.8,0.6,1.3   c0.1,0.5,0,1-0.1,1.5L10.8,39.3z"></path>			<path d="M16.4,34.2L11,31.3l0.6-1l5.5,2.9L16.4,34.2z M13.9,31.5l-0.4,0.3c-0.7-0.4-1.2-0.8-1.4-1.4s-0.2-1.1,0.1-1.7   c0.1-0.3,0.3-0.5,0.5-0.7c0.2-0.2,0.5-0.3,0.8-0.4l0.3,1.1c-0.2,0-0.3,0.1-0.5,0.2s-0.2,0.3-0.3,0.4c-0.2,0.4-0.3,0.8-0.1,1.1   S13.4,31.3,13.9,31.5z"></path>			<path d="M20.5,27.9c-0.4,0.5-0.8,0.8-1.3,1.1c-0.5,0.2-1.1,0.3-1.6,0.2c-0.6-0.1-1.1-0.3-1.6-0.6c-0.5-0.4-0.8-0.8-1-1.3   c-0.2-0.5-0.3-1.1-0.2-1.6c0.1-0.6,0.3-1.1,0.6-1.6c0.4-0.5,0.8-0.8,1.3-1.1c0.5-0.2,1.1-0.3,1.6-0.2c0.6,0.1,1.1,0.3,1.6,0.6   c0.5,0.4,0.8,0.8,1.1,1.3c0.2,0.5,0.3,1.1,0.2,1.6C21.1,26.9,20.9,27.4,20.5,27.9z M19.6,27.2c0.2-0.3,0.4-0.6,0.4-1s0-0.7-0.2-1   c-0.1-0.3-0.4-0.6-0.7-0.9c-0.3-0.2-0.7-0.4-1-0.4s-0.7,0-1,0.1s-0.6,0.4-0.8,0.7c-0.2,0.3-0.4,0.6-0.4,1c0,0.4,0,0.7,0.2,1   c0.1,0.3,0.4,0.6,0.7,0.9c0.3,0.2,0.7,0.4,1,0.4s0.7,0,1-0.1C19.1,27.7,19.3,27.5,19.6,27.2z"></path>			<path d="M25.2,22.7c-0.4,0.4-0.9,0.7-1.5,0.8c-0.6,0.1-1.1,0.1-1.7-0.1c-0.5-0.2-1-0.5-1.4-0.9c-0.4-0.4-0.7-0.9-0.8-1.5   c-0.1-0.6-0.1-1.1,0.1-1.6c0.2-0.5,0.5-1,0.9-1.4c0.4-0.3,0.7-0.6,1.2-0.7c0.4-0.1,0.9-0.2,1.3-0.2l0,1.1c-0.3,0-0.6,0-0.9,0.1   c-0.3,0.1-0.5,0.3-0.8,0.5c-0.3,0.3-0.5,0.6-0.6,0.9c-0.1,0.3-0.1,0.7,0,1c0.1,0.3,0.3,0.7,0.6,1c0.3,0.3,0.6,0.5,0.9,0.6   c0.3,0.1,0.7,0.1,1,0.1c0.3-0.1,0.7-0.2,1-0.5c0.2-0.2,0.4-0.5,0.5-0.8s0.2-0.6,0.2-0.9l1.1,0c0,0.4-0.1,0.9-0.2,1.3   S25.5,22.4,25.2,22.7z"></path>			<path d="M29.9,19.1c-0.5,0.3-1.1,0.5-1.6,0.6c-0.6,0-1.1-0.1-1.6-0.3c-0.5-0.2-0.9-0.6-1.3-1.2c-0.3-0.5-0.5-1-0.6-1.6   c0-0.6,0.1-1.1,0.3-1.6s0.6-0.9,1.1-1.3c0.5-0.3,1-0.5,1.5-0.5c0.5,0,1,0.1,1.5,0.3c0.5,0.2,0.9,0.6,1.2,1.1   c0,0.1,0.1,0.2,0.1,0.2c0,0.1,0.1,0.2,0.1,0.3l-4.4,2.9l-0.5-0.8l3.9-2.5l-0.2,0.6c-0.2-0.3-0.5-0.6-0.8-0.8   c-0.3-0.2-0.6-0.2-0.9-0.2c-0.3,0-0.6,0.1-1,0.3c-0.3,0.2-0.6,0.5-0.7,0.8c-0.2,0.3-0.2,0.6-0.2,1c0,0.4,0.2,0.7,0.4,1.1   c0.2,0.4,0.5,0.6,0.9,0.8c0.3,0.2,0.7,0.3,1,0.2c0.4,0,0.7-0.2,1.1-0.4c0.3-0.2,0.5-0.4,0.7-0.7c0.2-0.3,0.3-0.6,0.3-0.9l1.1,0.2   c-0.1,0.5-0.2,0.9-0.5,1.3C30.6,18.5,30.3,18.8,29.9,19.1z"></path>			<path d="M34.9,16.3c-0.3,0.1-0.6,0.2-1,0.3s-0.6,0-0.9,0c-0.3,0-0.6-0.1-0.9-0.3l0.4-1c0.3,0.2,0.6,0.2,1,0.2c0.3,0,0.7-0.1,1-0.2   s0.6-0.3,0.7-0.5c0.1-0.2,0.2-0.4,0.1-0.6c-0.1-0.2-0.2-0.3-0.4-0.4s-0.4-0.1-0.7,0c-0.3,0-0.5,0.1-0.8,0.1c-0.3,0-0.6,0.1-0.9,0   s-0.5-0.1-0.8-0.2c-0.2-0.1-0.4-0.4-0.6-0.7c-0.2-0.3-0.2-0.7-0.1-1c0.1-0.3,0.2-0.6,0.4-0.9c0.2-0.3,0.6-0.5,1-0.7   c0.4-0.2,0.9-0.3,1.3-0.3c0.4,0,0.8,0.1,1.2,0.3l-0.4,1c-0.3-0.1-0.5-0.2-0.8-0.2c-0.3,0-0.6,0.1-0.9,0.2   c-0.3,0.1-0.5,0.3-0.6,0.5C32,12,32,12.2,32,12.4c0.1,0.2,0.2,0.3,0.4,0.3s0.4,0,0.7,0c0.3,0,0.5-0.1,0.8-0.1c0.3,0,0.6,0,0.9,0   c0.3,0,0.6,0.1,0.8,0.3s0.4,0.4,0.6,0.7c0.2,0.5,0.2,1,0,1.5C36,15.6,35.6,16,34.9,16.3z"></path>			<path d="M39.9,14.5c-0.3,0.1-0.7,0.1-1,0.1c-0.3,0-0.6,0-0.9-0.1c-0.3-0.1-0.6-0.2-0.8-0.4l0.5-0.9c0.3,0.2,0.6,0.3,0.9,0.4   s0.7,0,1-0.1c0.4-0.1,0.6-0.2,0.8-0.4c0.2-0.2,0.2-0.4,0.1-0.6c-0.1-0.2-0.2-0.4-0.4-0.4s-0.4-0.1-0.7-0.1c-0.3,0-0.5,0-0.8,0   c-0.3,0-0.6,0-0.9-0.1c-0.3-0.1-0.5-0.2-0.7-0.3s-0.4-0.4-0.5-0.8c-0.1-0.4-0.1-0.7,0-1S36.8,9,37,8.8c0.3-0.2,0.6-0.4,1.1-0.5   c0.5-0.1,0.9-0.2,1.3-0.1s0.8,0.2,1.1,0.5L40,9.6c-0.2-0.2-0.5-0.3-0.8-0.3c-0.3,0-0.6,0-0.9,0.1c-0.3,0.1-0.6,0.2-0.7,0.4   c-0.1,0.2-0.2,0.3-0.1,0.5c0.1,0.2,0.2,0.3,0.4,0.4c0.2,0.1,0.4,0.1,0.7,0.1c0.3,0,0.5,0,0.8,0c0.3,0,0.6,0,0.9,0.1   c0.3,0.1,0.5,0.2,0.8,0.4c0.2,0.2,0.4,0.5,0.5,0.8c0.2,0.6,0.1,1.1-0.2,1.5C41,14,40.5,14.3,39.9,14.5z"></path>			<path d="M47.9,11L47.7,9L46,10.2l-0.5-1l1.9-0.8l-1.7-1.2l0.7-0.8l1.4,1.5l0.6-2l1,0.4l-1.1,1.8l2.1,0l-0.1,1.1l-2.1-0.4l0.6,2   L47.9,11z"></path>		</g>	</g></svg>