<svg xmlns="http://www.w3.org/2000/svg" xmlns:xlink="http://www.w3.org/1999/xlink" x="0px" y="0px" viewBox="0 0 100 100" style="enable-background:new 0 0 100 100;" xml:space="preserve">	<path d="M95.2,50.8L78.3,21.8l0,0l0,0l0,0c-0.6-0.9-1.4-1.5-2.4-1.8c-1-0.2-2-0.1-2.9,0.4l0,0l0,0l0,0l-5.3,3.2 c-0.9,0.6-1.5,1.5-1.8,2.4c-0.2,1-0.1,2,0.4,3l1,1.7l-0.7-0.1c-15.4-1.1-21.3-1.6-26.4,4v-0.1c-2.1-0.2-3.6-0.4-4.9-0.8 c-1.1-0.3-2.2-0.8-3.7-1.5l2.4-4.2c0.5-0.9,0.7-2,0.4-3c-0.2-1-0.9-1.9-1.8-2.4l-5.3-3.2l0,0l0,0h0c-0.9-0.5-2-0.7-2.9-0.4 c-1,0.2-1.9,0.8-2.4,1.8l0,0l0,0v0L4.8,50c-0.5,0.9-0.7,2-0.4,3c0.2,1,0.8,1.9,1.8,2.4l5.3,3.2l0,0l0,0l0,0c0.9,0.5,2,0.6,2.9,0.4 c1-0.2,1.9-0.8,2.4-1.8l0,0l0,0v0l1.7-2.9l4.1,4.3l-0.7,0.8c0,0,0,0-0.1,0.1c-0.6,0.8-0.9,1.7-0.8,2.7c0.1,0.9,0.5,1.8,1.3,2.5h0 l0.1,0.1h0c0.8,0.6,1.8,0.9,2.7,0.8c0.7-0.1,1.4-0.3,2-0.8l-0.5,0.6c-0.7,0.8-1,1.8-0.9,2.7c0.1,0.9,0.5,1.8,1.2,2.5 c0,0,0,0,0.1,0.1c0,0,0,0,0,0c0.8,0.7,1.8,1,2.7,0.9c0.8-0.1,1.6-0.3,2.2-0.9c-0.3,0.6-0.4,1.2-0.4,1.9c0,0.9,0.4,1.8,1.1,2.5 c0,0,0.1,0.1,0.1,0.1h0c0,0,0,0,0,0c0,0,0,0,0.1,0c0.7,0.6,1.7,1,2.6,0.9c0.9,0,1.9-0.4,2.6-1.1c0.1-0.1,0.1-0.1,0.1-0.1l0.2-0.2 c-0.3,0.6-0.5,1.3-0.5,2c0.1,0.9,0.4,1.8,1.2,2.4c0,0,0.1,0.1,0.1,0.1c0.7,0.6,1.6,0.9,2.5,0.8c0.9,0,1.7-0.4,2.4-1.1 c0,0,0-0.1,0.1-0.1l1.7-2c0.4,0.2,0.9,0.5,1.3,0.8c4.7,2.9,9.9,6.1,14.2-0.4l0.6-0.1c1.5-0.2,2.8-0.9,3.7-1.9c0.7-0.8,1.3-1.8,1.6-3 c1.5-0.4,2.8-1,3.7-1.8c0.9-0.8,1.5-1.7,1.9-2.7c1.1-0.1,2.1-0.5,3-1.1c0.8-0.6,1.5-1.4,2-2.2c0.5-0.9,0.7-1.8,0.8-2.8 c0.1-1.2-0.2-2.5-0.8-3.6l3.6-2.7l1.7,3v0l0,0l0,0c0.6,0.9,1.4,1.5,2.4,1.8c1,0.2,2,0.1,2.9-0.4l0,0l0,0l0,0l5.3-3.2 c0.9-0.6,1.5-1.5,1.8-2.4C95.9,52.8,95.7,51.8,95.2,50.8z M14.6,55.9L14.6,55.9c-0.2,0.3-0.4,0.5-0.7,0.5c-0.1,0-0.2,0-0.3,0 c-0.2,0-0.4-0.1-0.6-0.2l0,0L7.6,53c-0.3-0.2-0.5-0.4-0.5-0.7c-0.1-0.3,0-0.7,0.1-1l16.9-29.1l0,0c0.2-0.3,0.4-0.4,0.7-0.5 c0.3-0.1,0.6,0,0.9,0.1l0,0l5.3,3.2c0.3,0.2,0.5,0.4,0.5,0.7c0.1,0.3,0,0.7-0.1,1L14.6,55.9z M75.3,63c-0.3,0.5-0.6,1-1.1,1.3 c-0.5,0.4-1.2,0.6-1.9,0.6l-12.1-8.7l-1.6,2.2l11.6,8.3c-0.2,0.6-0.6,1.1-1.1,1.5c-0.6,0.5-1.5,1-2.7,1.3L56.8,63l-1.5,2.3l9.3,6.2 c-0.2,0.8-0.5,1.4-1,1.8c-0.5,0.6-1.2,0.9-2.2,1l-0.1,0l-0.7,0.1L53.3,69l-1.7,2.2l6.8,5.1c-2.8,3.4-6.6,1-10-1 c-0.3-0.2-0.6-0.4-1-0.6l1.7-2c0.6-0.7,0.9-1.7,0.9-2.5c-0.1-0.9-0.4-1.8-1.2-2.4c0,0-0.1-0.1-0.1-0.1c-0.7-0.6-1.6-0.9-2.5-0.8 c-0.5,0-1,0.2-1.4,0.4c0.5-0.7,0.8-1.6,0.7-2.4c0-0.9-0.4-1.8-1.1-2.5c0,0,0-0.1-0.1-0.1c-0.1,0-0.1-0.1-0.1-0.1 c-0.7-0.6-1.7-1-2.6-0.9c-0.8,0-1.5,0.3-2.2,0.8c0.7-0.8,1-1.8,0.9-2.7c-0.1-0.9-0.5-1.8-1.2-2.5c0,0,0,0-0.1-0.1c0,0,0,0,0,0 c-0.8-0.7-1.7-1-2.7-0.9c-0.9,0.1-1.8,0.5-2.5,1.2c0,0,0,0-0.1,0.1c0,0,0,0,0,0l-1.5,1.8c0.3-0.6,0.4-1.3,0.3-1.9 c-0.1-0.9-0.5-1.8-1.3-2.5c-0.1-0.1-0.1,0-0.1-0.1c-0.8-0.7-1.8-0.9-2.7-0.8c-1,0.1-1.9,0.5-2.5,1.3l-1.5,1.7l-3.9-4l9.8-17.6 c1.4,0.7,2.6,1.2,3.8,1.5c1.1,0.3,2.3,0.6,3.7,0.7c-1.4,1.9-2.8,4.4-4.4,7.4c-0.3,0.5-0.4,0.7-0.4,0.8c-0.4,0.7-0.6,1.2-0.8,1.7 c-0.5,1.9,0.2,2.6,3.3,3.5c2.1,0.6,3.9,0.5,5.4-0.3c1.6-0.8,2.9-2.2,3.9-4.1c1.3-2.6,1.7-2.6,3.5-2.6c0.5,0,1.1,0,1.9,0 C54.9,45.4,59,47.5,63,50c4,2.5,7.9,5.5,11.8,8.7c0.1,0.1,0.3,0.2,0.5,0.3c0.5,0.7,0.6,1.5,0.6,2.3C75.8,61.9,75.6,62.5,75.3,63z  M93,53.2c-0.1,0.3-0.3,0.6-0.5,0.7l-5.3,3.2l0,0c-0.3,0.2-0.6,0.2-0.9,0.1c-0.3-0.1-0.5-0.2-0.7-0.5l0,0L72.3,34.1l-1.3-2.4 c-0.1-0.1-0.2-0.3-0.3-0.4l-2.2-3.7c-0.2-0.3-0.2-0.6-0.1-1c0.1-0.3,0.3-0.6,0.5-0.7l5.3-3.2l0,0c0.3-0.2,0.6-0.2,0.9-0.1 c0.3,0.1,0.5,0.2,0.7,0.5l0,0l16.9,29.1C93,52.5,93,52.9,93,53.2z"></path></svg>