<svg xmlns="http://www.w3.org/2000/svg" xmlns:xlink="http://www.w3.org/1999/xlink" x="0px" y="0px" viewBox="0 0 100 100" style="enable-background:new 0 0 100 100;" xml:space="preserve">	<style type="text/css">	.calender-icon{fill:none;stroke:currentColor;stroke-width:4;stroke-miterlimit:10;}	</style>	<g>		<g>			<path d="M35.4,54.1L35.4,54.1c-1.5,0-2.8-1.3-2.8-2.8v0c0-1.5,1.3-2.8,2.8-2.8h0c1.5,0,2.8,1.3,2.8,2.8v0   C38.2,52.8,36.9,54.1,35.4,54.1z"></path>			<path d="M45.1,54.1L45.1,54.1c-1.5,0-2.8-1.3-2.8-2.8v0c0-1.5,1.3-2.8,2.8-2.8h0c1.5,0,2.8,1.3,2.8,2.8v0   C47.9,52.8,46.7,54.1,45.1,54.1z"></path>			<path d="M54.9,54.1L54.9,54.1c-1.5,0-2.8-1.3-2.8-2.8v0c0-1.5,1.3-2.8,2.8-2.8h0c1.5,0,2.8,1.3,2.8,2.8v0   C57.7,52.8,56.4,54.1,54.9,54.1z"></path>			<path d="M64.6,54.1L64.6,54.1c-1.5,0-2.8-1.3-2.8-2.8v0c0-1.5,1.3-2.8,2.8-2.8h0c1.5,0,2.8,1.3,2.8,2.8v0   C67.4,52.8,66.2,54.1,64.6,54.1z"></path>			<path d="M35.4,63.3L35.4,63.3c-1.5,0-2.8-1.3-2.8-2.8v0c0-1.5,1.3-2.8,2.8-2.8h0c1.5,0,2.8,1.3,2.8,2.8v0   C38.2,62.1,36.9,63.3,35.4,63.3z"></path>			<path d="M45.1,63.3L45.1,63.3c-1.5,0-2.8-1.3-2.8-2.8v0c0-1.5,1.3-2.8,2.8-2.8h0c1.5,0,2.8,1.3,2.8,2.8v0   C47.9,62.1,46.7,63.3,45.1,63.3z"></path>			<path d="M54.9,63.3L54.9,63.3c-1.5,0-2.8-1.3-2.8-2.8v0c0-1.5,1.3-2.8,2.8-2.8h0c1.5,0,2.8,1.3,2.8,2.8v0   C57.7,62.1,56.4,63.3,54.9,63.3z"></path>			<path d="M64.6,63.3L64.6,63.3c-1.5,0-2.8-1.3-2.8-2.8v0c0-1.5,1.3-2.8,2.8-2.8h0c1.5,0,2.8,1.3,2.8,2.8v0   C67.4,62.1,66.2,63.3,64.6,63.3z"></path>			<path d="M35.4,72.6L35.4,72.6c-1.5,0-2.8-1.3-2.8-2.8v0c0-1.5,1.3-2.8,2.8-2.8h0c1.5,0,2.8,1.3,2.8,2.8v0   C38.2,71.3,36.9,72.6,35.4,72.6z"></path>			<path d="M45.1,72.6L45.1,72.6c-1.5,0-2.8-1.3-2.8-2.8v0c0-1.5,1.3-2.8,2.8-2.8h0c1.5,0,2.8,1.3,2.8,2.8v0   C47.9,71.3,46.7,72.6,45.1,72.6z"></path>			<path d="M54.9,72.6L54.9,72.6c-1.5,0-2.8-1.3-2.8-2.8v0c0-1.5,1.3-2.8,2.8-2.8h0c1.5,0,2.8,1.3,2.8,2.8v0   C57.7,71.3,56.4,72.6,54.9,72.6z"></path>			<path d="M64.6,72.6L64.6,72.6c-1.5,0-2.8-1.3-2.8-2.8v0c0-1.5,1.3-2.8,2.8-2.8h0c1.5,0,2.8,1.3,2.8,2.8v0   C67.4,71.3,66.2,72.6,64.6,72.6z"></path>			<g>				<g>					<path d="M63.4,34.2L63.4,34.2c-1.1,0-1.9-0.9-1.9-1.9v-10c0-1.1,0.9-1.9,1.9-1.9h0c1.1,0,1.9,0.9,1.9,1.9v10     C65.3,33.4,64.5,34.2,63.4,34.2z"></path>				</g>				<g>					<path d="M36.4,34.2L36.4,34.2c-1.1,0-1.9-0.9-1.9-1.9v-10c0-1.1,0.9-1.9,1.9-1.9h0c1.1,0,1.9,0.9,1.9,1.9v10     C38.3,33.4,37.5,34.2,36.4,34.2z"></path>				</g>				<rect x="40.2" y="25.6" width="19.4" height="3.5"></rect>				<path d="M68.3,25.6h-1v3.5h1c2.7,0,4.8,2.2,4.8,4.8v7.6H26.9V34c0-2.7,2.2-4.8,4.8-4.8h0.9v-3.5h-0.9c-4.6,0-8.4,3.8-8.4,8.4V45    v26.1c0,4.6,3.8,8.4,8.4,8.4h36.6c4.6,0,8.4-3.8,8.4-8.4V45V34C76.7,29.4,72.9,25.6,68.3,25.6z M73.1,71.2c0,2.7-2.2,4.8-4.8,4.8    H31.7c-2.7,0-4.8-2.2-4.8-4.8V45h46.3V71.2z"></path>			</g>		</g>		<path class="calender-icon" d="M95.3,50C95.3,75,75,95.3,50,95.3S4.7,75,4.7,50S25,4.7,50,4.7S95.3,25,95.3,50z"></path>	</g></svg>