
<svg  xmlns="http://www.w3.org/2000/svg"  x="0px" y="0px"
	 viewBox="0 0 114 114" style="enable-background:new 0 0 114 114;" xml:space="preserve">
<g>
	<g>
		<path d="M55,113.6c-1.9,0-3.6-0.2-5.3-0.5c-6.4-1.4-10.9-5.2-13.1-11.2c-0.4-1-0.5-2.1-0.3-3.2c0.2-1.1,0.6-2.1,1.3-3
			c5.2-6.3,18.2-10.3,24.9-9.1c0.8,0.1,1.6,0.5,2.2,1.1c0.6,0.6,1.1,1.3,1.3,2.1c0.4,1.8,0.7,3.6,0.8,5.4c0,0,0,0.1,0,0.1
			c0,0,0,0.1,0.1,0.1c0,0,0.1,0,0.1,0c0,0,0.1,0,0.1,0c5.7-1.9,11.8-6.1,17.5-11.9c5.7-5.9,9.5-12.2,11.2-18c0,0,0-0.1,0-0.1
			c0,0,0-0.1,0-0.1c0,0-0.1-0.1-0.1-0.1s-0.1,0-0.1,0c-1.8,0-3.6-0.2-5.4-0.5c-0.9-0.2-1.6-0.6-2.2-1.2c-0.6-0.6-1-1.3-1.2-2.2
			c-1.5-6.6,2-19.8,8.1-25.3c0.8-0.7,1.8-1.2,2.9-1.5c1.1-0.2,2.2-0.2,3.2,0.2c6,1.9,10.1,6.3,11.7,12.6c3.3,12.8-4,31.2-18,45.8
			C82.6,105.9,67.3,113.6,55,113.6z M60,89.4c-5.8,0-15.9,3.2-20,8.2c-0.4,0.4-0.6,1-0.7,1.6s0,1.2,0.2,1.7c1.8,5,5.5,8.2,10.9,9.3
			c12,2.5,28.9-5.1,42.2-19l0,0c13.4-13.8,20.3-31.1,17.3-43c-1.3-5.3-4.7-8.9-9.7-10.5c-0.6-0.2-1.2-0.2-1.7-0.1
			c-0.6,0.1-1.1,0.4-1.5,0.8c-5.5,4.9-8.3,17.2-7.1,22.3c0.1,0.3,0.2,0.5,0.4,0.7c0.2,0.2,0.4,0.3,0.7,0.4c1.6,0.3,3.2,0.5,4.8,0.5
			c0.5,0,1,0.1,1.4,0.3c0.4,0.2,0.8,0.6,1.1,0.9c0.3,0.4,0.5,0.9,0.6,1.3c0.1,0.5,0.1,1-0.1,1.5c-1.8,6.3-6,13-12,19.3
			C80.7,91.8,74.2,96.2,68,98.3c-0.5,0.2-1,0.2-1.5,0.1c-0.5-0.1-1-0.3-1.4-0.5c-0.4-0.3-0.7-0.7-1-1.1c-0.2-0.4-0.4-0.9-0.4-1.4
			c-0.1-1.6-0.3-3.3-0.7-4.9c-0.1-0.2-0.2-0.5-0.4-0.7c-0.2-0.2-0.4-0.3-0.7-0.3C61.4,89.4,60.7,89.4,60,89.4z"/>
	</g>
	<g>
		<path d="M47,70.7H26.5c-0.5,0-0.9-0.1-1.3-0.4c-0.4-0.3-0.7-0.6-0.9-1c-0.2-0.4-0.2-0.9-0.2-1.3c0.1-0.4,0.3-0.8,0.6-1.2l0.8-0.9
			c6.3-7,12.9-14.2,16.9-19.5c2-2.6,2.3-5.9,0.9-8.9c-1.3-2.9-4-4.7-7.1-4.8c-0.2,0-0.3,0-0.5,0c-2.6,0-5,1-6.8,2.8
			c-1.8,1.8-2.8,4.3-2.8,6.8c0,0.8-0.7,1.5-1.5,1.5s-1.5-0.7-1.5-1.5c0-3.4,1.3-6.6,3.7-9c2.4-2.4,5.6-3.7,8.9-3.7
			c0.2,0,0.4,0,0.6,0c4.2,0.2,7.8,2.7,9.7,6.6c1.8,3.9,1.4,8.5-1.2,12c-4,5.3-10.5,12.5-16.8,19.4H47c0.8,0,1.5,0.7,1.5,1.5
			S47.8,70.7,47,70.7z"/>
	</g>
	<g>
		<path d="M73.2,70.7c-0.8,0-1.5-0.7-1.5-1.5V58.6H52.8c-0.3,0-0.6-0.1-0.9-0.3c-0.3-0.2-0.5-0.4-0.6-0.7c-0.1-0.3-0.2-0.6-0.1-0.9
			c0-0.3,0.2-0.6,0.4-0.9l20.2-25.2c0.2-0.3,0.5-0.5,0.9-0.6c0.3-0.1,0.7-0.1,1,0c0.3,0.1,0.6,0.3,0.8,0.6c0.2,0.3,0.3,0.6,0.3,1
			l0,23.8h2.9c0.8,0,1.5,0.7,1.5,1.5c0,0.8-0.7,1.5-1.5,1.5h-2.9v10.6C74.7,70.1,74,70.7,73.2,70.7z M53.9,57.7L53.9,57.7
			C53.9,57.8,53.9,57.8,53.9,57.7z M55.6,55.6h16.2V35.5L55.6,55.6z M74.1,32.6L74.1,32.6C74.1,32.6,74.1,32.6,74.1,32.6z
			 M71.7,31.8C71.7,31.8,71.7,31.8,71.7,31.8L71.7,31.8z"/>
	</g>
	<g>
		<path d="M30.9,96c-0.2,0-0.4,0-0.6-0.1C21.4,92,13.9,85.7,8.6,77.6c-5.3-8.1-8.1-17.5-8.2-27.2c0-27.5,22.7-49.9,50.6-49.9
			c0.1,0,0.1,0,0.2,0c9.3,0,18.5,2.6,26.4,7.5c8,4.9,14.5,11.9,18.7,20.3c0.4,0.7,0.1,1.6-0.7,2c-0.7,0.4-1.6,0.1-2-0.7
			c-4-7.9-10.1-14.5-17.6-19.1c-7.5-4.6-16.1-7-24.9-7c0,0-0.1,0-0.1,0c-26.2,0-47.6,21-47.6,46.9c0,9.1,2.7,17.9,7.7,25.5
			c5,7.6,12,13.6,20.3,17.2c0.8,0.3,1.1,1.2,0.8,2C32,95.7,31.5,96,30.9,96z"/>
	</g>
	<g>
		<path d="M51.1,8.9c-0.8,0-1.5-0.7-1.5-1.5V2c0-0.8,0.7-1.5,1.5-1.5s1.5,0.7,1.5,1.5v5.4C52.6,8.3,51.9,8.9,51.1,8.9z"/>
	</g>
	<g>
		<path d="M29.6,14.7c-0.5,0-1-0.3-1.3-0.8l-2.7-4.7c-0.4-0.7-0.2-1.6,0.5-2c0.7-0.4,1.6-0.2,2,0.5l2.7,4.7c0.4,0.7,0.2,1.6-0.5,2
			C30.1,14.6,29.8,14.7,29.6,14.7z"/>
	</g>
	<g>
		<path d="M13.8,30.4c-0.3,0-0.5-0.1-0.7-0.2l-4.7-2.7c-0.7-0.4-1-1.3-0.5-2c0.4-0.7,1.3-1,2-0.5l4.7,2.7c0.7,0.4,1,1.3,0.5,2
			C14.9,30.2,14.3,30.4,13.8,30.4z"/>
	</g>
	<g>
		<path d="M2.7,51.9c-0.8,0-1.5-0.7-1.5-1.5s0.7-1.5,1.5-1.5l5.4,0c0,0,0,0,0,0c0.8,0,1.5,0.7,1.5,1.5s-0.7,1.5-1.5,1.5L2.7,51.9
			C2.7,51.9,2.7,51.9,2.7,51.9z"/>
	</g>
	<g>
		<path d="M9.2,76.2c-0.5,0-1-0.3-1.3-0.7c-0.4-0.7-0.2-1.6,0.5-2l4.7-2.7c0.7-0.4,1.6-0.2,2,0.5c0.4,0.7,0.2,1.6-0.5,2l-4.7,2.7
			C9.7,76.1,9.4,76.2,9.2,76.2z"/>
	</g>
	<g>
		<path d="M26.9,93.9c-0.3,0-0.5-0.1-0.7-0.2c-0.7-0.4-1-1.3-0.6-2l2.7-4.7c0.4-0.7,1.3-1,2-0.6c0.7,0.4,1,1.3,0.6,2l-2.7,4.7
			C27.9,93.6,27.4,93.9,26.9,93.9z"/>
	</g>
	<g>
		<path d="M88.2,30.3c-0.5,0-1-0.3-1.3-0.7c-0.4-0.7-0.2-1.6,0.5-2.1l4.7-2.7c0.7-0.4,1.6-0.2,2,0.5c0.4,0.7,0.2,1.6-0.5,2.1
			L89,30.1C88.8,30.3,88.5,30.3,88.2,30.3z"/>
	</g>
	<g>
		<path d="M72.5,14.6c-0.3,0-0.5-0.1-0.7-0.2c-0.7-0.4-1-1.3-0.6-2l2.7-4.7c0.4-0.7,1.3-1,2-0.6c0.7,0.4,1,1.3,0.6,2l-2.7,4.7
			C73.5,14.4,73,14.6,72.5,14.6z"/>
	</g>
</g>
</svg>
