<svg xmlns="http://www.w3.org/2000/svg"
	xmlns:xlink="http://www.w3.org/1999/xlink" x="0px" y="0px" viewBox="0 0 100 100" style="enable-background:new 0 0 100 100;" xml:space="preserve">
	<style type="text/css">
	.h1-about-01{fill-opacity:1;}
	.h1-about-02{opacity:1;}
	</style>
	<g>
		<path class="h1-about-01" d="M96.4,49.7h-4.4c-0.9,0-1.6-0.7-1.6-1.6c0-0.9,0.7-1.6,1.6-1.6h4.4c0.9,0,1.6,0.7,1.6,1.6
		C98,49,97.3,49.7,96.4,49.7z"/>
		<path class="h1-about-01" d="M96.4,56.2h-4.4c-0.9,0-1.6-0.7-1.6-1.6c0-0.9,0.7-1.6,1.6-1.6h4.4c0.9,0,1.6,0.7,1.6,1.6
		C98,55.5,97.3,56.2,96.4,56.2z"/>
		<path class="h1-about-01" d="M96.4,62.8h-4.4c-0.9,0-1.6-0.7-1.6-1.6c0-0.9,0.7-1.6,1.6-1.6h4.4c0.9,0,1.6,0.7,1.6,1.6
		C98,62.1,97.3,62.8,96.4,62.8z"/>
		<path class="h1-about-01" d="M96.4,69.4h-4.4c-0.9,0-1.6-0.7-1.6-1.6c0-0.9,0.7-1.6,1.6-1.6h4.4c0.9,0,1.6,0.7,1.6,1.6
		C98,68.6,97.3,69.4,96.4,69.4z"/>
		<path class="h1-about-01" d="M96.4,75.9h-4.4c-0.9,0-1.6-0.7-1.6-1.6s0.7-1.6,1.6-1.6h4.4c0.9,0,1.6,0.7,1.6,1.6S97.3,75.9,96.4,75.9z"/>
		<path class="h1-about-01" d="M96.4,82.4h-4.4c-0.9,0-1.6-0.7-1.6-1.6c0-0.9,0.7-1.6,1.6-1.6h4.4c0.9,0,1.6,0.7,1.6,1.6
		C98,81.7,97.3,82.4,96.4,82.4z"/>
		<path class="h1-about-01" d="M96.4,89h-4.4c-0.9,0-1.6-0.7-1.6-1.6s0.7-1.6,1.6-1.6h4.4c0.9,0,1.6,0.7,1.6,1.6S97.3,89,96.4,89z"/>
		<g>
			<g class="h1-about-02">
				<path d="M31.2,84.5c-0.4,0-0.9-0.2-1.1-0.5c-0.4-0.3-0.6-0.9-0.5-1.4l1-7.1c0-0.3,0.2-0.7,0.5-0.9l40.7-42.5
				c0.6-0.7,1.6-0.7,2.3,0l6,5.8c0.3,0.3,0.5,0.7,0.5,1.1c0,0.5-0.2,0.9-0.5,1.2L39.4,82.8c0,0-0.6,0.4-0.9,0.5l-7,1.3
				C31.5,84.5,31.2,84.5,31.2,84.5z M33.7,76.5l-0.6,4.3l4.3-0.8l39.2-40.9l-3.7-3.5L33.7,76.5z"/>
			</g>
		</g>
		<path class="h1-about-01" d="M81.3,35.4c-0.4,0-0.8-0.2-1.1-0.5l-3-2.9c-0.6-0.6-0.7-1.6,0-2.3c0.6-0.7,1.6-0.7,2.3,0l3,2.9
		c0.6,0.6,0.7,1.6,0,2.3C82.1,35.3,81.7,35.5,81.3,35.4L81.3,35.4z"/>
		<path class="h1-about-01" d="M28.1,87.7c-0.4,0-0.8-0.2-1.1-0.5c-0.6-0.6-0.7-1.6,0-2.3l3.1-3.2c0.6-0.6,1.6-0.7,2.3,0
		c0.6,0.6,0.7,1.6,0,2.3l-3.1,3.2C28.9,87.6,28.5,87.8,28.1,87.7L28.1,87.7z"/>
		<path class="h1-about-01" d="M23.3,85.9H3.6c-0.9,0-1.6-0.7-1.6-1.6V17.3c0-0.5,0.2-0.9,0.5-1.2L14.8,3.8c0.3-0.3,0.7-0.5,1.2-0.5H61
		c0.9,0,1.6,0.7,1.6,1.6V34c0,0.9-0.7,1.6-1.6,1.6c-0.9,0-1.6-0.7-1.6-1.6V6.6H16.6L5.3,18v64.7h18.1c0.9,0,1.6,0.7,1.6,1.6
		C25,85.2,24.3,85.9,23.3,85.9L23.3,85.9z"/>
		<path class="h1-about-01" d="M16,18.9H3.6c-0.7,0-1.2-0.4-1.5-1c-0.2-0.6-0.1-1.3,0.3-1.8L14.8,3.8c0.5-0.5,1.2-0.6,1.8-0.3
		c0.6,0.2,1,0.9,1,1.5v12.3C17.6,18.2,16.8,18.9,16,18.9L16,18.9z M7.6,15.6h6.7V8.9L7.6,15.6z"/>
		<path class="h1-about-01" d="M96.4,98.2h-64c-0.7,0-1.2-0.4-1.5-1c-0.2-0.6-0.1-1.3,0.3-1.8l64-64c0.5-0.5,1.2-0.6,1.8-0.3
		c0.6,0.2,1,0.9,1,1.5v64C97.9,97.5,97.2,98.2,96.4,98.2L96.4,98.2z M36.3,94.9h58.5V36.4L36.3,94.9z"/>
		<path class="h1-about-01" d="M85.3,88.7H56.8c-0.7,0-1.2-0.4-1.5-1c-0.2-0.6-0.1-1.3,0.3-1.8l28.6-28.6c0.5-0.5,1.2-0.6,1.8-0.3
		c0.6,0.2,1,0.9,1,1.5v28.6C86.9,88,86.2,88.7,85.3,88.7L85.3,88.7z M60.8,85.4h22.9V62.4L60.8,85.4z"/>
		<path class="h1-about-01" d="M51.9,18.9H31.2c-0.9,0-1.6-0.7-1.6-1.6c0-0.9,0.7-1.6,1.6-1.6h20.7c0.9,0,1.6,0.7,1.6,1.6
		C53.5,18.1,52.8,18.9,51.9,18.9z"/>
		<path class="h1-about-01" d="M51.9,29.3H10.3c-0.9,0-1.6-0.7-1.6-1.6c0-0.9,0.7-1.6,1.6-1.6H52c0.9,0,1.6,0.7,1.6,1.6
		C53.6,28.6,52.9,29.3,51.9,29.3L51.9,29.3z"/>
		<path class="h1-about-01" d="M51.9,35.6H10.3c-0.9,0-1.6-0.7-1.6-1.6c0-0.9,0.7-1.6,1.6-1.6H52c0.9,0,1.6,0.7,1.6,1.6
		C53.6,34.9,52.9,35.6,51.9,35.6L51.9,35.6z"/>
		<path class="h1-about-01" d="M51.9,42H10.3c-0.9,0-1.6-0.7-1.6-1.6c0-0.9,0.7-1.6,1.6-1.6H52c0.9,0,1.6,0.7,1.6,1.6
		C53.6,41.3,52.9,42,51.9,42L51.9,42z"/>
		<path class="h1-about-01" d="M32.3,48.3h-22c-0.9,0-1.6-0.7-1.6-1.6c0-0.9,0.7-1.6,1.6-1.6h22c0.9,0,1.6,0.7,1.6,1.6
		C34,47.6,33.2,48.3,32.3,48.3z"/>
	</g>
</svg>
