<svg xmlns="http://www.w3.org/2000/svg"
	xmlns:xlink="http://www.w3.org/1999/xlink" x="0px" y="0px" viewBox="0 0 100 100" style="enable-background:new 0 0 100 100;" xml:space="preserve">
	<style type="text/css">
	.h2-about-01{fill:currentColor;fill-opacity:1;}
	</style>
	<g>
		<path class="h2-about-01" d="M5.6,98.2c-0.9,0-1.7-0.7-1.7-1.7v-6.1c0-14.6,10.3-27.3,24.5-30.3c2.9-0.6,5.8-2,8.2-3.9l1.8-1.9
		c0.6-0.6,1.7-0.7,2.4,0c0.6,0.6,0.7,1.7,0,2.4l-1.9,2c0,0-0.1,0.1-0.2,0.2c-2.9,2.3-6.2,3.9-9.7,4.7c-12.7,2.7-21.9,14.1-21.9,27
		v6.1C7.2,97.5,6.4,98.2,5.6,98.2L5.6,98.2z"/>
		<path class="h2-about-01" d="M94.5,98.4c-0.9,0-1.7-0.7-1.7-1.7v-6.3c0-13-8.9-24.1-21.5-27c-3.7-0.9-7.1-2.4-10.2-4.7L59.1,57
		c-0.7-0.6-0.8-1.6-0.3-2.4c0.6-0.7,1.6-0.9,2.3-0.3l2,1.6c2.6,2,5.6,3.3,8.9,4.1c14.2,3.2,24.1,15.6,24.1,30.2v6.3
		c0,0.9-0.7,1.7-1.7,1.7L94.5,98.4z"/>
		<path class="h2-about-01" d="M50.1,83.6c-0.3,0-0.7-0.1-1-0.3C48.4,82.8,31.9,71,28.7,62.7c-0.3-0.9,0.1-1.8,0.9-2.1
		c0.9-0.3,1.8,0.1,2.1,0.9c2.5,6.3,14.7,15.8,18.3,18.4c3.6-2.7,16-12.4,18.4-18.8c0.3-0.9,1.3-1.3,2.1-1s1.3,1.3,1,2.1
		C68.4,70.7,51.7,82.8,51,83.3C50.7,83.5,50.4,83.6,50.1,83.6L50.1,83.6z"/>
		<path class="h2-about-01" d="M23.4,97c-0.9,0-1.7-0.7-1.7-1.7v-8.7c0-0.9,0.7-1.7,1.7-1.7c0.9,0,1.7,0.7,1.7,1.7v8.7
		C25,96.3,24.3,97,23.4,97z"/>
		<path class="h2-about-01" d="M75.9,97c-0.9,0-1.7-0.7-1.7-1.7v-8.7c0-0.9,0.7-1.7,1.7-1.7s1.7,0.7,1.7,1.7v8.7C77.6,96.3,76.9,97,75.9,97z" />
		<path class="h2-about-01" d="M68.5,30.8H31.7c-2.1,0-3.8-1.7-3.8-3.8c0-2.1,1.7-3.8,3.8-3.8h36.8c2.1,0,3.8,1.7,3.8,3.8
		C72.3,29,70.5,30.8,68.5,30.8z M31.7,26.4c0,0-0.5,0.2-0.5,0.5s0.2,0.5,0.5,0.5h36.8c0,0,0.5-0.2,0.5-0.5s-0.2-0.5-0.5-0.5H31.7z" />
		<path class="h2-about-01" d="M55.5,26.4H44.6c-0.9,0-1.7-0.7-1.7-1.7V6.5c0-2.6,2.2-4.8,4.8-4.8h4.4c2.6,0,4.8,2.2,4.8,4.8v18.3
		C57.1,25.7,56.3,26.4,55.5,26.4L55.5,26.4z M46.3,23.1h7.5V6.5c0-0.9-0.7-1.5-1.5-1.5h-4.4c-0.9,0-1.5,0.7-1.5,1.5L46.3,23.1
		L46.3,23.1z"/>
		<path class="h2-about-01" d="M66.5,26.4H33.7c-0.9,0-1.7-0.7-1.7-1.7v-5c0-6.9,5.4-12.7,12.3-13.1C45.2,6.6,46,7.3,46,8.3
		c0,0.9-0.6,1.7-1.6,1.7c-5.2,0.3-9.2,4.6-9.2,9.8v3.4h29.5v-3.4c0-5.3-4.1-9.6-9.4-9.8c-0.9,0-1.6-0.8-1.6-1.7
		c0-0.9,0.7-1.6,1.7-1.6c7.1,0.3,12.6,6,12.6,13.1v5c0,0.9-0.7,1.7-1.7,1.7H66.5z"/>
		<path class="h2-about-01" d="M50.1,54.2c-7.2,0-13.2-7.4-14.7-17.9c-0.1-0.9,0.5-1.7,1.4-1.9c0.9-0.1,1.7,0.5,1.9,1.4
		c1.2,8.7,6,15.1,11.4,15.1s10.4-6.5,11.5-15.4c0.1-0.9,1-1.6,1.8-1.4c0.9,0.1,1.6,1,1.4,1.8C63.5,46.6,57.4,54.2,50.1,54.2
		L50.1,54.2z"/>
	</g>
</svg>
