<svg xmlns="http://www.w3.org/2000/svg"
	xmlns:xlink="http://www.w3.org/1999/xlink" x="0px" y="0px" viewBox="0 0 100 100" style="enable-background:new 0 0 100 100;" xml:space="preserve">
	<g>
		<path d="M94.6,3.2H5.4c-1.2,0-2.1,0.9-2.1,2.1v89.3c0,1.1,0.9,2.1,2.1,2.1h89.3c1.1,0,2.1-1,2.1-2.1V5.4
		C96.8,4.1,95.8,3.2,94.6,3.2L94.6,3.2z M92.5,91.5c0,0.5-0.5,1-1,1h-83c-0.5,0-1-0.5-1-1v-83c0-0.5,0.5-1,1-1h83c0.5,0,1,0.5,1,1
		V91.5L92.5,91.5z"/>
		<g>
			<path d="M43.8,12.6h-29c-1.1,0-2.1,1-2.1,2.1v70.6c0,1.1,1,2.1,2.1,2.1h29c1.1,0,2.1-1,2.1-2.1V14.7
			C45.9,13.6,44.9,12.6,43.8,12.6z M41.6,82.2c0,0.5-0.5,1-1,1H17.8c-0.5,0-1-0.5-1-1V40.6c0-0.5,0.5-1,1-1h22.8c0.5,0,1,0.5,1,1
			V82.2z M41.6,34.4c0,0.5-0.5,1-1,1H17.8c-0.5,0-1-0.5-1-1V17.8c0-0.5,0.5-1,1-1h22.8c0.5,0,1,0.5,1,1V34.4z"/>
		</g>
		<g>
			<path d="M85.3,12.6h-29c-1.1,0-2.1,1-2.1,2.1v70.6c0,1.1,1,2.1,2.1,2.1h29c1.1,0,2.1-1,2.1-2.1V14.7
			C87.4,13.6,86.4,12.6,85.3,12.6z M83.2,82.2c0,0.5-0.5,1-1,1H59.4c-0.5,0-1-0.5-1-1V40.6c0-0.5,0.5-1,1-1h22.8c0.5,0,1,0.5,1,1
			C83.2,40.6,83.2,82.2,83.2,82.2z M83.2,34.4c0,0.5-0.5,1-1,1H59.4c-0.5,0-1-0.5-1-1V17.8c0-0.5,0.5-1,1-1h22.8c0.5,0,1,0.5,1,1
			C83.2,17.8,83.2,34.4,83.2,34.4z"/>
			<path d="M75.9,67.6c-1.1,0-2.1,1-2.1,2.1v3.1c0,0.5-0.5,1-1,1h-3.1c-1.1,0-2.1,1-2.1,2.1s1,2.1,2.1,2.1h6.2c1.1,0,2.1-1,2.1-2.1
			v-6.2C78.1,68.5,77.1,67.6,75.9,67.6L75.9,67.6z"/>
		</g>
	</g>
</svg>
