<svg xmlns="http://www.w3.org/2000/svg"
	xmlns:xlink="http://www.w3.org/1999/xlink" x="0px" y="0px" viewBox="0 0 100 100" style="enable-background:new 0 0 100 100;" xml:space="preserve">
	<g>
		<path d="M96.2,51.7L85,37.7c-0.1-0.1-0.2-0.4-0.2-0.6V14.2c0-2.7-2.2-5-5-5h-6.1c-2.7,0-5,2.2-5,5v3.2c0,0.4-0.2,0.7-0.6,0.9
		c-0.1,0-0.2,0.1-0.4,0.1c-0.2,0-0.5-0.1-0.7-0.4L57,6.2l-0.1-0.1c-1.9-1.7-4.4-2.7-7-2.7c-2.6,0-5.1,1-7,2.7l-0.1,0.1l-39,45.4
		c-0.5,0.6-0.6,1.5-0.2,2.1c0.4,0.7,1,1.1,1.9,1.1h9c0.5,0,1,0.5,1,1v35.8c0,2.7,2.2,5,5,5h59.6c2.7,0,5-2.2,5-5V56c0-0.5,0.5-1,1-1
		h9c0.7,0,1.5-0.5,1.7-1.1C96.9,53.1,96.7,52.4,96.2,51.7L96.2,51.7z M65.8,91.8c0,0.5-0.5,1-1,1H47c-0.5,0-1-0.5-1-1V70.8
		c0-0.5,0.5-1,1-1h17.8c0.5,0,1,0.5,1,1C65.8,70.8,65.8,91.8,65.8,91.8z M89.4,50.4c-0.1,0.4-0.5,0.5-0.9,0.5h-5.7c-1.1,0-2,0.9-2,2
		v38.8c0,0.5-0.5,1-1,1h-9c-0.5,0-1-0.5-1-1V70.8c0-2.7-2.2-5-5-5H47c-2.7,0-5,2.2-5,5v21.8H20.2c-0.5,0-1-0.5-1-1V53
		c0-1.1-0.9-2-2-2h-5.5c-0.4,0-0.7-0.2-0.9-0.6s-0.1-0.7,0.1-1L45.7,8.9l0.1-0.1c1.1-1,2.6-1.5,4.1-1.5s3,0.5,4.1,1.5l0.1,0.1
		l15.1,18c0.4,0.5,0.9,0.7,1.5,0.7c0.2,0,0.5,0,0.6-0.1c0.7-0.2,1.4-1,1.4-1.9V14.2c0-0.5,0.4-1,1-1h6c0.2,0,0.5,0.1,0.6,0.2
		c0.2,0.2,0.2,0.4,0.2,0.7V38c0,0.5,0.1,0.9,0.5,1.2l8.1,10.1C89.5,49.6,89.5,50.1,89.4,50.4L89.4,50.4z"/>
		<path d="M39.4,58c-1.9,0-3.4-1.5-3.4-3.4V33.4c0-1.9,1.5-3.4,3.4-3.4h21.2c1.9,0,3.4,1.5,3.4,3.4v21.2c0,1.9-1.5,3.4-3.4,3.4H39.4z
		 M53,46c-0.5,0-1,0.5-1,1v6c0,0.5,0.5,1,1,1h6c0.5,0,1-0.5,1-1v-6c0-0.5-0.5-1-1-1H53z M41,46c-0.5,0-1,0.5-1,1v6c0,0.5,0.5,1,1,1
		h6c0.5,0,1-0.5,1-1v-6c0-0.5-0.5-1-1-1H41z M53,34c-0.5,0-1,0.5-1,1v6c0,0.5,0.5,1,1,1h6c0.5,0,1-0.5,1-1v-6c0-0.5-0.5-1-1-1H53z
		 M41,34c-0.5,0-1,0.5-1,1v6c0,0.5,0.5,1,1,1h6c0.5,0,1-0.5,1-1v-6c0-0.5-0.5-1-1-1H41z"/>
		<path d="M57,79.8c0-1.1,0.9-2,2-2c1.1,0,2,0.9,2,2s-0.9,2-2,2S57,80.9,57,79.8z"/>
	</g>
</svg>
