<svg xmlns="http://www.w3.org/2000/svg"
	xmlns:xlink="http://www.w3.org/1999/xlink" x="0px" y="0px" viewBox="0 0 100 100" style="enable-background:new 0 0 100 100;" xml:space="preserve">
	<g>
		<path d="M37.7,49.5C28,39.8,25.3,37.7,24.6,37.3c-3.3,0.1-9.7,0.1-14.4-3.8C6.6,30.4,4.8,25,4.7,21c-0.1-4.5,1.3-5.6,3.1-7.3
		c2.6,2.6,7.1,7.2,8.8,9c3.3,0,5.7-2,7.3-5.7c-3.5-3.7-4.8-3.9-9.4-10.8l2.7-0.5c6.3-1.1,13.1,2.1,17,5.3c6.2,4.9,4.1,11.9,4.1,14.7
		c1.5,1.6,6,6,11.7,11.6l-2.6,2.6c-2.1-2.1-10.5-10.4-12.5-12.5c-0.9-3.8,2.2-9.4-3-13.6c-2.7-2.2-6.8-4.2-10.7-4.6
		c2.9,3.1,4.5,4.1,6.8,7.1c-2.3,6.7-5.8,10.4-13,10c-2.1-2.2-4.7-4.8-6.7-6.9c-0.4,3.3,1,8.7,4.1,11.3c3.8,3.2,9.3,3.1,12.3,3
		c1.1,0,2.1-0.1,15.5,13.3L37.7,49.5L37.7,49.5z M24.9,37.3L24.9,37.3L24.9,37.3z"/>
		<path d="M65.8,89c-6.4-5.1-4-12.5-4.1-14.9c-0.3-0.3-5.5-5.8-7.5-7.8l2.6-2.5c0.2,0.2,7.7,8,7.9,8.2c2.1,2.7-2.5,9.5,3.3,14.2
		c2.7,2.2,6.8,4.2,10.7,4.6c-2.9-3.1-4.6-4.1-6.8-7.1c2.2-6.4,5.5-10.4,13-10c1.7,1.8,3.2,3.3,6.6,6.9c0.4-3.2-1-8.6-4.1-11.3
		c-5.5-4.6-9.8-2.6-12.4-3c-0.8-0.1-0.9-0.2-17.1-16l2.5-2.6C71.7,58.8,75,61.9,75.9,62.8c0.3,0,0.7,0,1.1-0.1
		C95.1,61.5,97.8,81,93.5,85.1l-1.3,1.2c-4.9-5.1-6.9-7.1-8.8-9.1c-3.3,0-5.8,2-7.3,5.7c3.3,3.5,4.9,3.9,9.4,10.7
		C83.4,94.2,75.3,96.6,65.8,89L65.8,89z"/>
		<path d="M48.7,60.6c-0.2-0.2-0.4-0.4-0.6-0.6l2.8-2.4c0.1,0.1,0.2,0.3,0.4,0.4L48.7,60.6L48.7,60.6z"/>
		<path d="M80.9,43.8l-8.2-8.2l1.3-4.4l1.6-1.6l0.1-0.1l-13-13l7.8-7.8l1.8,0.8c2.9-1.5,9.9-3.9,17,3.2c10.5,10.5,3,19.7-7,29.9
		L80.9,43.8L80.9,43.8z M76.7,34.6l4.1,4.1C92,27.2,93.2,21.8,86.6,15.3c-5.9-5.9-11.3-3.5-13.3-2.2l-0.8,0.5L71.2,13l-3.5,3.5
		l10.1,10.1c0.5,0,1.1-0.1,1.6,0.1l2.3,0.5l-1.1,2.1c-0.4,0.8-1.2,1.6-2.6,3l-0.9,0.9L76.7,34.6L76.7,34.6z"/>
		<path d="M14.8,92.2c-2.1,0-4.3-1-6-2.7C7,87.7,5.9,85.4,6,83.2c0-3,8-12.5,23.9-28.3c6-6,13.6-13.5,23.1-23l3.4-9l5.4-5.4
		l14.4,14.4l-1,3.5l10.2,10.2L74.9,55.8L73,53.9l-5.4,5.4l-1.1-1.1c-0.3,0.3-0.7,0.7-1,1.1c-3.4,3.5-8.1,8.3-12.4,8.3
		c-1.5,0-2.8-0.5-3.8-1.6c-0.6-0.6-1.3-1.5-1.6-2.8c-4.1,4.1-7.6,7.6-10.6,10.6C19.6,91.5,18.9,92.2,14.8,92.2L14.8,92.2L14.8,92.2z
		 M59.4,24.8l-3.4,9l-0.3,0.3C46,43.8,38.4,51.4,32.3,57.4C10.2,79.5,9.5,80.2,9.5,83.1c0,1.3,0.7,2.7,1.8,3.8
		c1.1,1.1,2.3,1.6,3.5,1.7c2.5,0,3.2-0.7,19.7-17.3c4.2-4.2,9.4-9.4,15.8-15.9l2.7,2.4c-3,3.8-1.6,5.2-1.2,5.6
		c0.4,0.4,0.7,0.5,1.2,0.5c2.8,0,7.2-4.6,9.7-7.1l-6.9-6.9l3.7-3.7l8,8l1.7-1.7l-8-8l3.7-3.7l6,6c2.8,2.8,3.3,3.3,4,4l5.2-5.2
		L71,36.3l1-3.5L61.7,22.5L59.4,24.8L59.4,24.8z"/>
	</g>
</svg>
