<svg xmlns="http://www.w3.org/2000/svg"
	xmlns:xlink="http://www.w3.org/1999/xlink" x="0px" y="0px" viewBox="0 0 100 100" style="enable-background:new 0 0 100 100;" xml:space="preserve">
	<g>
		<g>
			<path d="M14.6,95.9c-0.5,0-1-0.2-1.3-0.6l-8.6-8.6C4,86,4,84.6,4.7,83.9l32.4-32.3c0.4-0.4,0.9-0.6,1.3-0.6c0.5,0,1,0.2,1.3,0.6
			l2.2,2.2c0.2,0.2,0.4,0.2,0.7,0.2c0.2,0,0.5-0.1,0.7-0.2l15.4-15.4c0.4-0.4,0.4-1,0-1.3l-6.5-6.8c-0.5-0.5-1.3-1.7-1.2-3.1
			c0-0.4,0.1-0.6,0.2-1c0.1-0.4,0.6-1.7,0.7-3.3c0.2-2.4-0.4-4.3-1.6-5.7c-2-2.1-5.6-3.2-10.9-3.3c-1,0-1.8-0.4-2.4-1.1
			c-0.6-0.7-1-1.6-0.9-2.7c0.1-1.5,1.1-2.8,2.4-3.4c2.9-1.2,7.5-2.6,12.6-2.6c6.8,0,12.8,2.6,17.6,7.6L80.7,24c0.7,0.7,0.7,2,0,2.7
			c-1.6,1.6-1.7,4.2-0.4,5.6c0.6,0.6,1.3,1,2.2,1c1,0,2.1-0.5,2.8-1.3c0.4-0.4,0.9-0.6,1.5-0.6c0.5,0,1.1,0.2,1.5,0.6l6.6,7
			c0.6,0.7,1,1.7,1,2.7c-0.1,0.9-0.5,1.7-1.1,2.4L82.9,56.5c-0.6,0.7-1.5,1.1-2.4,1.2c-0.1,0-0.2,0-0.4,0c-1,0-1.7-0.4-2.3-1l-6.6-7
			c-0.7-0.7-0.7-2,0-2.7c1.6-1.6,1.7-4.2,0.4-5.6c-0.6-0.6-1.3-1-2.2-1c-1,0-2.1,0.5-2.8,1.3c-0.4,0.4-0.9,0.6-1.5,0.6
			c-0.6,0-1.1-0.2-1.5-0.6L63,41.1c-0.2-0.2-0.4-0.2-0.7-0.2c-0.2,0-0.5,0.1-0.7,0.2L46.1,56.5c-0.2,0.2-0.2,0.4-0.2,0.7
			c0,0.2,0.1,0.5,0.2,0.7l2.2,2.2c0.7,0.7,0.7,2.1,0,2.8L16.1,95.3C15.7,95.6,15.2,95.9,14.6,95.9L14.6,95.9z M38.3,56
			c-0.2,0-0.5,0.1-0.7,0.2L9.5,84.6c-0.4,0.4-0.4,1,0,1.3l4.5,4.5c0.2,0.2,0.4,0.2,0.7,0.2c0.2,0,0.5-0.1,0.7-0.2l28.1-28.2
			c0.2-0.2,0.2-0.4,0.2-0.7c0-0.2-0.1-0.5-0.2-0.7L39,56.3C38.9,56.2,38.5,56,38.3,56L38.3,56z M69.1,36.7c2,0,3.8,0.7,5,2.1
			c2.2,2.3,2.6,5.9,1.1,8.9c-0.2,0.4-0.1,0.7,0.1,1.1l3.9,4.2c0.2,0.2,0.5,0.2,0.7,0.2s0.5-0.1,0.7-0.2l10.4-10.9
			c0.4-0.4,0.4-1,0-1.3l-4-4.2c-0.2-0.2-0.5-0.2-0.7-0.2c-0.1,0-0.2,0-0.5,0.1c-1.1,0.5-2.2,0.9-3.4,0.9c-2,0-3.8-0.7-5-2.1
			c-2.2-2.3-2.6-5.9-1.1-8.9c0.2-0.4,0.1-0.7-0.1-1.1L66,14.6c-4-4.2-9-6.4-14.9-6.4c-1.7,0-3.5,0.2-5.4,0.6C45.3,9,45,9.4,45,9.9
			c0,0.5,0.4,0.9,0.7,1c3.3,0.7,5.7,2.1,7.6,3.9c2,2.2,2.9,5.3,2.6,8.7c-0.1,1.5-0.5,2.8-0.7,3.7c-0.1,0.4,0,0.7,0.2,1l9.2,9.7
			c0.2,0.2,0.5,0.2,0.7,0.2c0.1,0,0.2,0,0.5-0.1C66.8,37.1,67.9,36.7,69.1,36.7z"/>
		</g>
		<g>
			<path d="M35.2,95.9c-1.1,0-2-0.9-2-2c0-1.1,0.9-2,2-2h43.9c0.5,0,1-0.5,1-1V76.3c0-0.5-0.5-1-1-1h-2.9c-1.1,0-2-0.9-2-2s0.9-2,2-2
			h11.7c1.1,0,2,0.9,2,2s-0.9,2-2,2H85c-0.5,0-1,0.5-1,1V91c0,0.5,0.5,1,1,1h8.8c1.1,0,2,0.9,2,2c0,1.1-0.9,2-2,2H35.2z"/>
		</g>
		<g>
			<path d="M58.7,75.4c-1.1,0-2-0.9-2-2s0.9-2,2-2h5.9c1.1,0,2,0.9,2,2s-0.9,2-2,2H58.7z"/>
			<path d="M70.4,66.6c-0.5,0-1-0.2-1.3-0.6l-4.2-4.2c-0.4-0.4-0.6-0.9-0.6-1.3s0.2-1,0.6-1.3c0.4-0.4,0.9-0.6,1.3-0.6s1,0.2,1.3,0.6
			l4.2,4.2c0.4,0.4,0.6,0.9,0.6,1.3s-0.2,1-0.6,1.3C71.4,66.3,70.9,66.6,70.4,66.6L70.4,66.6z"/>
		</g>
	</g>
</svg>
