<svg xmlns="http://www.w3.org/2000/svg"
	xmlns:xlink="http://www.w3.org/1999/xlink" x="0px" y="0px" viewBox="0 0 100 100" style="enable-background:new 0 0 100 100;" xml:space="preserve">
	<g>
		<g>
			<path d="M22.8,86c-0.4,0-0.8-0.1-1.1-0.4l-9.8-9.8c-0.3-0.3-0.4-0.7-0.4-1.1s0.2-0.8,0.4-1.1l39.2-39.2c0.6-0.6,1.5-0.6,2.1,0
			l9.8,9.8c0.3,0.3,0.4,0.7,0.4,1.1s-0.2,0.8-0.4,1.1L23.9,85.6C23.6,85.8,23.2,86,22.8,86z M15.1,74.7l7.7,7.7l37.1-37.1l-7.7-7.7
			L15.1,74.7z"/>
		</g>
		<g>
			<path d="M75.1,33.7c-0.4,0-0.8-0.2-1.1-0.4l-9.8-9.8c-0.3-0.3-0.4-0.7-0.4-1.1c0-0.4,0.2-0.8,0.4-1.1l0.9-0.9
			c0.9-0.9,2.1-1.4,3.4-1.4c1.3,0,2.5,0.5,3.4,1.4l5.2,5.2c0.9,0.9,1.4,2.1,1.4,3.4c0,1.3-0.5,2.5-1.4,3.4l-0.9,0.9
			C75.9,33.5,75.5,33.7,75.1,33.7L75.1,33.7z M67.4,22.4l7.7,7.7c0.3-0.3,0.4-0.7,0.4-1.1c0-0.5-0.2-0.9-0.5-1.2l-5.2-5.2
			C69.2,21.9,68.1,21.8,67.4,22.4z"/>
		</g>
		<g>
			<path d="M75.1,58.5c-1.2,0-2.4-0.5-3.4-1.4L31.6,16.9c-0.4-0.4-0.5-0.9-0.4-1.4s0.5-0.9,1-1.1l0.5-0.2c12.2-4.1,25.9-0.8,35,8.3
			l19.3,19.3c1.8,1.8,1.9,4.7,0.2,6.5c-0.1,0.1-0.1,0.2-0.2,0.2l-8.5,8.5C77.5,58,76.3,58.5,75.1,58.5z M35.4,16.5L73.8,55
			c0.7,0.7,1.8,0.7,2.5,0l8.3-8.3c0-0.1,0.1-0.1,0.2-0.2c0.7-0.7,0.7-1.8,0-2.5L65.5,24.7C57.6,16.8,46.1,13.7,35.4,16.5z
			 M85.9,47.6L85.9,47.6L85.9,47.6z"/>
		</g>
		<g>
			<path d="M41.2,47c-0.4,0-0.8-0.1-1.1-0.4L26.7,33.1c-0.5-0.4-0.7-1.2-0.4-1.8c0.4-0.7,1.2-1.1,2-0.7c0.1,0.1,0.3,0.2,0.5,0.3
			l13.5,13.5c0.6,0.6,0.6,1.5,0,2.1C41.9,46.8,41.6,47,41.2,47z"/>
		</g>
		<g>
			<path d="M25.2,35.9c-0.2,0-0.3,0-0.5-0.1l-6.9-2.3c-0.4-0.1-0.7-0.4-0.9-0.8l-4.6-9.3c-0.3-0.6-0.2-1.3,0.3-1.7l4.6-4.6
			c0.5-0.5,1.2-0.6,1.7-0.3l9.3,4.6c0.4,0.2,0.6,0.5,0.8,0.9l2.3,7c0.2,0.5,0,1.1-0.4,1.5l-4.6,4.6C26,35.8,25.6,35.9,25.2,35.9z
			 M19.3,30.9l5.5,1.8l3.3-3.3l-1.8-5.5l-7.7-3.8l-3.1,3.1L19.3,30.9z"/>
		</g>
		<g>
			<path d="M71.5,87.1c-3,0-5.9-1.2-8-3.3L43.8,64.1c-0.6-0.6-0.6-1.5,0-2.1s1.5-0.6,2.1,0l19.7,19.7c1.6,1.6,3.7,2.5,5.9,2.5
			c0,0,0,0,0,0c2.2,0,4.3-0.9,5.9-2.4c1.6-1.6,2.4-3.6,2.4-5.9S79,71.5,77.4,70L57.6,50.2c-0.6-0.6-0.6-1.5,0-2.1
			c0.6-0.6,1.5-0.6,2.1,0l19.8,19.8c2.1,2.1,3.3,4.9,3.3,8s-1.2,5.9-3.3,8C77.4,86,74.6,87.1,71.5,87.1
			C71.6,87.1,71.5,87.1,71.5,87.1z"/>
		</g>
	</g>
</svg>
