<svg xmlns="http://www.w3.org/2000/svg" xmlns:xlink="http://www.w3.org/1999/xlink" x="0px" y="0px" viewBox="0 0 100 100" style="enable-background:new 0 0 100 100;" xml:space="preserve">	<g>		<g>			<path d="M70.2,86.9H30.1c-2.5,0-4.6-2.1-4.6-4.6V17.6c0-2.5,2.1-4.6,4.6-4.6h40.1c2.5,0,4.6,2.1,4.6,4.6v64.7   C74.8,84.9,72.7,86.9,70.2,86.9z M30.1,16c-0.9,0-1.6,0.7-1.6,1.6v64.7c0,0.9,0.7,1.6,1.6,1.6h40.1c0.9,0,1.6-0.7,1.6-1.6V17.6   c0-0.9-0.7-1.6-1.6-1.6H30.1z"></path>		</g>		<g>			<path d="M73.3,71.5H27c-0.8,0-1.5-0.7-1.5-1.5s0.7-1.5,1.5-1.5h46.3c0.8,0,1.5,0.7,1.5,1.5S74.1,71.5,73.3,71.5z"></path>		</g>		<g>			<path d="M73.3,25.3H27c-0.8,0-1.5-0.7-1.5-1.5s0.7-1.5,1.5-1.5h46.3c0.8,0,1.5,0.7,1.5,1.5S74.1,25.3,73.3,25.3z"></path>		</g>	</g></svg>