<svg xmlns="http://www.w3.org/2000/svg" xmlns:xlink="http://www.w3.org/1999/xlink" x="0px" y="0px"
	 viewBox="0 0 100 100" style="enable-background:new 0 0 100 100;" xml:space="preserve">
<path d="M73.3,99H26.7C12.5,99,1,87.5,1,73.3V26.7C1,12.5,12.5,1,26.7,1h46.6C87.5,1,99,12.5,99,26.7v46.6C99,87.5,87.5,99,73.3,99z
	 M26.7,7.3C16,7.3,7.3,16,7.3,26.7v46.6C7.3,84,16,92.7,26.7,92.7h46.6c10.7,0,19.4-8.7,19.4-19.4V26.7C92.7,16,84,7.3,73.3,7.3
	H26.7z"/>
<path d="M50,73.8c-13.1,0-23.8-10.7-23.8-23.8c0-13.1,10.7-23.8,23.8-23.8c13.1,0,23.8,10.7,23.8,23.8C73.8,63.1,63.1,73.8,50,73.8z
	 M50,32.5c-9.6,0-17.5,7.8-17.5,17.5S40.4,67.5,50,67.5S67.5,59.6,67.5,50S59.6,32.5,50,32.5z"/>
<path d="M76.9,28.6c-2.9,0-5.2-2.3-5.2-5.2c0-2.9,2.3-5.2,5.2-5.2c2.9,0,5.2,2.3,5.2,5.2C82.2,26.3,79.8,28.6,76.9,28.6z M76.9,22.3
	c-0.6,0-1.1,0.5-1.1,1.1s0.5,1.1,1.1,1.1c0.6,0,1.1-0.5,1.1-1.1S77.5,22.3,76.9,22.3z"/>
</svg>
