<svg xmlns="http://www.w3.org/2000/svg" xmlns:xlink="http://www.w3.org/1999/xlink" x="0px" y="0px" viewBox="0 0 120 120" style="enable-background:new 0 0 120 120;" xml:space="preserve"><path d="M88.7,55.7c-0.5-0.2-1-0.5-1.6-0.7c-0.9-16.8-10.3-26.4-25.9-26.5c-0.1,0-0.1,0-0.2,0 c-9.4,0-17.2,3.9-21.9,11.1l8.6,5.8c3.6-5.3,9.2-6.5,13.3-6.5c0.1,0,0.1,0,0.1,0c5.2,0,9,1.5,11.6,4.4c1.8,2.1,3.1,5,3.7,8.6 c-4.6-0.8-9.5-1-14.8-0.7c-14.9,0.8-24.5,9.4-23.8,21.2c0.3,6,3.4,11.2,8.6,14.6c4.4,2.9,10.1,4.3,16,3.9c7.8-0.4,13.9-3.3,18.2-8.7 c3.2-4.1,5.3-9.3,6.2-15.9c3.7,2.2,6.5,5.1,8,8.6c2.6,5.9,2.7,15.6-5.3,23.6c-7.1,7-15.6,10-28.4,10c-14.3-0.1-25-4.6-32.1-13.4 C22.3,87,18.9,75.1,18.8,60c0.1-15.2,3.5-27,10.1-35.2c7-8.8,17.8-13.3,32.1-13.4c14.4,0.1,25.3,4.6,32.6,13.4 c3.6,4.3,6.3,9.7,8,16.1l10.1-2.6c-2.1-7.8-5.5-14.5-10.1-20.1C92.2,6.9,78.5,1.1,60.9,1h-0.1c-17.5,0.1-31,5.9-40.1,17.3 C12.7,28.3,8.5,42.4,8.4,60v0v0c0.1,17.6,4.3,31.6,12.4,41.7c9.1,11.3,22.6,17.1,40.1,17.3h0.1c15.6-0.1,26.6-4.1,35.7-13 c11.9-11.6,11.5-26.2,7.6-35.2C101.4,64.4,96,59.1,88.7,55.7L88.7,55.7z M61.8,80.6c-6.5,0.4-13.3-2.5-13.6-8.7 c-0.2-4.6,3.3-9.7,14-10.3c1.2-0.1,2.4-0.1,3.6-0.1c3.9,0,7.5,0.4,10.9,1.1C75.4,77.8,68.2,80.3,61.8,80.6L61.8,80.6z"></path></svg>