<svg xmlns="http://www.w3.org/2000/svg" xmlns:xlink="http://www.w3.org/1999/xlink" x="0px" y="0px" viewBox="0 0 120 120" style="enable-background:new 0 0 120 120;" xml:space="preserve"><path d="M84.9,1H35.1C16.3,1,1,16.3,1,35.1v49.9C1,103.7,16.3,119,35.1,119h49.9c18.8,0,34.1-15.3,34.1-34.1V35.1 C119,16.3,103.8,1,84.9,1z M108.1,85.8c0,12.5-10.1,22.6-22.6,22.6h-51c-12.5,0-22.6-10.1-22.6-22.6v-51c0-12.5,10.1-22.6,22.6-22.6 h51c12.5,0,22.6,10.1,22.6,22.6V85.8z"></path><path d="M58,28.5c-16.3,0-29.5,13.2-29.5,29.5S41.7,87.5,58,87.5S87.5,74.3,87.5,58S74.3,28.5,58,28.5z M58,77.2 c-10.6,0-19.1-8.6-19.1-19.1S47.5,38.9,58,38.9S77.2,47.5,77.2,58S68.6,77.2,58,77.2z"></path><path d="M87.5,20.7c-4.3,0-7.9,3.5-7.9,7.9s3.5,7.9,7.9,7.9s7.9-3.5,7.9-7.9S91.9,20.7,87.5,20.7z"></path></svg>