<svg xmlns="http://www.w3.org/2000/svg" xmlns:xlink="http://www.w3.org/1999/xlink" x="0px" y="0px"
	 viewBox="0 0 100 100" style="enable-background:new 0 0 100 100;" xml:space="preserve">
<path d="M95.5,99H77.7c-2,0-3.6-1.6-3.6-3.6V60.5c0-4.1-3.4-7.5-7.5-7.5c-4.1,0-7.5,3.4-7.5,7.5v34.9c0,2-1.6,3.6-3.6,3.6H37.4
	c-2,0-3.6-1.6-3.6-3.6V35c0-2,1.6-3.6,3.6-3.6h16.8c2,0,3.6,1.6,3.6,3.6l0,0.2c6.6-5.2,16-7.1,24.5-4.5
	c10.5,3.2,16.8,12.5,16.8,24.8v39.9C99.1,97.4,97.5,99,95.5,99z M80.1,93h12.9V55.5c0-9.7-4.6-16.6-12.6-19.1
	c-8.4-2.6-18.1,0.6-22.7,7.4c-0.8,1.2-2.3,1.7-3.7,1.3c-1.4-0.4-2.3-1.7-2.3-3.1l0-4.6H39.8V93h13.3V60.5c0-7.5,6.1-13.5,13.5-13.5
	c7.5,0,13.5,6.1,13.5,13.5V93z"/>
<path d="M24.1,99H6.1c-2,0-3.6-1.6-3.6-3.6V34.9c0-2,1.6-3.6,3.6-3.6h18.1c2,0,3.6,1.6,3.6,3.6v60.5C27.7,97.4,26.1,99,24.1,99z
	 M8.5,93h13.2V37.4H8.5V93z"/>
<path d="M15.1,29.4C7.3,29.4,0.9,23,0.9,15.2S7.3,1,15.1,1s14.2,6.4,14.2,14.2S22.9,29.4,15.1,29.4z M15.1,7c-4.5,0-8.2,3.7-8.2,8.2
	s3.7,8.2,8.2,8.2s8.2-3.7,8.2-8.2S19.6,7,15.1,7z"/>
</svg>
