<svg xmlns="http://www.w3.org/2000/svg" xmlns:xlink="http://www.w3.org/1999/xlink" x="0px" y="0px"
	 viewBox="0 0 100 100" style="enable-background:new 0 0 100 100;" xml:space="preserve">
<path d="M30.1,99c-0.3,0-0.6,0-0.8-0.1c-1.1-0.3-2-1.2-2.2-2.4c-1.2-6-1.2-12.6-0.1-19.8c0.1-0.5,0.2-1,0.3-1.5l6.7-28.6
	c-2.8-7-1.9-15.2,2.2-20.4c2.7-3.5,6.5-5.1,10.7-4.5c2.4,0.4,4.5,1.4,5.8,3.1c4.3,5.3,1.6,13.9-1,22.3c-0.5,1.5-0.9,3-1.3,4.4
	c-0.9,3.5,1,5.8,3.2,6.8c2.9,1.3,7.6,1,11.5-4.5c4.6-7,7.7-19.3,4-28.2c-2.1-5.2-6.2-8.4-12.1-9.7c-8.6-1.6-16.5,0.2-22.3,5.3
	c-5.1,4.5-7.8,11-7.4,17.9c0.5,4.3,1.7,6.5,3.5,8.6c1,1.2,1.4,2.8,0.9,4.4l-1.5,5.1c-0.4,1.2-1.2,2.1-2.3,2.6
	c-1.1,0.5-2.3,0.5-3.4,0.1c-4.6-1.9-8-5.3-10.3-10.1c-0.7-1.4-1.3-3.6-1.6-5c-2.2-10.7,0.2-21.1,6.7-29.2C26.4,6.5,38.3,1.2,51.6,1
	c6-0.1,11.6,1,16.7,3.2c17.1,7.3,23.9,24.3,18.1,45.6c-3.4,11.9-12.8,21-24.1,23.1c-6.4,1.2-12.3-0.1-16.7-3.7l-2.5,9.6
	c-0.1,0.5-0.3,1.1-0.5,1.6c-2.3,6.6-5.7,12.5-10.2,17.6C31.8,98.6,31,99,30.1,99z M45.1,26.7c-2.4,0-4,1.4-5,2.6
	c-2.9,3.7-3.6,10.2-1.5,15.5c0.4,0.9,0.4,1.9,0.2,2.8l-6.7,28.7c-0.1,0.4-0.2,0.7-0.2,1.1c-0.7,4.8-0.9,9.4-0.5,13.5
	c2.7-3.7,4.8-7.8,6.4-12.3c0.1-0.4,0.3-0.8,0.4-1.2l3.5-13.7c0.3-1,1.1-1.8,2.1-2c1-0.2,2.1,0.2,2.7,1c3.3,4.3,8.7,6.2,14.8,5
	c7.7-1.4,16.9-8,20.1-19.5C86.6,29.6,81,15.2,66.3,8.9C61.8,7,56.9,6,51.6,6.1c-11.8,0.2-22.2,4.8-28.6,12.7
	c-5.5,6.8-7.5,15.7-5.7,24.9c0.2,1.2,0.8,2.9,1.2,3.8c1.6,3.3,3.8,5.6,6.7,7.1l1.2-3.9c-2.7-3.3-4.1-6.5-4.5-11.2l0-0.1
	c-0.5-8.5,2.8-16.5,9.2-22.1c6.9-6.1,16.6-8.4,26.7-6.5c7.6,1.6,13.1,6,15.8,12.8c4.4,10.7,1,24.7-4.5,33.1
	c-5.4,7.6-12.8,8.6-17.8,6.2c-4.9-2.3-7.3-7.4-5.9-12.8c0.4-1.5,0.9-3,1.4-4.6c2-6.4,4.5-14.4,1.9-17.5c-0.7-0.8-1.8-1.1-2.6-1.3
	C45.7,26.7,45.4,26.7,45.1,26.7z"/>
</svg>
