<svg xmlns="http://www.w3.org/2000/svg" x="0px" y="0px" viewBox="0 0 78 83" style="enable-background:new 0 0 78 83;" xml:space="preserve">
	<style> .wdt-hands{stroke-width: 1.5px; stroke: currentColor;}</style>
	<path class='wdt-hands' d="M10.7,55.5C10.7,55.5,10.7,55.5,10.7,55.5l8.2-18c0,0,0,0,0-0.1l0.8-1.7l-7.6-3.4l-9.5,21l7.6,3.4L10.7,55.5L10.7,55.5z
	 M47.5,37c0.4-0.6,0.9-1.2,1.3-1.8l0,0c0.5-0.8,0.9-1.6,1.4-2.4c1.3-2.7,2.3-5.7,3-9c0.6-3.1,0.9-6.4,0.8-9.9
	c-1.4,0-2.9-0.1-4.4-0.3c-1.6-0.3-3.2-0.7-4.7-1.3c-1.3-0.5-2.5-1.2-3.7-2c-0.9-0.6-1.7-1.4-2.4-2.2c-0.7,0.8-1.6,1.6-2.4,2.2
	c-1.2,0.8-2.4,1.5-3.7,2c-1.5,0.6-3.1,1-4.7,1.3c-1.5,0.2-3,0.3-4.4,0.3c0,3.4,0.2,6.7,0.8,9.9c0.6,3.3,1.6,6.3,3,9
	c0.4,0.9,0.9,1.7,1.4,2.5c0.4,0.6,0.8,1.3,1.3,1.9l3.3-1v0l0,0c0.8-0.2,1.2-0.3,1.7-0.3c0.5,0,1,0.1,1.7,0.4c0,0,0,0,0.1,0l1.9,0.9
	l0.4-0.2c0.4-0.1,0.6-0.2,0.7-0.3c2.9-1.1,3-1,6.1-0.1l0.7,0.2C47,36.8,47.3,36.9,47.5,37L47.5,37z M28.8,37.5
	c-0.4-0.5-0.7-1-1.1-1.6c-0.5-0.8-1-1.7-1.5-2.6c-1.4-2.8-2.4-6-3.1-9.3c-0.7-3.4-0.9-7.1-0.9-10.8l0-0.7l0.7,0
	c1.5,0.1,3.1,0,4.8-0.3c1.5-0.2,2.9-0.6,4.4-1.2c1.2-0.5,2.3-1.1,3.4-1.9c1-0.7,1.9-1.6,2.7-2.6L38.8,6l0.5,0.6
	c0.8,1,1.7,1.9,2.7,2.6c1.1,0.8,2.2,1.4,3.4,1.9c1.4,0.6,2.9,1,4.4,1.2c1.7,0.3,3.3,0.3,4.8,0.3l0.7,0l0,0.7
	c0.1,3.8-0.2,7.4-0.9,10.8c-0.7,3.4-1.7,6.5-3.1,9.3c-0.4,0.9-0.9,1.7-1.4,2.5v0c-0.3,0.5-0.6,1-1,1.5c0.4,0.1,0.9,0.2,1.3,0.3
	c1,0.2,2,0.4,3.1,0.5c1.1,0.1-0.3,0,0.5,0.1c1.1,0.1,1.6,0.2,2,0.1c0.4-0.1,0.8-0.3,1.5-0.7l0.3-0.2l-0.8-1.8c0,0,0,0,0-0.1
	c-0.1-0.3,0-0.7,0.3-0.9l8.8-4l0,0c0.3-0.1,0.7,0,0.9,0.3l10.1,22.2c0,0,0,0,0,0.1c0.1,0.3,0,0.7-0.3,0.9l-8.8,4v0
	c-0.3,0.1-0.7,0-0.9-0.3l-0.5-1.2l-5.5,3c0.3,0.6,0.4,1.3,0.3,1.9c-0.1,0.9-0.5,1.7-1.1,2.4c-1.1,1.1-2.3,1.3-3.4,1.1
	c-0.3-0.1-0.6-0.2-0.8-0.3c0,0.1,0,0.2,0,0.3c0,1-0.4,1.9-1.1,2.7c-0.8,0.8-1.8,1.2-2.8,1.1c-0.3,0-0.6-0.1-0.8-0.1
	c0,0.2,0,0.4,0,0.6c0,1-0.4,2-1.1,2.8c-0.8,0.8-1.7,1.1-2.7,1.1c-0.5,0-0.9-0.1-1.4-0.3c0,0.1,0,0.2,0,0.3c0,1-0.4,1.9-1.1,2.6
	C44,76.7,43,77,42,77c-1,0-2-0.4-2.7-1.2l-0.2-0.2l-0.2,0.2c-0.8,0.8-1.7,1.1-2.7,1.1s-2-0.4-2.7-1.1c-0.7-0.7-1.1-1.7-1.1-2.7
	c-0.6,0.4-1.3,0.5-2,0.5c-1,0-2-0.4-2.7-1.1c-0.7-0.8-1.1-1.8-1.1-2.8c0-0.2,0-0.4,0-0.6c-0.3,0.1-0.6,0.1-0.9,0.1
	c-1,0-1.9-0.4-2.7-1.1c0,0,0,0,0,0v0c-0.7-0.8-1.1-1.8-1.1-2.8c0-0.1,0-0.2,0-0.3c-0.4,0.1-0.9,0.2-1.3,0.2v0c-1,0-2-0.4-2.7-1.1
	c-0.7-0.7-1-1.5-1.1-2.4v0c-0.1-0.7,0-1.3,0.3-1.9l-5.4-3.1l-0.5,1.1l0,0c-0.1,0.3-0.5,0.5-0.9,0.3l-8.8-4l0,0l0,0
	c-0.3-0.2-0.5-0.5-0.3-0.9l10.1-22.2l0,0c0.1-0.3,0.5-0.5,0.9-0.3l8.8,4v0l0,0c0.3,0.2,0.5,0.5,0.3,0.9l-0.8,1.8l0.9,0.5
	c0,0,0,0,0,0c0,0,0.2,0.1,0.3,0.2c0.4,0.2,0.5,0.3,1.3,0.2l3.4-0.4c0.6-0.1,1-0.1,1.5-0.2C28.1,37.7,28.4,37.6,28.8,37.5L28.8,37.5z
	 M12.2,55.5l5.5,3.2c0,0,0.1-0.1,0.1-0.1l3.8-3.9c0.8-0.8,1.7-1.1,2.7-1.1s2,0.4,2.7,1.1c0.7,0.8,1.1,1.8,1.1,2.8c0,0.1,0,0.2,0,0.3
	c0.4-0.2,0.9-0.2,1.3-0.2c1,0,2,0.4,2.7,1.1c0.7,0.8,1.1,1.8,1.1,2.8c0,0.2,0,0.4,0,0.6c0.3-0.1,0.6-0.1,0.9-0.1c1,0,2,0.4,2.7,1.1
	c0.7,0.8,1.1,1.8,1.1,2.8c0,0.1,0,0.2,0,0.3c0.4-0.1,0.8-0.2,1.2-0.2c1,0,2,0.4,2.7,1.1c0.2,0.2,0.4,0.4,0.5,0.7
	c0.1,0.2,0.2,0.4,0.3,0.6l2,2l0,0c0,0,0.1,0.1,0.1,0.1l0.6,0.6c0.5,0.5,1.1,0.8,1.8,0.8c0.6,0,1.3-0.2,1.8-0.7
	c0.5-0.5,0.7-1.1,0.7-1.8c0-0.7-0.2-1.3-0.7-1.8l-3.6-3.6c-0.3-0.3-0.3-0.7,0-0.9c0.3-0.3,0.7-0.3,0.9,0l3.7,3.6
	c0.6,0.6,1.3,0.9,1.9,0.9c0.6,0,1.3-0.2,1.8-0.7c0.5-0.5,0.7-1.1,0.7-1.8c0-0.6-0.2-1.3-0.6-1.8l-3.7-3.7c-0.3-0.3-0.3-0.7,0-0.9
	c0.3-0.3,0.7-0.3,0.9,0l3.7,3.7c0.7,0.7,1.4,1.3,2.2,1.4h0c0.7,0.2,1.4,0,2.1-0.7c0.4-0.4,0.7-1,0.7-1.6c0.1-0.6-0.1-1.2-0.4-1.7
	c-2.5-2.6-5.4-5.1-8.3-7.4c-2.9-2.2-5.9-4.2-8.9-5.8c-0.5-0.3-0.8-0.5-1.1-0.6c-0.2-0.1-0.3-0.2-0.4-0.2c-0.1,0-0.4,0.1-1.1,0.4
	l-0.1,0c-1.5,0.6-1.8,1.2-2.3,2.4c-0.2,0.4-0.4,0.8-0.6,1.4c-0.2,0.4-0.4,0.8-0.7,1.1c-0.8,1-1.8,1.8-2.9,2.2
	c-1.1,0.4-2.4,0.3-3.5-0.3c-0.3-0.1-0.5-0.3-0.8-0.5c0,0,0,0,0,0c-0.5-0.5-0.7-1-0.7-1.7c0-0.6,0.1-1.2,0.3-1.9l0.2-1.1
	c0.9-3.9,1.3-5.8,2.4-7.1c1-1.2,2.5-1.7,5.4-2.7l0.7-0.2l-0.7-0.3c-0.5-0.2-0.8-0.3-1.2-0.3c-0.4,0-0.8,0.1-1.4,0.3l-4.2,1.3
	c-0.6,0.2-1.1,0.3-1.6,0.4c-0.5,0.1-1,0.2-1.6,0.3l-3.4,0.4c-1.2,0.1-1.4,0-2.1-0.4c0,0-0.1-0.1-0.3-0.2c0,0,0,0,0,0l-0.9-0.5
	L12.2,55.5L12.2,55.5z M18.4,59.9C18.4,60,18.4,60,18.4,59.9c-0.3,0.5-0.5,1.1-0.4,1.7c0.1,0.6,0.3,1.1,0.7,1.6
	c0.5,0.5,1.1,0.7,1.8,0.7v0c0.6,0,1.3-0.3,1.8-0.8l3.9-4c0.5-0.5,0.7-1.1,0.7-1.8c0-0.7-0.2-1.3-0.7-1.8c-0.5-0.5-1.1-0.7-1.8-0.7
	c-0.6,0-1.3,0.2-1.8,0.7l-3.8,3.9c-0.1,0.1-0.1,0.1-0.2,0.2C18.5,59.8,18.5,59.9,18.4,59.9L18.4,59.9z M27.7,59.6l-3.9,4
	c-0.5,0.5-0.7,1.1-0.7,1.8c0,0.7,0.2,1.3,0.7,1.8c0,0,0,0,0,0c0.5,0.5,1.1,0.7,1.8,0.7c0.6,0,1.3-0.3,1.8-0.7l0.2-0.2c0,0,0,0,0,0
	c1.6-1.6,0.9-0.9,1.8-1.8l1.8-1.8c0.5-0.5,0.7-1.2,0.7-1.8c0-0.7-0.2-1.3-0.7-1.8c-0.5-0.5-1.1-0.7-1.8-0.7S28.2,59.1,27.7,59.6
	L27.7,59.6z M32.2,64.2l-1.8,1.9c-2.1,2.1-1.5,1.5-1.8,1.8c0,0,0,0,0,0L28.5,68c-0.4,0.5-0.7,1.1-0.7,1.8c0,0.7,0.2,1.3,0.7,1.8
	c0.5,0.5,1.1,0.7,1.8,0.7c0.6,0,1.3-0.2,1.8-0.7l3.9-4c0.4-0.5,0.7-1.1,0.7-1.7c0-0.6-0.2-1.3-0.7-1.8c-0.5-0.5-1.1-0.7-1.8-0.7
	s-1.3,0.3-1.8,0.7c0,0,0,0,0,0L32.2,64.2L32.2,64.2z M37.5,68.1l-3.1,3.2c-0.5,0.5-0.7,1.1-0.7,1.8c0,0.7,0.2,1.3,0.7,1.8
	c0.5,0.5,1.1,0.7,1.8,0.7c0.7,0,1.3-0.3,1.8-0.7l3.1-3.1c0.4-0.4,0.6-0.8,0.7-1.3c0.1-0.5,0.1-1-0.1-1.5c-0.1-0.2-0.1-0.3-0.2-0.5
	c-0.1-0.1-0.2-0.3-0.3-0.4c-0.5-0.5-1.1-0.7-1.8-0.7C38.6,67.3,38,67.6,37.5,68.1L37.5,68.1z M43.9,71.3l-0.8-0.8c0,0.1,0,0.1,0,0.2
	c-0.2,0.7-0.5,1.4-1,1.9l-2,2l0.2,0.2c0.5,0.5,1.2,0.8,1.8,0.8c0.6,0,1.3-0.2,1.8-0.7c0.5-0.5,0.7-1.1,0.8-1.7
	c0-0.6-0.2-1.3-0.6-1.8C44,71.5,43.9,71.4,43.9,71.3C43.9,71.4,43.9,71.4,43.9,71.3z M51.9,51.4c2.9,2.2,5.7,4.7,8.2,7.2l5.7-3.1
	l-7.6-16.8L58,38.8c-0.9,0.5-1.3,0.7-1.9,0.9c-0.6,0.1-1.2,0-2.4-0.1c-0.4-0.1,1,0.1-0.5-0.1c-1.1-0.1-2.1-0.3-3.2-0.5
	c-1.1-0.2-2.2-0.5-3.5-0.9c-0.5-0.1-0.6-0.2-0.7-0.2c-2.6-0.8-2.8-0.8-5.2,0.1c-0.4,0.2-0.6,0.2-0.8,0.3L39,38.5
	c-0.9,0.3-1.6,0.6-2.2,0.8c-2.6,0.9-4,1.4-4.8,2.3c-0.9,1-1.3,2.8-2.1,6.5l-0.2,1.1c-0.1,0.6-0.2,1.2-0.2,1.6c0,0.3,0.1,0.5,0.3,0.7
	c0.2,0.1,0.4,0.3,0.5,0.3c0.8,0.4,1.7,0.5,2.5,0.2h0c0.8-0.3,1.6-0.9,2.2-1.7c0.2-0.3,0.4-0.6,0.6-0.9c0.2-0.5,0.4-0.9,0.6-1.3
	c0.7-1.5,1-2.3,3-3.1l0.1,0c0.9-0.4,1.3-0.5,1.8-0.5c0.3,0,0.5,0.2,0.9,0.4c0.2,0.1,0.5,0.3,1,0.6C45.9,47.1,49,49.1,51.9,51.4
	L51.9,51.4z M67.3,55.5l0.5,1.2l7.6-3.4l-9.5-21l-7.6,3.4L67.3,55.5C67.3,55.5,67.3,55.5,67.3,55.5z M32.4,23.7l4.1,4.1l8.6-8.8
	l2.4,2.4l-11,11.2L30,26.1L32.4,23.7L32.4,23.7z"/>
</svg>
