
<svg  xmlns="http://www.w3.org/2000/svg" x="0px" y="0px"
	 viewBox="0 0 55 53" style="enable-background:new 0 0 55 53;" xml:space="preserve">
<g>
	<g>
		<g class="wdt-cus-telephone">
			<path  d="M19.3,46c18.5,13.1,30.5,4.5,33.3-3.4c0.6-1.7-0.4-3.4-2.1-3.8c-3.3-0.8-6.8-2.7-9.8-4
				c-1.4-0.6-3.1,0-3.8,1.4L34.6,40c-0.5,1-1.7,1.6-2.8,1.2c-2.7-0.8-6.6-2.8-12-8.2c-5.4-5.4-7.3-9.4-8.2-12
				c-0.3-1.1,0.2-2.3,1.2-2.8l3.8-2.2c1.4-0.7,2-2.4,1.4-3.8c-1.4-3.1-3.3-6.5-4-9.8c-0.4-1.7-2.2-2.7-3.8-2.1
				C2.3,3-6.3,15,6.8,33.5C10.2,38.4,14.5,42.6,19.3,46L19.3,46z"/>
		</g>
	</g>
	<g>
		<g>
			<path d="M28,26.2c-0.2,0-0.5,0-0.7-0.1c-0.7-0.3-1.1-0.9-1.1-1.6L26.1,7.9c0-1.5,0.6-2.8,1.6-3.9c1-1,2.4-1.6,3.8-1.6H49
				c3,0,5.4,2.4,5.4,5.4v7.8c0,3-2.4,5.4-5.4,5.4H34.2l-5,4.7C28.9,26.1,28.4,26.2,28,26.2z M31.5,4.4c-0.9,0-1.8,0.4-2.4,1
				c-0.6,0.7-1,1.5-1,2.4L28.2,24l4.9-4.7c0.2-0.2,0.4-0.3,0.7-0.3H49c1.9,0,3.4-1.5,3.4-3.4V7.8c0-1.9-1.5-3.4-3.4-3.4H31.5z"/>
		</g>
		<g>
			<path d="M42.2,12.2c0.4-1-0.1-2.2-1.1-2.7s-2.2,0.1-2.7,1.1c-0.4,1,0.1,2.2,1.1,2.7C40.5,13.7,41.7,13.2,42.2,12.2z"/>
		</g>
		<g>
			<path d="M34.4,12.2c0.4-1-0.1-2.2-1.1-2.7c-1-0.4-2.2,0.1-2.7,1.1c-0.4,1,0.1,2.2,1.1,2.7S34,13.2,34.4,12.2z"/>
		</g>
		<g>
			<path d="M48.5,13.4c1.1-0.3,1.8-1.4,1.5-2.4c-0.3-1.1-1.4-1.8-2.4-1.5c-1.1,0.3-1.8,1.4-1.5,2.4C46.3,13,47.4,13.6,48.5,13.4z"/>
		</g>
	</g>
</g>
</svg>
