<svg xmlns="http://www.w3.org/2000/svg" xmlns:xlink="http://www.w3.org/1999/xlink" x="0px" y="0px"
	 viewBox="0 0 100 100" style="enable-background:new 0 0 100 100;" xml:space="preserve">
<path d="M50.1,84.8c-17.2,0-27.6-0.7-32.2-1C8.7,82.9,3.2,77.9,2.1,69.3C1.8,67,1.4,62.7,1.2,56.6c-0.2-4.3-0.2-8.8,0-13.1
	C1.4,37.3,1.8,33,2.1,30.7c1.1-8.6,6.6-13.6,15.7-14.4c4.7-0.4,15.1-1.1,32.2-1.1c17.2,0,27.6,0.7,32.2,1
	c9.2,0.8,14.6,5.8,15.7,14.5c0.3,2.3,0.7,6.5,0.9,12.7l0,0c0.2,4.3,0.2,8.8,0,13.1c-0.3,6.2-0.6,10.4-0.9,12.7
	c-1.1,8.6-6.6,13.6-15.7,14.4C77.5,84.1,67.1,84.8,50.1,84.8z M50.1,20.9c-17,0-27.2,0.6-31.8,1c-6.5,0.6-9.7,3.5-10.5,9.5
	c-0.3,2.1-0.6,6.3-0.9,12.2c-0.2,4.2-0.2,8.4,0,12.6c0.3,5.9,0.6,10.1,0.9,12.2c0.8,6,4,9,10.5,9.6c4.6,0.4,14.8,1,31.6,1h0.1
	c16.8,0,27-0.6,31.6-1c6.5-0.6,9.7-3.5,10.5-9.5c0.3-2.1,0.6-6.3,0.9-12.2c0.2-4.2,0.2-8.4,0-12.6c-0.3-5.9-0.6-10.1-0.9-12.2
	c-0.8-6-4-9-10.5-9.6C77.1,21.6,66.9,20.9,50.1,20.9z"/>
<path d="M40.4,68.9c-0.5,0-1.1-0.1-1.6-0.4c-1.1-0.6-1.7-1.7-1.7-2.9V34.4c0-1.2,0.7-2.3,1.7-2.9c1-0.6,2.3-0.5,3.3,0.1l24.4,15.6
	c0.9,0.6,1.5,1.6,1.5,2.8c0,1.1-0.6,2.2-1.5,2.8L42.1,68.4C41.6,68.7,41,68.9,40.4,68.9z M39,63.5C39,63.5,39,63.5,39,63.5L39,63.5z
	 M42.8,38.8v22.3L60.2,50L42.8,38.8z M63.4,47.9C63.4,47.9,63.4,47.9,63.4,47.9L63.4,47.9z"/>
</svg>
