<svg xmlns="http://www.w3.org/2000/svg" xmlns:xlink="http://www.w3.org/1999/xlink" x="0px" y="0px" viewBox="0 0 100 100" style="enable-background:new 0 0 100 100;" xml:space="preserve">	<g>		<g>			<path d="M50.1,34.7c6.4,0,12.2,2.6,16.4,6.8c4.2,4.2,6.8,10,6.8,16.4c0,6.4-2.6,12.2-6.8,16.4c-4.2,4.2-10,6.8-16.4,6.8   s-12.2-2.6-16.4-6.8c-4.2-4.2-6.8-10-6.8-16.4c0-6.4,2.6-12.2,6.8-16.4C37.9,37.3,43.7,34.7,50.1,34.7z M30.8,12.2   c2.8,0,5,2.3,5,5c0,2.8-2.3,5-5,5s-5-2.3-5-5C25.8,14.4,28.1,12.2,30.8,12.2z M57.9,15.8c0.9,0,1.6,0.7,1.6,1.6   c0,0.9-0.7,1.6-1.6,1.6c-0.9,0-1.6-0.7-1.6-1.6C56.3,16.5,57,15.8,57.9,15.8z M64.9,15.8c0.9,0,1.6,0.7,1.6,1.6   c0,0.9-0.7,1.6-1.6,1.6c-0.9,0-1.6-0.7-1.6-1.6C63.3,16.5,64,15.8,64.9,15.8z M72,15.8c0.9,0,1.6,0.7,1.6,1.6   c0,0.9-0.7,1.6-1.6,1.6c-0.9,0-1.6-0.7-1.6-1.6C70.4,16.5,71.1,15.8,72,15.8z M17.7,25.8H82V9.4c0-0.3-0.1-0.6-0.4-0.8   c-0.2-0.2-0.5-0.4-0.8-0.4H18.9c-0.3,0-0.6,0.1-0.8,0.4c-0.2,0.2-0.4,0.5-0.4,0.8V25.8z M85.3,26.6c0.2,0.2,0.2,0.5,0.2,0.9   c0,0.3-0.1,0.6-0.2,0.9v62.3c0,1.2-0.5,2.3-1.3,3.1S82.1,95,80.8,95H18.9c-1.2,0-2.3-0.5-3.1-1.3c-0.8-0.8-1.3-1.9-1.3-3.1V9.4   c0-1.2,0.5-2.3,1.3-3.1C16.6,5.5,17.7,5,18.9,5h61.9c1.2,0,2.3,0.5,3.1,1.3c0.8,0.8,1.3,1.9,1.3,3.1V26.6z M82,29.1H17.7v61.5   c0,0.3,0.1,0.6,0.4,0.8c0.2,0.2,0.5,0.4,0.8,0.4h61.9c0.3,0,0.6-0.1,0.8-0.4c0.2-0.2,0.4-0.5,0.4-0.8V29.1z M31.7,59.4   c-0.7-0.4-1-1.2-0.7-1.9c0.4-0.7,1.2-1,1.9-0.7c0.3,0.2,0.8,0.4,1.3,0.7c2.7,1.4,6.1,3.2,9,1.7c9.5-5.1,10.7-3.7,12.5-1.5   c0.7,0.8,1.5,1.8,4,2.1c0.7,0.1,1.6-0.1,2.8-0.5c1.3-0.5,2.9-1.3,4.8-2.4c0.7-0.4,1.6-0.2,2,0.5c0.4,0.7,0.2,1.6-0.5,2   c-2,1.2-3.8,2.1-5.2,2.6c-1.6,0.6-3,0.9-4.2,0.7c-3.6-0.4-4.9-1.9-5.9-3.1c-0.9-1.1-1.5-1.8-8.9,2.2c-4.2,2.2-8.3,0.1-11.7-1.7   C32.5,59.8,32.2,59.6,31.7,59.4z M64.5,43.6c-3.7-3.7-8.8-6-14.4-6c-5.6,0-10.7,2.3-14.4,6c-3.7,3.7-6,8.8-6,14.4   c0,5.6,2.3,10.7,6,14.4c3.7,3.7,8.8,6,14.4,6c5.6,0,10.7-2.3,14.4-6c3.7-3.7,6-8.8,6-14.4S68.2,47.3,64.5,43.6z"></path>		</g>	</g></svg>