<svg xmlns="http://www.w3.org/2000/svg" xmlns:xlink="http://www.w3.org/1999/xlink" x="0px" y="0px" viewBox="0 0 215 65" style="enable-background:new 0 0 215 65;" xml:space="preserve">	<style type="text/css">	path{fill:currentColor}	.band-02{fill:#FFB200;}	</style>	<g>		<path d="M92.3,15.5H66.8v6.2h25.6V15.5z"></path>		<path d="M88.4,29.6H66.8v6.2h21.7V29.6z"></path>		<path d="M92.3,43.9H66.8v6.2h25.6V43.9z"></path>		<path d="M46,50.1V21.7h-7.6v-6.2H61v6.2h-7.6v28.4H46z"></path>		<path d="M115.7,50.1l-10.2-16.2v16.2h-7.4V15.5h13.5c2.3,0,5.6,0.3,8,2.9c1.7,1.8,2.8,4.7,2.8,7.6s-0.9,5.3-2.5,6.9  c-1.1,1.1-2.7,1.9-4.4,2.3l-1.4,0.3l10.9,14.6H115.7z M105.5,31.8h2.7c1.6,0,3.8-0.5,5.1-1.7c0.9-0.9,1.4-2.4,1.4-3.7  s-0.6-2.8-1.5-3.7c-1-1.1-2.8-1.7-5-1.7h-2.7V31.8z"></path>		<path d="M130.4,50.2V15.4h20v5.4h-13.3V30h12.7v5.4h-12.7v9.4h13.3v5.4H130.4z"></path>		<path d="M186.9,49.8c-4.7,0-9.1-1.8-12.1-4.9c-3-3.1-4.8-7.6-4.8-12.3s1.7-9.1,4.8-12.3c3-3.1,7.4-4.9,12.1-4.9  c4.7,0,9.1,1.8,12.1,4.9c3,3.1,4.8,7.6,4.8,12.3s-1.7,9.2-4.8,12.3C195.9,48,191.5,49.8,186.9,49.8L186.9,49.8z M186.9,21.8  c-3,0-5.5,1.1-7.4,3.1c-1.9,2-3,4.8-3,7.7s1.1,5.7,3,7.7c1.9,2,4.7,3.2,7.4,3.2c2.9,0,5.6-1.2,7.5-3.2c1.9-2,2.9-4.8,2.9-7.8  c0-3.8-1.9-6.3-3-7.5C192.3,22.9,189.8,21.8,186.9,21.8L186.9,21.8z"></path>		<path d="M22.4,50.9c-1.9,0-4-0.1-6.7-1.1c-0.7-0.3-2.4-1-4.5-2.3l3-5.9c1.6,1.3,4.4,3.2,7.9,3.2c2.5,0,3.7-1,4.2-1.6  c0.7-0.7,1.1-1.8,1.1-2.9c0-1.1-0.5-2.1-1.3-2.9c-1-0.9-2.3-1.3-4.4-1.9l-2.9-0.9c-1.5-0.5-3.5-1.3-4.7-2.7c-1.6-1.8-1.8-4-1.8-5.8  c0-3.4,1-6.1,3-8.1c2-2,5-3.2,8.4-3.2c3,0,6.6,0.9,9.7,2.4l-2.8,5.6c-2.5-1.8-4.5-2-5.7-2c-0.8,0-2.4,0.2-3.6,1.3  c-0.5,0.5-1.2,1.4-1.2,2.6c0,0.9,0.2,1.6,0.7,2.2c0.4,0.6,1.2,1.3,3.5,2l2.8,0.9c2.3,0.7,4.4,1.5,6,3.3c1.5,1.6,2,3.3,2,5.9  c0,3.6-1,6.4-3.1,8.5C29.3,50.5,25.6,50.9,22.4,50.9L22.4,50.9z"></path>		<path class="band-02" d="M170.5,17.3c-8.2,0-14.8,6.8-14.8,15.2s6.6,15.2,14.8,15.2s14.8-6.8,14.8-15.2S178.7,17.3,170.5,17.3z   M170.5,51c-9.9,0-18-8.3-18-18.5c0-10.2,8.1-18.5,18-18.5s18,8.3,18,18.5C188.5,42.7,180.4,51,170.5,51L170.5,51z"></path>		<path class="band-02" d="M170.5,23.8c-4.7,0-8.4,3.9-8.4,8.7c0,4.8,3.8,8.7,8.4,8.7c4.7,0,8.4-3.9,8.4-8.7  C179,27.7,175.2,23.8,170.5,23.8z M170.5,44.5c-6.4,0-11.6-5.4-11.6-12c0-6.6,5.2-12,11.6-12s11.6,5.4,11.6,12  C182.1,39.1,176.9,44.5,170.5,44.5z"></path>		<path class="band-02" d="M170.5,30.4c-1.1,0-2.1,1-2.1,2.1c0,1.2,0.9,2.1,2.1,2.1c1.1,0,2.1-1,2.1-2.1  C172.6,31.3,171.7,30.4,170.5,30.4z M170.5,37.9c-2.9,0-5.3-2.4-5.3-5.4c0-3,2.4-5.4,5.3-5.4s5.3,2.4,5.3,5.4  C175.8,35.5,173.4,37.9,170.5,37.9z"></path>	</g></svg>