<svg xmlns="http://www.w3.org/2000/svg" xmlns:xlink="http://www.w3.org/1999/xlink" x="0px" y="0px" viewBox="0 0 215 65" style="enable-background:new 0 0 215 65;" xml:space="preserve">	<style type="text/css">	path{fill:currentColor}	</style>	<g>		<path d="M79.9,17.7h30.2l-1.1,1.4H81.3l22.9,23.9v-5.6V36v-2.8l-6.7-7h12.9l14.9-15.5h-52v23.9h6.7V17.7z"></path>		<path d="M133.8,34.6V3.7l-27.2,28.4v2.5h7L127,20.5v14.1H133.8z"></path>		<path d="M161.7,17.7v-7h-26.6v23.9l6.7-7v-1.4h11.8L161.7,17.7L161.7,17.7z M150.9,19.1h-9.1v-1.4h10.4L150.9,19.1z"></path>		<path d="M42.2,34.6v25.3H49v-8.4l8.1,9.8l8.1-9.8v8.4h6.7V34.6L57,50.1L42.2,34.6z"></path>		<path d="M96.1,52.9H79.9V36h-6.7v23.9h29.6V44.1l-6.7-7V52.9z"></path>		<path d="M133.7,43.1v-7h-27.2V40l12.4,12.9h-14.8v7h30.9l-16.1-16.9H133.7z"></path>		<path d="M135.1,59.9h6.7V30l-6.7,7.1V59.9z"></path>		<path d="M169.6,52.9h-19.7V43h15.3l-3.1-7h-18.9v23.9h29.6L169.6,52.9z"></path>		<path d="M44.9,17.7H57v29.9l6.7-7V17.7h8.1v-7H51.6L44.9,17.7z"></path>	</g></svg>