<svg xmlns="http://www.w3.org/2000/svg" xmlns:xlink="http://www.w3.org/1999/xlink" x="0px" y="0px" viewBox="0 0 100 100" style="enable-background:new 0 0 100 100;" xml:space="preserve">	<g>		<g>			<path d="M55.7,50.9c-0.1,0-0.1-0.1-0.2-0.2c-0.1-0.1-0.1-0.1-0.2-0.2L39.2,34.4L23.9,49.8l4,2.8l4.1-0.9c0.4-0.1,0.9,0.1,1.2,0.5   l3.8,6.3l3.5-0.5c0.5-0.1,0.9,0.1,1.2,0.5l2.3,4c0.1,0.1,0.2,0.3,0.3,0.4l0.9,1.6L49,64c0.4-0.1,0.9,0.1,1.1,0.6l2.7,5   c0.1,0.1,0.2,0.1,0.3,0.2c0.2,0.2,0.3,0.5,0.3,0.8l4.1-0.7c0.5-0.1,0.9,0.1,1.2,0.6l3.2,6.2l4.2-0.8c0.5-0.1,1,0.2,1.2,0.6   l2.9,6.2l4.7-0.9c0.5-0.1,0.9,0.1,1.2,0.6l3.5,6.4l7-7L55.7,50.9z M64.4,7l6.1,6.1c0.2,0.2,0.2,0.5,0,0.7l-1,1l0,0   c0.1,0.1,0.1,0.1,0.2,0.2l7.7,10.8c1.7-0.1,3.2,0.2,4.6,0.8c2,0.8,3.7,2.2,5,4c1.3,1.7,2.1,3.8,2.3,6c0.2,1.7,0,3.5-0.7,5.2   l7.5,10.6c0.3,0.5,0.2,1.1-0.2,1.5l-2,1.7c-0.4,0.3-1,0.3-1.4,0L82.1,48c-2.1,1-4.3,1.3-6.5,1l-0.1,0l-9.3,9.3l22.7,22.7   c0.4,0.4,0.4,1.1,0,1.6l-8.8,8.8c-0.4,0.4-1.1,0.4-1.6,0c-0.1-0.1-0.2-0.2-0.2-0.3l-3.7-6.9L69.8,85c-0.5,0.1-1-0.2-1.2-0.6   l-2.9-6.2L61.6,79c-0.5,0.1-1-0.2-1.2-0.6l-3.2-6.1L53,72.9c-0.4,0.1-0.8-0.1-1-0.4L33.7,91c-2.3,2.4-5.1,2.6-7.4,1.6   c-0.9-0.4-1.7-0.9-2.4-1.6c-0.7-0.7-1.2-1.5-1.6-2.4c-1-2.3-0.8-5.1,1.6-7.5l17.9-18L40,60.2l-3.5,0.5c-0.5,0.1-0.9-0.2-1.1-0.6   l-3.7-6.2l-3.8,0.8c-0.3,0.1-0.7,0-0.9-0.2l-4.7-3.2L21.6,52c-0.4,0.4-0.8,0.5-1.3,0.5c-0.5,0-0.9-0.2-1.3-0.5L7.3,40.3   c-0.1,0-0.1-0.1-0.2-0.1L4,37c-0.4-0.4-0.4-1.1,0-1.6c0.4-0.4,1.1-0.4,1.6,0l2.3,2.3l19.3-19.3l-2.3-2.3c-0.4-0.4-0.4-1.1,0-1.6   c0.4-0.4,1.1-0.4,1.6,0l3,3c0,0,0.1,0,0.1,0.1l11.9,11.9c0.4,0.4,0.5,0.8,0.5,1.3c0,0.5-0.2,0.9-0.5,1.3l-0.7,0.7l15.6,15.6   l9.3-9.3c-0.1-0.7-0.1-1.5,0-2.3l-10.4-7.3c-0.1,0-0.1-0.1-0.2-0.2l-1.1,1.1c-0.2,0.2-0.5,0.2-0.7,0l-6.1-6.1   c-0.2-0.2-0.2-0.5,0-0.7L63.7,7C63.9,6.8,64.2,6.8,64.4,7z M28.7,20.1L9.5,39.3l10.8,10.8l19.3-19.3L28.7,20.1z M64.6,56.7   l8.3-8.4c-1.7-0.6-3.1-1.5-4.3-2.7c-1.1-1.1-2-2.5-2.5-4l-8.3,8.3L64.6,56.7z M50.9,70.5l-2.3-4.3l-3.9,0.6   c-0.5,0.1-0.9-0.2-1.1-0.5l-0.7-1.2L25.4,82.7c-1.6,1.6-1.8,3.5-1.1,5.1c0.3,0.6,0.7,1.2,1.1,1.7c0.5,0.5,1.1,0.9,1.7,1.1   c1.5,0.7,3.4,0.5,5-1.1L50.9,70.5z M68.6,17.3L57.5,28.4l9.9,6.9c0.3,0.2,0.5,0.6,0.5,1c-0.3,2.2,0.1,4.2,1,5.8   c0.7,1.3,1.8,2.4,3,3.1c1.2,0.8,2.6,1.3,4.1,1.5c1.9,0.3,4-0.1,5.8-1.1c0.4-0.2,0.8-0.2,1.2,0.1l10.3,7.5l0.6-0.5l-7.2-10.3   c-0.2-0.3-0.3-0.7-0.1-1c0.6-1.6,0.9-3.2,0.7-4.8c-0.2-1.8-0.8-3.5-1.9-5c-1-1.4-2.4-2.6-4-3.2c-1.3-0.5-2.7-0.8-4.2-0.6   c-0.4,0.1-0.8-0.1-1-0.5L68.6,17.3z"></path>		</g>	</g></svg>