
<svg version="1.1" xmlns="http://www.w3.org/2000/svg" xmlns:xlink="http://www.w3.org/1999/xlink" x="0px" y="0px"
	 viewBox="0 0 100 90" style="enable-background:new 0 0 100 90;" xml:space="preserve">
<path d="M92.9,9.5H7.1C3.2,9.5,0,12.7,0,16.6v56.8c0,3.9,3.2,7.1,7.1,7.1h85.7c3.9,0,7.1-3.2,7.1-7.1V16.6
	C100,12.7,96.8,9.5,92.9,9.5z M7.1,13h85.7c2,0,3.6,1.6,3.6,3.6v9H3.6v-9C3.6,14.6,5.2,13,7.1,13z M92.9,77H7.1
	c-2,0-3.6-1.6-3.6-3.6V29.2h92.9v44.2C96.4,75.4,94.8,77,92.9,77z"/>
<path d="M74.9,20.9c1.3,0,2.4-1.1,2.4-2.4c0-1.3-1.1-2.4-2.4-2.4c-1.3,0-2.4,1.1-2.4,2.4C72.6,19.8,73.6,20.9,74.9,20.9z"/>
<path d="M82.2,20.9c1.3,0,2.4-1.1,2.4-2.4c0-1.3-1.1-2.4-2.4-2.4c-1.3,0-2.4,1.1-2.4,2.4C79.8,19.8,80.9,20.9,82.2,20.9z"/>
<path d="M89.4,20.9c1.3,0,2.4-1.1,2.4-2.4c0-1.3-1.1-2.4-2.4-2.4c-1.3,0-2.4,1.1-2.4,2.4C87,19.8,88.1,20.9,89.4,20.9z"/>
<path d="M11.4,20.3h4.9c1,0,1.8-0.8,1.8-1.8c0-1-0.8-1.7-1.8-1.8h-4.9c-1,0-1.8,0.8-1.8,1.8C9.7,19.5,10.4,20.2,11.4,20.3z"/>
<path d="M25.9,20.3h4.9c1,0,1.8-0.8,1.8-1.8s-0.8-1.8-1.8-1.8h-4.9c-1,0-1.8,0.8-1.8,1.8C24.1,19.5,24.9,20.2,25.9,20.3z"/>
<path d="M37.2,39.4c-0.6-0.8-1.7-0.9-2.5-0.3c0,0,0,0,0,0L20.2,50.7c-0.8,0.6-0.9,1.8-0.3,2.5c0.1,0.1,0.2,0.2,0.3,0.3l14.6,11.6
	c0.8,0.6,1.9,0.5,2.5-0.3c0.6-0.8,0.5-1.9-0.3-2.5l0,0L24.2,52.1L37,41.9C37.7,41.3,37.9,40.2,37.2,39.4
	C37.2,39.4,37.2,39.4,37.2,39.4z"/>
<path d="M65.3,39.1c-0.8-0.6-1.9-0.4-2.5,0.3c-0.6,0.8-0.5,1.8,0.3,2.5l12.8,10.2L63,62.3c-0.8,0.6-0.9,1.7-0.3,2.5
	c0.6,0.8,1.7,0.9,2.5,0.3l0,0l14.6-11.6c0.8-0.6,0.9-1.7,0.3-2.5c-0.1-0.1-0.2-0.2-0.3-0.3L65.3,39.1z"/>
<path d="M57.5,37.2c-0.9-0.4-1.9-0.1-2.4,0.8c0,0,0,0,0,0L41.7,64.6c-0.4,0.9-0.1,2,0.8,2.4s2,0.1,2.4-0.8l0,0l13.4-26.6
	C58.7,38.8,58.4,37.7,57.5,37.2C57.5,37.2,57.5,37.2,57.5,37.2z"/>
</svg>
