<svg xmlns="http://www.w3.org/2000/svg" xmlns:xlink="http://www.w3.org/1999/xlink" x="0px" y="0px" viewBox="0 0 100 100" style="enable-background:new 0 0 100 100;" xml:space="preserve"><rect x="77.7" y="78.2" width="3.2" height="3.2"></rect><path d="M96.3,34.5H85.1V14.4c0-2.4-2-4.4-4.4-4.4H4.4C2,10.1,0,12,0,14.4v54.1c0,2.4,2,4.4,4.4,4.4L33,72.9v8.5h-4.3v3.2h13.8v2.9 c0,1.4,1.1,2.5,2.5,2.5h17.4c1.4,0,2.5-1.1,2.5-2.5v-0.8h31.4c2.1,0,3.7-1.7,3.7-3.7V38.3C100,36.2,98.3,34.5,96.3,34.5z M4.4,71.3 v-1.6c-0.6,0-1.2-0.5-1.2-1.2V14.4c0-0.6,0.5-1.2,1.2-1.2h76.4c0.6,0,1.2,0.5,1.2,1.2v20.1H62.2c-2.1,0-3.7,1.7-3.7,3.7v13.3 L45,51.5c-0.7,0-1.3,0.3-1.8,0.8c-0.5,0.5-0.7,1.1-0.7,1.8l0.1,15.6L4.4,69.7L4.4,71.3z M36.2,81.3v-8.5l6.4,0v8.5L36.2,81.3 L36.2,81.3z M61.7,86.7h-16V72.8h0l0-0.9V54.8h12.8h1.6l1.6,0V86.7L61.7,86.7z M96.8,82.9c0,0.3-0.2,0.5-0.5,0.5H64.9V54 c0-1.4-1.1-2.5-2.5-2.5h-0.7V38.3c0-0.3,0.2-0.5,0.5-0.5h22.9h11.1c0.3,0,0.5,0.2,0.5,0.5V82.9z"></path><rect x="52.1" y="81.4" width="3.2" height="3.2"></rect></svg>