<svg xmlns="http://www.w3.org/2000/svg" xmlns:xlink="http://www.w3.org/1999/xlink" x="0px" y="0px" viewBox="0 0 100 100" style="enable-background:new 0 0 100 100;" xml:space="preserve"><path d="M95.9,80.3c-1.7-3.1-2.5-7.3-3.4-12.2c-1-5.6-2.2-11.9-5.1-18.1c-2.2-4.7-4.4-9-7.7-10.2c-1.3-0.5-2.8-0.4-4.1,0.3 c-1.1,0.5-2.1,1.3-2.7,2.6c-0.7-0.6-1.4-1.1-2.3-1.4c-1.5-0.6-3.2-0.5-4.8,0.3c-1.6,0.8-2.7,1.8-3.4,3c-0.6-0.5-1.3-1-2.1-1.2 c-1.6-0.6-3.3-0.5-5.1,0.4c-1.5,0.7-2.6,1.8-3.2,3.1c-2.9-4.9-6.3-10.8-7.5-13.3c-2.2-4.5-6.9-5.2-10.1-3.6 c-3.2,1.6-5.3,5.5-3.1,9.9c2.1,4.3,5.1,8.9,7.9,13.5c3.3,5.2,7,11,8.1,14.5c-0.9-0.9-2.2-2.2-4-4.4c-3-3.5-7.1-3.5-9.6-1.8 c-2.1,1.6-3.6,5-0.7,9.8c3.6,5.8,19.5,17.7,23.5,19.6c2.9,1.4,6.9,4.9,8,7c0.2,0.5,0.6,0.8,1.1,1c0.2,0.1,0.4,0.1,0.5,0.1 c0.3,0,0.6-0.1,0.9-0.2l28.1-16C96,82.3,96.3,81.2,95.9,80.3z M66.7,94.6c-2.1-2.7-5.9-5.7-8.7-7c-3.6-1.7-18.8-13.1-22-18.2 c-1.3-2.1-1.4-4-0.3-4.8c0.4-0.3,0.9-0.4,1.5-0.4c1,0,2.1,0.5,3.1,1.6c5.4,6.4,7.4,7.4,9,7c0.9-0.2,1.6-1,1.8-2 c0.8-4-2.8-10.1-8.9-19.6c-2.8-4.4-5.7-9-7.7-13.1c-1.2-2.5,0-4.2,1.4-4.9c1.7-0.8,3.9-0.5,5.1,1.9c1.5,3.1,5.7,10.3,7,12.5 c5.5,9.5,5.7,9.5,6.5,9.8c0.5,0.2,1,0.1,1.4-0.1c0.5-0.2,0.8-0.6,1-1.1c0.3-0.8,0-1.4-0.4-2c-0.5-1-1.9-3.7-1.3-5.4 c0.2-0.7,0.7-1.2,1.6-1.6c1.1-0.5,1.7-0.4,2.1-0.2c1.4,0.5,2.5,2.2,3.3,3.8c0.2,0.5,0.5,1,0.7,1.4c0.1,0.1,0.1,0.3,0.2,0.4 c0.5,1.2,0.8,1.8,1.7,2.1c0.5,0.2,1,0.1,1.5-0.1c0.5-0.2,0.8-0.7,1-1.2c0.3-0.9-0.1-1.5-0.5-2.2c-0.1-0.2-0.3-0.4-0.4-0.7 c-0.2-0.4-0.4-0.8-0.6-1.2c-0.3-0.8-0.5-1.6-0.3-2.3c0.2-0.7,0.9-1.4,2-1.9c0.9-0.5,1.5-0.3,1.9-0.2c2.1,0.8,3.7,4.7,4.3,6.2 c0.4,1,0.7,1.6,1.5,2c0.5,0.2,1,0.2,1.5-0.1c0.7-0.4,1.5-1.2,0.7-3c-2.1-4.7-1-5.9,0-6.4c0.6-0.3,0.9-0.2,1.2-0.1 c2.1,0.7,4.4,5.6,5.6,8.2c2.7,5.8,3.8,11.9,4.8,17.2c0.8,4.3,1.5,8.3,3,11.7L66.7,94.6z"></path><path d="M22.4,6c-0.5-0.9-1.7-1.2-2.5-0.7c-0.9,0.5-1.2,1.7-0.7,2.5l7.5,12.9c0.3,0.6,1,0.9,1.6,0.9c0.3,0,0.6-0.1,0.9-0.3 c0.9-0.5,1.2-1.7,0.7-2.5L22.4,6z"></path><path d="M5.1,26.5l14,5.1c0.2,0.1,0.4,0.1,0.6,0.1c0.8,0,1.5-0.5,1.8-1.2c0.4-1-0.1-2-1.1-2.4L6.4,23c-1-0.4-2,0.1-2.4,1.1 C3.7,25.1,4.2,26.1,5.1,26.5z"></path><path d="M21.6,42.3c-0.4-1-1.4-1.5-2.4-1.1l-14,5.1c-1,0.4-1.5,1.4-1.1,2.4c0.3,0.8,1,1.2,1.8,1.2c0.2,0,0.4,0,0.6-0.1l14-5.1 C21.4,44.3,21.9,43.2,21.6,42.3z"></path><path d="M29.1,51.3c-0.9-0.5-2-0.2-2.5,0.7l-7.5,12.9c-0.5,0.9-0.2,2,0.7,2.5c0.3,0.2,0.6,0.2,0.9,0.2c0.6,0,1.3-0.3,1.6-0.9 l7.5-12.9C30.3,52.9,30,51.8,29.1,51.3z"></path><path d="M55,36.4c0,1,0.8,1.9,1.9,1.9h14.9c1,0,1.9-0.8,1.9-1.9c0-1-0.8-1.9-1.9-1.9H56.9C55.8,34.5,55,35.3,55,36.4z"></path><path d="M52.4,26c0.4,0,0.9-0.1,1.2-0.4L65,15.9c0.8-0.7,0.9-1.8,0.2-2.6c-0.7-0.8-1.8-0.9-2.6-0.2l-11.4,9.6 c-0.8,0.7-0.9,1.8-0.2,2.6C51.3,25.7,51.9,26,52.4,26z"></path><path d="M40.7,19.4c0.1,0,0.2,0,0.3,0c0.9,0,1.7-0.6,1.8-1.5l2.6-14.7c0.2-1-0.5-2-1.5-2.2c-1-0.2-2,0.5-2.2,1.5l-2.6,14.7 C39.1,18.2,39.7,19.2,40.7,19.4z"></path></svg>