<svg xmlns="http://www.w3.org/2000/svg" xmlns:xlink="http://www.w3.org/1999/xlink" x="0px" y="0px" viewBox="0 0 888 231" style="enable-background:new 0 0 888 231;" xml:space="preserve">	<g>		<path d="M458,218.1c-0.6-1.5-2.4-1.2-3.3-2c-5-4.5-8.8-9.7-8.6-16.8c0.1-2,0.5-4.1,1.3-5.9c2.5-5.6,4.8-11.3,7.5-16.9  c0.5-1.1,0.9-2,2.1-2.3c2.1-0.7,3.3-2.5,3.5-4.2c0.4-2.4,1.9-3.7,3.5-5.4c-1.1-2.8,0.9-5,2.3-7.2c2.5-3.9,2.6-3.9,5.7-4.6  c-0.8-0.4-1.4-0.7-1.9-0.9c1.1-1.5,2.1-3.2,3.3-4.6c1.8-2.3,3.8-4.4,5.6-6.7c1-1.2,2.3-2.1,3.1-3.7c0.5-1,2.2-1.5,1.8-3.2  c2.5-2,4.1-5.1,7.3-6.5c0.4-0.2,0.6-1,1.1-1.8c0.8,0,1.9,0,3,0c0.8-2.5,3.6-2.7,4.6-5c0-0.7,0-1.7,0-2.7c1.8-1.8,3.5-3.5,5.5-5.4  c1.1-0.1,2.3-0.2,3.9-0.4c-0.5-0.5-0.8-0.7-1.4-1.3c1.3-0.8,2.2-1.9,3.4-2.8c1.2-0.8,1.8-2.8,3.6-3.3c0.2-2.2,1.5-2.6,3.2-2.5  c1.1-1.3,1.9-2.8,3.1-3.7c1.7-1.3,3.7-2.4,5.6-3.3c2-0.9,2.7-3.1,4.6-4.2c2.6-1.5,5.4-3,7-5.8c0.3-0.5,1-0.8,1.6-0.9  c3.5-0.9,4.7-4.1,5.7-6.9c2.4-6.5,3.7-13.4,7-19.6c0.2-5.1,2.8-9.6,3.3-14.7c0.3-3.4,0.7-6.7,0.8-10.1c0-0.6,0.3-1.2,0.5-1.8  c1.7-5.4,1.4-9.6-1-14.9c-0.4,0.3-0.7,0.6-1,0.9c-2.4-2.6-4.7-0.2-6.4,0.6c-8.5,3.8-16.7,8.2-23.3,15.1c-4.6,2.3-6.9,7.3-11.5,9.5  c-0.3,1.7-1.7,2.7-2.8,3.8c-2.3,2.4-4.6,4.8-7.1,7.1C499,58,495,63.9,490.9,69.6c-0.6,0.9-1.2,1.8-1.9,2.7  c-1.8,2.2-3.5,4.3-4.4,7.2c-0.8,2.6-3,4.8-4.8,7.4c-0.6,2.1,1.4,5.3-1.7,7.2c-1.6-1.8-3.1-3.5-4.6-5.2c-0.1,0.2-0.3,0.4-0.4,0.6  c-0.4-1.2-1-2.3-1.2-3.5c-0.5-2.8,0.3-5.4,1.5-7.9c1.9-4.1,4.2-8,7.3-11.5c2.2-2.6,3.9-5.8,6.2-8.4c0.4-0.5,0.6-1.1,1-1.6  c5.2-5.5,10.3-11.1,15.6-16.5c1.2-1.2,2.9-2,4.1-3.2s2.1-2.8,3.2-4.1c0.9-1,1.8-2.1,2.8-2.8c1-0.7,2.3-0.9,3.4-1.5  c1.2-0.7,2.8-1.4,3.4-2.5c1.1-2.3,3.8-2.8,5.1-4.8c0.2-0.3,1.3,0,1.8,0c0.8-1.1,1.4-2.5,2.4-2.9c2.7-1.1,4.7-3.2,7.2-4.4  c5.3-2.6,11-4.9,16.9-3.6c4.5,1,8,4,9.9,8.2c0.5,1-0.3,2.6-0.5,4.4c0.6,0.1,1.5,0.3,2.4,0.4c0.3,1.3,0.7,2.6,1,4  c0.1,0.5,0.4,0.9,0.3,1.4c-0.3,2.2-0.6,4.4-1,6.6c-0.3,2.1,0.7,4.3-0.7,6.2c-0.3,0.3-0.3,0.9-0.2,1.4c0.9,5.5-2.1,10.1-3.4,15.1  c-0.6,2.3-0.3,4.7-1.6,6.8c-0.6,0.9-1.1,1.9-1.8,3.2c-0.3,1.7-0.7,3.8-1.1,6.1c3.8,0,5.7-4.7,10.2-3.7c-1.2,1.1-2,2.3-3.1,2.7  c-2.1,0.8-4.1,1.6-4.7,4.1c-2-0.8-1.2,3.3-3.6,2.1c-0.3-0.1-1.7,1.2-1.8,1.9c-0.2,1.7-1.3,2.8-1.8,4.3c-0.9,2.6-1.2,5.6-2.9,7.8  c-1.8,2.2-2.2,4.8-3.3,7.2c-1.4,3.3-2.3,6.8-5.1,9.4c-0.1,3.1-3.1,5.1-3,8.3c0,0.5-0.6,1.1-0.9,1.6c-0.6,0.9-1.4,1.8-1.7,2.8  c-0.6,1.7-0.2,3.7-2.1,5.2c-1.1,0.9-0.7,3.2-2.8,3.7c-0.3,0.1-0.4,1.2-0.4,1.8c0.2,2.1-1.1,2.8-2.9,3.3c-0.1,0.7-0.1,1.5-0.2,2.4  c-0.4,0.1-0.8,0.2-1.6,0.4c-0.6,2-1.1,4.2-2.8,6c-0.9,0.9-1.2,2.5-1.4,3.9c-0.3,1.4-3.2,0.8-2,3.1c-1.6,2.4-3.2,4.7-4.7,7.1  c-1.2,2-2.3,4.1-3.3,6.1c-1.1,2.1-2.6,3.8-3.2,6.2c-0.6,2.2-2.7,3.9-4.6,6.3c0,0.8,0,2.2,0,3c-1.3,1.8-2.2,3.1-3.2,4.4  c-0.5,0.6-1,1.5-1.6,1.7c-2.8,0.8-4.7,2.2-5.4,5.2c-0.2,0.7-0.9,1.5-1.5,1.8c-2.3,1.2-3.3,3.7-5.2,5.3c-0.6,0.5-1.2,1.3-1.2,2  c0.1,1.5-1,2-1.7,2.8c-1.7,2.1-3.9,3.8-5.5,6.2c-1.4,2.1-4.2,3.2-6.4,4.8c-0.8,0.6-1.4,1.4-1.9,1.8c-1.1,0.4-2.4-0.6-2.6,1.1  C464,218.1,461,218.1,458,218.1z M453.1,206.7c6.4,2.8,8.8,1.5,13.9-2.2c1.9-1.4,3.6-3.3,5.7-4.4c2-1,3.6-2.5,4.7-4.2  c2.8-4.3,7.3-7.3,9.3-12.1c4.6-3.7,7.4-8.8,10.5-13.6c3.9-6,8.6-11.6,11.4-18.3c0.5-1.1,0.7-2.4,1.4-3.4c6.5-9,11-19.1,16.5-28.7  c1.1-2,2.7-3.9,2.5-6.4c4-4,4.6-9.8,7.4-14.4c0.5-0.8,0.3-1.9,0.4-2.8c-3.6-0.6-3.6,2.8-5.7,3.9c-2.2,1.2-4.2,2.8-6.1,4.5  c-1.8,1.6-3.3,3.5-4.7,4.9c-1.2,0.6-2.3,1-3,1.7c-3.3,3.7-6.8,7.3-9.6,11.5c-0.4,0.6-1.3,1.2-1.9,1.3c-1.8,0.1-2.2,1.1-3,2.5  c-1,1.8-1.6,4.2-4.4,4.7c-0.9,0.2-2.2,1.5-2.3,2.4c-0.2,1.6-1.5,2.2-2.3,3c-1,1-2.4,1.6-3.4,2.5c-1.1,1.1-1.7,2.8-2.9,3.7  c-2.1,1.7-2.6,4.4-4.2,6.2c-4.6,5.1-8.5,10.7-12.3,16.4c-3.4,5.2-7,10.3-9.9,15.9c-0.9,1.8-1.2,4.3-2.6,5.3  c-2.4,1.7-1.1,4.2-2.3,6.2C453.5,197.1,452.2,201.7,453.1,206.7z"></path>		<path d="M513.9,118.9c-1.5,0.5-3,0.9-4.7,1.5c-0.6,1.9-2.3,3.3-4.4,4.1c-2,0.8-3.7,2.1-5.7,3c-1.7,0.8-3.1,3-5.1,3.3  c-2.4,0.3-3.7,2.4-6.3,2.2c0.5,0.6,0.7,0.8,1,1.2c-1.5,3.6-6.4,3.2-7.8,6.1c-2.2,0.7-4,1.1-5.8,1.9c-3.1,1.3-6.2,2.8-9.3,4.2  c-0.3,0.1-0.5,0.5-0.8,0.5c-4.5-0.1-8.8,1.4-13.2,1.9c-2.8,0.4-5.8,0.5-8.5-1.3c-3.3-2.9-5.2-6.1-6.7-10.4c-1-2.9-1-5.3-0.1-8.4  c0.6-2.2,0.9-4.5,1.6-7.6c-2.6,1.8-4.4,3-6.2,4.2c-4.4,3-8.5,6.4-13.4,8.6c-1.6,0.7-2.2,2.9-4.2,3.1c-3.9,4.1-9.5,5.7-13.6,9.5  c-1,0.9-2.6,1.6-4.4,1.5c-2.6-0.3-5.3-0.1-7.8-0.2c-4.8-1.1-4.9-5.9-7-9.2c-3.2,2.3-6.2,4.3-9.1,6.5c-1.9,1.4-4,2.5-6,3.7  c-5.8,3.5-12,6.3-18.1,9.3c-2.8,1.3-5.7,2.4-8.5,3.5c-0.7,0.3-1.6,0.3-2.4,0.3c-3.7,0-7.3,0-10.8,0c-5.5-2.5-6-8.2-8.7-13.3  c-0.2-9.2,3.5-17.8,8.8-26.1c3.5-5.4,7.9-9.9,12.7-14.5c1.2,0,2.7,0,4.2,0c1.8,1.4,3.7,2.9,5.9,4.5c-0.6,1.2-1.1,2.3-1.7,3.4  c-0.8-0.6-1.3-0.9-1.7-1.2c-3.5,2.1-5.1,5.5-7,8.6c-2.9,4.5-6.5,8.5-8.5,13.5c-1.3,3.1-3,6.1-4.1,9.3c-0.6,1.6-0.4,3.5-0.5,5.4  c5.4,1.2,10.3-0.2,15-2.1c6.5-2.6,12.5-6,18.7-9.3c6.4-3.4,12.2-7.9,19.1-10.5c2.3-0.9,4.3-2.6,6.2-4.2c1.4-1.1,3-1.7,4.4-2.6  c2.3-1.4,4.6-2.7,6.5-4.9c3.1-3.7,6.9-7,10.8-9.9c2.9-2.1,5.7-4.5,8.9-6.1c4.1-2.1,8.3-4.1,12.9-4.9c3-0.5,5.7,0.3,7.8,2.7  c0.5,0.6,1.2,1.1,2.1,1.8c-0.6,1.3-1.1,2.4-1.6,3.5c-2.3-1.7-4.6-1.4-6.7-0.7c-4.7,1.6-8.7,4-12.6,7.3c-6.1,5.1-11.4,11-17.1,16.4  c-1.9,1.7-3.8,3.4-4.5,6.1c-0.2,0.9-1.2,1.6-1.5,3c3.1-1.5,6.5-2.8,9.4-4.6c7-4.4,13.9-9.1,20.8-13.8c3.2-2.2,6-4.8,9.1-7  c3.2-2.2,6.7-3.9,10.3-6.1c1.6,2.1,4.2,2.3,6.6,3.6c0.2,0.5,0.6,1.1,0.9,1.9c0.7,1.6,0.7,4,0.4,5.5c-1.7,7-4.7,13.4-7.8,20  c2.9,1.6,5.7,1.5,9.2,0.7c4-0.8,8-1.7,11.6-3.4c4.6-2.3,9.3-4.1,14-6c4.6-1.8,9.1-3.7,13.9-5c2.1-0.6,4-1.6,6-2.4s3.9-2,6-2.5  c3-0.6,6-0.7,9.1-1.1C513.9,117.6,513.9,118.2,513.9,118.9z"></path>		<path d="M11.9,180.9c1.9-0.9,1.3-3.4,3-4.5c1-5.7,5.1-9.7,8.2-14.1c6.1-8.4,14.2-15.2,21.5-22.6c1-1,2.3-1.6,3.4-2.5  c4.8-3.8,9.5-7.6,14.3-11.3c1.7-1.3,3.6-2.4,5.6-3.7c0.3-3.3-2.4-5.2-4-7.7c-3.4-5.3-7.3-10.3-11-15.4c-0.3-0.4-0.3-1-0.6-1.3  c-4.6-4.4-6.5-10.2-8.9-15.8c-0.6-1.5-0.1-2.9-0.6-4.3C40.7,71.1,45.2,66,47,60.3c0.3-0.8,1.4-1.4,2.1-2.1c1.8-1.8,3.8-3.3,5.2-5.4  c1.3-1.9,3.2-2.8,4.7-4.4c4.1-4.6,9.5-7.3,14.6-10.5c2.5-1.5,5.1-3.3,7.9-3.9c3.1-0.6,5.2-2.8,8.1-3.4c0.9-0.2,1.8-0.5,2.7-0.8  c1.8-0.5,3.7-0.7,5.4-1.4c4.7-1.9,7.5-2.2,12.5-0.8c0.8,0.2,1.6,0.2,2.4,0.2c3.2-0.2,5.8,1.4,8.1,3.4c1.9,1.6,3.8,3.3,5.1,5.4  c2.6,4,4,8.4,4.2,13.3c0.1,4.9-0.9,9.5-2.6,14c-0.6,1.6-0.9,3.2-1.4,5c-4.3-2.2-4.7-2.6-7.1-6.5c0-7-0.1-14.2,0.1-21.3  c0.1-2.8-1.6-4.7-2.5-7c-0.2-0.6-1.3-0.8-2-1.1c-0.8-0.4-1.7-0.7-3.1-1.2c-0.2,0.8-0.5,1.8-0.5,2c-5.3,0.4-9.2,1.2-12.9,3.2  c-3.1,1.7-6.6,2.6-9.9,3.9c-4.7,1.7-8.9,4.3-13.2,6.7c-1.1,0.6-2,1.5-3.1,2.1c-2.6,1.3-4.9,2.9-6.9,5c-2.6,2.8-5.5,5.3-8.2,8  c-3.6,3.6-5.9,7.8-7.2,12.5c-0.7,2.5-1.1,5.5-0.3,7.8c1.2,3.3,2,6.7,3.9,9.9c5,8.2,11.5,15.3,16.1,23.8c0.5,1,1.5,1.8,2.2,2.7  c3.9-1.8,7-4.2,10.3-6.2c5.5-3.4,11.4-6.3,17.2-9c5.3-2.5,10.8-4.6,16.2-6.7c2.2-0.8,4.6-1,6.9-1.4c1.1-0.2,2.1-0.1,3.2-0.6  c1.2-0.6,3.1,0,4.6,0.1c0.8,0.1,1.5,0.5,2.3,0.5c3.2-0.3,5.6,1.1,7.7,3.5c-0.1,1.7,0.8,3.8-1.2,5.3c-3.4,0.1-3.4,0.1-8.2-2.7  c-3.1-0.4-5.9,1.1-8.8,1.6c-2.8,0.5-5,2.3-8,2.6c-2.6,0.2-5.1,1.9-7.7,2.3c-1.3,1.3-2.7,2.7-3.5,3.5c-2.4,0-3.7,0-5.2,0  c-0.2,0.9-0.3,1.8-0.6,3.1c-1.1-0.2-2.3-0.4-3.5-0.6c0,0.4,0,1.2,0,2.4c-1.9,0-3.3,1.2-4.7,1.9c-1.6,0.8-3.4,0.7-3.7,3  c0,0.1-0.6,0.2-0.8,0.3c-2.1,0.9-4.3,1.5-5.4,3.8c-0.2,0.4-1.5,0.2-2.5,0.3c0,0.8-0.3,2,0.1,2.3c3.2,2.8,3,7.1,4.8,10.5  c0.5,0.9,0.6,2.1,1,3.1c2.4,5.4,2.1,11,1.9,16.7c0,0.9-0.8,1.7-0.8,2.6c-0.1,2.2-1.7,4.2-1.1,6.6c0.3,1-0.5,1.7-0.9,2.6  c-1.6,4-3.8,7.6-6.8,10.7c-1.6,1.6-2.7,3.6-4.3,5.2c-2.1,2.1-4.6,3.7-7.6,4.6c-0.4,0.1-1.1,0.2-1.3,0.5c-2.8,3.8-8,3.6-11.4,6.3  c-5.9,1.2-11.4,4-17.7,3.2c-4.9-0.6-9.4-1.9-13.2-5.6c-3.5-3.4-5.6-7.2-6-12.1c0-0.1-0.5-0.2-0.8-0.4  C11.9,182.2,11.9,181.6,11.9,180.9z M72.1,128.9c-1.4,3.2-5.9,2.9-7.2,6.4c-3.6,1.9-6.4,4.7-9.5,7.3c-3.2,2.7-6.8,4.8-9.7,7.9  c-5.1,5.4-10.8,10.1-15.2,16.1c-3.4,4.7-7.4,8.9-8.9,14.8c-0.3,1.4-1.7,2.6-2.7,4.1c0,1.2,0,2.6,0,4.5c1.9,0.6,3.8,1.3,5.7,1.8  c1.5,0.4,3.1-0.2,4.7,0.8c1,0.6,2.9-0.6,4.5-0.7c1.1-0.1,2.3-0.4,3.2,0.6c0.4,0.4,1.5,0.6,1.8,0.3c1.4-1.4,3.4-0.6,5-1.4  c2.8-1.3,5.7-2.4,8.4-3.5c0.7,0.4,1.4,0.8,2.2,1.2c2.4-2.5,4.8-4.9,7.1-7.3c1,0,2,0,2.9,0c0.6-0.6,1.6-1.1,1.7-1.8  c0.7-3.3,3.3-5,5.3-7.3c1-1.2,1.5-2.7,2.4-4c2.9-4,2.9-8.9,3.9-13.4c1.1-5-1-10-0.9-15C74.7,136.9,75.2,132.4,72.1,128.9z"></path>		<path d="M868,107.1c0.9,0,2.1,0,3.1,0c2,1.5,3.9,3,5.8,4.5c0,0.7,0,1.3,0,2.3c-1.2,0.7-2.7,2.2-3.9,2.1c-3-0.3-4.8,2.6-7.7,2.2  c-4,2.8-8.9,3.6-13,5.9c-6.2,3.5-12.9,5.9-19.3,8.8c-5.2,2.3-10.3,5-15.5,7.3c-2.1,0.9-4.2,1-6.2,1.8c-1.6,0.7-3.4,0.6-5,1.1  c-4.3,1.4-8.4,1.4-12.7,0c-5.7-1.9-9.6-6.8-9.6-12.8c0-1.6,0-3.3,0-5.6c-4,4-8.9,5.6-12.4,9.3c-8.2,3.8-15.5,9.1-23.7,12.7  c-6.6,2.9-13,3.9-20.1,3.4c-2.5-0.2-4.6-1.5-5.5-3.4c-2.2-4.3-4.8-8.5-4.4-13.7c0.2-2.4,0.8-4.6,1.6-6.9c0.3-0.9,0.4-1.8,0.5-2.2  c-1.1,1.1-2.5,2.5-3.8,3.8c-0.2-0.2-0.4-0.4-0.6-0.6c-1,0-2,0-2.9,0c-1.6,3.9-6.1,4.4-8.5,7.3c-0.9,1.1-2.3,1.7-3.4,2.5  c-5.3,3.7-10.5,7.5-16,10.9c-2.7,1.7-6.1,2.3-8.8,4c-5.8,3.6-12.3,4-18.6,3.2c-4.8-0.6-8.9-3.5-11.3-7.9c-1.3-2.4-3.5-4.7-3-7.7  c0.9-6.1,2-12.1,6.9-16.7c-0.4-3.1,1.4-5.1,3.9-7.1c0-0.7,0-1.8,0-3c-0.2,0-0.6-0.1-0.7,0c-1.9,1.5-3.5,3.5-5.6,4.5  c-5.6,2.7-10.1,6.9-15.3,10.2c-5,3.2-9.4,7.3-15.1,9.3c-2.1,0.7-4,1.9-6.3,1.7c-0.9-0.1-2,0.1-2.8,0.5c-1.8,0.9-3.3,0.5-4.9-0.5  c-3.7-2.4-6.6-5.2-6.2-10.1c0.2-2.1,0-4.3,0-5.5c1-2.6,1.6-4.3,2.3-6c-0.2-0.2-0.5-0.3-0.7-0.5c-1.3,0.9-2.7,1.8-3.9,2.9  c-4.2,3.7-8.7,7-13.2,10.3c-2.5,1.8-4.8,3.9-7,6c-1.6,1.4-3.1,2.5-5.3,3c-1.6,0.3-3.4,1-4.6,2.1c-1.2,1.1-2.4,0.7-3.7,0.9  c-2.7-1.8-4.4-4.4-5.5-7.5c-0.9-3.7,0.6-7,2.1-10.3c3-6.6,7.5-12.2,11.4-18.3c1.8-2.9,4.3-5.3,6.1-7.5c2.8-1,3.7,0.9,5,2.1  c0.2,1.6-0.2,2.9-1,4.5c-2.4,4.7-5.5,9-8.1,13.6c-2.2,4-4.5,8.1-6.7,12.3c0.9,0,1.6,0,2,0c6-4.4,11.7-8.7,17.6-12.8  c4.6-3.1,8.9-6.5,13.5-9.7s9.3-6.5,13.8-9.7c2.2,0.8,4.1,1.6,6,2.3c0,1.9,0,3.6,0,5.4c-4.3,6-8.3,12.6-11.3,19.6  c-0.6,1.4-0.6,3.1-1,5.4c1-0.7,1.2-1.1,1.5-1.1c5.3,0,9.5-3.1,13.6-5.7c8.5-5.4,16.8-11.1,25.1-16.6c2.5-1.6,5.1-3.1,7.4-5  c2.5-2.1,4.9-2.5,7.6-0.6c0.4,0.3,0.8,0.5,1.3,0.8c1.6-2.3,1.9-5.5,5.2-6.3c0.6-0.2,1.4-1.6,1.4-2.3c-0.2-3.1,2-5,3.4-7.1  c2.6-4,6-7.5,9.1-11.3c2.8-3.5,5.9-6.8,8.4-10.6c1-1.5,2.1-2.8,3.3-4.1c5.1-5.2,10.4-10.4,15.5-15.6c2.1-2.1,4.4-4,6.4-6.2  c2-2.3,4.4-4.4,7-6c4.9-3.1,9.2-7.1,14.5-9.6c0.8-0.4,1.7-0.9,2.4-1.4c4.5-3.2,9.6-4.5,15-3.6c2.7,0.4,4.8,2.4,6.2,4.8  c0.4,0.7,0.7,1.4,1,2c-1.9,4.6-4.8,8.4-7.9,12.1c-0.2,0.2-0.6,0.2-0.8,0.3c0.3,1.1,0.6,2.2,0.9,3.6c-1.5,0-2.6,0-4.2,0  c0.3,1.1,0.5,1.9,0.8,2.9c-1,0.1-2.2,0.2-3.9,0.4c0.3,1.4,0.7,2.7,1,4.1c0,0.1-0.1,0.5-0.3,0.6c-0.4,0.2-1.1,0.1-1.3,0.4  c-1.1,2-1.3,4.6-4.2,5.2c-0.4,2.5-2.8,3.5-4.3,5.2c-2.9,3.4-5.6,6.8-8.9,9.8c-7.7,7.1-15.3,14.2-24.4,19.5  c-1.5,0.9-2.7,2.2-4.1,3.3c-4.5,3.5-9.3,6.5-14,9.7c-4.6,3.2-9.5,6-14.2,9c-2.7,1.8-6.1,2.9-7.2,6.5c-0.1,0.4-0.7,0.7-1,1.1  c-2.2,2.3-5.1,4.2-4.9,7.9c-1.8,1-1.6,3-2.5,4.4c-1,1.4-1.9,2.8-2.5,4.5c-0.3,0.8-1.9,1.8-1.7,2.1c1,1.9-1,3.5-0.3,5.3  c0.3,0.7,0,1.6,0,2.5c1.7,2,4,1.7,6.2,1.7c3.6-0.1,7.1,0.3,10.6-0.9c3.8-1.3,7.7-2.5,11.1-4.6c5-3.1,10.3-5.8,15.3-9.1  c4.1-2.7,8.3-5,12.1-8.2c3.9-3.3,8.6-5.5,12.2-9.1c0.3-0.3,1.3,0,1.9,0c1-1.7,1.7-3.5,3.8-4.1c2.3-0.6,3.7-2.4,5.3-4  c3.7-3.6,7.3-7.3,10.9-10.9c4.3-0.8,7,1.8,9.9,4.7c-0.5,1-1,2.2-1.5,3.4c-0.6-0.6-1-0.9-1.5-1.4c-1.4,0.8-2.9,1.6-4.6,2.5  c0.5,1.1,0.9,1.9,1.5,3c-0.6,0.6-1.2,1.6-2,2c-4.3,2.1-5.8,6.4-8.2,10.1c-2.6,4-4,8.7-6,13c-0.2,0.4-0.6,0.8-1,1.2  c0,1.6,0,3.3,0,5.1c5.2,1.4,10.1-0.1,14.7-2c6.5-2.6,12.5-6,18.7-9.3c6.4-3.5,12.2-7.9,19.1-10.5c2.3-0.9,4.2-2.8,6.3-4.1  c4.5-2.9,9-5.7,13.5-8.5c0.9-0.6,2-1,2.7-1.8c3.2-3.5,7.4-5.5,11.1-8.4c3.5-2.7,7.3-4.6,11.7-5.5c2.4-0.5,4.7-1.6,6.8-2.8  c1.7-0.9,3.2-1.2,4.8,0.1c0.9,0.7,2.2,1.2,3.4,1.4c2.8,0.6,3,3.5,5,5c0,2,0,4.1,0,5.9c-1.1,3.1-4.2,4.6-5.5,7  c-1.4,2.7-4.3,2.8-6.2,4.5c-2.4,2-5.1,4.1-8.4,4.9c-3.2,0.8-6.4,1.5-9.6,2.3c-2.9,0.7-5.6,1.4-8.7,0.1c-1.7-0.7-3.9-0.1-6.2-0.1  c-3.3,4.6-7,9.1-9.2,14.6c0.7,0.7,1.5,1.5,2.4,2.4c7.8,0.3,13.8-1.1,23.3-4c1-0.3,2-0.8,3-1.3c3.8-1.6,7-4.5,11.5-4.9  c1.7-0.2,3.1-2.6,5.3-2.9c1.5-2.6,5-1.8,6.9-3.9c3.2,0.1,5.6-1.9,8.1-3.3c4.5-2.5,9.5-3.7,14.1-5.8  C865.6,108.6,866.5,108,868,107.1z M672.5,102.6c2.2-1.5,3.5-2.7,5.1-3.5c6.5-3,11.6-8,17.6-11.9c2.4-1.6,4.5-3.7,6.7-5.6  c2.2-2,4.5-3.8,6.6-5.7c7.5-6.9,14.4-14.5,22.2-21.2c2.9-2.5,5.2-5.8,7.8-8.7c0.1-0.1,0.3-0.2,0.3-0.4c1.7-3.3,4.1-6.1,6.7-8.7  c0.5-0.5,1.1-0.9,1.4-1.4c2.1-4.3,4.1-8.6,6.2-13c-0.9-0.6-1.7-1.2-2.5-1.7c-2.8,3.3-5.8,5.9-9.7,7.3c-0.6,0.2-1,0.7-1.6,1.1  c-2.8,1.8-5.3,4.2-8.1,5.7c-4.4,2.3-7.7,5.8-11.3,8.8c-4.5,3.9-8.8,8.2-12.7,12.7c-3.9,4.4-8.1,8.6-11.1,13.8  c-1.9,3.3-5.1,5.9-7.6,8.9c-0.6,0.7-0.8,1.8-1.5,2.3c-1.8,1.2-1.5,3.5-2.8,4.9c-1.4,1.6-3.2,3-4.5,4.6  C677,94.2,674.1,97.4,672.5,102.6z M835.7,95.3c-2,0.3-3.8,0.5-5.7,0.8c-0.8,0.1-1.5,0.5-2.2,0.7c-5.4,1.6-10.3,4.3-14.7,7.7  c-1.3,1-2.5,1.9-3.8,2.8s-2,2.3-3.8,3c-1.1,0.4-1.5,2.3-2.6,4.2c2.7-0.5,4.8-1.2,7-1.3c2.3-0.2,4.3-0.3,6.3-1.6  c2-1.3,4.8-1.3,6.9-2.5c4-2.2,8.4-4,11.2-7.8C835.6,99.5,836.8,97.5,835.7,95.3z"></path>		<path d="M261.1,169.2c-3.9-2.6-5.1-5.9-6.1-9.6c4.3-9.8,8.7-20,13.3-30.3c-0.8-0.2-1.4-0.6-1.6-0.4c-4.5,3.2-9,6.5-13.8,10  c-0.6,0-1.6,0-2.1,0c-3.4,4.2-7.5,7-11.9,9.6c-4.6,2.7-8.8,6.1-13.2,9.1c-2.7,1.9-5.5,3.4-8.7,4.3c-1.2,0.3-2.2,1.1-3.3,1.7  c-4.3,2.3-8.7,3.9-13.7,3.2c-2.2-0.3-4.3,0.2-6.7-0.8c-6.8-2.8-9.3-5.9-11.5-11.6c-0.7-1.9-1.6-3.9-0.8-5.5c1.3-2.8,1.2-6,3-8.8  c1.6-2.5,4.2-4.8,4-8.4c0-0.8,1.2-1.6,1.9-2.6c-2.6-0.7-4.3,0.5-5.7,2c-1.2,1.3-2.4,2.1-4.7,1.6c0.5,1.2,0.8,1.9,1.1,2.7  c0,0-0.1,0.4-0.4,0.5c-4.8,3.2-9.7,6.4-14.5,9.5c-3.1,2-6.4,3.8-9.6,5.7c-3.4,1.9-6.7,3.9-10.1,5.7c-7.3,3.7-15.1,6-23.4,5  c-1.4-0.2-3.2-0.9-4.1-2c-3.2-3.6-5.6-7.6-5.6-12.7c0-8.4,1.6-12.5,6.8-21.7c3-5.3,6.7-10,10.7-14.6c2.1-2.3,4.6-3.5,8.1-2.9  c0.7,2.7,5.8,2,5.4,6.6c-0.8,0.1-1.8,0-2.6,0.3c-1.7,0.6-3.3,1.1-4.4,3c-2.5,4.4-5.1,8.6-8.2,12.6c-2.7,3.6-4.1,7.6-5.7,11.7  c-0.6,1.4-1.1,2.9-2,5.1c0,0.7,0,2.4,0,4.2c5.2,1.3,10-0.2,14.8-2c7.4-2.8,14.3-6.6,21-10.9c1-0.7,2.2-1.1,3.3-1.8  c2.1-1.3,4.5-2.1,6.4-3.8c2.7-2.4,6.6-2.8,9.3-5.2c4.7-4,10.9-5.6,15.5-9.7c0.8-0.8,2.3-0.9,3.4-1.3c1.3-0.4,2.7-0.8,3.9-1.1  c1.6-3.1,2.1-6.8,6-8.2c0.6-0.2,1.3-1.6,1.3-2.4c-0.1-3.2,2.4-5.1,3.8-7.4c1.9-3.1,4.2-6.2,6.8-8.6c2.5-2.3,3.6-5.3,6-7.6  c2.4-2.2,3.9-5.4,6.2-7.9c1.7-1.9,3.2-4.2,5.9-5.1c0.6-0.2,0.9-1.3,1.4-1.8c1.5-1.7,2.9-3.6,4.7-4.9c1-0.8,2.1-1,2.4-2.6  c0.1-0.7,1.2-1.1,1.7-1.8c1.8-2.6,5.1-3.5,6.9-6.5c1.5-2.7,4.5-4.7,7.2-6.4c5.2-3.2,9.8-7.2,15.4-9.8c2.1-1,4-2.4,6-3.7  c3.3-2.1,7-1.2,10.5-1.2c2.5,0,3.9,2.1,5.5,3.6c0.6,0.6,1.2,1.2,1.8,1.8c-0.5,4.4-5.2,11.8-8.7,13.8c0.3,1.1,0.6,2.2,1,3.8  c-1.6,0-2.9,0-4.6,0c0.5,1.1,0.8,1.8,1.1,2.6c-1.1,0.4-2.3,0.9-3.5,1.3c0.3,1.4,0.6,2.5,0.9,3.8c-0.7,0.2-1.1,0.3-1.9,0.5  c0,2.1-1.6,3.4-3.3,4.9c-3.7,3.3-6.6,7.4-10,11.1c-2.8,3-5.7,5.9-8.7,8.8c-0.8,0.8-1.9,1.2-2.7,1.9c-4.9,4.9-10.7,8.8-16.1,13.1  c-5.7,4.5-12,8.1-17.8,12.6c-2.6,2-5.7,3.9-8.7,5.4c-6.7,3.4-12.2,8.4-17.2,13.8c-2.1,2.3-3.2,5.4-4.5,8.1  c-0.9,1.8-1.8,3.6-2.8,5.3c-2,3.5-3.1,7.3-2.1,11.9c1.8,0.3,3.9,0.8,5.9,0.8c3.4,0,6.7,0.2,10.1-0.8c4.8-1.4,9.3-3.4,13.7-5.6  c2.8-1.4,5.3-3.3,8-4.9c3.6-2.2,7.2-4.4,10.8-6.6c1.9-1.2,3.8-2.3,5.5-3.7c3-2.4,5.8-4.9,9.3-6.4c1.3-0.5,2.1-2.1,3.2-3.1  c0.7-0.6,1.7-0.7,2.9-1.3c0.9-1.2,1.7-2.8,3.9-3.8c2.7-1.2,5.2-3.2,7.3-5.2c1.7-1.7,4.1-1.5,5.7-2.7c4.6-7.9,6.5-17.1,12.9-23.8  c1,0,2,0,3.2,0c1,1.1,2.2,2.3,3.1,3.4c-1.2,2.6-2.6,5.2-3.5,7.9c-1.6,4.9-4.2,9.3-6.7,13.8c-1.8,3.2-4.2,6.1-4.7,10.1  c-0.4,2.6-2.2,5-3.2,7.6c-2.1,5.5-4.6,10.7-7,16.1c-0.5,1.2-0.9,2.5-1.4,3.9c0.8,0,1.6,0,2.5,0c3.2-3.2,6.9-6.1,9.6-9.9  c2.5-3.5,5.9-6,8.6-9.3c2.9-3.6,6.5-6.6,9.8-9.9c0.9,0.5,1.5,0.8,2,1.1c1.2-1.4,2.4-2.7,3.3-3.6c0,0-0.9,0.2-2.2,0.5  c0.8-2.6,3.6-2.8,4.6-4.9c0.4,0.4,0.7,0.7,0.8,0.8c6.2-6.2,12.3-12.3,18.5-18.5c-0.2-0.4-0.5-1.1-0.9-2c1.9,0,3.3,0,3.8,0  c1.5-1.5,2.4-2.4,3.4-3.5c-0.2-0.2-0.5-0.7-0.9-1.2c0.8-0.8,1.6-1.6,2.4-2.4c0.4,0.3,0.7,0.7,1.3,1.2c0.7-0.5,1.5-1.1,2.2-1.6  c0-1.1,0-2.1,0-3.2c0.6-0.5,1.2-1.1,1.8-1.7c-0.7-1.6-1.7-3.2,0.9-4.7c2.3,0,5.1,0,7.7,0c1.3,0.7,2.6,1.3,3.9,2  c1.9-0.7,3.8-1.4,5.8-2.1c2.5,0.4,3.1,3,4.9,4.5c0,1.3,0,2.7,0,4.2c-1.1,0.7-2.3,1.5-3.5,2.3c-2.6,0-5.4,0.6-8.2-1.4  c-0.4-0.8-1-2.1-1.5-3.4c-0.2,0.1-0.5,0.2-0.7,0.3c-6,4.5-11.6,9.4-16.9,14.8c-2.5,2.5-5.7,4.5-8,7.2c-5,5.9-10.9,11-15.8,17  c-3.6,4.4-7.6,8.6-10.8,13.5c-0.4,0.5-0.9,0.9-1.4,1.4c-2.4,2.6-5.1,5-7.2,8c-1.4,2-3.5,3.7-5.7,5.2c-2.8,1.9-4.9,4.9-7.3,7.4  C270.3,165.5,265.9,168,261.1,169.2z M289.1,32.7c-1.9,1.8-3.6,4-5.8,5.1c-5,2.6-9.7,5.7-14.3,9c-4.3,3.1-8.7,6-12.4,9.8  c-4.1,4.1-8.2,8.3-12.4,12.4c-0.7,0.7-1.6,1.3-2.1,2.1c-2.3,4-5.6,7.3-8.2,11.1c-3.7,5.4-8.9,9.5-11.7,15.7c-1.2,2.7-3.8,4.8-5.9,7  c-2.2,2.2-3.6,4.8-5.2,7.4c-0.2,0.4,0,1.1,0.1,1.6c0.7,0,1.1,0.1,1.3-0.1c4.6-4.1,10.6-6.4,15-10.9c6.7-3.3,11.8-8.8,17.3-13.6  c7.8-6.8,14.8-14.6,22.6-21.4c5.9-5.1,10.2-11.6,15-17.7c3.2-4.1,5.3-8.9,8.1-13.2C291.5,35.3,290.9,34.3,289.1,32.7z"></path>		<path d="M141.8,87.2c1.5-1.8,3-3.7,4.2-5.1c1.9-0.3,3.2-0.5,5.1-0.8c1.2,1,2.9,2.3,4.7,3.7c0,1.6,0,3,0,4.5  c-2.9,3.3-6.8,2.2-10.7,2.4C144.1,90.5,143,88.9,141.8,87.2z"></path>		<path d="M749.2,78.8c-0.4-1-0.9-2-1.2-3c-0.2-0.6,0-1.3,0-2c1.7-3.4,5.4-3.4,8.1-4.8c1.6,1.6,3.1,3.1,4.8,4.8c0,1,0,2.4,0,3.9  C757.1,80.8,753.3,80.8,749.2,78.8z"></path>	</g></svg>