<?xml version="1.0" encoding="utf-8"?>
<!-- Generator: Adobe Illustrator 22.0.0, SVG Export Plug-In . SVG Version: 6.00 Build 0)  -->
<svg version="1.1" id="Layer_1" xmlns="http://www.w3.org/2000/svg" xmlns:xlink="http://www.w3.org/1999/xlink" x="0px" y="0px"
	 viewBox="0 0 100 100" style="enable-background:new 0 0 100 100;" xml:space="preserve">
<path d="M11.5,32.8l2.4-28.5c0.2-2,1.9-3.4,3.9-3.2l0,0C19.8,1.3,21.2,3,21,5l-2.4,28.5c-0.2,2-1.9,3.4-3.9,3.2l0,0
	C12.7,36.5,11.3,34.7,11.5,32.8z"/>
<path d="M41.5,55.5L73.3,21c1.3-1.4,3.6-1.5,5-0.2l0,0c1.4,1.3,1.5,3.6,0.2,5L46.7,60.3c-1.3,1.4-3.6,1.5-5,0.2l0,0
	C40.2,59.2,40.1,57,41.5,55.5z"/>
<path d="M56.7,91.9l27.6-5.7c1.9-0.4,3.8,0.8,4.2,2.8l0,0c0.4,1.9-0.8,3.8-2.8,4.2l-27.6,5.7c-1.9,0.4-3.8-0.8-4.2-2.8l0,0
	C53.5,94.2,54.7,92.3,56.7,91.9z"/>
</svg>
