<svg xmlns="http://www.w3.org/2000/svg" xmlns:xlink="http://www.w3.org/1999/xlink" x="0px" y="0px" viewBox="0 0 100 100" style="enable-background:new 0 0 100 100;" xml:space="preserve">	<style type="text/css">	.contact-ic-01{fill:none;stroke:currentColor;stroke-width:4;}	.contact-ic-02{fill:none;stroke:currentColor;stroke-width:4;stroke-linecap:round;stroke-linejoin:round;stroke-miterlimit:10;}	</style>	<g>		<circle class="contact-ic-01" cx="50" cy="50" r="46.5"></circle>		<path class="contact-ic-02" d="M45.7,52.7c-2.6-4.6-3.3-10.5-2.4-13.5c0.3-1.3,2.5-2.9,4.2-4c1.2-0.8,1.6-2.4,0.8-3.6L43.8,24  c-0.7-1-1.9-1.6-3.1-1.2c-1.2,0.4-3,1.2-5.7,2.7c-6.8,4-6.8,19.3,1,32.8c7.8,13.5,20.9,21.2,27.7,17.2C66.5,74,68,72.9,69,72  c0.9-0.8,1.1-2.2,0.5-3.3l-4.3-7.6c-0.7-1.2-2.2-1.7-3.5-1.1c-1.8,0.9-4.3,2-5.6,1.6C53.1,60.8,48.3,57.3,45.7,52.7z"></path>	</g></svg>