<svg xmlns="http://www.w3.org/2000/svg" xmlns:xlink="http://www.w3.org/1999/xlink" x="0px" y="0px" viewBox="0 0 120 120" style="enable-background:new 0 0 120 120;" xml:space="preserve">	<path d="M60,119.5c-5-8-9.8-15.5-14.4-23c-8.1-13.4-15.5-27.2-21.2-41.8C16,33,27.2,13.4,41.3,5.4c22.1-12.6,50-0.1,56.1,25.1  c2.1,8.5,1,16.6-2,24.6c-6,15.9-14.4,30.6-23.2,45.1C68.4,106.5,64.3,112.6,60,119.5z M38,40.4c-0.1,12.6,9.6,22.8,21.9,23  C72,63.6,82.1,53.2,82,40.5c0-12.6-9.9-22.8-22-22.8C47.9,17.7,38,27.9,38,40.4z"></path></svg>