
<svg xmlns="http://www.w3.org/2000/svg" x="0px" y="0px"
	 viewBox="0 0 78 83" style="enable-background:new 0 0 78 83;" xml:space="preserve">
<g>
	<g class="wdt-cus-price-tag">
		<path d="M32.7,10.9L32.7,10.9c0.2-0.2,0.4-0.3,0.6-0.3c0.2,0,0.5,0.1,0.6,0.3l0.1-0.1L34,10.9l15.6,15.5c0.9,0.9,1.4,2.2,1.4,3.5
			v40.5c0,1-0.8,1.9-1.9,1.9H17.6c-1,0-1.9-0.8-1.9-1.9V29.9c0-1.3,0.5-2.6,1.4-3.5h0L32.7,10.9z M17.6,74.6h31.4
			c2.3,0,4.2-1.9,4.2-4.2V29.9c0-1.9-0.8-3.8-2.1-5.1L35.6,9.3c-1.2-1.2-3.3-1.2-4.5,0L15.6,24.8c-1.3,1.3-2.1,3.2-2.1,5.1v40.5
			C13.4,72.8,15.3,74.6,17.6,74.6z"/>
		<path d="M49.1,74.8H17.6c-2.4,0-4.3-1.9-4.3-4.3V29.9c0-1.9,0.8-3.8,2.2-5.2L31,9.2c0.6-0.6,1.5-0.9,2.4-0.9c0,0,0,0,0,0
			c0.9,0,1.8,0.3,2.4,0.9l15.6,15.5c1.4,1.4,2.2,3.3,2.2,5.2v40.5C53.4,72.8,51.5,74.8,49.1,74.8z M33.4,8.5
			C33.4,8.5,33.4,8.5,33.4,8.5c-0.8,0-1.6,0.3-2.1,0.9L15.7,24.9c-1.3,1.3-2.1,3.1-2.1,5v40.5c0,2.2,1.8,4,4,4h31.5c2.2,0,4-1.8,4-4
			V29.9c0-1.9-0.8-3.7-2.1-5L35.5,9.4C35,8.8,34.2,8.5,33.4,8.5z M49.1,72.5H17.6c-1.1,0-2-0.9-2-2V29.9c0-1.3,0.5-2.6,1.5-3.6
			l15.6-15.5c0.4-0.4,1-0.4,1.3-0.1l0,0l0.1,0.1c0,0,0,0,0,0l15.6,15.5c0.9,0.9,1.5,2.3,1.5,3.6v40.5C51.1,71.6,50.2,72.5,49.1,72.5
			z M33.4,10.8c-0.2,0-0.4,0.1-0.5,0.2h0L17.3,26.5c-0.9,0.9-1.4,2.1-1.4,3.4v40.5c0,1,0.8,1.7,1.7,1.7h31.5c1,0,1.7-0.8,1.7-1.7
			V29.9c0-1.3-0.5-2.5-1.4-3.4L33.9,11C33.7,10.9,33.6,10.8,33.4,10.8z"/>
	</g>
	<g>
		<path d="M27.8,22c0,3.1,2.5,5.6,5.6,5.6c3.1,0,5.6-2.5,5.6-5.6c0-3.1-2.5-5.6-5.6-5.6C30.3,16.3,27.8,18.9,27.8,22z M30.1,22
			c0-1.8,1.5-3.3,3.3-3.3c1.8,0,3.3,1.5,3.3,3.3c0,1.8-1.5,3.3-3.3,3.3C31.6,25.3,30.1,23.8,30.1,22z"/>
		<path d="M33.4,27.8c-3.2,0-5.8-2.6-5.8-5.8c0-3.2,2.6-5.8,5.8-5.8c3.2,0,5.8,2.6,5.8,5.8C39.2,25.2,36.6,27.8,33.4,27.8z
			 M33.4,16.5c-3,0-5.5,2.5-5.5,5.5c0,3,2.5,5.5,5.5,5.5c3,0,5.5-2.5,5.5-5.5C38.9,18.9,36.5,16.5,33.4,16.5z M33.4,25.5
			c-1.9,0-3.5-1.6-3.5-3.5c0-1.9,1.6-3.5,3.5-3.5c1.9,0,3.5,1.6,3.5,3.5C36.9,23.9,35.4,25.5,33.4,25.5z M33.4,18.8
			c-1.8,0-3.2,1.4-3.2,3.2c0,1.8,1.4,3.2,3.2,3.2c1.8,0,3.2-1.4,3.2-3.2C36.6,20.2,35.2,18.8,33.4,18.8z"/>
	</g>
	<g>
		<path d="M28.8,59.2L28.8,59.2c0.7,1.9,2.5,3.1,4.6,3.1c2.7,0,4.9-2.2,4.9-4.9c0-2.7-2.2-4.9-4.9-4.9c-1.4,0-2.6-1.2-2.6-2.6
			c0-1.4,1.2-2.6,2.6-2.6c1,0,2,0.6,2.4,1.5l0,0c0.3,0.6,0.9,0.8,1.5,0.6c0.6-0.3,0.8-0.9,0.6-1.5l0,0c-0.8-1.8-2.5-2.9-4.5-2.9
			c-2.7,0-4.9,2.2-4.9,4.9c0,2.7,2.2,4.9,4.9,4.9c1.4,0,2.6,1.2,2.6,2.6c0,1.4-1.2,2.6-2.6,2.6c-1.1,0-2-0.6-2.4-1.6l0,0
			c-0.2-0.6-0.9-0.9-1.5-0.6C28.8,58,28.6,58.6,28.8,59.2z"/>
		<path d="M33.4,62.4c-2.1,0-3.9-1.2-4.7-3.2l0,0c-0.1-0.3-0.1-0.7,0-1c0.1-0.3,0.4-0.6,0.7-0.7c0.3-0.1,0.7-0.1,1,0
			c0.3,0.1,0.6,0.4,0.7,0.7l0,0c0.4,0.9,1.3,1.5,2.3,1.5c1.4,0,2.5-1.1,2.5-2.5s-1.1-2.5-2.5-2.5c-2.8,0-5.1-2.3-5.1-5.1
			s2.3-5.1,5.1-5.1c2,0,3.8,1.2,4.6,3c0.1,0.3,0.1,0.7,0,1s-0.4,0.6-0.7,0.7c-0.7,0.3-1.4,0-1.7-0.7c-0.4-0.9-1.3-1.5-2.3-1.5
			c-1.4,0-2.5,1.1-2.5,2.5s1.1,2.5,2.5,2.5c2.8,0,5.1,2.3,5.1,5.1S36.1,62.4,33.4,62.4z M29.9,57.8c-0.1,0-0.3,0-0.4,0.1
			c-0.2,0.1-0.4,0.3-0.5,0.5c-0.1,0.2-0.1,0.5,0,0.8l0,0c0.7,1.8,2.5,3,4.4,3c2.6,0,4.8-2.1,4.8-4.8s-2.1-4.8-4.8-4.8
			c-1.5,0-2.8-1.2-2.8-2.8s1.2-2.8,2.8-2.8c1.1,0,2.1,0.6,2.5,1.6c0.2,0.5,0.8,0.7,1.3,0.5c0.2-0.1,0.4-0.3,0.5-0.6
			c0.1-0.3,0.1-0.5,0-0.8c-0.8-1.7-2.5-2.8-4.4-2.8c-2.6,0-4.8,2.1-4.8,4.8s2.1,4.8,4.8,4.8c1.5,0,2.8,1.2,2.8,2.8s-1.2,2.8-2.8,2.8
			c-1.1,0-2.1-0.7-2.6-1.7l0,0c-0.1-0.2-0.3-0.4-0.5-0.5C30.1,57.8,30,57.8,29.9,57.8z"/>
	</g>
	<g>
		<path d="M32.2,46.1c0,0.6,0.5,1.2,1.2,1.2c0.6,0,1.2-0.5,1.2-1.2v-2c0-0.6-0.5-1.1-1.2-1.1c-0.6,0-1.2,0.5-1.2,1.1V46.1z"/>
		<path d="M33.4,47.4c-0.7,0-1.3-0.6-1.3-1.3v-2c0-0.7,0.6-1.3,1.3-1.3s1.3,0.6,1.3,1.3v2C34.7,46.8,34.1,47.4,33.4,47.4z
			 M33.4,43.1c-0.6,0-1,0.4-1,1v2c0,0.6,0.4,1,1,1s1-0.4,1-1v-2C34.4,43.6,33.9,43.1,33.4,43.1z"/>
	</g>
	<g>
		<path d="M32.2,63.1c0,0.6,0.5,1.1,1.2,1.1c0.6,0,1.2-0.5,1.2-1.1v-2c0-0.6-0.5-1.1-1.2-1.1c-0.6,0-1.2,0.5-1.2,1.1V63.1z"/>
		<path d="M33.4,64.4c-0.7,0-1.3-0.6-1.3-1.3v-2c0-0.7,0.6-1.3,1.3-1.3s1.3,0.6,1.3,1.3v2C34.7,63.9,34.1,64.4,33.4,64.4z
			 M33.4,60.1c-0.6,0-1,0.4-1,1v2c0,0.6,0.4,1,1,1s1-0.4,1-1v-2C34.4,60.6,33.9,60.1,33.4,60.1z"/>
	</g>
</g>
<g>
	<path d="M48.4,25.8c-2.7,0-16-0.2-16-3.8c0-0.6,0.4-1,1-1c0.5,0,0.9,0.4,1,0.8c0.7,0.7,5.5,2,14,2c7.9,0,12.6-1.1,13.8-1.8
		c-1.2-0.7-5.9-1.8-13.8-1.8c-1.5,0-3,0-4.3,0.1c-0.5,0-1-0.4-1.1-0.9c0-0.6,0.4-1,0.9-1.1c1.4-0.1,2.9-0.1,4.4-0.1
		c2.7,0,16,0.2,16,3.8C64.4,25.6,51.1,25.8,48.4,25.8z"/>
</g>
</svg>
