<svg xmlns="http://www.w3.org/2000/svg" xmlns:xlink="http://www.w3.org/1999/xlink" x="0px" y="0px" viewBox="0 0 90 60" style="enable-background:new 0 0 90 60;" xml:space="preserve"><g>	<path d="M42.9,35.1c0.3,0,0.5-0.1,0.7-0.3l8.3-8.2c0.4-0.4,0.4-1,0-1.4s-1-0.4-1.4,0l-7.5,7.5l-3.4-3.4c-0.4-0.4-1-0.4-1.4,0  s-0.4,1,0,1.4l4.1,4.1C42.4,35,42.7,35.1,42.9,35.1L42.9,35.1z"></path>	<path d="M85.9,0H4.1C1.8,0,0,1.8,0,4.1v51.8C0,58.1,1.8,60,4.1,60h81.7c2.3,0,4.1-1.8,4.1-4.1V4.1C90,1.8,88.1,0,85.9,0L85.9,0z   M4.1,2h81.7C87,2,88,2.9,88,4.1v5.7H2V4.1C2,2.9,2.9,2,4.1,2z M45,20.6c5.2,0,9.3,4.2,9.3,9.3s-4.2,9.3-9.3,9.3s-9.3-4.2-9.3-9.3  S39.8,20.6,45,20.6z M85.9,58H4.1C2.9,58,2,57,2,55.9v-30h32.4c-0.5,1.3-0.8,2.6-0.8,4.1c0,6.3,5.1,11.3,11.3,11.3  S56.3,36.2,56.3,30c0-1.4-0.3-2.8-0.8-4.1H88v30C88,57,87,58,85.9,58L85.9,58z"></path>	<path d="M5,28.3c-0.6,0-1,0.4-1,1v14.5c0,0.6,0.4,1,1,1s1-0.4,1-1V29.3C6,28.7,5.6,28.3,5,28.3z"></path>	<path d="M5,46.5c-0.6,0-1,0.4-1,1v4.2c0,0.6,0.4,1,1,1s1-0.4,1-1v-4.2C6,46.9,5.6,46.5,5,46.5z"></path>	<path d="M83.2,52.3H65.6c-0.6,0-1,0.4-1,1s0.4,1,1,1h17.5c0.6,0,1-0.4,1-1S83.7,52.3,83.2,52.3z"></path>	<path d="M83.2,47.9H72.6c-0.6,0-1,0.4-1,1s0.4,1,1,1h10.6c0.6,0,1-0.4,1-1S83.7,47.9,83.2,47.9z"></path>	<path d="M83.2,43.5H65.6c-0.6,0-1,0.4-1,1c0,0.6,0.4,1,1,1h17.5c0.6,0,1-0.4,1-1S83.7,43.5,83.2,43.5z"></path></g></svg>