<svg xmlns="http://www.w3.org/2000/svg" xmlns:xlink="http://www.w3.org/1999/xlink" x="0px" y="0px" viewBox="0 0 200 200" style="enable-background:new 0 0 200 200;" xml:space="preserve">	<path d="M98.5,190.4c-1.9,0.8-3.9,1.2-5.9,1.2c-2,0-4-0.4-5.9-1.2c-1.9-0.8-3.6-1.9-5-3.4L5.6,111c-0.7-0.7-1.4-1.5-2-2.4  c-0.2-0.3-0.4-0.6-0.5-1c0,0,0-0.1-0.1-0.1l-0.1-0.2c-0.3-0.4-0.5-0.9-0.7-1.4c-0.2-0.5-0.3-1-0.4-1.3l-0.1-0.2c0-0.1,0-0.1-0.1-0.2  c-0.1-0.4-0.2-0.8-0.3-1.2c-0.4-2-0.4-4.1,0-6.1c0.1-0.4,0.2-0.8,0.3-1.2c0-0.1,0-0.1,0.1-0.2l0.1-0.2C1.9,95,2,94.5,2.2,94.1  c0.2-0.5,0.4-0.9,0.7-1.4L3,92.5c0,0,0.1-0.1,0.1-0.1c0.2-0.3,0.3-0.7,0.6-1c0.6-0.9,1.2-1.6,1.9-2.4L81.6,13  c2.2-2.2,4.9-3.6,7.9-4.2c3-0.6,6.1-0.3,9,0.9c2.8,1.2,5.2,3.2,7,5.7c1.7,2.6,2.6,5.5,2.6,8.6c0,2-0.4,4.1-1.2,5.9  c-0.8,1.9-1.9,3.6-3.4,5L53.9,84.5h129.6c4.1,0,8.1,1.6,11,4.5c2.9,2.9,4.5,6.8,4.5,11c0,4.1-1.6,8.1-4.5,11  c-2.9,2.9-6.8,4.5-11,4.5H53.9l49.6,49.6c1.4,1.4,2.6,3.1,3.4,5c0.8,1.9,1.2,3.9,1.2,5.9c0,2-0.4,4-1.2,5.9c-0.8,1.9-1.9,3.6-3.4,5  C102.1,188.5,100.4,189.6,98.5,190.4z"></path></svg>