<svg xmlns="http://www.w3.org/2000/svg" xmlns:xlink="http://www.w3.org/1999/xlink" x="0px" y="0px" viewBox="0 0 200 200" style="enable-background:new 0 0 200 200;" xml:space="preserve">	<path d="M4.4,186.3c-1.3,0-2-0.6-2.5-1.1L1,184.3v-31.5l2.9-0.1c18.3-0.5,32.7-8.2,42.9-22.7c5.5-7.8,8.5-16.5,9.2-26.8H1V14h84.4  c0.7,0,1.4,0,2.5,0.3l2.1,0.7l0,91.1c-0.2,1.3-0.4,2.6-0.5,3.9c-0.3,2.1-0.5,4.3-1,6.4c-4.3,22-15.6,40-33.8,53.4  C40.3,180.4,23.9,185.9,6,186.3H4.4z M7.1,158.6v21.6c16.2-0.6,30.9-5.7,43.9-15.3c16.9-12.5,27.4-29.3,31.4-49.8  c0.4-1.9,0.7-3.8,0.9-5.9c0.2-1.3,0.3-2.6,0.5-3.9V20H7.1v77.2h55.2l-0.1,3.1c-0.2,12.8-3.6,23.7-10.4,33.3  C41,148.9,25.9,157.3,7.1,158.6z"></path>	<path d="M113.5,186c-1.3,0-2-0.6-2.5-1.1l-0.9-0.9v-31.5l2.9-0.1c18.3-0.5,32.7-8.2,42.9-22.7c5.5-7.8,8.5-16.5,9.2-26.8h-55V13.7  h84.4c0.7,0,1.4,0,2.5,0.3l2.1,0.7l0,91.1c-0.2,1.3-0.4,2.6-0.5,3.9c-0.3,2.1-0.5,4.3-1,6.4c-4.3,22-15.6,40-33.8,53.4  c-14.3,10.6-30.6,16.2-48.6,16.6H113.5z M116.2,158.3v21.6c16.2-0.6,30.9-5.7,43.9-15.3c16.9-12.5,27.4-29.3,31.4-49.8  c0.4-1.9,0.7-3.8,0.9-5.9c0.2-1.3,0.3-2.6,0.5-3.9V19.7h-76.8v77.2h55.2l-0.1,3.1c-0.2,12.8-3.6,23.7-10.4,33.3  C150.1,148.6,135,157,116.2,158.3z"></path></svg>