
<svg  xmlns="http://www.w3.org/2000/svg"  x="0px" y="0px"
	 viewBox="0 0 60 48" style="enable-background:new 0 0 60 48;" xml:space="preserve">
<g>
	<g>
		<path d="M39.1,44.7c-0.3,0-0.5-0.2-0.5-0.5V13.8H20.8v14c0,0.3-0.2,0.5-0.5,0.5s-0.5-0.2-0.5-0.5V13.3c0-0.3,0.2-0.5,0.5-0.5h18.8
			c0.3,0,0.5,0.2,0.5,0.5v30.9C39.6,44.5,39.3,44.7,39.1,44.7z"/>
	</g>
	<g>
		<path d="M20.3,44.7c-0.3,0-0.5-0.2-0.5-0.5v-1.9c0-0.3,0.2-0.5,0.5-0.5s0.5,0.2,0.5,0.5v1.9C20.8,44.5,20.6,44.7,20.3,44.7z"/>
	</g>
	<g>
		<path d="M30.9,44.7c-0.3,0-0.5-0.2-0.5-0.5v-4.8h-1.5v4.8c0,0.3-0.2,0.5-0.5,0.5s-0.5-0.2-0.5-0.5v-5.3c0-0.3,0.2-0.5,0.5-0.5h2.5
			c0.3,0,0.5,0.2,0.5,0.5v5.3C31.4,44.5,31.2,44.7,30.9,44.7z"/>
	</g>
	<g>
		<path d="M51.7,44.7H8.2c-0.3,0-0.5-0.2-0.5-0.5s0.2-0.5,0.5-0.5h43.5c0.3,0,0.5,0.2,0.5,0.5S52,44.7,51.7,44.7z"/>
	</g>
	<g>
		<path d="M47.1,48H28.6c-0.3,0-0.5-0.2-0.5-0.5s0.2-0.5,0.5-0.5h18.6c0.3,0,0.5,0.2,0.5,0.5S47.4,48,47.1,48z"/>
	</g>
	<g>
		<path d="M17.8,48h-6c-0.3,0-0.5-0.2-0.5-0.5s0.2-0.5,0.5-0.5h6c0.3,0,0.5,0.2,0.5,0.5S18,48,17.8,48z"/>
	</g>
	<g>
		<path d="M25.5,48h-4.1c-0.3,0-0.5-0.2-0.5-0.5s0.2-0.5,0.5-0.5h4.1c0.3,0,0.5,0.2,0.5,0.5S25.8,48,25.5,48z"/>
	</g>
	<g>
		<path d="M18.1,40.9c-1.2,0-2.2-0.5-2.9-1.5c-0.7,0.5-1.6,0.7-2.5,0.7c-2.1,0-3.9-1.7-4-3.8c0,0,0-0.1,0-0.1c0-1.5,0.8-2.8,2.1-3.5
			c-0.3-0.5-0.5-1-0.5-1.6c0-1.6,1.4-2.8,2.9-2.7c0,0,0,0,0,0c0-1.4,1.1-2.5,2.5-2.5c1.4,0,2.5,1.1,2.5,2.5c0,0.3,0,0.5-0.1,0.8
			c1.4,0.3,2.5,1.5,2.5,3c0,0.6-0.2,1.2-0.5,1.7c1.1,0.7,1.8,1.9,1.8,3.3C21.9,39.1,20.2,40.9,18.1,40.9z M15.4,38.1
			C15.4,38.1,15.4,38.1,15.4,38.1c0.2,0,0.4,0.1,0.4,0.3c0.4,0.7,1.1,1.5,2.3,1.5c1.6,0,2.8-1.3,2.8-2.8c0-1.2-0.7-2.2-1.8-2.6
			c-0.2-0.1-0.3-0.2-0.3-0.4c0-0.2,0-0.3,0.1-0.5c0.4-0.4,0.6-0.9,0.6-1.5c0-1.1-0.9-2.1-2.1-2.1c-0.2,0-0.5-0.1-0.6-0.2
			c-0.1-0.2-0.1-0.4,0-0.6c0.2-0.3,0.3-0.6,0.3-0.9c0-0.8-0.7-1.5-1.5-1.5s-1.5,0.7-1.5,1.5c0,0.2,0,0.3,0.1,0.5
			c0.1,0.2,0,0.4-0.1,0.5c-0.1,0.1-0.4,0.2-0.5,0.1c-0.2-0.1-0.4-0.1-0.7-0.1c-0.9,0-1.7,0.8-1.7,1.7c0,0.6,0.3,1.1,0.7,1.4
			c0.2,0.1,0.2,0.3,0.2,0.5c0,0.2-0.2,0.3-0.4,0.4c-1.2,0.4-2.1,1.5-2.1,2.7c0,0,0,0.1,0,0.1c0,1.6,1.3,3,3,3c0.8,0,1.7-0.3,2.3-0.8
			C15.1,38.1,15.2,38.1,15.4,38.1z"/>
	</g>
	<g>
		<path d="M15.4,37.4c-0.2,0-0.4-0.1-0.4-0.3c-0.1-0.2,0-0.5,0.2-0.7l2.6-1.4c0.2-0.1,0.5,0,0.7,0.2c0.1,0.2,0,0.5-0.2,0.7l-2.6,1.4
			C15.5,37.4,15.4,37.4,15.4,37.4z"/>
	</g>
	<g>
		<path d="M15.4,44.7c-0.3,0-0.5-0.2-0.5-0.5V30.3c0-0.3,0.2-0.5,0.5-0.5s0.5,0.2,0.5,0.5v13.9C15.9,44.5,15.6,44.7,15.4,44.7z"/>
	</g>
	<g>
		<path d="M15.4,33.2c-0.1,0-0.2,0-0.3-0.1L13.3,32c-0.2-0.1-0.3-0.5-0.2-0.7s0.5-0.3,0.7-0.2l1.6,1l1.7-1c0.2-0.1,0.5,0,0.7,0.2
			c0.1,0.2,0.1,0.5-0.2,0.7l-2,1.1C15.5,33.2,15.4,33.2,15.4,33.2z"/>
	</g>
	<g>
		<path d="M15.4,37.4c-0.1,0-0.1,0-0.2,0l-2.8-1.2c-0.3-0.1-0.4-0.4-0.3-0.7c0.1-0.3,0.4-0.4,0.7-0.3l2.8,1.2
			c0.3,0.1,0.4,0.4,0.3,0.7C15.7,37.3,15.5,37.4,15.4,37.4z"/>
	</g>
	<g>
		<path d="M33.5,13.8c-0.3,0-0.5-0.2-0.5-0.5v-2.9h-6.7v2.9c0,0.3-0.2,0.5-0.5,0.5s-0.5-0.2-0.5-0.5V9.9c0-0.3,0.2-0.5,0.5-0.5h7.7
			c0.3,0,0.5,0.2,0.5,0.5v3.4C34,13.6,33.8,13.8,33.5,13.8z"/>
	</g>
	<g>
		<path d="M29.7,10.4c-0.3,0-0.5-0.2-0.5-0.5v-3c0-0.3,0.2-0.5,0.5-0.5s0.5,0.2,0.5,0.5v3C30.2,10.2,30,10.4,29.7,10.4z"/>
	</g>
	<g>
		<path d="M25.9,25.9h-2.5c-0.3,0-0.5-0.2-0.5-0.5v-3c0-0.3,0.2-0.5,0.5-0.5h2.5c0.3,0,0.5,0.2,0.5,0.5v3
			C26.4,25.7,26.2,25.9,25.9,25.9z M24,24.9h1.5v-2H24V24.9z"/>
	</g>
	<g>
		<path d="M30.9,25.9h-2.5c-0.3,0-0.5-0.2-0.5-0.5v-3c0-0.3,0.2-0.5,0.5-0.5h2.5c0.3,0,0.5,0.2,0.5,0.5v3
			C31.4,25.7,31.2,25.9,30.9,25.9z M28.9,24.9h1.5v-2h-1.5V24.9z"/>
	</g>
	<g>
		<path d="M35.9,25.9h-2.5c-0.3,0-0.5-0.2-0.5-0.5v-3c0-0.3,0.2-0.5,0.5-0.5h2.5c0.3,0,0.5,0.2,0.5,0.5v3
			C36.4,25.7,36.2,25.9,35.9,25.9z M33.9,24.9h1.5v-2h-1.5V24.9z"/>
	</g>
	<g>
		<path d="M25.9,31.4h-2.5c-0.3,0-0.5-0.2-0.5-0.5v-3c0-0.3,0.2-0.5,0.5-0.5h2.5c0.3,0,0.5,0.2,0.5,0.5v3
			C26.4,31.1,26.2,31.4,25.9,31.4z M24,30.4h1.5v-2H24V30.4z"/>
	</g>
	<g>
		<path d="M30.9,31.4h-2.5c-0.3,0-0.5-0.2-0.5-0.5v-3c0-0.3,0.2-0.5,0.5-0.5h2.5c0.3,0,0.5,0.2,0.5,0.5v3
			C31.4,31.1,31.2,31.4,30.9,31.4z M28.9,30.4h1.5v-2h-1.5V30.4z"/>
	</g>
	<g>
		<path d="M35.9,31.4h-2.5c-0.3,0-0.5-0.2-0.5-0.5v-3c0-0.3,0.2-0.5,0.5-0.5h2.5c0.3,0,0.5,0.2,0.5,0.5v3
			C36.4,31.1,36.2,31.4,35.9,31.4z M33.9,30.4h1.5v-2h-1.5V30.4z"/>
	</g>
	<g>
		<path d="M25.9,36.8h-2.5c-0.3,0-0.5-0.2-0.5-0.5v-3c0-0.3,0.2-0.5,0.5-0.5h2.5c0.3,0,0.5,0.2,0.5,0.5v3
			C26.4,36.6,26.2,36.8,25.9,36.8z M24,35.8h1.5v-2H24V35.8z"/>
	</g>
	<g>
		<path d="M30.9,36.8h-2.5c-0.3,0-0.5-0.2-0.5-0.5v-3c0-0.3,0.2-0.5,0.5-0.5h2.5c0.3,0,0.5,0.2,0.5,0.5v3
			C31.4,36.6,31.2,36.8,30.9,36.8z M28.9,35.8h1.5v-2h-1.5V35.8z"/>
	</g>
	<g>
		<path d="M35.9,36.8h-2.5c-0.3,0-0.5-0.2-0.5-0.5v-3c0-0.3,0.2-0.5,0.5-0.5h2.5c0.3,0,0.5,0.2,0.5,0.5v3
			C36.4,36.6,36.2,36.8,35.9,36.8z M33.9,35.8h1.5v-2h-1.5V35.8z"/>
	</g>
	<g>
		<path d="M25.9,20.5h-2.5c-0.3,0-0.5-0.2-0.5-0.5v-3c0-0.3,0.2-0.5,0.5-0.5h2.5c0.3,0,0.5,0.2,0.5,0.5v3
			C26.4,20.3,26.2,20.5,25.9,20.5z M24,19.5h1.5v-2H24V19.5z"/>
	</g>
	<g>
		<path d="M30.9,20.5h-2.5c-0.3,0-0.5-0.2-0.5-0.5v-3c0-0.3,0.2-0.5,0.5-0.5h2.5c0.3,0,0.5,0.2,0.5,0.5v3
			C31.4,20.3,31.2,20.5,30.9,20.5z M28.9,19.5h1.5v-2h-1.5V19.5z"/>
	</g>
	<g>
		<path d="M35.9,20.5h-2.5c-0.3,0-0.5-0.2-0.5-0.5v-3c0-0.3,0.2-0.5,0.5-0.5h2.5c0.3,0,0.5,0.2,0.5,0.5v3
			C36.4,20.3,36.2,20.5,35.9,20.5z M33.9,19.5h1.5v-2h-1.5V19.5z"/>
	</g>
	<g>
		<path d="M47.8,44.7c-0.3,0-0.5-0.2-0.5-0.5V21.7h-8.2c-0.3,0-0.5-0.2-0.5-0.5s0.2-0.5,0.5-0.5h8.7c0.3,0,0.5,0.2,0.5,0.5v23
			C48.3,44.5,48.1,44.7,47.8,44.7z"/>
	</g>
	<g>
		<path d="M45.2,25.1h-3.4c-0.3,0-0.5-0.2-0.5-0.5s0.2-0.5,0.5-0.5h3.4c0.3,0,0.5,0.2,0.5,0.5S45.5,25.1,45.2,25.1z"/>
	</g>
	<g>
		<path d="M45.2,27.5h-3.4c-0.3,0-0.5-0.2-0.5-0.5s0.2-0.5,0.5-0.5h3.4c0.3,0,0.5,0.2,0.5,0.5S45.5,27.5,45.2,27.5z"/>
	</g>
	<g>
		<path d="M45.2,30h-3.4c-0.3,0-0.5-0.2-0.5-0.5s0.2-0.5,0.5-0.5h3.4c0.3,0,0.5,0.2,0.5,0.5S45.5,30,45.2,30z"/>
	</g>
	<g>
		<path d="M45.2,32.4h-3.4c-0.3,0-0.5-0.2-0.5-0.5s0.2-0.5,0.5-0.5h3.4c0.3,0,0.5,0.2,0.5,0.5S45.5,32.4,45.2,32.4z"/>
	</g>
	<g>
		<path d="M45.2,34.8h-3.4c-0.3,0-0.5-0.2-0.5-0.5s0.2-0.5,0.5-0.5h3.4c0.3,0,0.5,0.2,0.5,0.5S45.5,34.8,45.2,34.8z"/>
	</g>
	<g>
		<path d="M41.8,21.7c-0.3,0-0.5-0.2-0.5-0.5V4.6h-7.8v2.5c0,0.3-0.2,0.5-0.5,0.5s-0.5-0.2-0.5-0.5v-3c0-0.3,0.2-0.5,0.5-0.5h8.8
			c0.3,0,0.5,0.2,0.5,0.5v17.1C42.3,21.5,42.1,21.7,41.8,21.7z"/>
	</g>
	<g>
		<path d="M37.4,4.6c-0.3,0-0.5-0.2-0.5-0.5V1c0-0.3,0.2-0.5,0.5-0.5s0.5,0.2,0.5,0.5v3.1C37.9,4.4,37.7,4.6,37.4,4.6z"/>
	</g>
	<g>
		<path d="M39.1,8.2h-3.4c-0.3,0-0.5-0.2-0.5-0.5s0.2-0.5,0.5-0.5h3.4c0.3,0,0.5,0.2,0.5,0.5S39.4,8.2,39.1,8.2z"/>
	</g>
	<g>
		<path d="M39.1,10.7h-3.4c-0.3,0-0.5-0.2-0.5-0.5s0.2-0.5,0.5-0.5h3.4c0.3,0,0.5,0.2,0.5,0.5S39.4,10.7,39.1,10.7z"/>
	</g>
	<g>
		<path d="M45.2,37.2h-3.4c-0.3,0-0.5-0.2-0.5-0.5s0.2-0.5,0.5-0.5h3.4c0.3,0,0.5,0.2,0.5,0.5S45.5,37.2,45.2,37.2z"/>
	</g>
	<g>
		<path d="M45.2,39.6h-3.4c-0.3,0-0.5-0.2-0.5-0.5s0.2-0.5,0.5-0.5h3.4c0.3,0,0.5,0.2,0.5,0.5S45.5,39.6,45.2,39.6z"/>
	</g>
</g>
</svg>
