
<svg xmlns="http://www.w3.org/2000/svg"  x="0px" y="0px"
	 viewBox="0 0 60 49" style="enable-background:new 0 0 60 49;" xml:space="preserve">
<g>
	<g>
		<path d="M43.7,45.5c-0.3,0-0.5-0.2-0.5-0.5V1.1H28.6V45c0,0.3-0.2,0.5-0.5,0.5s-0.5-0.2-0.5-0.5V0.6c0-0.3,0.2-0.5,0.5-0.5h15.5
			c0.3,0,0.5,0.2,0.5,0.5V45C44.2,45.3,43.9,45.5,43.7,45.5z"/>
	</g>
	<g>
		<path d="M22.8,24.4c-0.3,0-0.5-0.2-0.5-0.5V5.3c0-0.1,0.1-0.3,0.2-0.4l5.4-4.7c0.2-0.2,0.5-0.2,0.7,0c0.2,0.2,0.2,0.5,0,0.7
			l-5.2,4.5v18.4C23.3,24.2,23,24.4,22.8,24.4z"/>
	</g>
	<g>
		<path d="M22.8,45.4c-0.3,0-0.5-0.2-0.5-0.5v-2.7c0-0.3,0.2-0.5,0.5-0.5s0.5,0.2,0.5,0.5v2.7C23.3,45.1,23,45.4,22.8,45.4z"/>
	</g>
	<g>
		<path d="M41.1,5h-9.9c-0.3,0-0.5-0.2-0.5-0.5S30.9,4,31.2,4h9.9c0.3,0,0.5,0.2,0.5,0.5S41.4,5,41.1,5z"/>
	</g>
	<g>
		<path d="M41.1,7.7h-9.9c-0.3,0-0.5-0.2-0.5-0.5s0.2-0.5,0.5-0.5h9.9c0.3,0,0.5,0.2,0.5,0.5S41.4,7.7,41.1,7.7z"/>
	</g>
	<g>
		<path d="M41.1,10.5h-9.9c-0.3,0-0.5-0.2-0.5-0.5s0.2-0.5,0.5-0.5h9.9c0.3,0,0.5,0.2,0.5,0.5S41.4,10.5,41.1,10.5z"/>
	</g>
	<g>
		<path d="M41.1,13.3h-9.9c-0.3,0-0.5-0.2-0.5-0.5s0.2-0.5,0.5-0.5h9.9c0.3,0,0.5,0.2,0.5,0.5S41.4,13.3,41.1,13.3z"/>
	</g>
	<g>
		<path d="M41.1,16.1h-9.9c-0.3,0-0.5-0.2-0.5-0.5s0.2-0.5,0.5-0.5h9.9c0.3,0,0.5,0.2,0.5,0.5S41.4,16.1,41.1,16.1z"/>
	</g>
	<g>
		<path d="M41.1,18.9h-9.9c-0.3,0-0.5-0.2-0.5-0.5s0.2-0.5,0.5-0.5h9.9c0.3,0,0.5,0.2,0.5,0.5S41.4,18.9,41.1,18.9z"/>
	</g>
	<g>
		<path d="M41.1,21.6h-9.9c-0.3,0-0.5-0.2-0.5-0.5s0.2-0.5,0.5-0.5h9.9c0.3,0,0.5,0.2,0.5,0.5S41.4,21.6,41.1,21.6z"/>
	</g>
	<g>
		<path d="M41.1,24.4h-9.9c-0.3,0-0.5-0.2-0.5-0.5s0.2-0.5,0.5-0.5h9.9c0.3,0,0.5,0.2,0.5,0.5S41.4,24.4,41.1,24.4z"/>
	</g>
	<g>
		<path d="M41.1,27.2h-9.9c-0.3,0-0.5-0.2-0.5-0.5s0.2-0.5,0.5-0.5h9.9c0.3,0,0.5,0.2,0.5,0.5S41.4,27.2,41.1,27.2z"/>
	</g>
	<g>
		<path d="M41.1,30h-9.9c-0.3,0-0.5-0.2-0.5-0.5s0.2-0.5,0.5-0.5h9.9c0.3,0,0.5,0.2,0.5,0.5S41.4,30,41.1,30z"/>
	</g>
	<g>
		<path d="M41.1,32.7h-9.9c-0.3,0-0.5-0.2-0.5-0.5s0.2-0.5,0.5-0.5h9.9c0.3,0,0.5,0.2,0.5,0.5S41.4,32.7,41.1,32.7z"/>
	</g>
	<g>
		<path d="M41.1,35.5h-9.9c-0.3,0-0.5-0.2-0.5-0.5s0.2-0.5,0.5-0.5h9.9c0.3,0,0.5,0.2,0.5,0.5S41.4,35.5,41.1,35.5z"/>
	</g>
	<g>
		<path d="M41.1,38.3h-9.9c-0.3,0-0.5-0.2-0.5-0.5s0.2-0.5,0.5-0.5h9.9c0.3,0,0.5,0.2,0.5,0.5S41.4,38.3,41.1,38.3z"/>
	</g>
	<g>
		<path d="M52.4,45.5H8c-0.3,0-0.5-0.2-0.5-0.5s0.2-0.5,0.5-0.5h44.4c0.3,0,0.5,0.2,0.5,0.5S52.7,45.5,52.4,45.5z"/>
	</g>
	<g>
		<path d="M48.3,48.9h-19c-0.3,0-0.5-0.2-0.5-0.5s0.2-0.5,0.5-0.5h19c0.3,0,0.5,0.2,0.5,0.5S48.6,48.9,48.3,48.9z"/>
	</g>
	<g>
		<path d="M18.3,48.9h-6.2c-0.3,0-0.5-0.2-0.5-0.5s0.2-0.5,0.5-0.5h6.2c0.3,0,0.5,0.2,0.5,0.5S18.6,48.9,18.3,48.9z"/>
	</g>
	<g>
		<path d="M26.2,48.9H22c-0.3,0-0.5-0.2-0.5-0.5s0.2-0.5,0.5-0.5h4.2c0.3,0,0.5,0.2,0.5,0.5S26.5,48.9,26.2,48.9z"/>
	</g>
	<g>
		<path d="M14.4,40.9c-2.5,0-4.5-2-4.5-4.5c0-1.7,0.9-3.1,2.3-3.9c-0.4-0.6-0.7-1.3-0.7-2.1c0-1.8,1.3-3.3,3-3.6
			c-0.1-0.3-0.2-0.7-0.2-1c0-1.6,1.3-2.9,2.9-2.9c1.6,0,2.9,1.3,2.9,2.9c0,0,0,0.1,0,0.1c0.1,0,0.2,0,0.4,0c1.7,0,3.2,1.4,3.2,3.2
			c0,0.7-0.3,1.4-0.7,2c1.6,0.8,2.6,2.4,2.6,4.2c0,2.6-2.1,4.7-4.7,4.7c-1.1,0-2.2-0.4-3-0.9C17,40.2,15.8,40.9,14.4,40.9z
			 M15.2,27.7c-1.5,0-2.7,1.2-2.7,2.6c0,0.7,0.3,1.4,0.8,1.9c0.1,0.1,0.2,0.3,0.1,0.5c0,0.2-0.2,0.3-0.3,0.4
			c-1.4,0.5-2.3,1.8-2.3,3.3c0,1.9,1.6,3.5,3.5,3.5c1.6,0,2.4-1,2.9-1.9c0.1-0.1,0.2-0.2,0.4-0.3c0.2,0,0.3,0,0.4,0.1
			c0.6,0.6,1.8,1.1,2.8,1.1c2,0,3.7-1.7,3.7-3.7c0-1.6-1.1-3.1-2.6-3.5c-0.1,0-0.1,0-0.2-0.1c-0.2-0.1-0.3-0.3-0.3-0.4v0
			c0-0.2,0.1-0.3,0.2-0.4c0,0,0,0,0.1,0c0.5-0.4,0.9-1,0.9-1.7c0-1.2-1-2.2-2.2-2.2c-0.3,0-0.6,0.1-0.8,0.2c-0.2,0.1-0.4,0-0.5-0.1
			c-0.1-0.1-0.2-0.3-0.1-0.5c0.1-0.2,0.1-0.5,0.1-0.7c0-1-0.9-1.9-1.9-1.9c-1,0-1.9,0.9-1.9,1.9c0,0.4,0.1,0.8,0.4,1.2
			c0.1,0.1,0.1,0.4,0.1,0.5C15.7,27.6,15.4,27.7,15.2,27.7C15.2,27.7,15.2,27.7,15.2,27.7z"/>
	</g>
	<g>
		<path d="M17.7,36.7c-0.1,0-0.2,0-0.2-0.1l-3.1-1.7c-0.2-0.1-0.3-0.4-0.2-0.7c0.1-0.2,0.4-0.3,0.7-0.2l3.1,1.7
			c0.2,0.1,0.3,0.4,0.2,0.7C18.1,36.6,17.9,36.7,17.7,36.7z"/>
	</g>
	<g>
		<path d="M17.7,45.5c-0.3,0-0.5-0.2-0.5-0.5V28.2c0-0.3,0.2-0.5,0.5-0.5s0.5,0.2,0.5,0.5V45C18.2,45.3,18,45.5,17.7,45.5z"/>
	</g>
	<g>
		<path d="M17.7,31.5c-0.1,0-0.2,0-0.2-0.1l-2.4-1.4c-0.2-0.1-0.3-0.4-0.2-0.7c0.1-0.2,0.4-0.3,0.7-0.2l2.2,1.2l1.9-1.2
			c0.2-0.1,0.5-0.1,0.7,0.2c0.1,0.2,0.1,0.5-0.2,0.7L18,31.5C17.9,31.5,17.8,31.5,17.7,31.5z"/>
	</g>
	<g>
		<path d="M17.7,36.7c-0.2,0-0.4-0.1-0.5-0.3c-0.1-0.3,0-0.5,0.3-0.7l3.4-1.5c0.3-0.1,0.5,0,0.7,0.3c0.1,0.3,0,0.5-0.3,0.7l-3.4,1.5
			C17.8,36.7,17.8,36.7,17.7,36.7z"/>
	</g>
</g>
</svg>
