
<svg  xmlns="http://www.w3.org/2000/svg"  x="0px" y="0px"
	 viewBox="0 0 78 83" style="enable-background:new 0 0 78 83;" xml:space="preserve">
<g class="wdt-cus-touch">
	<g>
		<path d="M49.7,72.5c-1.6,0-3.2-0.3-4.6-1l0,0c-0.7-0.3-1.9-1.1-2.3-1.3L32.8,64c-0.2-0.1-0.9-0.6-0.9-0.6
			c-1.8-1.2-2.4-3.7-1.2-5.6c0.6-0.9,1.5-1.6,2.6-1.8c1.1-0.2,2.2,0,3.1,0.5l0.7,0.4l-4.8-11.1c-0.9-2.1,0.1-4.5,2.1-5.4
			c1-0.4,2.1-0.5,3.1-0.1c1,0.4,1.8,1.2,2.2,2.2l2.5,5.8c0.2-0.1,0.4-0.2,0.6-0.3c0.9-0.4,1.9-0.4,2.8-0.1c0.5,0.2,0.9,0.5,1.2,0.8
			c0.2-0.2,0.5-0.4,0.8-0.5c0.9-0.4,1.9-0.4,2.8-0.1c0.5,0.2,0.9,0.5,1.3,0.8c0.2-0.2,0.5-0.4,0.8-0.5l0.6,1.4l-0.6-1.4
			c0.9-0.4,1.9-0.4,2.8,0c0.9,0.4,1.6,1.1,2,2l3.1,7.1c0,0.1,0.1,0.1,0.1,0.2c1.6,4.4,0.1,9.4-3.6,12.1c-0.9,0.7-2.3,1.4-2.9,1.6
			C52.7,72.2,51.2,72.5,49.7,72.5z M46.2,68.8C46.2,68.8,46.2,68.8,46.2,68.8c2.1,1,4.6,1,6.7,0c0.9-0.4,1.8-0.9,2.2-1.3
			c2.7-1.9,3.8-5.6,2.6-8.8c0,0,0-0.1,0-0.1l-3-6.9c-0.1-0.2-0.3-0.3-0.4-0.4c-0.1,0-0.3-0.1-0.5,0c-0.1,0.1-0.2,0.1-0.3,0.2
			c-0.1,0.1-0.1,0.2-0.1,0.4l0,0.6c-0.1,0.7-0.6,1.2-1.3,1.4c-0.7,0.1-1.3-0.3-1.6-0.9l-0.7-1.6c-0.1-0.2-0.3-0.3-0.4-0.4
			c-0.1,0-0.3-0.1-0.5,0c-0.2,0.1-0.4,0.3-0.4,0.5c0,0,0,0.1,0,0.2l0,0.4c0,0.7-0.5,1.4-1.2,1.5c-0.7,0.2-1.4-0.2-1.7-0.9l-0.7-1.7
			c-0.1-0.2-0.3-0.3-0.4-0.4c-0.1,0-0.3-0.1-0.5,0c-0.3,0.1-0.5,0.5-0.4,0.8c0.2,0.8-0.2,1.5-1,1.8c-0.7,0.3-1.6-0.1-1.9-0.8
			L37,43.8c-0.1-0.3-0.3-0.5-0.6-0.6c-0.3-0.1-0.6-0.1-0.8,0c-0.6,0.2-0.8,0.9-0.6,1.4l6.8,15.6c0.3,0.6,0.1,1.3-0.4,1.7
			c-0.5,0.4-1.2,0.5-1.8,0.1L39,61.7L34.8,59c-0.2-0.2-0.5-0.2-0.8-0.1c-0.3,0.1-0.5,0.2-0.7,0.5c-0.3,0.5-0.2,1.2,0.3,1.5
			c0.1,0,0.7,0.5,0.8,0.6l9.9,6.2c0,0,0.1,0.1,0.1,0.1C44.9,68,46,68.6,46.2,68.8z"/>
	</g>
	<g>
		<path d="M43.4,56.2c-0.6,0-1.1-0.3-1.4-0.9l-1.7-3.9c-0.3-0.8,0-1.6,0.8-2c0.8-0.3,1.6,0,2,0.8l1.7,3.9c0.3,0.8,0,1.6-0.8,2
			C43.8,56.2,43.6,56.2,43.4,56.2z"/>
	</g>
	<g>
		<path d="M47.9,55.7c-0.6,0-1.1-0.3-1.4-0.9L45,51.4c-0.3-0.8,0-1.6,0.8-2c0.8-0.3,1.6,0,2,0.8l1.5,3.4c0.3,0.8,0,1.6-0.8,2
			C48.3,55.7,48.1,55.7,47.9,55.7z"/>
	</g>
	<g>
		<path d="M52.5,55.3c-0.6,0-1.1-0.3-1.4-0.9l-1.2-2.7c-0.3-0.8,0-1.6,0.8-2c0.8-0.3,1.6,0,2,0.8l1.2,2.7c0.3,0.8,0,1.6-0.8,2
			C52.9,55.3,52.7,55.3,52.5,55.3z"/>
	</g>
</g>
<g class="wdt-cus-touch-rays">
	<g>
		<path d="M41.5,42.2c-0.6,0-1.1-0.3-1.4-0.9c-0.3-0.8,0-1.6,0.8-2l2.8-1.2c0.8-0.3,1.6,0,2,0.8s0,1.6-0.8,2L42.1,42
			C41.9,42.1,41.7,42.2,41.5,42.2z"/>
	</g>
	<g>
		<path d="M38.2,38.5c-0.2,0-0.4,0-0.5-0.1c-0.8-0.3-1.1-1.2-0.8-1.9l1.1-2.8c0.3-0.8,1.2-1.1,1.9-0.8c0.8,0.3,1.1,1.2,0.8,1.9
			l-1.1,2.8C39.3,38.1,38.8,38.5,38.2,38.5z"/>
	</g>
	<g>
		<path d="M33.2,38.2c-0.6,0-1.1-0.3-1.4-0.9l-1.2-2.8c-0.3-0.8,0-1.6,0.8-2c0.8-0.3,1.6,0,2,0.8l1.2,2.8c0.3,0.8,0,1.6-0.8,2
			C33.6,38.1,33.4,38.2,33.2,38.2z"/>
	</g>
	<g>
		<path d="M29.5,41.5c-0.2,0-0.4,0-0.6-0.1l-2.8-1.1c-0.8-0.3-1.1-1.2-0.8-1.9c0.3-0.8,1.2-1.1,1.9-0.8l2.8,1.1
			c0.8,0.3,1.1,1.2,0.8,1.9C30.7,41.1,30.1,41.5,29.5,41.5z"/>
	</g>
	<g>
		<path d="M26.5,47.6c-0.6,0-1.1-0.3-1.4-0.9c-0.3-0.8,0-1.6,0.8-2l2.8-1.2c0.8-0.3,1.6,0,2,0.8c0.3,0.8,0,1.6-0.8,2l-2.8,1.2
			C26.9,47.6,26.7,47.6,26.5,47.6z"/>
	</g>
</g>
<g>
	<path d="M34,71.1H23.5c-3.6,0-6.5-2.9-6.5-6.5V17c0-3.6,2.9-6.5,6.5-6.5h22.8c3.6,0,6.5,2.9,6.5,6.5v27.3c0,0.8-0.7,1.5-1.5,1.5
		s-1.5-0.7-1.5-1.5V17c0-1.9-1.6-3.5-3.5-3.5H23.5c-1.9,0-3.5,1.6-3.5,3.5v47.7c0,1.9,1.6,3.5,3.5,3.5H34c0.8,0,1.5,0.7,1.5,1.5
		S34.9,71.1,34,71.1z"/>
</g>
<g>
	<path d="M38.3,19.6h-6.9c-0.8,0-1.5-0.7-1.5-1.5s0.7-1.5,1.5-1.5h6.9c0.8,0,1.5,0.7,1.5,1.5S39.2,19.6,38.3,19.6z"/>
</g>
</svg>
