
<svg  xmlns="http://www.w3.org/2000/svg" x="0px" y="0px"
	 viewBox="0 0 78 83" style="enable-background:new 0 0 78 83;" xml:space="preserve">
<g class="wdt-cus-clock1">
	<g>
		<path d="M69,43.9c0,8.3-3.4,15.8-8.8,21.3C54.8,70.6,47.3,74,39,74c-8.3,0-15.8-3.4-21.2-8.8c-2.7-2.7-4.9-6-6.4-9.7
			C9.8,51.9,9,47.9,9,43.9c0-8,3.1-15.3,8.2-20.7c2.5-2.6,5.4-4.8,8.7-6.4c3.3-1.6,6.9-2.6,10.7-2.9V18c-2,0.2-4,0.6-5.9,1.3
			c-2.1,0.7-4.2,1.7-6,3l0,0l-0.5,0.4l0,0h0c-3.4,2.4-6.2,5.6-8.1,9.3c-1.9,3.6-2.9,7.7-2.9,12c0,7.2,2.9,13.7,7.6,18.4
			c4.7,4.7,11.2,7.6,18.4,7.6c7.2,0,13.6-2.9,18.3-7.6c4.7-4.7,7.6-11.2,7.6-18.4c0-0.6,0.3-1,0.6-1.4c0.4-0.4,0.9-0.6,1.4-0.6
			c0.6,0,1.1,0.2,1.4,0.6C68.8,42.9,69,43.3,69,43.9z"/>
	</g>
	<g>
		<path d="M35.3,15.2V9.1c0,0,0-0.1,0.1-0.1c0,0,0.1,0,0.1,0l9.5,6l0.1,0c0,0,0.1,0.1,0.1,0.1c0,0.1,0,0.1-0.1,0.1l-0.1,0l-9.5,6
			c0,0-0.1,0-0.1,0c0,0-0.1-0.1-0.1-0.1V15.2z"/>
	</g>
</g>
<g class="wdt-cus-clock2">
	<g>
		<path d="M27.3,33c0.6-0.6,1.6-0.6,2.2,0l10.2,10.2c0.6,0.6,0.6,1.6,0,2.2c-0.6,0.6-1.6,0.6-2.2,0L27.3,35.2
			C26.7,34.6,26.7,33.6,27.3,33z"/>
	</g>
	<g>
		<path d="M60.6,22.2c0.6,0.6,0.6,1.6,0,2.2L39.7,45.4c-0.6,0.6-1.6,0.6-2.2,0c-0.6-0.6-0.6-1.6,0-2.2l20.9-20.9
			C59,21.6,60,21.6,60.6,22.2L60.6,22.2z"/>
	</g>
</g>
<g class="wdt-cus-clock3">
	<g>
		<path d="M39.8,21.8v4.4c0,0.4-0.3,0.8-0.8,0.8c-0.4,0-0.8-0.3-0.8-0.8v-4.4c0-0.4,0.3-0.8,0.8-0.8C39.4,21,39.8,21.4,39.8,21.8z"
			/>
	</g>
	<g>
		<path d="M16.9,43.2h4.4c0.4,0,0.8,0.3,0.8,0.8c0,0.4-0.3,0.8-0.8,0.8h-4.4c-0.4,0-0.8-0.3-0.8-0.8C16.2,43.5,16.5,43.2,16.9,43.2z
			"/>
	</g>
	<g>
		<path d="M38.2,66v-4.4c0-0.4,0.3-0.8,0.8-0.8c0.4,0,0.8,0.3,0.8,0.8V66c0,0.4-0.3,0.8-0.8,0.8C38.6,66.8,38.2,66.5,38.2,66z"/>
	</g>
	<g>
		<path d="M61.1,44.7h-4.4c-0.4,0-0.8-0.3-0.8-0.8c0-0.4,0.3-0.8,0.8-0.8h4.4c0.4,0,0.8,0.3,0.8,0.8C61.8,44.3,61.5,44.7,61.1,44.7z
			"/>
	</g>
	<g>
		<path d="M28.6,24.4l1.2,2c0.2,0.4,0.1,0.8-0.3,1c-0.4,0.2-0.8,0.1-1-0.3l-1.2-2c-0.2-0.4-0.1-0.8,0.3-1C28,23.9,28.4,24,28.6,24.4
			z"/>
	</g>
	<g>
		<path d="M20.3,32.2l2,1.2c0.4,0.2,0.5,0.7,0.3,1c-0.2,0.4-0.7,0.5-1,0.3l-2-1.2c-0.4-0.2-0.5-0.7-0.3-1
			C19.5,32.1,19.9,32,20.3,32.2z"/>
	</g>
	<g>
		<path d="M19.5,54.3l2-1.2c0.4-0.2,0.8-0.1,1,0.3c0.2,0.4,0.1,0.8-0.3,1l-2,1.2c-0.4,0.2-0.8,0.1-1-0.3C19,55,19.2,54.5,19.5,54.3z
			"/>
	</g>
	<g>
		<path d="M27.3,62.7l1.2-2c0.2-0.4,0.7-0.5,1-0.3c0.4,0.2,0.5,0.7,0.3,1l-1.2,2c-0.2,0.4-0.7,0.5-1,0.3
			C27.2,63.5,27.1,63.1,27.3,62.7z"/>
	</g>
	<g>
		<path d="M49.4,63.5l-1.2-2c-0.2-0.4-0.1-0.8,0.3-1c0.4-0.2,0.8-0.1,1,0.3l1.2,2c0.2,0.4,0.1,0.8-0.3,1S49.6,63.8,49.4,63.5z"/>
	</g>
	<g>
		<path d="M57.7,55.6l-2-1.2c-0.4-0.2-0.5-0.7-0.3-1c0.2-0.4,0.7-0.5,1-0.3l2,1.2c0.4,0.2,0.5,0.7,0.3,1
			C58.6,55.7,58.1,55.9,57.7,55.6z"/>
	</g>
	<g>
		<path d="M58.5,33.5l-2,1.2c-0.4,0.2-0.8,0.1-1-0.3c-0.2-0.4-0.1-0.8,0.3-1l2-1.2c0.4-0.2,0.8-0.1,1,0.3
			C59,32.8,58.8,33.3,58.5,33.5z"/>
	</g>
	<g>
		<path d="M50.7,25.1l-1.2,2c-0.2,0.4-0.7,0.5-1,0.3c-0.4-0.2-0.5-0.7-0.3-1l1.2-2c0.2-0.4,0.7-0.5,1-0.3
			C50.8,24.3,50.9,24.8,50.7,25.1z"/>
	</g>
</g>
</svg>
