
<svg  xmlns="http://www.w3.org/2000/svg" x="0px" y="0px"
	 viewBox="0 0 139 259" style="enable-background:new 0 0 139 259;" xml:space="preserve">
<g class="path-load">
	<g class="path-load-3">
		<path d="M129,139.6H76.9c-5.5,0-10-4.5-10-10s4.5-10,10-10H129c5.5,0,10,4.5,10,10S134.5,139.6,129,139.6z M76.9,121.6
			c-4.4,0-8,3.6-8,8c0,4.4,3.6,8,8,8H129c4.4,0,8-3.6,8-8c0-4.4-3.6-8-8-8H76.9z"/>
	</g>
	<g class="path-load-4">
		<path d="M94.1,223.7c-2.6,0-5.1-1-7.1-2.9L50.3,184c-1.9-1.9-2.9-4.4-2.9-7.1c0-2.7,1-5.2,2.9-7.1c1.9-1.9,4.4-2.9,7.1-2.9
			s5.2,1,7.1,2.9l36.8,36.8c3.9,3.9,3.9,10.2,0,14.1C99.3,222.7,96.7,223.7,94.1,223.7z M57.3,168.9c-2.1,0-4.1,0.8-5.7,2.3
			s-2.3,3.5-2.3,5.7c0,2.1,0.8,4.1,2.3,5.7l36.8,36.8c1.5,1.5,3.5,2.3,5.7,2.3c2.1,0,4.1-0.8,5.7-2.3s2.3-3.5,2.3-5.7
			c0-2.1-0.8-4.1-2.3-5.7L63,171.2C61.5,169.7,59.5,168.9,57.3,168.9z"/>
	</g>
	<g class="path-load-1">
		<path d="M10,72.6c-5.5,0-10-4.5-10-10V10.6c0-5.5,4.5-10,10-10c5.5,0,10,4.5,10,10v52.1C20,68.2,15.5,72.6,10,72.6z M10,2.6
			c-4.4,0-8,3.6-8,8v52.1c0,4.4,3.6,8,8,8s8-3.6,8-8V10.6C18,6.2,14.4,2.6,10,2.6z"/>
	</g>
	<g class="path-load-5">
		<path d="M10,258.6c-5.5,0-10-4.5-10-10v-52.1c0-5.5,4.5-10,10-10c5.5,0,10,4.5,10,10v52.1C20,254.1,15.5,258.6,10,258.6z
			 M10,188.5c-4.4,0-8,3.6-8,8v52.1c0,4.4,3.6,8,8,8s8-3.6,8-8v-52.1C18,192.1,14.4,188.5,10,188.5z"/>
	</g>
	<g class="path-load-2">
		<path d="M57.3,92.2c-2.6,0-5.1-1-7.1-2.9c-3.9-3.9-3.9-10.2,0-14.1l36.8-36.8c1.9-1.9,4.4-2.9,7.1-2.9c2.7,0,5.2,1,7.1,2.9
			c3.9,3.9,3.9,10.2,0,14.1L64.4,89.3C62.4,91.3,59.9,92.2,57.3,92.2z M94.1,37.4c-2.1,0-4.1,0.8-5.7,2.3L51.7,76.6
			c-3.1,3.1-3.1,8.2,0,11.3c3.1,3.1,8.2,3.1,11.3,0l36.8-36.8c1.5-1.5,2.3-3.5,2.3-5.7s-0.8-4.1-2.3-5.7S96.3,37.4,94.1,37.4z"/>
	</g>
</g>
</svg>
