<svg xmlns="http://www.w3.org/2000/svg" xmlns:xlink="http://www.w3.org/1999/xlink" x="0px" y="0px" viewBox="0 0 200 200" style="enable-background:new 0 0 200 200;" xml:space="preserve">	<path d="M16.6,38.9l71.3,56.5c3.5,2.6,7.7,3.8,12,3.5c4.3,0.3,8.5-0.9,12-3.5l71.4-56.5c5.7-4.5,4.4-8.2-2.9-8.2h-161  C12.2,30.7,10.9,34.4,16.6,38.9z"></path>	<path d="M188.5,53.8L110.5,113c-3.1,2.1-6.8,3.2-10.5,3.2c-3.8,0-7.4-1.1-10.5-3.2l-78-59.2C5.7,49.4,1,51.7,1,59v97  c0,1.7,0.3,3.5,1,5.1c0.7,1.6,1.6,3.1,2.9,4.3s2.7,2.2,4.3,2.9c1.6,0.7,3.3,1,5.1,1h171.6c3.5,0,6.9-1.4,9.3-3.9  c2.5-2.5,3.9-5.8,3.9-9.3V59C199,51.7,194.2,49.4,188.5,53.8"></path></svg>