<svg xmlns="http://www.w3.org/2000/svg" xmlns:xlink="http://www.w3.org/1999/xlink" x="0px" y="0px" viewBox="0 0 200 200" style="enable-background:new 0 0 200 200;" xml:space="preserve">	<path d="M96.5,187c-1.4-1.4-2.6-3.1-3.4-5c-0.8-1.9-1.2-3.9-1.2-5.9c0-2,0.4-4,1.2-5.9c0.8-1.9,1.9-3.6,3.4-5l49.6-49.6H16.5  c-4.1,0-8.1-1.6-11-4.5c-2.9-2.9-4.5-6.8-4.5-11c0-4.1,1.6-8.1,4.5-11c2.9-2.9,6.8-4.5,11-4.5h129.6L96.5,34.9  c-1.4-1.4-2.6-3.1-3.4-5c-0.8-1.9-1.2-3.9-1.2-5.9c0-3.1,0.9-6.1,2.6-8.6c1.7-2.6,4.1-4.5,7-5.7c2.8-1.2,5.9-1.5,9-0.9  c3,0.6,5.8,2.1,7.9,4.2L194.5,89c0.7,0.7,1.4,1.5,1.9,2.4c0.2,0.3,0.4,0.6,0.6,1c0,0,0,0.1,0.1,0.1l0.1,0.2c0.3,0.4,0.5,0.9,0.7,1.4  c0.2,0.4,0.3,0.9,0.5,1.3l0.1,0.2c0,0.1,0,0.1,0.1,0.2c0.1,0.4,0.2,0.8,0.3,1.2c0.4,2,0.4,4.1,0,6.1c-0.1,0.4-0.2,0.8-0.3,1.2  c0,0.1-0.1,0.1-0.1,0.2l-0.1,0.2c-0.1,0.3-0.2,0.8-0.4,1.3c-0.2,0.5-0.4,0.9-0.7,1.4l-0.1,0.2c0,0-0.1,0.1-0.1,0.1  c-0.1,0.3-0.3,0.7-0.5,1c-0.6,0.9-1.2,1.7-2,2.4L118.4,187c-1.4,1.4-3.1,2.6-5,3.4c-1.9,0.8-3.9,1.2-5.9,1.2c-2,0-4-0.4-5.9-1.2  C99.6,189.6,97.9,188.5,96.5,187z"></path></svg>