
<svg  xmlns="http://www.w3.org/2000/svg" x="0px" y="0px"
	 viewBox="0 0 120 130" style="enable-background:new 0 0 120 130;" xml:space="preserve">
<g>
	<g>
		<path d="M66.9,121.1c-0.8,0-1.5-0.7-1.5-1.5V60.3l-37.4-13v72.2c0,0.8-0.7,1.5-1.5,1.5s-1.5-0.7-1.5-1.5V45.2
			c0-0.5,0.2-0.9,0.6-1.2s0.9-0.4,1.4-0.2l40.4,14c0.6,0.2,1,0.8,1,1.4v60.3C68.4,120.4,67.8,121.1,66.9,121.1z"/>
	</g>
	<g>
		<path d="M12.5,121.1c-0.8,0-1.5-0.7-1.5-1.5V57.4c0-0.4,0.2-0.8,0.5-1.1l14-12.2c0.6-0.5,1.6-0.5,2.1,0.1c0.5,0.6,0.5,1.6-0.1,2.1
			L14,58.1v61.5C14,120.4,13.3,121.1,12.5,121.1z"/>
	</g>
	<g>
		<path d="M107.5,121.1c-0.8,0-1.5-0.7-1.5-1.5V19.9L68.4,4.3v115.3c0,0.8-0.7,1.5-1.5,1.5s-1.5-0.7-1.5-1.5V2c0-0.5,0.3-1,0.7-1.2
			c0.4-0.3,0.9-0.3,1.4-0.1l40.6,16.9c0.6,0.2,0.9,0.8,0.9,1.4v100.6C109,120.4,108.4,121.1,107.5,121.1z"/>
	</g>
	<g>
		<path d="M53,48.3c-0.8,0-1.5-0.7-1.5-1.5V14.2c0-0.4,0.2-0.8,0.5-1.1L66,0.9c0.6-0.5,1.6-0.5,2.1,0.1c0.5,0.6,0.5,1.6-0.1,2.1
			L54.5,14.8v31.9C54.5,47.6,53.8,48.3,53,48.3z"/>
	</g>
	<g>
		<path d="M77.4,15.2H75c-0.8,0-1.5-0.7-1.5-1.5s0.7-1.5,1.5-1.5h2.4c0.8,0,1.5,0.7,1.5,1.5S78.2,15.2,77.4,15.2z"/>
	</g>
	<g>
		<path d="M93,22.4H75c-0.8,0-1.5-0.7-1.5-1.5s0.7-1.5,1.5-1.5h18c0.8,0,1.5,0.7,1.5,1.5S93.8,22.4,93,22.4z"/>
	</g>
	<g>
		<path d="M100.8,29.6H75c-0.8,0-1.5-0.7-1.5-1.5s0.7-1.5,1.5-1.5h25.8c0.8,0,1.5,0.7,1.5,1.5S101.6,29.6,100.8,29.6z"/>
	</g>
	<g>
		<path d="M100.8,36.9H75c-0.8,0-1.5-0.7-1.5-1.5s0.7-1.5,1.5-1.5h25.8c0.8,0,1.5,0.7,1.5,1.5S101.6,36.9,100.8,36.9z"/>
	</g>
	<g>
		<path d="M100.8,44.1H75c-0.8,0-1.5-0.7-1.5-1.5s0.7-1.5,1.5-1.5h25.8c0.8,0,1.5,0.7,1.5,1.5S101.6,44.1,100.8,44.1z"/>
	</g>
	<g>
		<path d="M100.8,51.4H75c-0.8,0-1.5-0.7-1.5-1.5s0.7-1.5,1.5-1.5h25.8c0.8,0,1.5,0.7,1.5,1.5S101.6,51.4,100.8,51.4z"/>
	</g>
	<g>
		<path d="M100.8,58.6H75c-0.8,0-1.5-0.7-1.5-1.5s0.7-1.5,1.5-1.5h25.8c0.8,0,1.5,0.7,1.5,1.5S101.6,58.6,100.8,58.6z"/>
	</g>
	<g>
		<path d="M100.8,65.9H75c-0.8,0-1.5-0.7-1.5-1.5s0.7-1.5,1.5-1.5h25.8c0.8,0,1.5,0.7,1.5,1.5S101.6,65.9,100.8,65.9z"/>
	</g>
	<g>
		<path d="M100.8,73.2H75c-0.8,0-1.5-0.7-1.5-1.5s0.7-1.5,1.5-1.5h25.8c0.8,0,1.5,0.7,1.5,1.5S101.6,73.2,100.8,73.2z"/>
	</g>
	<g>
		<path d="M100.8,80.4H75c-0.8,0-1.5-0.7-1.5-1.5s0.7-1.5,1.5-1.5h25.8c0.8,0,1.5,0.7,1.5,1.5S101.6,80.4,100.8,80.4z"/>
	</g>
	<g>
		<path d="M100.8,87.7H75c-0.8,0-1.5-0.7-1.5-1.5s0.7-1.5,1.5-1.5h25.8c0.8,0,1.5,0.7,1.5,1.5S101.6,87.7,100.8,87.7z"/>
	</g>
	<g>
		<path d="M100.8,94.9H75c-0.8,0-1.5-0.7-1.5-1.5s0.7-1.5,1.5-1.5h25.8c0.8,0,1.5,0.7,1.5,1.5S101.6,94.9,100.8,94.9z"/>
	</g>
	<g>
		<path d="M100.8,102.1H75c-0.8,0-1.5-0.7-1.5-1.5s0.7-1.5,1.5-1.5h25.8c0.8,0,1.5,0.7,1.5,1.5S101.6,102.1,100.8,102.1z"/>
	</g>
	<g>
		<path d="M36.8,58.6h-2.5c-0.8,0-1.5-0.7-1.5-1.5s0.7-1.5,1.5-1.5h2.5c0.8,0,1.5,0.7,1.5,1.5S37.6,58.6,36.8,58.6z"/>
	</g>
	<g>
		<path d="M60.2,65.9H34.3c-0.8,0-1.5-0.7-1.5-1.5s0.7-1.5,1.5-1.5h25.8c0.8,0,1.5,0.7,1.5,1.5S61,65.9,60.2,65.9z"/>
	</g>
	<g>
		<path d="M60.2,73.2H34.3c-0.8,0-1.5-0.7-1.5-1.5s0.7-1.5,1.5-1.5h25.8c0.8,0,1.5,0.7,1.5,1.5S61,73.2,60.2,73.2z"/>
	</g>
	<g>
		<path d="M60.2,80.4H34.3c-0.8,0-1.5-0.7-1.5-1.5s0.7-1.5,1.5-1.5h25.8c0.8,0,1.5,0.7,1.5,1.5S61,80.4,60.2,80.4z"/>
	</g>
	<g>
		<path d="M60.2,87.7H34.3c-0.8,0-1.5-0.7-1.5-1.5s0.7-1.5,1.5-1.5h25.8c0.8,0,1.5,0.7,1.5,1.5S61,87.7,60.2,87.7z"/>
	</g>
	<g>
		<path d="M60.2,94.9H34.3c-0.8,0-1.5-0.7-1.5-1.5s0.7-1.5,1.5-1.5h25.8c0.8,0,1.5,0.7,1.5,1.5S61,94.9,60.2,94.9z"/>
	</g>
	<g>
		<path d="M60.2,102.1H34.3c-0.8,0-1.5-0.7-1.5-1.5s0.7-1.5,1.5-1.5h25.8c0.8,0,1.5,0.7,1.5,1.5S61,102.1,60.2,102.1z"/>
	</g>
	<g>
		<path d="M118,121.1H2c-0.8,0-1.5-0.7-1.5-1.5s0.7-1.5,1.5-1.5h116c0.8,0,1.5,0.7,1.5,1.5S118.8,121.1,118,121.1z"/>
	</g>
	<g>
		<path d="M107.2,129.8H57.7c-0.8,0-1.5-0.7-1.5-1.5s0.7-1.5,1.5-1.5h49.5c0.8,0,1.5,0.7,1.5,1.5S108,129.8,107.2,129.8z"/>
	</g>
	<g>
		<path d="M28.9,129.8H12.8c-0.8,0-1.5-0.7-1.5-1.5s0.7-1.5,1.5-1.5h16.1c0.8,0,1.5,0.7,1.5,1.5S29.7,129.8,28.9,129.8z"/>
	</g>
	<g>
		<path d="M49.6,129.8H38.6c-0.8,0-1.5-0.7-1.5-1.5s0.7-1.5,1.5-1.5h11.1c0.8,0,1.5,0.7,1.5,1.5S50.5,129.8,49.6,129.8z"/>
	</g>
</g>
</svg>
