
<svg  xmlns="http://www.w3.org/2000/svg"  x="0px" y="0px"
	 viewBox="0 0 61 49" style="enable-background:new 0 0 61 49;" xml:space="preserve">
<g>
	<g>
		<path d="M51.2,16.9H10.1c-0.4,0-0.7-0.3-0.9-0.6s0-0.8,0.3-1L28.9,1.1c0,0,0,0,0.1,0c1-0.7,2.4-0.7,3.5,0l19.3,14.2
			c0.3,0.2,0.5,0.6,0.3,1C51.9,16.6,51.6,16.9,51.2,16.9z M51.1,16.1C51.1,16.1,51.1,16.1,51.1,16.1L51.1,16.1z M10.2,16.1
			C10.2,16.1,10.2,16.1,10.2,16.1L10.2,16.1z M10.4,15.9h40.5l-19.1-14c-0.7-0.5-1.6-0.5-2.3,0c0,0,0,0-0.1,0L10.4,15.9z"/>
	</g>
	<g>
		<path d="M12.1,31c-0.3,0-0.5-0.2-0.5-0.5V16.4c0-0.3,0.2-0.5,0.5-0.5s0.5,0.2,0.5,0.5v14.1C12.6,30.8,12.4,31,12.1,31z"/>
	</g>
	<g>
		<path d="M15.6,31c-0.3,0-0.5-0.2-0.5-0.5V16.4c0-0.3,0.2-0.5,0.5-0.5s0.5,0.2,0.5,0.5v14.1C16.1,30.8,15.9,31,15.6,31z"/>
	</g>
	<g>
		<path d="M30.6,12.3c-1.5,0-2.6-1.2-2.6-2.6C28,8.2,29.2,7,30.6,7s2.6,1.2,2.6,2.6C33.3,11.1,32.1,12.3,30.6,12.3z M30.6,8
			C29.7,8,29,8.7,29,9.6s0.7,1.6,1.6,1.6c0.9,0,1.6-0.7,1.6-1.6S31.5,8,30.6,8z"/>
	</g>
	<g>
		<path d="M19.1,31c-0.3,0-0.5-0.2-0.5-0.5V16.4c0-0.3,0.2-0.5,0.5-0.5s0.5,0.2,0.5,0.5v14.1C19.6,30.8,19.4,31,19.1,31z"/>
	</g>
	<g>
		<path d="M22.7,31c-0.3,0-0.5-0.2-0.5-0.5V16.4c0-0.3,0.2-0.5,0.5-0.5s0.5,0.2,0.5,0.5v14.1C23.2,30.8,22.9,31,22.7,31z"/>
	</g>
	<g>
		<path d="M38.6,31c-0.3,0-0.5-0.2-0.5-0.5V16.4c0-0.3,0.2-0.5,0.5-0.5s0.5,0.2,0.5,0.5v14.1C39.1,30.8,38.9,31,38.6,31z"/>
	</g>
	<g>
		<path d="M42.2,31c-0.3,0-0.5-0.2-0.5-0.5V16.4c0-0.3,0.2-0.5,0.5-0.5s0.5,0.2,0.5,0.5v14.1C42.7,30.8,42.4,31,42.2,31z"/>
	</g>
	<g>
		<path d="M45.7,31c-0.3,0-0.5-0.2-0.5-0.5V16.4c0-0.3,0.2-0.5,0.5-0.5s0.5,0.2,0.5,0.5v14.1C46.2,30.8,45.9,31,45.7,31z"/>
	</g>
	<g>
		<path d="M49.2,31c-0.3,0-0.5-0.2-0.5-0.5V16.4c0-0.3,0.2-0.5,0.5-0.5s0.5,0.2,0.5,0.5v14.1C49.7,30.8,49.5,31,49.2,31z"/>
	</g>
	<g>
		<path d="M52.4,35.2c-0.3,0-0.5-0.2-0.5-0.5v-2.8c0-0.5-0.4-0.9-0.9-0.9H10.3c-0.5,0-0.9,0.4-0.9,0.9v2.8c0,0.3-0.2,0.5-0.5,0.5
			S8.4,35,8.4,34.7v-2.8c0-1.1,0.9-1.9,1.9-1.9H51c1.1,0,1.9,0.9,1.9,1.9v2.8C52.9,35,52.7,35.2,52.4,35.2z"/>
	</g>
	<g>
		<path d="M54.5,39.5c-0.3,0-0.5-0.2-0.5-0.5v-2.8c0-0.5-0.4-0.9-0.9-0.9H8.2c-0.5,0-0.9,0.4-0.9,0.9V39c0,0.3-0.2,0.5-0.5,0.5
			S6.3,39.2,6.3,39v-2.8c0-1.1,0.9-1.9,1.9-1.9h44.8c1.1,0,1.9,0.9,1.9,1.9V39C55,39.2,54.8,39.5,54.5,39.5z"/>
	</g>
	<g>
		<path d="M56.5,43.7H4.8c-0.3,0-0.5-0.2-0.5-0.5v-2.8c0-1.1,0.9-1.9,1.9-1.9h25.3c0.3,0,0.5,0.2,0.5,0.5s-0.2,0.5-0.5,0.5H6.3
			c-0.5,0-0.9,0.4-0.9,0.9v2.3H56v-2.3c0-0.5-0.4-0.9-0.9-0.9h-7.7c-0.3,0-0.5-0.2-0.5-0.5s0.2-0.5,0.5-0.5H55
			c1.1,0,1.9,0.9,1.9,1.9v2.8C57,43.5,56.7,43.7,56.5,43.7z"/>
	</g>
	<g>
		<path d="M44.1,39.5h-8.7c-0.3,0-0.5-0.2-0.5-0.5s0.2-0.5,0.5-0.5h8.7c0.3,0,0.5,0.2,0.5,0.5S44.4,39.5,44.1,39.5z"/>
	</g>
	<g>
		<path d="M60.3,43.7H1c-0.3,0-0.5-0.2-0.5-0.5s0.2-0.5,0.5-0.5h59.3c0.3,0,0.5,0.2,0.5,0.5S60.6,43.7,60.3,43.7z"/>
	</g>
	<g>
		<path d="M54.8,48.2H29.5c-0.3,0-0.5-0.2-0.5-0.5s0.2-0.5,0.5-0.5h25.3c0.3,0,0.5,0.2,0.5,0.5S55,48.2,54.8,48.2z"/>
	</g>
	<g>
		<path d="M14.8,48.2H6.5c-0.3,0-0.5-0.2-0.5-0.5s0.2-0.5,0.5-0.5h8.2c0.3,0,0.5,0.2,0.5,0.5S15,48.2,14.8,48.2z"/>
	</g>
	<g>
		<path d="M25.3,48.2h-5.7c-0.3,0-0.5-0.2-0.5-0.5s0.2-0.5,0.5-0.5h5.7c0.3,0,0.5,0.2,0.5,0.5S25.6,48.2,25.3,48.2z"/>
	</g>
</g>
</svg>
