
<svg xmlns="http://www.w3.org/2000/svg" x="0px" y="0px"
	 viewBox="0 0 60 49" style="enable-background:new 0 0 60 49;" xml:space="preserve">
<g>
	<g>
		<path d="M22.7,45.5c-0.3,0-0.5-0.2-0.5-0.5V1.5L10.6,8v37c0,0.3-0.2,0.5-0.5,0.5S9.6,45.3,9.6,45V7.7c0-0.2,0.1-0.3,0.3-0.4
			l12.7-7.1c0.2-0.1,0.3-0.1,0.5,0c0.2,0.1,0.2,0.3,0.2,0.4V45C23.2,45.3,23,45.5,22.7,45.5z"/>
	</g>
	<g>
		<path d="M27.4,45.5h-4.7c-0.3,0-0.5-0.2-0.5-0.5V0.6c0-0.2,0.1-0.3,0.2-0.4c0.1-0.1,0.3-0.1,0.5,0l12.7,5.9
			c0.2,0.1,0.3,0.3,0.3,0.5v3.6c0,0.3-0.2,0.5-0.5,0.5s-0.5-0.2-0.5-0.5V6.8L23.3,1.4v43.1h4.2c0.3,0,0.5,0.2,0.5,0.5
			S27.7,45.5,27.4,45.5z"/>
	</g>
	<g>
		<path d="M10.1,41.7c-0.3,0-0.5-0.2-0.5-0.5c0-0.3,0.2-0.5,0.5-0.5l12.7-0.5l4.7,0.2c0.3,0,0.5,0.2,0.5,0.5c0,0.3-0.2,0.5-0.5,0.5
			l-4.7-0.2L10.1,41.7C10.1,41.7,10.1,41.7,10.1,41.7z"/>
	</g>
	<g>
		<path d="M10.1,37.9c-0.3,0-0.5-0.2-0.5-0.5c0-0.3,0.2-0.5,0.4-0.5l12.7-1.2l4.8,0.4c0.3,0,0.5,0.3,0.5,0.5s-0.3,0.5-0.5,0.5
			l-4.7-0.4L10.1,37.9C10.1,37.9,10.1,37.9,10.1,37.9z"/>
	</g>
	<g>
		<path d="M10.1,34.2c-0.2,0-0.5-0.2-0.5-0.4c0-0.3,0.1-0.5,0.4-0.6l12.7-1.9c0,0,0.1,0,0.1,0l4.7,0.6c0.3,0,0.5,0.3,0.4,0.6
			c0,0.3-0.3,0.5-0.6,0.4l-4.6-0.6L10.1,34.2C10.1,34.2,10.1,34.2,10.1,34.2z"/>
	</g>
	<g>
		<path d="M10.1,30.4c-0.2,0-0.4-0.2-0.5-0.4c-0.1-0.3,0.1-0.5,0.4-0.6l12.7-2.6c0.1,0,0.1,0,0.2,0l4.7,0.8c0.3,0,0.5,0.3,0.4,0.6
			c0,0.3-0.3,0.5-0.6,0.4l-4.6-0.8l-12.6,2.6C10.2,30.4,10.1,30.4,10.1,30.4z"/>
	</g>
	<g>
		<path d="M10.1,26.7c-0.2,0-0.4-0.1-0.5-0.4C9.5,26,9.7,25.8,10,25.7l12.7-3.3c0.1,0,0.2,0,0.2,0l4.7,1c0.3,0.1,0.4,0.3,0.4,0.6
			c-0.1,0.3-0.3,0.4-0.6,0.4l-4.6-1l-12.5,3.3C10.2,26.7,10.1,26.7,10.1,26.7z"/>
	</g>
	<g>
		<path d="M10.1,22.9c-0.2,0-0.4-0.1-0.5-0.3c-0.1-0.3,0.1-0.5,0.3-0.6l12.7-4c0.1,0,0.2,0,0.3,0l4.7,1.2c0.3,0.1,0.4,0.3,0.4,0.6
			s-0.3,0.4-0.6,0.4l-4.5-1.2l-12.5,4C10.2,22.9,10.1,22.9,10.1,22.9z"/>
	</g>
	<g>
		<path d="M10.1,19.2c-0.2,0-0.4-0.1-0.5-0.3c-0.1-0.3,0-0.5,0.3-0.6l12.7-4.7c0.1,0,0.2,0,0.3,0l4.7,1.4c0.3,0.1,0.4,0.4,0.3,0.6
			c-0.1,0.3-0.4,0.4-0.6,0.3l-4.5-1.4l-12.5,4.7C10.2,19.2,10.1,19.2,10.1,19.2z"/>
	</g>
	<g>
		<path d="M10.1,15.4c-0.2,0-0.4-0.1-0.5-0.3c-0.1-0.3,0-0.5,0.3-0.7L22.6,9c0.1,0,0.2-0.1,0.4,0l8.3,3c0.3,0.1,0.4,0.4,0.3,0.6
			c-0.1,0.3-0.4,0.4-0.6,0.3L22.8,10l-12.5,5.3C10.2,15.4,10.2,15.4,10.1,15.4z"/>
	</g>
	<g>
		<path d="M10.1,11.7c-0.2,0-0.4-0.1-0.5-0.3c-0.1-0.2,0-0.5,0.2-0.7l12.7-6.1c0.1-0.1,0.3-0.1,0.4,0l12.7,5.1
			c0.3,0.1,0.4,0.4,0.3,0.6s-0.4,0.4-0.6,0.3l-12.5-5l-12.5,6C10.2,11.6,10.2,11.7,10.1,11.7z"/>
	</g>
	<g>
		<path d="M40.2,45.5c-0.3,0-0.5-0.2-0.5-0.5V11.4l-8.8,5V45c0,0.3-0.2,0.5-0.5,0.5s-0.5-0.2-0.5-0.5V16.1c0-0.2,0.1-0.3,0.3-0.4
			l9.8-5.5c0.2-0.1,0.3-0.1,0.5,0c0.2,0.1,0.2,0.3,0.2,0.4V45C40.7,45.3,40.5,45.5,40.2,45.5z"/>
	</g>
	<g>
		<path d="M50,45.5c-0.3,0-0.5-0.2-0.5-0.5V15.5l-8.8-4.1V45c0,0.3-0.2,0.5-0.5,0.5s-0.5-0.2-0.5-0.5V10.6c0-0.2,0.1-0.3,0.2-0.4
			c0.1-0.1,0.3-0.1,0.5,0l9.8,4.6c0.2,0.1,0.3,0.3,0.3,0.5V45C50.5,45.3,50.3,45.5,50,45.5z"/>
	</g>
	<g>
		<path d="M30.4,42.5c-0.3,0-0.5-0.2-0.5-0.5c0-0.3,0.2-0.5,0.5-0.5l9.8-0.4l9.9,0.3c0.3,0,0.5,0.2,0.5,0.5c0,0.3-0.2,0.5-0.5,0.5
			l-9.8-0.3L30.4,42.5C30.4,42.5,30.4,42.5,30.4,42.5z"/>
	</g>
	<g>
		<path d="M30.4,39.6c-0.3,0-0.5-0.2-0.5-0.5c0-0.3,0.2-0.5,0.4-0.5l9.8-1l9.9,0.8c0.3,0,0.5,0.3,0.5,0.5c0,0.3-0.3,0.5-0.5,0.5
			l-9.8-0.8L30.4,39.6C30.4,39.6,30.4,39.6,30.4,39.6z"/>
	</g>
	<g>
		<path d="M30.4,36.7c-0.2,0-0.5-0.2-0.5-0.4c0-0.3,0.1-0.5,0.4-0.6l9.8-1.5c0,0,0.1,0,0.1,0l9.8,1.2c0.3,0,0.5,0.3,0.4,0.6
			c0,0.3-0.3,0.5-0.6,0.4l-9.7-1.2L30.4,36.7C30.4,36.7,30.4,36.7,30.4,36.7z"/>
	</g>
	<g>
		<path d="M30.4,33.8c-0.2,0-0.4-0.2-0.5-0.4c-0.1-0.3,0.1-0.5,0.4-0.6l9.8-2c0.1,0,0.1,0,0.2,0l9.8,1.7c0.3,0,0.5,0.3,0.4,0.6
			c0,0.3-0.3,0.5-0.6,0.4l-9.7-1.7l-9.7,2C30.5,33.8,30.4,33.8,30.4,33.8z"/>
	</g>
	<g>
		<path d="M30.4,30.9c-0.2,0-0.4-0.1-0.5-0.4c-0.1-0.3,0.1-0.5,0.4-0.6l9.8-2.6c0.1,0,0.2,0,0.2,0l9.8,2.1c0.3,0.1,0.4,0.3,0.4,0.6
			s-0.3,0.4-0.6,0.4l-9.7-2.1l-9.7,2.5C30.5,30.9,30.4,30.9,30.4,30.9z"/>
	</g>
	<g>
		<path d="M30.4,28c-0.2,0-0.4-0.1-0.5-0.3c-0.1-0.3,0.1-0.5,0.3-0.6l9.8-3.1c0.1,0,0.2,0,0.3,0l9.8,2.6c0.3,0.1,0.4,0.3,0.4,0.6
			c-0.1,0.3-0.3,0.4-0.6,0.4l-9.7-2.5L30.5,28C30.5,28,30.4,28,30.4,28z"/>
	</g>
	<g>
		<path d="M30.4,25.1c-0.2,0-0.4-0.1-0.5-0.3c-0.1-0.3,0-0.5,0.3-0.6l9.8-3.7c0.1,0,0.2,0,0.3,0l9.8,3c0.3,0.1,0.4,0.4,0.3,0.6
			c-0.1,0.3-0.4,0.4-0.6,0.3l-9.6-3l-9.7,3.6C30.5,25.1,30.5,25.1,30.4,25.1z"/>
	</g>
	<g>
		<path d="M30.4,22.2c-0.2,0-0.4-0.1-0.5-0.3c-0.1-0.3,0-0.5,0.3-0.7L40,17c0.1,0,0.2-0.1,0.4,0l9.8,3.5c0.3,0.1,0.4,0.4,0.3,0.6
			c-0.1,0.3-0.4,0.4-0.6,0.3L40.2,18l-9.6,4.1C30.5,22.2,30.5,22.2,30.4,22.2z"/>
	</g>
	<g>
		<path d="M30.4,19.3c-0.2,0-0.4-0.1-0.5-0.3c-0.1-0.2,0-0.5,0.2-0.7l9.8-4.7c0.1-0.1,0.3-0.1,0.4,0l9.8,3.9
			c0.3,0.1,0.4,0.4,0.3,0.6c-0.1,0.3-0.4,0.4-0.6,0.3l-9.6-3.8l-9.6,4.6C30.5,19.3,30.5,19.3,30.4,19.3z"/>
	</g>
	<g>
		<path d="M52.6,45.5H7.5C7.2,45.5,7,45.3,7,45s0.2-0.5,0.5-0.5h45.1c0.3,0,0.5,0.2,0.5,0.5S52.9,45.5,52.6,45.5z"/>
	</g>
	<g>
		<path d="M48.4,48.9H29.2c-0.3,0-0.5-0.2-0.5-0.5s0.2-0.5,0.5-0.5h19.2c0.3,0,0.5,0.2,0.5,0.5S48.7,48.9,48.4,48.9z"/>
	</g>
	<g>
		<path d="M18,48.9h-6.3c-0.3,0-0.5-0.2-0.5-0.5s0.2-0.5,0.5-0.5H18c0.3,0,0.5,0.2,0.5,0.5S18.2,48.9,18,48.9z"/>
	</g>
	<g>
		<path d="M26,48.9h-4.3c-0.3,0-0.5-0.2-0.5-0.5s0.2-0.5,0.5-0.5H26c0.3,0,0.5,0.2,0.5,0.5S26.3,48.9,26,48.9z"/>
	</g>
</g>
</svg>
