
<svg xmlns="http://www.w3.org/2000/svg" x="0px" y="0px"
	 viewBox="0 0 78 83" style="enable-background:new 0 0 78 83;" xml:space="preserve">
<g class="wdt-cus-thumbsup">
	<g>
		<path d="M21.9,75.3H15c-1.6,0-3-1.3-3-3V45.9c0-1.6,1.3-3,3-3h6.9c2.7,0,4.8,2.2,4.8,4.8v22.7C26.7,73.2,24.5,75.3,21.9,75.3z
			 M15,46v26.4l6.9,0c1,0,1.8-0.8,1.8-1.8V47.8c0-1-0.8-1.8-1.8-1.8H15z"/>
	</g>
	<g>
		<path d="M45.5,75.1c-7.5,0-17.1-1.5-20-1.9c-1.1-0.2-1.8-1.1-1.8-2.2V47c0-1,0.7-1.9,1.8-2.2c2.7-0.5,4-2.7,5.7-5.4
			c0.7-1.1,1.3-2.2,2.2-3.3c0.5-0.7,1-1.3,1.5-1.9c2.4-3,4.3-5.4,5-9.2c0.3-1.6,0.5-2.7,0.6-3.5c0.2-1.3,0.3-2,0.9-2.6
			c1.2-1.2,5.1-0.6,6.2,0.1c2.2,1.3,3.4,4.4,3.4,8.7c0,4-0.9,5.4-2.4,8l-0.5,0.8c-0.6,1-0.9,2.9-0.8,3.6c0.6,0.1,1.8,0,2.9-0.1
			c2-0.2,4.7-0.4,7.9-0.1c4.9,0.4,7,1.3,7.3,6c0.2,2.3-0.7,3.5-1.4,4.2c0.7,0.7,1.7,1.8,1.7,3.7c0,2.1-1.4,3.3-2.2,4
			c0,0-0.1,0.1-0.1,0.1c0.6,0.7,1.6,2,1,4.6c-0.6,2.3-1.9,3.1-2.7,3.6c-0.1,0.1-0.2,0.1-0.3,0.2c0,0,0,0.1,0,0.2
			c0.2,0.7,0.3,1.5,0.1,3.2c-0.7,3.8-8,5.2-14.6,5.4C46.4,75.1,46,75.1,45.5,75.1z M26.7,70.3c3.6,0.6,13.1,1.9,20,1.8
			c8.3-0.2,11.5-2.2,11.7-2.9c0.2-1.2,0.1-1.6,0-2c-0.1-0.4-0.2-0.9-0.1-1.7c0.2-1,1-1.5,1.6-1.9c0.6-0.4,1.2-0.7,1.4-1.8
			c0.3-1.3,0-1.6-0.4-2c-0.4-0.4-1-1-0.9-2.1c0.1-1,0.8-1.7,1.4-2.2c0.7-0.6,1.2-1,1.2-1.7c0-0.8-0.4-1.2-0.9-1.7
			c-0.5-0.4-1.1-1-1.1-2c0-1,0.6-1.6,1.1-1.9c0.5-0.4,0.9-0.8,0.8-2c-0.2-2.5-0.2-2.9-4.5-3.2c-3-0.2-5.5,0-7.5,0.1
			c-2.3,0.2-3.7,0.3-4.8-0.3c-0.4-0.2-0.9-0.7-1.1-1.6c-0.4-1.7,0.2-4.7,1.1-6.2l0.5-0.8c1.4-2.4,2-3.3,2-6.4c0-3.4-1-5.5-2-6.1
			c-0.4-0.2-1.8-0.4-2.5-0.4c0,0.2-0.1,0.5-0.1,0.8c-0.1,0.8-0.3,1.9-0.6,3.6c-0.9,4.5-3.1,7.3-5.6,10.5c-0.5,0.6-1,1.2-1.5,1.9
			c-0.7,1-1.4,2-2,3.1c-1.7,2.8-3.4,5.7-7,6.7V70.3z M43.2,21.3L43.2,21.3L43.2,21.3z M43.7,20.9L43.7,20.9L43.7,20.9z"/>
	</g>
	<g>
		<path d="M43.3,43.5c-1,0-2-0.1-3.1-0.3c-0.8-0.2-1.3-1-1.1-1.8c0.2-0.8,1-1.3,1.8-1.1c1.6,0.4,3.4,0.2,5,0.1
			c0.5-0.1,1.1-0.1,1.6-0.1c0.8,0,1.5,0.6,1.6,1.4c0,0.8-0.6,1.5-1.4,1.6c-0.5,0-1,0.1-1.5,0.1C45.3,43.4,44.3,43.5,43.3,43.5z"/>
	</g>
</g>
<g class="wdt-cus-thumbsup-rays">
	<g>
		<path d="M44.3,15.2c-0.8,0-1.5-0.7-1.5-1.5V9c0-0.8,0.7-1.5,1.5-1.5s1.5,0.7,1.5,1.5v4.7C45.8,14.5,45.2,15.2,44.3,15.2z"/>
	</g>
	<g>
		<path d="M37.3,17.9c-0.4,0-0.8-0.1-1.1-0.4l-3.3-3.3c-0.6-0.6-0.6-1.5,0-2.1c0.6-0.6,1.5-0.6,2.1,0l3.3,3.3c0.6,0.6,0.6,1.5,0,2.1
			C38.1,17.8,37.7,17.9,37.3,17.9z"/>
	</g>
	<g>
		<path d="M51.4,17.9c-0.4,0-0.8-0.1-1.1-0.4c-0.6-0.6-0.6-1.5,0-2.1l3.3-3.3c0.6-0.6,1.5-0.6,2.1,0c0.6,0.6,0.6,1.5,0,2.1l-3.3,3.3
			C52.2,17.8,51.8,17.9,51.4,17.9z"/>
	</g>
</g>
</svg>
