
<svg xmlns="http://www.w3.org/2000/svg" x="0px" y="0px"
	 viewBox="0 0 76 83" style="enable-background:new 0 0 76 83;" xml:space="preserve">
<g>
	<g>
		<path d="M28.1,36.9h-2v-1c0-2.5,1-4.9,2.7-6.6c1.8-1.8,4.3-2.7,7-2.7l1,0l0,2l-1,0c-2.2-0.1-4.1,0.7-5.5,2.1
			c-1.4,1.3-2.1,3.2-2.1,5.2V36.9z"/>
	</g>
	<g>
		<path d="M43.3,23.8h-2v-5.7c0-0.1-0.1-0.2-0.2-0.2H30.4c-0.1,0-0.2,0.1-0.2,0.2v5.7h-2v-5.7c0-1.2,1-2.2,2.2-2.2h10.7
			c1.2,0,2.2,1,2.2,2.2V23.8z"/>
	</g>
	<g>
		<path d="M14.3,45L14.3,45l-8.8,0V26.7h8.8c1.4,0,2.6,1.2,2.6,2.6v13C16.9,43.8,15.7,45,14.3,45z M7.5,43h6.8c0,0,0,0,0,0
			c0.2,0,0.3-0.1,0.4-0.2c0.1-0.1,0.2-0.3,0.2-0.4v-13c0-0.3-0.3-0.6-0.6-0.6H7.5V43z"/>
	</g>
	<g>
		<path d="M68.5,60.4H54c-1.1,0-2-0.9-2-2v-4.3c0-1.1,0.9-2,2-2h14.5c1.1,0,2,0.9,2,2v4.3C70.5,59.6,69.6,60.4,68.5,60.4z
			 M68.5,54.2l-14.5,0l0,4.3l14.4,0V54.2z"/>
	</g>
	<g>
		<path d="M56.2,54.2h-2V46c0-1.7-1.4-3.1-3.1-3.1h-2.4c-2.7,4.6-7.5,7.5-12.9,7.5c-5.4,0-10.3-2.8-12.9-7.5h-7.9v-2h9.1l0.3,0.5
			c2.2,4.3,6.6,6.9,11.4,6.9c4.8,0,9.2-2.7,11.4-6.9l0.3-0.5h3.6c2.8,0,5.1,2.3,5.1,5.1V54.2z"/>
	</g>
	<g>
		<path d="M68.4,54.2h-2V46c0-8.4-6.8-15.2-15.3-15.2h-3.3l-0.3-0.6c-1.2-2.6-3.2-4.7-5.7-6c-0.7-0.4-3.2-0.9-6-0.9s-5.3,0.5-6,0.9
			c-2.5,1.3-4.5,3.5-5.7,6l-0.3,0.6h-8.8v-2h7.6c1.4-2.7,3.6-5,6.3-6.4c1.2-0.6,4.2-1.1,7-1.1c2.8,0,5.8,0.5,7,1.1
			c2.7,1.4,4.9,3.7,6.3,6.4h2.1c9.5,0,17.3,7.7,17.3,17.2V54.2z"/>
	</g>
	<g>
		<path d="M39.5,17.7h-2v-7l0.5-0.3c0.7-0.4,1.3-1,1.6-1.8L39.9,8l10.3,1.2c0.7,0.1,1.4-0.1,1.9-0.6c0.5-0.5,0.8-1.1,0.8-1.8
			c0-0.7-0.3-1.3-0.8-1.8c-0.5-0.5-1.2-0.7-1.9-0.6L39.9,5.5l-0.3-0.6c-0.7-1.5-2.2-2.4-3.8-2.4S32.7,3.4,32,4.9l-0.3,0.6L21.3,4.3
			c-0.7-0.1-1.4,0.1-1.9,0.6c-0.5,0.5-0.8,1.1-0.8,1.8c0,0.7,0.3,1.3,0.8,1.8c0.5,0.5,1.2,0.7,1.9,0.6L31.6,8L32,8.6
			c0.4,0.8,1,1.4,1.6,1.8l0.5,0.3v7h-2v-5.9c-0.6-0.5-1.1-1-1.6-1.7l-9,1c-1.3,0.1-2.5-0.3-3.4-1.1c-0.9-0.8-1.5-2-1.5-3.3
			c0-1.3,0.5-2.5,1.5-3.3c0.9-0.8,2.2-1.2,3.4-1.1l9,1c1.1-1.8,3.1-2.9,5.3-2.9c2.2,0,4.1,1.1,5.3,2.9l9-1c1.2-0.1,2.5,0.3,3.4,1.1
			c0.9,0.8,1.5,2,1.5,3.3c0,1.3-0.5,2.5-1.5,3.3c-0.9,0.8-2.2,1.2-3.4,1.1l-9-1c-0.4,0.7-1,1.2-1.6,1.7V17.7z"/>
	</g>
	<g>
		<path d="M35.8,50.4h-1v-2h1c6.1,0,11.4-4.3,12.6-10.3l0.2-1l2,0.4l-0.2,1C49,45.4,42.8,50.4,35.8,50.4z"/>
	</g>
</g>
<g>
	<g class="wdt-cus-water-drop">
		<path d="M61.3,81.8c-3.9,0-7.1-3.2-7.1-7.1c0-3.4,2.6-6.4,4.7-8.7c0.6-0.7,1.1-1.3,1.6-1.9l0.8-1l0.8,1c0.5,0.6,1,1.2,1.6,1.9
			c2.1,2.4,4.7,5.4,4.7,8.7C68.4,78.6,65.2,81.8,61.3,81.8z M61.3,66.3c-0.3,0.3-0.6,0.7-0.9,1c-2,2.2-4.2,4.8-4.2,7.4
			c0,2.8,2.3,5.1,5.1,5.1s5.1-2.3,5.1-5.1c0-2.6-2.2-5.2-4.2-7.4C61.9,66.9,61.6,66.6,61.3,66.3z"/>
	</g>
</g>
</svg>
