<svg xmlns="http://www.w3.org/2000/svg" xmlns:xlink="http://www.w3.org/1999/xlink" x="0px" y="0px"
	 viewBox="0 0 200 55" style="enable-background:new 0 0 200 55;" xml:space="preserve">
<style type="text/css"> .logo_light { fill:#FFFFFF; } .logo-primary { fill:#F6B305; } </style>
	<path class="logo_light" d="M21.6,54.2h-6.9V41.9l2.5-2.6v-7.5h-0.7c0.1-0.6,0.5-3,0.7-3.9h1.9c0.2,1,0.6,3.3,0.7,3.9h-0.7v7.5l2.5,2.6
		L21.6,54.2L21.6,54.2z"/>
	<path class="logo_light" d="M31.7,54.2h-5.1V27.5c0-1.8-2.4-2.3-3.2-0.8c-0.1,0-0.1,0-0.2,0c-5,0-4.3,0.7-4.3-4.5c0-0.6,0.5-1,1-1l3.5,0
		c0.6,1.2,2.4,1.2,3,0h3.7c4.9,0.1,8.9,4.1,9.9,7.1c0.2,0.6-0.1,0.7-0.6,0.3c-1.9-1.5-7.7-4.6-7.7,0.6l0,19.7h0L31.7,54.2L31.7,54.2z
		"/>
	<path class="logo-primary" d="M53.1,48.9V24.7L29.7,7L6.3,24.7v29.4H1v-32L29.7,0.4l28.7,21.8v32H37.6V40.7c-3.2-2.4-3.5-6.2-0.6-9l0.8-0.1
		v4.5c0,0.7,0.6,1.3,1.3,1.3c3.4,0,2.9,0.2,2.9-5.7l0.8,0.1c2.9,2.8,2.5,6.6-0.6,9v8.2H53.1z"/>
	<path class="logo_light" d="M192.9,53.7V40.9c0-1.3-0.4-2.4-1.2-3.2c-0.8-0.8-1.9-1.2-3.2-1.2c-0.9,0-1.6,0.2-2.3,0.6
		c-0.7,0.4-1.2,0.9-1.6,1.6c-0.4,0.7-0.6,1.5-0.6,2.4l-2.4-1.2c0-1.8,0.4-3.3,1.1-4.6c0.8-1.3,1.8-2.4,3.1-3.1
		c1.4-0.7,2.9-1.1,4.6-1.1c1.6,0,3.1,0.4,4.4,1.2c1.3,0.8,2.3,1.9,3.1,3.2c0.7,1.3,1.1,2.7,1.1,4.2v14.1H192.9z M177.9,53.7V31.4h6.1
		v22.3H177.9z"/>
	<path class="logo_light" d="M160.1,54.2c-2,0-3.9-0.5-5.5-1.5c-1.6-1-2.9-2.4-3.8-4.2c-0.9-1.8-1.4-3.7-1.4-5.9c0-2.2,0.5-4.2,1.4-6
		c0.9-1.8,2.2-3.1,3.8-4.2c1.6-1,3.5-1.5,5.5-1.5c1.6,0,3,0.3,4.3,1c1.3,0.6,2.3,1.6,3,2.7c0.8,1.1,1.2,2.4,1.2,3.9v8
		c-0.1,1.5-0.5,2.8-1.2,3.9c-0.7,1.1-1.7,2-3,2.7C163.1,53.9,161.7,54.2,160.1,54.2z M161.2,48.6c1.7,0,3.1-0.6,4.1-1.7
		c1-1.1,1.6-2.6,1.6-4.4c0-1.2-0.2-2.2-0.7-3.1c-0.5-0.9-1.1-1.6-2-2.1c-0.8-0.5-1.8-0.8-3-0.8c-1.1,0-2.1,0.3-3,0.8
		c-0.8,0.5-1.5,1.2-2,2.1c-0.5,0.9-0.7,1.9-0.7,3.1c0,1.2,0.2,2.3,0.7,3.2c0.5,0.9,1.2,1.6,2,2.1C159.1,48.4,160.1,48.6,161.2,48.6z
		M166.6,53.7v-6l1-5.5l-1-5.4v-5.5h6v22.3H166.6z"/>
	<path class="logo_light" d="M128.1,50.3l11.8-15.4h7.3l-11.8,15.4H128.1z M128.1,53.7v-3.5l4.8-1.8h14.1v5.3H128.1z M128.9,36.7v-5.3h18.3
		v3.5l-4.9,1.8H128.9z"/>
	<path class="logo_light" d="M115.3,54.2c-2.3,0-4.4-0.5-6.2-1.5c-1.8-1-3.3-2.4-4.3-4.2c-1-1.8-1.6-3.8-1.6-6c0-2.2,0.5-4.2,1.5-5.9
		c1-1.8,2.5-3.1,4.3-4.2c1.8-1,3.8-1.6,6-1.6c2.2,0,4.1,0.5,5.7,1.5c1.7,1,3,2.3,3.9,4c1,1.7,1.4,3.6,1.4,5.7c0,0.4,0,0.8-0.1,1.2
		c0,0.4-0.1,0.9-0.2,1.4l-18.8,0v-4.5l15.9,0l-2.4,1.9c-0.1-1.3-0.3-2.4-0.7-3.3c-0.4-0.9-1-1.6-1.8-2c-0.8-0.5-1.7-0.7-2.9-0.7
		c-1.2,0-2.2,0.3-3.1,0.8c-0.9,0.5-1.6,1.3-2.1,2.3c-0.5,1-0.7,2.1-0.7,3.4c0,1.4,0.2,2.5,0.7,3.6c0.5,1,1.3,1.8,2.2,2.3
		c1,0.5,2.1,0.8,3.3,0.8c1.1,0,2.2-0.2,3.1-0.6c0.9-0.4,1.7-1,2.4-1.8l3.6,3.6c-1.1,1.3-2.4,2.2-4,2.9
		C118.8,53.9,117.1,54.2,115.3,54.2z"/>
	<path class="logo_light" d="M66,53.7V21.2h4.4l13.2,21.1h-2.5l13.1-21.1h4.4v32.5h-6.2V32l1.2,0.4l-9.2,14.7h-4.3L71,32.4l1.2-0.4v21.7H66z
		"/>
</svg>
