<svg xmlns="http://www.w3.org/2000/svg"
	xmlns:xlink="http://www.w3.org/1999/xlink" x="0px" y="0px" viewBox="0 0 100 100" style="enable-background:new 0 0 100 100;" xml:space="preserve">
	<style type="text/css">
	.contact-icon-01{fill:none;stroke:currentColor;stroke-width:2;stroke-linecap:round;stroke-linejoin:round;}
	</style>
	<g>
		<path d="M36.9,84.6c32.6,23.1,53.9,8,58.8-5.9c1-2.9-0.7-6.1-3.7-6.8c-5.8-1.4-11.9-4.7-17.3-7.1c-2.5-1.1-5.5-0.1-6.8,2.4L64,73.9
		c-0.9,1.8-3,2.8-5,2.1c-4.7-1.5-11.7-4.9-21.2-14.4c-9.5-9.5-12.9-16.5-14.4-21.2c-0.6-2,0.3-4.1,2.1-5l6.7-3.9
		c2.5-1.3,3.6-4.2,2.4-6.8c-2.4-5.4-5.8-11.5-7.1-17.3c-0.7-3-3.9-4.8-6.8-3.7c-13.9,5-29.1,26.2-5.9,58.8
		C20.9,71.1,28.4,78.6,36.9,84.6L36.9,84.6z"/>
		<path class="contact-icon-01" d="M89.3,9.4H58.5c-4.3,0-7.8,3.5-7.8,7.9l0.1,29.2c0,1.2,1.5,1.9,2.4,1l9.3-8.8h26.8c4.3,0,7.8-3.5,7.8-7.8V17.2
		C97.1,12.9,93.6,9.4,89.3,9.4L89.3,9.4z"/>
		<path d="M77.2,24.9c0.8-1.8-0.1-3.9-1.9-4.7s-3.9,0.1-4.7,1.9c-0.8,1.8,0.1,3.9,1.9,4.7C74.4,27.6,76.5,26.7,77.2,24.9z"/>
		<path d="M63.5,24.9c0.8-1.8-0.1-3.9-1.9-4.7c-1.8-0.8-3.9,0.1-4.7,1.9c-0.8,1.8,0.1,3.9,1.9,4.7C60.7,27.6,62.8,26.7,63.5,24.9z"/>
		<path d="M88.4,27c1.9-0.5,3.1-2.4,2.7-4.3c-0.5-1.9-2.4-3.1-4.3-2.7c-1.9,0.5-3.1,2.4-2.7,4.3C84.5,26.3,86.5,27.5,88.4,27z"/>
	</g>
</svg>
