<svg xmlns="http://www.w3.org/2000/svg" xmlns:xlink="http://www.w3.org/1999/xlink" x="0px" y="0px"
	 viewBox="0 0 100 100" style="enable-background:new 0 0 100 100;" xml:space="preserve">
<path d="M57.4,99H40c-1.8,0-3.2-1.4-3.2-3.2V60.3h-12c-1.8,0-3.2-1.4-3.2-3.2V40.5c0-1.8,1.4-3.2,3.2-3.2h12v-8.5
	c0-9.8,2.7-17.1,8.1-21.8c6.5-5.6,16.5-7.2,30.6-5.1c1.7,0.3,2.9,1.7,2.9,3.4v14.5c0,1.8-1.5,3.3-3.3,3.3h-9.7
	c-3.4,0-4.9,0.8-4.9,5.7v8.5h13.7c1,0,1.9,0.4,2.5,1.1c0.6,0.7,0.9,1.7,0.8,2.6l-2,16.3c-0.2,1.7-1.7,3-3.4,3H60.6v35.5
	C60.6,97.6,59.2,99,57.4,99z M42.2,93.6h13V57.9c0-1.7,1.4-3,3-3h12.3L72,42.7H58.2c-1.7,0-3-1.4-3-3v-11c0-7.4,3.5-11.1,10.3-11.1
	H73V7c-11.6-1.5-19.6-0.2-24.6,4.1c-4.2,3.6-6.2,9.4-6.2,17.6v11c0,1.7-1.4,3-3,3H27v12.2h12.2c1.7,0,3,1.4,3,3V93.6z"/>
</svg>
