<svg xmlns="http://www.w3.org/2000/svg"
	xmlns:xlink="http://www.w3.org/1999/xlink" x="0px" y="0px" viewBox="0 0 100 100" style="enable-background:new 0 0 100 100;" xml:space="preserve">
	<style type="text/css">
	.h4-about-01{fill:currentColor;fill-opacity:1;}
	</style>
	<g>
		<path class="h4-about-01" d="M12.5,69.1c-0.6,0-1.1-0.3-1.4-0.8c-0.4-0.8-0.2-1.7,0.6-2.2l64.9-37.5c0.4-0.2,0.8-0.3,1.2-0.2
		c0.4,0.1,0.8,0.4,0.9,0.7l14.6,25.3c0.2,0.4,0.3,0.8,0.2,1.2c-0.1,0.4-0.4,0.8-0.7,0.9L87,60.1c-0.8,0.4-1.7,0.2-2.2-0.6
		c-0.4-0.8-0.2-1.7,0.6-2.2l4.5-2.6l-13-22.6L13.3,68.9C13.3,68.9,12.8,69.1,12.5,69.1z"/>
		<path class="h4-about-01" d="M7.2,74.5c0,0-0.6-0.1-0.8-0.2c-0.8-0.4-1.1-1.5-0.6-2.2l37.5-65c0.4-0.8,1.5-1,2.2-0.6l25.3,14.6
		c0.4,0.2,0.6,0.6,0.7,0.9c0.1,0.4,0,0.8-0.2,1.2L67,30.8c-0.4,0.8-1.5,1.1-2.2,0.6c-0.8-0.4-1-1.5-0.6-2.2l3.5-6.1l-22.5-13
		L8.5,73.6C8.3,74.1,7.7,74.4,7.2,74.5L7.2,74.5z"/>
		<path class="h4-about-01" d="M5.2,81.8c-0.9,0-1.6-0.7-1.6-1.6v-75c0-0.9,0.7-1.6,1.6-1.6h29.3c0.9,0,1.6,0.7,1.6,1.6V13
		c0,0.9-0.7,1.6-1.6,1.6c-0.9,0-1.6-0.7-1.6-1.6V6.8h-26v73.4C6.8,81.1,6.1,81.8,5.2,81.8z"/>
		<path class="h4-about-01" d="M19.8,86.3c-3.3,0-6.1-2.7-6.1-6.1s2.7-6.1,6.1-6.1s6.1,2.7,6.1,6.1S23.2,86.3,19.8,86.3z M19.8,77.3
		c-1.6,0-2.8,1.3-2.8,2.8c0,1.6,1.3,2.8,2.8,2.8c1.6,0,2.8-1.3,2.8-2.8C22.7,78.6,21.4,77.3,19.8,77.3z"/>
		<path class="h4-about-01" d="M79.8,81.8H48.2c-0.9,0-1.6-0.7-1.6-1.6c0-0.9,0.7-1.6,1.6-1.6h31.6c0.9,0,1.6,0.7,1.6,1.6
		C81.5,81.1,80.7,81.8,79.8,81.8z"/>
		<path class="h4-about-01" d="M94.8,96.4h-75c-8.9,0-16.2-7.3-16.2-16.2c0-8.9,7.3-16.2,16.2-16.2h75c0.9,0,1.6,0.7,1.6,1.6v29.3
		C96.4,95.7,95.7,96.4,94.8,96.4z M19.8,67.2c-7.2,0-13,5.9-13,13c0,7.1,5.9,13,13,13h73.4V67.1L19.8,67.2L19.8,67.2z"/>
	</g>
</svg>
