<svg xmlns="http://www.w3.org/2000/svg"
	xmlns:xlink="http://www.w3.org/1999/xlink" x="0px" y="0px" viewBox="0 0 100 100" style="enable-background:new 0 0 100 100;" xml:space="preserve">
	<style type="text/css">
	.h3-about-01{fill:currentColor;fill-opacity:1;}
	</style>
	<g>
		<path class="h3-about-01" d="M19,96.7c-2.4,0-4.4-1.9-4.4-4.4V24.5c0-0.9,0.7-1.6,1.6-1.6s1.6,0.7,1.6,1.6v67.8c0,0.6,0.5,1.1,1.1,1.1h62.6
		c0,0,0.3-0.1,0.3-0.2c0.1-0.1,0.2-0.2,0.2-0.3V7.1c0,0-0.2-0.5-0.5-0.5H35.8c-0.9,0-1.6-0.7-1.6-1.6s0.7-1.6,1.6-1.6h45.7
		c2.1,0,3.8,1.7,3.8,3.8v85.8c0,1-0.4,2-1.1,2.7c-0.7,0.7-1.6,1.1-2.7,1.1L19,96.7L19,96.7z"/>
		<path class="h3-about-01" d="M16.3,26.1c-0.7,0-1.2-0.4-1.5-1c-0.2-0.6-0.1-1.3,0.3-1.8L34.7,3.8c0.5-0.5,1.2-0.6,1.8-0.3
		c0.6,0.2,1,0.9,1,1.5v19.6c0,0.9-0.7,1.6-1.6,1.6H16.3z M34.2,8.9l-14,14h14V8.9z"/>
		<path class="h3-about-01" d="M67.1,88.7c0,0-0.1,0-0.1,0c-0.6,0-1.1-0.4-1.4-0.9l-3.7-7.8c-0.4-0.8,0-1.8,0.8-2.2c0.8-0.4,1.8,0,2.2,0.8
		l2.5,5.2l0.9-1.4c0.3-0.5,0.9-0.7,1.5-0.7l1.6,0.1l-2.7-5.7c-0.4-0.8,0-1.8,0.7-2.2c0.8-0.4,1.8,0,2.2,0.7l4,8.3
		c0.2,0.5,0.2,1.1-0.1,1.6c-0.3,0.5-0.9,0.7-1.5,0.7l-3.5-0.3l-2,2.9C68.1,88.5,67.6,88.8,67.1,88.7L67.1,88.7z"/>
		<path class="h3-about-01" d="M58.7,88.7c-0.6,0-1-0.3-1.4-0.7l-2-2.9l-3.5,0.3c-0.6,0-1.1-0.2-1.5-0.7c-0.3-0.5-0.4-1.1-0.1-1.6l3.7-7.6
		c0.4-0.8,1.4-1.1,2.2-0.7c0.8,0.4,1.1,1.4,0.7,2.2l-2.4,5l1.6-0.1c0.6,0,1.1,0.2,1.5,0.7l1,1.5l3.1-5.8c0.4-0.8,1.4-1.1,2.2-0.7
		c0.8,0.4,1.1,1.4,0.7,2.2l-4.3,8.3C59.8,88.4,59.3,88.8,58.7,88.7C58.7,88.8,58.7,88.8,58.7,88.7L58.7,88.7z"/>
		<path class="h3-about-01" d="M62.4,80.6c0,0-0.1,0-0.2,0c-0.9-0.1-1.6-0.6-2.1-1c-0.2-0.1-0.3-0.3-0.5-0.3c-0.1,0-0.4,0-0.6,0
		c-0.6,0-1.4,0-2.2-0.6c-0.7-0.5-1.1-1.3-1.4-1.9c-0.1-0.2-0.2-0.4-0.2-0.5c-0.1-0.1-0.3-0.2-0.5-0.3c-0.5-0.3-1.2-0.7-1.6-1.6
		c-0.4-0.8-0.3-1.6-0.2-2.3c0-0.2,0-0.5,0-0.6c0-0.1-0.2-0.3-0.2-0.5C52.4,70.6,52,69.9,52,69c0.1-0.9,0.6-1.6,1-2.1
		c0.1-0.2,0.3-0.3,0.3-0.5c0-0.1,0-0.4,0-0.6c0-0.6,0-1.4,0.6-2.2c0.5-0.7,1.3-1.1,1.9-1.4c0.2-0.1,0.4-0.2,0.5-0.2
		c0.1-0.1,0.2-0.3,0.3-0.5c0.3-0.5,0.7-1.2,1.6-1.6c0.8-0.4,1.6-0.3,2.3-0.2c0.2,0,0.5,0,0.6,0c0.1,0,0.3-0.2,0.5-0.2
		c0.6-0.3,1.3-0.7,2.2-0.6c0.9,0.1,1.6,0.6,2.1,1c0.2,0.1,0.3,0.3,0.5,0.3c0.1,0,0.4,0,0.6,0c0.6,0,1.4,0,2.2,0.6
		c0.7,0.5,1.1,1.3,1.4,1.9c0.1,0.2,0.2,0.5,0.2,0.5c0.1,0.1,0.3,0.2,0.5,0.3c0.5,0.3,1.2,0.7,1.6,1.6c0.4,0.8,0.3,1.6,0.2,2.3
		c0,0.2,0,0.5,0,0.6c0,0.1,0.2,0.3,0.2,0.5c0.3,0.6,0.7,1.3,0.6,2.2c-0.1,0.9-0.6,1.6-1,2.1c-0.1,0.2-0.3,0.3-0.3,0.5
		c0,0.1,0,0.4,0,0.6c0,0.6,0,1.4-0.6,2.2c-0.5,0.7-1.3,1.1-1.9,1.4c-0.2,0.1-0.4,0.2-0.5,0.2c-0.1,0.1-0.2,0.3-0.3,0.5
		c-0.3,0.5-0.7,1.2-1.6,1.6c-0.8,0.4-1.6,0.3-2.3,0.2c-0.2,0-0.5,0-0.6,0c-0.1,0-0.3,0.2-0.5,0.2C63.8,80.2,63.2,80.6,62.4,80.6
		L62.4,80.6z M58.7,76c0,0,0.3,0,0.5,0c0.5,0,1,0,1.5,0.2c0.6,0.2,1,0.5,1.3,0.7c0.1,0.1,0.3,0.2,0.4,0.3c0.1,0,0.3-0.2,0.5-0.2
		c0.4-0.2,0.9-0.5,1.4-0.6c0.6-0.1,1.1,0,1.5,0c0.1,0,0.3,0,0.5,0c0.1-0.1,0.2-0.3,0.2-0.4c0.2-0.4,0.5-0.9,1-1.2
		c0.5-0.4,0.9-0.6,1.4-0.8c0.1,0,0.3-0.1,0.4-0.2c0-0.1,0-0.3,0-0.5c0-0.5,0-1,0.2-1.5c0.2-0.6,0.5-1,0.7-1.3
		c0.1-0.1,0.2-0.3,0.3-0.4c0-0.1-0.2-0.3-0.2-0.5c-0.2-0.4-0.5-0.9-0.6-1.4c-0.1-0.6,0-1.1,0-1.5c0-0.1,0-0.3,0-0.5
		c-0.1-0.1-0.3-0.2-0.4-0.2c-0.4-0.2-0.9-0.5-1.2-1c-0.4-0.5-0.6-0.9-0.8-1.4c0-0.1-0.1-0.3-0.2-0.4c-0.1,0-0.3,0-0.5,0
		c-0.5,0-1,0-1.5-0.2c-0.6-0.2-1-0.5-1.3-0.7c-0.1-0.1-0.3-0.2-0.4-0.3c-0.1,0-0.3,0.2-0.5,0.2c-0.4,0.2-0.9,0.5-1.4,0.6
		c-0.6,0.1-1.1,0-1.5,0c-0.1,0-0.3,0-0.5,0c-0.1,0.1-0.2,0.3-0.2,0.4c-0.2,0.4-0.5,0.9-1,1.2c-0.5,0.4-0.9,0.6-1.4,0.8
		c-0.1,0-0.3,0.1-0.4,0.2c0,0.1,0,0.3,0,0.5c0,0.5,0,1-0.2,1.5c-0.2,0.6-0.5,1-0.7,1.3c-0.1,0.1-0.2,0.3-0.3,0.4
		c0,0.1,0.2,0.3,0.2,0.5c0.2,0.4,0.5,0.9,0.6,1.4c0.1,0.6,0,1.1,0,1.5c0,0.1,0,0.3,0,0.5c0.1,0.1,0.3,0.2,0.4,0.2
		c0.4,0.2,0.9,0.5,1.2,1c0.4,0.5,0.6,0.9,0.8,1.4C58.5,75.7,58.6,75.9,58.7,76z"/>
	</g>
</svg>
