<svg xmlns="http://www.w3.org/2000/svg"
	xmlns:xlink="http://www.w3.org/1999/xlink" x="0px" y="0px" viewBox="0 0 100 100" style="enable-background:new 0 0 100 100;" xml:space="preserve">
	<g>
		<path d="M77.7,81.4H22.2V15c0-5.8,4.7-10.5,10.5-10.5h34.5C73,4.5,77.8,9.2,77.8,15L77.7,81.4L77.7,81.4z M25.8,77.7H74V15
		c0-3.8-3.1-6.9-6.8-6.9H32.7c-3.8,0-6.8,3.1-6.8,6.9L25.8,77.7L25.8,77.7z"/>
		<path d="M51.7,67H27.8v-7.9h23.9C51.7,59.2,51.7,67,51.7,67z M31.6,63.4h16.6v-0.7H31.6V63.4z"/>
		<path d="M51.7,75.2H27.8v-8h23.9C51.7,67.2,51.7,75.2,51.7,75.2z M31.6,71.6h16.6V71H31.6V71.6z"/>
		<path d="M62.9,75.2c-4.5,0-8.2-3.7-8.2-8.2c0-4.5,3.7-8.2,8.2-8.2s8.2,3.7,8.2,8.2C71.2,71.6,67.4,75.2,62.9,75.2z M62.9,62.4
		c-2.5,0-4.5,2.1-4.5,4.5c0,2.5,2.1,4.5,4.5,4.5s4.5-2.1,4.5-4.5C67.5,64.5,65.4,62.4,62.9,62.4z"/>
		<path d="M42.7,95.5h-9.8V77.7h9.7L42.7,95.5L42.7,95.5z M36.6,91.9H39V81.4h-2.4V91.9z"/>
		<path d="M67,95.5h-9.7V77.7H67V95.5z M61,91.9h2.4V81.4H61V91.9z"/>
		<g>
			<path d="M49.4,51.9c-8,0-11.6-7.8-11.6-11.9c0-5.4,2.7-10.1,2.9-10.3l3.3-5.5l0.1,6.3c0,0,0.1,0.2,0.2,0.4c0.4-2.1,0.9-4.8,0.6-8
			l-0.9-7.4l4.2,6.2c1.4,2.1,2.3,4.2,2.8,6.1v-0.1l0.6-7.6l2.9,7c0.6,1.3,1,2.4,1.3,3.4l1.6-2.1l1.4,2.3c0.2,0.2,2.9,4.8,2.9,10.4
			C61.6,46.6,57.8,51.9,49.4,51.9L49.4,51.9z M42.4,34.7c-0.6,1.5-1,3.4-1,5.4c0,2.1,1.9,8.2,8,8.2c6.3,0,8.6-3.7,8.6-7
			c0-2.3-0.6-4.4-1.2-5.9L54.2,39l-0.9-3.8c0,0,0-0.2-0.1-0.4c-0.2,0.4-0.4,0.8-0.7,1.3L50.4,40L49,36.2c-0.3-0.8-0.4-1.7-0.7-3
			c-0.2-0.7-0.2-1.4-0.4-2.2c-0.2,0.7-0.3,1.3-0.4,1.9c-0.2,0.9-0.4,1.7-0.4,2.2L47,38.9l-2.9-2.5C43.4,35.9,42.9,35.3,42.4,34.7
			L42.4,34.7z"/>
		</g>
	</g>
</svg>
