<svg xmlns="http://www.w3.org/2000/svg"
	xmlns:xlink="http://www.w3.org/1999/xlink" x="0px" y="0px" viewBox="0 0 100 100" style="enable-background:new 0 0 100 100;" xml:space="preserve">
	<g>
		<g>
			<path d="M86,57.5H14c-4.6,0-8.4-3.8-8.4-8.4c0-2.3,0.8-4.4,2.5-5.9c1.7-1.5,3.7-2.5,5.9-2.5h72c4.6,0,8.4,3.8,8.4,8.4
			c0,2.3-0.8,4.3-2.5,5.9C90.3,56.7,88.3,57.5,86,57.5z M14,44.5c-1.2,0-2.4,0.5-3.3,1.3c-0.8,0.8-1.3,2-1.3,3.2
			c0,2.5,2,4.6,4.6,4.6h72c1.2,0,2.4-0.5,3.3-1.3c0.8-0.8,1.3-2,1.3-3.2c0-2.5-2-4.6-4.6-4.6H14z"/>
			<path d="M50,88.6c-19.3,0-35.8-13.7-39-32.7l3.8-0.6c3,17.2,17.8,29.6,35.2,29.6s32.2-12.4,35.2-29.6l3.8,0.6
			C85.7,74.8,69.3,88.6,50,88.6z"/>
			<path d="M55.9,42.6h-3.8V19.9c0-2.7,2.3-5,5-5c2.1,0,3.9,1.3,4.7,3.2h5.4v-1.5c0-2.7-1.1-5.2-3-7.1c-1.9-1.9-4.5-3-7.2-3
			c-5.6,0-10.2,4.5-10.2,10.2v26.1h-3.8V16.7c0-7.7,6.3-13.9,14-13.9c3.7,0,7.2,1.4,9.8,4s4.1,6.2,4.1,9.8V22H58.4v-1.9
			c0-0.8-0.6-1.3-1.2-1.3c-0.7,0-1.2,0.6-1.2,1.2L55.9,42.6L55.9,42.6z"/>
			<path d="M69.3,26.4h-8.5c-2.1,0-3.9-1.9-3.9-4.1s1.8-4.1,3.9-4.1h8.5c2.1,0,3.8,1.9,3.8,4.1C73.1,24.5,71.4,26.4,69.3,26.4z
			 M69.2,21.9h-8.5c0,0-0.1,0.1-0.1,0.4c0,0.2,0.1,0.4,0.1,0.4h8.5c0,0,0-0.1,0-0.4C69.4,22,69.3,21.9,69.2,21.9L69.2,21.9z"/>
			<path d="M69.3,39.5c-3.1,0-5.7-2.5-5.7-5.6c0-3.1,2.5-5.6,5.7-5.6c3.1,0,5.7,2.5,5.7,5.6C75,37,72.5,39.5,69.3,39.5z M69.3,32.1
			c-1.1,0-1.9,0.8-1.9,1.8s0.8,1.8,1.9,1.8c0.9,0,1.9-0.8,1.9-1.8C71.2,32.9,70.4,32.1,69.3,32.1z"/>
			<path d="M69.2,30.8h-3.8v-6c0-0.1,0-0.4,0-0.7l1.9,0.5l1.9,0.2L69.2,30.8L69.2,30.8z"/>
			<path d="M73.3,30.8h-3.8v-6l2.8-2.5c0.6,0.7,0.9,1.7,0.9,2.5V30.8z"/>
			<path d="M66.2,37.9h-6c-2.3,0-4-1.8-4-4s1.8-4,4-4h6v3.8h-6c-0.1,0-0.2,0.1-0.2,0.2c0,0.1,0.1,0.2,0.2,0.2h6V37.9z"/>
			<path d="M73.3,36.9h-3.8v5.7h3.8V36.9z"/>
			<path d="M69.2,36.9h-3.8v5.7h3.8V36.9z"/>
			<path d="M78.4,37.9h-6v-3.8h6c0.1,0,0.2-0.1,0.2-0.2c0-0.1-0.1-0.2-0.2-0.2h-6v-3.8h6c2.3,0,4,1.8,4,4S80.7,37.9,78.4,37.9z"/>
			<path d="M30.6,39.5c-3.1,0-5.7-2.5-5.7-5.6c0-3.1,2.5-5.6,5.7-5.6s5.7,2.5,5.7,5.6C36.3,37,33.8,39.5,30.6,39.5z M30.6,32.1
			c-1.1,0-1.9,0.8-1.9,1.8s0.8,1.8,1.9,1.8c1.1,0,1.9-0.8,1.9-1.8C32.5,32.9,31.6,32.1,30.6,32.1z"/>
			<path d="M34.6,30.8h-3.8v-6c0-0.2-0.4-0.2-0.4,0v6h-3.9v-6c0-2.3,1.8-4,4-4s4,1.8,4,4V30.8L34.6,30.8z"/>
			<path d="M39.7,37.9h-6v-3.8h6c0.1,0,0.2-0.1,0.2-0.2s-0.1-0.2-0.2-0.2h-6v-3.8h6c2.3,0,4,1.8,4,4S41.9,37.9,39.7,37.9z"/>
			<path d="M30.3,36.9h-3.8v5.7h3.8V36.9z"/>
			<path d="M34.6,36.9h-3.8v5.7h3.8V36.9z"/>
			<path d="M27.5,37.9h-6c-2.3,0-4-1.8-4-4s1.8-4,4-4h6v3.8h-6c-0.1,0-0.2,0.1-0.2,0.2s0.1,0.2,0.2,0.2h6V37.9z"/>
			<path d="M58.4,97.2H41.5V86.1h3.8v7.3h9.4v-7.3h3.8V97.2z"/>
		</g>
	</g>
</svg>
