<svg xmlns="http://www.w3.org/2000/svg"
	xmlns:xlink="http://www.w3.org/1999/xlink" x="0px" y="0px" viewBox="0 0 100 100" style="enable-background:new 0 0 100 100;" xml:space="preserve">
	<g>
		<g>
			<path d="M80.6,63.9c-0.8,0-1.5-0.7-1.5-1.5v0c0-0.8,0.7-1.5,1.5-1.5s1.5,0.7,1.5,1.5S81.5,63.9,80.6,63.9z"/>
		</g>
		<g>
			<path d="M38,49.4c-0.7,0-1.3-0.5-1.5-1.2c-0.2-0.8,0.3-1.6,1.1-1.8c9.6-2.3,20-14.7,20-29.6c0-2.2,1.6-3.9,4.1-4.2
			c3.1-0.4,7.1,1.5,8.5,6.6c2.2,7.7-0.6,14.3-3.3,20.7c0,0.1-0.1,0.2-0.1,0.3h11.5c0.8,0,1.5,0.7,1.5,1.5s-0.7,1.5-1.5,1.5H64.6
			c-0.5,0-1-0.2-1.2-0.7c-0.3-0.4-0.3-0.9-0.1-1.4c0.3-0.8,0.6-1.6,1-2.4c2.5-5.9,5-12.1,3.1-18.7c-1-3.4-3.4-4.7-5.2-4.4
			c-0.3,0-1.5,0.3-1.5,1.3c0,16.8-11.6,30-22.3,32.5C38.3,49.3,38.1,49.4,38,49.4z"/>
		</g>
		<g>
			<path d="M78.5,54.1h-1.4c-0.8,0-1.5-0.7-1.5-1.5s0.7-1.5,1.5-1.5h1.4c2.2,0,4-1.8,4-4s-1.8-4-4-4c-0.8,0-1.5-0.7-1.5-1.5
			s0.7-1.5,1.5-1.5c3.9,0,7,3.1,7,7S82.3,54.1,78.5,54.1z"/>
		</g>
		<g>
			<path d="M77.1,65.2h-1.4c-0.8,0-1.5-0.7-1.5-1.5s0.7-1.5,1.5-1.5h1.4c2.2,0,4-1.8,4-4s-1.8-4-4-4c-0.8,0-1.5-0.7-1.5-1.5
			s0.7-1.5,1.5-1.5c3.9,0,7,3.1,7,7S80.9,65.2,77.1,65.2z"/>
		</g>
		<g>
			<path d="M74.3,76.2h-1.4c-0.8,0-1.5-0.7-1.5-1.5s0.7-1.5,1.5-1.5h1.4c2.2,0,4-1.8,4-4s-1.8-4-4-4c-0.8,0-1.5-0.7-1.5-1.5
			s0.7-1.5,1.5-1.5c3.9,0,7,3.1,7,7S78.2,76.2,74.3,76.2z"/>
		</g>
		<g>
			<path d="M77.1,65.2h-2.8c-0.8,0-1.5-0.7-1.5-1.5s0.7-1.5,1.5-1.5h2.8c2.2,0,4-1.8,4-4s-1.8-4-4-4c-0.8,0-1.5-0.7-1.5-1.5
			s0.7-1.5,1.5-1.5c3.9,0,7,3.1,7,7S80.9,65.2,77.1,65.2z"/>
		</g>
		<g>
			<path d="M72.9,85.9H53.6c-5.8,0-15.9-5-16.3-5.2c-0.7-0.4-1-1.3-0.7-2c0.4-0.7,1.3-1,2-0.7c0.1,0,9.8,4.9,14.9,4.9h19.3
			c0.8,0,1.5,0.7,1.5,1.5S73.7,85.9,72.9,85.9z"/>
		</g>
		<g>
			<path d="M72.2,85.9h-2.1c-0.8,0-1.5-0.7-1.5-1.5s0.7-1.5,1.5-1.5h2.1c1.8,0,3.3-1.5,3.3-3.3s-1.5-3.3-3.3-3.3h-0.7
			c-0.8,0-1.5-0.7-1.5-1.5s0.7-1.5,1.5-1.5h0.7c3.5,0,6.3,2.8,6.3,6.3S75.7,85.9,72.2,85.9z"/>
		</g>
		<g>
			<path d="M31.5,81.8c-1.6,0-2.9-1.3-2.9-2.9c0-1.6,1.3-2.9,2.9-2.9c1.6,0,2.9,1.3,2.9,2.9C34.4,80.5,33.1,81.8,31.5,81.8z
			 M31.5,78.8c-0.1,0-0.1,0.1-0.1,0.1c0,0.1,0.2,0.1,0.2,0C31.7,78.8,31.6,78.8,31.5,78.8z"/>
		</g>
		<g>
			<path d="M34.9,87.1H19.1c-2.6,0-4.6-2.1-4.6-4.6V44.7c0-2.6,2.1-4.6,4.6-4.6h15.7c2.6,0,4.6,2.1,4.6,4.6v37.8
			C39.5,85,37.4,87.1,34.9,87.1z M19.1,43.1c-0.9,0-1.6,0.7-1.6,1.6v37.8c0,0.9,0.7,1.6,1.6,1.6h15.7c0.9,0,1.6-0.7,1.6-1.6V44.7
			c0-0.9-0.7-1.6-1.6-1.6H19.1z"/>
		</g>
	</g>
</svg>
