<svg xmlns="http://www.w3.org/2000/svg"
	xmlns:xlink="http://www.w3.org/1999/xlink" x="0px" y="0px" viewBox="0 0 100 100" style="enable-background:new 0 0 100 100;" xml:space="preserve">
	<g>
		<g>
			<path d="M77.7,86.9H22.2c-0.8,0-1.5-0.7-1.5-1.5V51.5c0-0.8,0.7-1.5,1.5-1.5s1.5,0.7,1.5,1.5v32.4h52.5V51.5
			c0-0.8,0.7-1.5,1.5-1.5s1.5,0.7,1.5,1.5v33.9C79.2,86.2,78.5,86.9,77.7,86.9z"/>
		</g>
		<g>
			<path d="M83.8,49.9c-0.8,0-1.5-0.7-1.5-1.5V46L49.9,16.5L17.5,46v2.4c0,0.8-0.7,1.5-1.5,1.5s-1.5-0.7-1.5-1.5v-3.1
			c0-0.4,0.2-0.8,0.5-1.1l33.9-30.8c0.6-0.5,1.4-0.5,2,0l33.9,30.8c0.3,0.3,0.5,0.7,0.5,1.1v3.1C85.3,49.2,84.7,49.9,83.8,49.9z"/>
		</g>
		<g>
			<path d="M59.2,71.5H40.7c-0.8,0-1.5-0.7-1.5-1.5V48.4c0-0.8,0.7-1.5,1.5-1.5h18.5c0.8,0,1.5,0.7,1.5,1.5V70
			C60.7,70.8,60,71.5,59.2,71.5z M42.2,68.5h15.5V49.9H42.2V68.5z"/>
		</g>
	</g>
</svg>
