<svg xmlns="http://www.w3.org/2000/svg" xmlns:xlink="http://www.w3.org/1999/xlink" x="0px" y="0px" viewBox="0 0 120 120" style="enable-background:new 0 0 120 120;" xml:space="preserve"><path d="M46.4,55.1C46.4,55.1,46.4,55.1,46.4,55.1L46.4,55.1C46.5,55.2,46.5,55.2,46.4,55.1 C46.5,55.2,46.5,55.2,46.4,55.1l4.5,4.1c5.2,4.7,13.1,4.7,18.2,0l4.2-3.8l0.5-0.5l38.4-35.1c0.3-0.3,0.1-0.7-0.3-0.7H8 c-0.4,0-0.5,0.5-0.3,0.7L46.4,55.1C46.4,55.1,46.4,55.1,46.4,55.1C46.4,55.1,46.4,55.1,46.4,55.1C46.4,55.1,46.4,55.1,46.4,55.1z"></path><path d="M1.7,25.8C1.4,25.5,1,25.7,1,26.1v67.8c0,0.4,0.4,0.5,0.7,0.3l23.4-23.8c6.6-6.8,6.3-17.7-0.7-24L1.7,25.8z"></path><path d="M62.5,74.2C62.5,74.2,62.5,74.2,62.5,74.2c-0.7,0.7-1.6,1-2.5,1c-0.9,0-1.8-0.3-2.5-1l-9-8.5 c-2.4-2.3-6.3-2.2-8.5,0.3L7.7,100.1c-0.3,0.3-0.1,0.7,0.3,0.7H112c0.4,0,0.6-0.5,0.3-0.7L80.1,65.9c-2.3-2.4-6.1-2.5-8.5-0.3 L62.5,74.2C62.5,74.2,62.5,74.2,62.5,74.2z"></path><path d="M118.9,25.2C118.9,25.2,118.9,25.2,118.9,25.2L93.1,48.6c-5.7,5.1-5.9,13.9-0.6,19.4l25.8,26.2 c0.3,0.3,0.7,0.1,0.7-0.3V26.1C119,25.8,119,25.5,118.9,25.2C118.9,25.2,118.9,25.2,118.9,25.2z"></path></svg>