<svg xmlns="http://www.w3.org/2000/svg" xmlns:xlink="http://www.w3.org/1999/xlink" x="0px" y="0px" viewBox="0 0 120 120" style="enable-background:new 0 0 120 120;" xml:space="preserve"><path d="M115.8,108c4.8-4.8,4.2-12.8-1.4-16.8l-19.1-14c-4.4-3.3-10.6-2.8-14.4,1l-3.3,3.3c-0.4,0.4-0.8,0.7-1.2,1 c-1.6,1.6-3.9,2.1-6,1.3c-16.6-6.3-28-17.8-34.4-34.4c-0.8-2.1-0.3-4.4,1.3-6l0.6-0.6c0.1-0.2,0.3-0.3,0.4-0.5l3.3-3.3 c3.9-3.9,4.3-10,1.1-14.4l-14-19.1c-4-5.5-12-6.2-16.8-1.4L8.6,7.6c-3.9,3.9-6.4,8.8-7.2,14.2c-0.1,0.7-0.2,1.5-0.2,2.2 C0.2,37.2,5,51.2,14.7,66.2c0.3,0.5,0.7,1,1,1.5c9.7,14.5,22.2,26.9,36.6,36.6c0.5,0.3,1,0.6,1.4,0.9c15,9.7,29.1,14.5,42.2,13.6 c0.7,0,1.5-0.1,2.2-0.2c5.4-0.8,10.3-3.4,14.2-7.2L115.8,108L115.8,108z"></path><path d="M119,57.2c-1.1-14.5-7.4-28.2-17.7-38.5C91,8.4,77.3,2.1,62.8,1c-2.2-0.2-4.1,1.5-4.3,3.7 C58.3,6.9,60,8.8,62.2,9c12.6,0.9,24.5,6.4,33.5,15.3c9,9,14.4,20.8,15.3,33.5c0.2,2.1,1.9,3.7,4,3.7c0.1,0,0.2,0,0.3,0 C117.5,61.3,119.2,59.4,119,57.2L119,57.2z"></path><path d="M86.4,36.6C80.1,30.3,72,26.4,63.2,25.2c-2.3-0.3-4.4,1.3-4.6,3.6c-0.3,2.3,1.3,4.4,3.6,4.6 c7,0.9,13.4,4,18.4,9c5,5,8.1,11.4,9,18.4c0.3,2.1,2.1,3.6,4.1,3.6c0.2,0,0.4,0,0.5,0c2.3-0.3,3.9-2.4,3.6-4.6 C96.7,51,92.7,43,86.4,36.6L86.4,36.6z"></path></svg>